M48
; DRILL file {KiCad 8.0.0-rc2} date 2024-05-23T17:13:37+0530
; FORMAT={-:-/ absolute / inch / decimal}
; #@! TF.CreationDate,2024-05-23T17:13:37+05:30
; #@! TF.GenerationSoftware,Kicad,Pcbnew,8.0.0-rc2
; #@! TF.FileFunction,Plated,1,2,PTH
FMAT,2
INCH
; #@! TA.AperFunction,Plated,PTH,ComponentDrill
T1C0.0295
; #@! TA.AperFunction,Plated,PTH,ComponentDrill
T2C0.0315
; #@! TA.AperFunction,Plated,PTH,ComponentDrill
T3C0.0354
; #@! TA.AperFunction,Plated,PTH,ComponentDrill
T4C0.0374
; #@! TA.AperFunction,Plated,PTH,ComponentDrill
T5C0.0394
; #@! TA.AperFunction,Plated,PTH,ComponentDrill
T6C0.0433
; #@! TA.AperFunction,Plated,PTH,ComponentDrill
T7C0.0512
%
G90
G05
T1
X6.5055Y-4.3772
X6.5055Y-4.4272
X6.5055Y-4.4772
X7.1311Y-5.3862
X7.1811Y-5.3862
X7.2311Y-5.3862
T2
X5.5466Y-4.4141
X5.5466Y-4.5125
X5.8406Y-4.9437
X5.8406Y-5.3437
X5.9272Y-4.3936
X5.9272Y-4.5432
X6.0264Y-4.7756
X6.0728Y-4.9016
X6.0728Y-5.0016
X6.0728Y-5.1016
X6.0728Y-5.2016
X6.2264Y-4.2429
X6.2264Y-4.6429
X6.3728Y-4.9016
X6.3728Y-5.0016
X6.3728Y-5.1016
X6.3728Y-5.2016
X6.4264Y-4.7756
X6.5283Y-5.6102
X6.5323Y-5.9232
X6.5362Y-5.7933
X6.6051Y-5.4528
X6.6937Y-4.2992
X6.9283Y-5.6102
X6.9323Y-5.9232
X6.9362Y-5.7933
X7.0051Y-5.4528
X7.0937Y-4.2992
X7.437Y-5.4161
X7.437Y-5.8161
X7.6161Y-4.3346
X7.6161Y-4.4134
T3
X5.8002Y-4.7894
X5.9002Y-4.7894
X7.3045Y-4.372
X7.4045Y-4.372
T4
X7.6831Y-5.374
X7.6831Y-5.4724
X7.6831Y-5.5709
X7.6831Y-5.6693
X7.6831Y-5.7677
T5
X5.3051Y-4.4035
X5.3051Y-4.6004
X6.063Y-5.3661
X6.2598Y-5.3661
X6.7697Y-4.6713
X6.7697Y-5.1437
T6
X5.2665Y-4.7894
X5.2685Y-4.998
X5.2744Y-5.1713
X5.2744Y-5.372
X5.6665Y-4.7894
X5.6685Y-4.998
X5.6744Y-5.1713
X5.6744Y-5.372
X6.0106Y-5.5335
X6.0835Y-5.8366
X6.1835Y-5.8366
X6.2835Y-5.8366
X6.4106Y-5.5335
X6.6878Y-4.4409
X7.0878Y-4.4409
T7
X6.6929Y-4.9055
X7.25Y-5.1437
X7.252Y-4.6693
X7.6673Y-4.7116
X7.6673Y-4.9116
X7.6673Y-5.1116
T5
G00X5.5079Y-5.6611
M15
G01X5.5079Y-5.7399
M16
G05
G00X5.5866Y-5.8855
M15
G01X5.6654Y-5.8855
M16
G05
G00X5.7441Y-5.6611
M15
G01X5.7441Y-5.7399
M16
G05
M30
