%TF.GenerationSoftware,KiCad,Pcbnew,8.0.0-rc2*%
%TF.CreationDate,2024-05-24T11:46:06+05:30*%
%TF.ProjectId,IR based Relay controll board_v1,49522062-6173-4656-9420-52656c617920,rev?*%
%TF.SameCoordinates,Original*%
%TF.FileFunction,Legend,Top*%
%TF.FilePolarity,Positive*%
%FSLAX46Y46*%
G04 Gerber Fmt 4.6, Leading zero omitted, Abs format (unit mm)*
G04 Created by KiCad (PCBNEW 8.0.0-rc2) date 2024-05-24 11:46:06*
%MOMM*%
%LPD*%
G01*
G04 APERTURE LIST*
%ADD10C,0.150000*%
%ADD11C,0.120000*%
G04 APERTURE END LIST*
D10*
X169608095Y-111154819D02*
X169608095Y-110154819D01*
X170179523Y-111154819D02*
X169750952Y-110583390D01*
X170179523Y-110154819D02*
X169608095Y-110726247D01*
X152408095Y-138904819D02*
X152408095Y-137904819D01*
X152979523Y-138904819D02*
X152550952Y-138333390D01*
X152979523Y-137904819D02*
X152408095Y-138476247D01*
X133708095Y-134804819D02*
X133708095Y-133804819D01*
X134279523Y-134804819D02*
X133850952Y-134233390D01*
X134279523Y-133804819D02*
X133708095Y-134376247D01*
X137861905Y-152354819D02*
X137861905Y-151354819D01*
X137861905Y-151354819D02*
X138242857Y-151354819D01*
X138242857Y-151354819D02*
X138338095Y-151402438D01*
X138338095Y-151402438D02*
X138385714Y-151450057D01*
X138385714Y-151450057D02*
X138433333Y-151545295D01*
X138433333Y-151545295D02*
X138433333Y-151688152D01*
X138433333Y-151688152D02*
X138385714Y-151783390D01*
X138385714Y-151783390D02*
X138338095Y-151831009D01*
X138338095Y-151831009D02*
X138242857Y-151878628D01*
X138242857Y-151878628D02*
X137861905Y-151878628D01*
X139385714Y-152354819D02*
X138814286Y-152354819D01*
X139100000Y-152354819D02*
X139100000Y-151354819D01*
X139100000Y-151354819D02*
X139004762Y-151497676D01*
X139004762Y-151497676D02*
X138909524Y-151592914D01*
X138909524Y-151592914D02*
X138814286Y-151640533D01*
X192966666Y-107154819D02*
X192966666Y-107869104D01*
X192966666Y-107869104D02*
X192919047Y-108011961D01*
X192919047Y-108011961D02*
X192823809Y-108107200D01*
X192823809Y-108107200D02*
X192680952Y-108154819D01*
X192680952Y-108154819D02*
X192585714Y-108154819D01*
X193347619Y-107154819D02*
X193966666Y-107154819D01*
X193966666Y-107154819D02*
X193633333Y-107535771D01*
X193633333Y-107535771D02*
X193776190Y-107535771D01*
X193776190Y-107535771D02*
X193871428Y-107583390D01*
X193871428Y-107583390D02*
X193919047Y-107631009D01*
X193919047Y-107631009D02*
X193966666Y-107726247D01*
X193966666Y-107726247D02*
X193966666Y-107964342D01*
X193966666Y-107964342D02*
X193919047Y-108059580D01*
X193919047Y-108059580D02*
X193871428Y-108107200D01*
X193871428Y-108107200D02*
X193776190Y-108154819D01*
X193776190Y-108154819D02*
X193490476Y-108154819D01*
X193490476Y-108154819D02*
X193395238Y-108107200D01*
X193395238Y-108107200D02*
X193347619Y-108059580D01*
X156298095Y-151974819D02*
X156298095Y-152784342D01*
X156298095Y-152784342D02*
X156345714Y-152879580D01*
X156345714Y-152879580D02*
X156393333Y-152927200D01*
X156393333Y-152927200D02*
X156488571Y-152974819D01*
X156488571Y-152974819D02*
X156679047Y-152974819D01*
X156679047Y-152974819D02*
X156774285Y-152927200D01*
X156774285Y-152927200D02*
X156821904Y-152879580D01*
X156821904Y-152879580D02*
X156869523Y-152784342D01*
X156869523Y-152784342D02*
X156869523Y-151974819D01*
X157298095Y-152070057D02*
X157345714Y-152022438D01*
X157345714Y-152022438D02*
X157440952Y-151974819D01*
X157440952Y-151974819D02*
X157679047Y-151974819D01*
X157679047Y-151974819D02*
X157774285Y-152022438D01*
X157774285Y-152022438D02*
X157821904Y-152070057D01*
X157821904Y-152070057D02*
X157869523Y-152165295D01*
X157869523Y-152165295D02*
X157869523Y-152260533D01*
X157869523Y-152260533D02*
X157821904Y-152403390D01*
X157821904Y-152403390D02*
X157250476Y-152974819D01*
X157250476Y-152974819D02*
X157869523Y-152974819D01*
X143868095Y-133904819D02*
X143868095Y-132904819D01*
X144439523Y-133904819D02*
X144010952Y-133333390D01*
X144439523Y-132904819D02*
X143868095Y-133476247D01*
X197404819Y-141833333D02*
X198119104Y-141833333D01*
X198119104Y-141833333D02*
X198261961Y-141880952D01*
X198261961Y-141880952D02*
X198357200Y-141976190D01*
X198357200Y-141976190D02*
X198404819Y-142119047D01*
X198404819Y-142119047D02*
X198404819Y-142214285D01*
X198404819Y-140833333D02*
X198404819Y-141404761D01*
X198404819Y-141119047D02*
X197404819Y-141119047D01*
X197404819Y-141119047D02*
X197547676Y-141214285D01*
X197547676Y-141214285D02*
X197642914Y-141309523D01*
X197642914Y-141309523D02*
X197690533Y-141404761D01*
X143718095Y-129504819D02*
X143718095Y-128504819D01*
X144289523Y-129504819D02*
X143860952Y-128933390D01*
X144289523Y-128504819D02*
X143718095Y-129076247D01*
X133508095Y-120004819D02*
X133508095Y-119004819D01*
X134079523Y-120004819D02*
X133650952Y-119433390D01*
X134079523Y-119004819D02*
X133508095Y-119576247D01*
D11*
%TO.C,C2*%
X149510000Y-114378349D02*
X146565000Y-114378349D01*
X149510000Y-114418349D02*
X146574000Y-114418349D01*
X149510000Y-114458349D02*
X146583000Y-114458349D01*
X149510000Y-114498349D02*
X146593000Y-114498349D01*
X149510000Y-114538349D02*
X146603000Y-114538349D01*
X149510000Y-114578349D02*
X146614000Y-114578349D01*
X149510000Y-114618349D02*
X146625000Y-114618349D01*
X149510000Y-114658349D02*
X146636000Y-114658349D01*
X149510000Y-114698349D02*
X146648000Y-114698349D01*
X149510000Y-114738349D02*
X146661000Y-114738349D01*
X149510000Y-114778349D02*
X146673000Y-114778349D01*
X149510000Y-114818349D02*
X146687000Y-114818349D01*
X149510000Y-114858349D02*
X146700000Y-114858349D01*
X149510000Y-114898349D02*
X146715000Y-114898349D01*
X149510000Y-114938349D02*
X146729000Y-114938349D01*
X149510000Y-114978349D02*
X146745000Y-114978349D01*
X149510000Y-115018349D02*
X146760000Y-115018349D01*
X149510000Y-115058349D02*
X146776000Y-115058349D01*
X149510000Y-115098349D02*
X146793000Y-115098349D01*
X149510000Y-115138349D02*
X146810000Y-115138349D01*
X149510000Y-115178349D02*
X146828000Y-115178349D01*
X149510000Y-115218349D02*
X146846000Y-115218349D01*
X149510000Y-115258349D02*
X146864000Y-115258349D01*
X149510000Y-115298349D02*
X146884000Y-115298349D01*
X149510000Y-115338349D02*
X146903000Y-115338349D01*
X149510000Y-115378349D02*
X146923000Y-115378349D01*
X149510000Y-115418349D02*
X146944000Y-115418349D01*
X149510000Y-115458349D02*
X146966000Y-115458349D01*
X149510000Y-115498349D02*
X146988000Y-115498349D01*
X149510000Y-115538349D02*
X147010000Y-115538349D01*
X149510000Y-115578349D02*
X147033000Y-115578349D01*
X149510000Y-115618349D02*
X147057000Y-115618349D01*
X149510000Y-115658349D02*
X147081000Y-115658349D01*
X149510000Y-115698349D02*
X147106000Y-115698349D01*
X149510000Y-115738349D02*
X147132000Y-115738349D01*
X149510000Y-115778349D02*
X147158000Y-115778349D01*
X149510000Y-115818349D02*
X147185000Y-115818349D01*
X149510000Y-115858349D02*
X147212000Y-115858349D01*
X149510000Y-115898349D02*
X147241000Y-115898349D01*
X149510000Y-115938349D02*
X147270000Y-115938349D01*
X149510000Y-115978349D02*
X147300000Y-115978349D01*
X149510000Y-116018349D02*
X147330000Y-116018349D01*
X149510000Y-116058349D02*
X147361000Y-116058349D01*
X149510000Y-116098349D02*
X147394000Y-116098349D01*
X149510000Y-116138349D02*
X147426000Y-116138349D01*
X149510000Y-116178349D02*
X147460000Y-116178349D01*
X149510000Y-116218349D02*
X147495000Y-116218349D01*
X149510000Y-116258349D02*
X147531000Y-116258349D01*
X149510000Y-116298349D02*
X147567000Y-116298349D01*
X149510000Y-116338349D02*
X147605000Y-116338349D01*
X149510000Y-116378349D02*
X147643000Y-116378349D01*
X149510000Y-116418349D02*
X147683000Y-116418349D01*
X151083000Y-117578349D02*
X150017000Y-117578349D01*
X151318000Y-117538349D02*
X149782000Y-117538349D01*
X151498000Y-117498349D02*
X149602000Y-117498349D01*
X151648000Y-117458349D02*
X149452000Y-117458349D01*
X151779000Y-117418349D02*
X149321000Y-117418349D01*
X151896000Y-117378349D02*
X149204000Y-117378349D01*
X152003000Y-117338349D02*
X149097000Y-117338349D01*
X152102000Y-117298349D02*
X148998000Y-117298349D01*
X152195000Y-117258349D02*
X148905000Y-117258349D01*
X152281000Y-117218349D02*
X148819000Y-117218349D01*
X152363000Y-117178349D02*
X148737000Y-117178349D01*
X152440000Y-117138349D02*
X148660000Y-117138349D01*
X152514000Y-117098349D02*
X148586000Y-117098349D01*
X152584000Y-117058349D02*
X148516000Y-117058349D01*
X152652000Y-117018349D02*
X148448000Y-117018349D01*
X152716000Y-116978349D02*
X148384000Y-116978349D01*
X152778000Y-116938349D02*
X148322000Y-116938349D01*
X152837000Y-116898349D02*
X148263000Y-116898349D01*
X152865000Y-109087651D02*
X152865000Y-109887651D01*
X152895000Y-116858349D02*
X148205000Y-116858349D01*
X152950000Y-116818349D02*
X148150000Y-116818349D01*
X153004000Y-116778349D02*
X148096000Y-116778349D01*
X153055000Y-116738349D02*
X148045000Y-116738349D01*
X153106000Y-116698349D02*
X147994000Y-116698349D01*
X153154000Y-116658349D02*
X147946000Y-116658349D01*
X153201000Y-116618349D02*
X147899000Y-116618349D01*
X153247000Y-116578349D02*
X147853000Y-116578349D01*
X153265000Y-109487651D02*
X152465000Y-109487651D01*
X153291000Y-116538349D02*
X147809000Y-116538349D01*
X153334000Y-116498349D02*
X147766000Y-116498349D01*
X153376000Y-116458349D02*
X147724000Y-116458349D01*
X153417000Y-116418349D02*
X151590000Y-116418349D01*
X153457000Y-116378349D02*
X151590000Y-116378349D01*
X153495000Y-116338349D02*
X151590000Y-116338349D01*
X153533000Y-116298349D02*
X151590000Y-116298349D01*
X153569000Y-116258349D02*
X151590000Y-116258349D01*
X153605000Y-116218349D02*
X151590000Y-116218349D01*
X153640000Y-116178349D02*
X151590000Y-116178349D01*
X153674000Y-116138349D02*
X151590000Y-116138349D01*
X153706000Y-116098349D02*
X151590000Y-116098349D01*
X153739000Y-116058349D02*
X151590000Y-116058349D01*
X153770000Y-116018349D02*
X151590000Y-116018349D01*
X153800000Y-115978349D02*
X151590000Y-115978349D01*
X153830000Y-115938349D02*
X151590000Y-115938349D01*
X153859000Y-115898349D02*
X151590000Y-115898349D01*
X153888000Y-115858349D02*
X151590000Y-115858349D01*
X153915000Y-115818349D02*
X151590000Y-115818349D01*
X153942000Y-115778349D02*
X151590000Y-115778349D01*
X153968000Y-115738349D02*
X151590000Y-115738349D01*
X153994000Y-115698349D02*
X151590000Y-115698349D01*
X154019000Y-115658349D02*
X151590000Y-115658349D01*
X154043000Y-115618349D02*
X151590000Y-115618349D01*
X154067000Y-115578349D02*
X151590000Y-115578349D01*
X154090000Y-115538349D02*
X151590000Y-115538349D01*
X154112000Y-115498349D02*
X151590000Y-115498349D01*
X154134000Y-115458349D02*
X151590000Y-115458349D01*
X154156000Y-115418349D02*
X151590000Y-115418349D01*
X154177000Y-115378349D02*
X151590000Y-115378349D01*
X154197000Y-115338349D02*
X151590000Y-115338349D01*
X154216000Y-115298349D02*
X151590000Y-115298349D01*
X154236000Y-115258349D02*
X151590000Y-115258349D01*
X154254000Y-115218349D02*
X151590000Y-115218349D01*
X154272000Y-115178349D02*
X151590000Y-115178349D01*
X154290000Y-115138349D02*
X151590000Y-115138349D01*
X154307000Y-115098349D02*
X151590000Y-115098349D01*
X154324000Y-115058349D02*
X151590000Y-115058349D01*
X154340000Y-115018349D02*
X151590000Y-115018349D01*
X154355000Y-114978349D02*
X151590000Y-114978349D01*
X154371000Y-114938349D02*
X151590000Y-114938349D01*
X154385000Y-114898349D02*
X151590000Y-114898349D01*
X154400000Y-114858349D02*
X151590000Y-114858349D01*
X154413000Y-114818349D02*
X151590000Y-114818349D01*
X154427000Y-114778349D02*
X151590000Y-114778349D01*
X154439000Y-114738349D02*
X151590000Y-114738349D01*
X154452000Y-114698349D02*
X151590000Y-114698349D01*
X154464000Y-114658349D02*
X151590000Y-114658349D01*
X154475000Y-114618349D02*
X151590000Y-114618349D01*
X154486000Y-114578349D02*
X151590000Y-114578349D01*
X154497000Y-114538349D02*
X151590000Y-114538349D01*
X154507000Y-114498349D02*
X151590000Y-114498349D01*
X154517000Y-114458349D02*
X151590000Y-114458349D01*
X154526000Y-114418349D02*
X151590000Y-114418349D01*
X154535000Y-114378349D02*
X151590000Y-114378349D01*
X154544000Y-114338349D02*
X146556000Y-114338349D01*
X154552000Y-114298349D02*
X146548000Y-114298349D01*
X154560000Y-114258349D02*
X146540000Y-114258349D01*
X154567000Y-114218349D02*
X146533000Y-114218349D01*
X154574000Y-114177349D02*
X146526000Y-114177349D01*
X154580000Y-114137349D02*
X146520000Y-114137349D01*
X154587000Y-114097349D02*
X146513000Y-114097349D01*
X154592000Y-114057349D02*
X146508000Y-114057349D01*
X154598000Y-114017349D02*
X146502000Y-114017349D01*
X154602000Y-113977349D02*
X146498000Y-113977349D01*
X154607000Y-113937349D02*
X146493000Y-113937349D01*
X154611000Y-113897349D02*
X146489000Y-113897349D01*
X154615000Y-113857349D02*
X146485000Y-113857349D01*
X154618000Y-113817349D02*
X146482000Y-113817349D01*
X154621000Y-113777349D02*
X146479000Y-113777349D01*
X154624000Y-113737349D02*
X146476000Y-113737349D01*
X154626000Y-113697349D02*
X146474000Y-113697349D01*
X154627000Y-113657349D02*
X146473000Y-113657349D01*
X154629000Y-113617349D02*
X146471000Y-113617349D01*
X154630000Y-113497349D02*
X146470000Y-113497349D01*
X154630000Y-113537349D02*
X146470000Y-113537349D01*
X154630000Y-113577349D02*
X146470000Y-113577349D01*
X154670000Y-113497349D02*
G75*
G02*
X146430000Y-113497349I-4120000J0D01*
G01*
X146430000Y-113497349D02*
G75*
G02*
X154670000Y-113497349I4120000J0D01*
G01*
%TO.C,R2*%
X146980000Y-127380000D02*
X146980000Y-133920000D01*
X146980000Y-133920000D02*
X149720000Y-133920000D01*
X148350000Y-126610000D02*
X148350000Y-127380000D01*
X148350000Y-134690000D02*
X148350000Y-133920000D01*
X149720000Y-127380000D02*
X146980000Y-127380000D01*
X149720000Y-133920000D02*
X149720000Y-127380000D01*
%TO.C,C3*%
X139842379Y-113607621D02*
X137660379Y-113607621D01*
X139842379Y-113647621D02*
X137664379Y-113647621D01*
X139842379Y-113687621D02*
X137667379Y-113687621D01*
X139842379Y-113727621D02*
X137671379Y-113727621D01*
X139842379Y-113767621D02*
X137676379Y-113767621D01*
X139842379Y-113807621D02*
X137681379Y-113807621D01*
X139842379Y-113847621D02*
X137687379Y-113847621D01*
X139842379Y-113887621D02*
X137693379Y-113887621D01*
X139842379Y-113927621D02*
X137700379Y-113927621D01*
X139842379Y-113967621D02*
X137707379Y-113967621D01*
X139842379Y-114007621D02*
X137715379Y-114007621D01*
X139842379Y-114047621D02*
X137723379Y-114047621D01*
X139842379Y-114088621D02*
X137732379Y-114088621D01*
X139842379Y-114128621D02*
X137741379Y-114128621D01*
X139842379Y-114168621D02*
X137751379Y-114168621D01*
X139842379Y-114208621D02*
X137761379Y-114208621D01*
X139842379Y-114248621D02*
X137772379Y-114248621D01*
X139842379Y-114288621D02*
X137784379Y-114288621D01*
X139842379Y-114328621D02*
X137796379Y-114328621D01*
X139842379Y-114368621D02*
X137808379Y-114368621D01*
X139842379Y-114408621D02*
X137821379Y-114408621D01*
X139842379Y-114448621D02*
X137835379Y-114448621D01*
X139842379Y-114488621D02*
X137849379Y-114488621D01*
X139842379Y-114528621D02*
X137864379Y-114528621D01*
X139842379Y-114568621D02*
X137880379Y-114568621D01*
X139842379Y-114608621D02*
X137896379Y-114608621D01*
X139842379Y-114648621D02*
X137912379Y-114648621D01*
X139842379Y-114688621D02*
X137930379Y-114688621D01*
X139842379Y-114728621D02*
X137948379Y-114728621D01*
X139842379Y-114768621D02*
X137966379Y-114768621D01*
X139842379Y-114808621D02*
X137986379Y-114808621D01*
X139842379Y-114848621D02*
X138006379Y-114848621D01*
X139842379Y-114888621D02*
X138026379Y-114888621D01*
X139842379Y-114928621D02*
X138048379Y-114928621D01*
X139842379Y-114968621D02*
X138070379Y-114968621D01*
X139842379Y-115008621D02*
X138092379Y-115008621D01*
X139842379Y-115048621D02*
X138116379Y-115048621D01*
X139842379Y-115088621D02*
X138140379Y-115088621D01*
X139842379Y-115128621D02*
X138166379Y-115128621D01*
X139842379Y-115168621D02*
X138192379Y-115168621D01*
X139842379Y-115208621D02*
X138218379Y-115208621D01*
X139842379Y-115248621D02*
X138246379Y-115248621D01*
X139842379Y-115288621D02*
X138275379Y-115288621D01*
X139842379Y-115328621D02*
X138304379Y-115328621D01*
X139842379Y-115368621D02*
X138334379Y-115368621D01*
X139842379Y-115408621D02*
X138366379Y-115408621D01*
X139842379Y-115448621D02*
X138398379Y-115448621D01*
X139842379Y-115488621D02*
X138432379Y-115488621D01*
X139842379Y-115528621D02*
X138466379Y-115528621D01*
X139842379Y-115568621D02*
X138502379Y-115568621D01*
X139842379Y-115608621D02*
X138539379Y-115608621D01*
X139842379Y-115648621D02*
X138577379Y-115648621D01*
X141284379Y-116608621D02*
X140480379Y-116608621D01*
X141515379Y-116568621D02*
X140249379Y-116568621D01*
X141684379Y-116528621D02*
X140080379Y-116528621D01*
X141822379Y-116488621D02*
X139942379Y-116488621D01*
X141941379Y-116448621D02*
X139823379Y-116448621D01*
X142047379Y-116408621D02*
X139717379Y-116408621D01*
X142144379Y-116368621D02*
X139620379Y-116368621D01*
X142232379Y-116328621D02*
X139532379Y-116328621D01*
X142314379Y-116288621D02*
X139450379Y-116288621D01*
X142391379Y-116248621D02*
X139373379Y-116248621D01*
X142463379Y-116208621D02*
X139301379Y-116208621D01*
X142532379Y-116168621D02*
X139232379Y-116168621D01*
X142596379Y-116128621D02*
X139168379Y-116128621D01*
X142658379Y-116088621D02*
X139106379Y-116088621D01*
X142716379Y-116048621D02*
X139048379Y-116048621D01*
X142721379Y-109867380D02*
X142721379Y-110497380D01*
X142772379Y-116008621D02*
X138992379Y-116008621D01*
X142826379Y-115968621D02*
X138938379Y-115968621D01*
X142877379Y-115928621D02*
X138887379Y-115928621D01*
X142926379Y-115888621D02*
X138838379Y-115888621D01*
X142974379Y-115848621D02*
X138790379Y-115848621D01*
X143019379Y-115808621D02*
X138745379Y-115808621D01*
X143036379Y-110182380D02*
X142406379Y-110182380D01*
X143064379Y-115768621D02*
X138700379Y-115768621D01*
X143106379Y-115728621D02*
X138658379Y-115728621D01*
X143147379Y-115688621D02*
X138617379Y-115688621D01*
X143187379Y-115648621D02*
X141922379Y-115648621D01*
X143225379Y-115608621D02*
X141922379Y-115608621D01*
X143262379Y-115568621D02*
X141922379Y-115568621D01*
X143298379Y-115528621D02*
X141922379Y-115528621D01*
X143332379Y-115488621D02*
X141922379Y-115488621D01*
X143366379Y-115448621D02*
X141922379Y-115448621D01*
X143398379Y-115408621D02*
X141922379Y-115408621D01*
X143430379Y-115368621D02*
X141922379Y-115368621D01*
X143460379Y-115328621D02*
X141922379Y-115328621D01*
X143489379Y-115288621D02*
X141922379Y-115288621D01*
X143518379Y-115248621D02*
X141922379Y-115248621D01*
X143546379Y-115208621D02*
X141922379Y-115208621D01*
X143572379Y-115168621D02*
X141922379Y-115168621D01*
X143598379Y-115128621D02*
X141922379Y-115128621D01*
X143624379Y-115088621D02*
X141922379Y-115088621D01*
X143648379Y-115048621D02*
X141922379Y-115048621D01*
X143672379Y-115008621D02*
X141922379Y-115008621D01*
X143694379Y-114968621D02*
X141922379Y-114968621D01*
X143716379Y-114928621D02*
X141922379Y-114928621D01*
X143738379Y-114888621D02*
X141922379Y-114888621D01*
X143758379Y-114848621D02*
X141922379Y-114848621D01*
X143778379Y-114808621D02*
X141922379Y-114808621D01*
X143798379Y-114768621D02*
X141922379Y-114768621D01*
X143816379Y-114728621D02*
X141922379Y-114728621D01*
X143834379Y-114688621D02*
X141922379Y-114688621D01*
X143852379Y-114648621D02*
X141922379Y-114648621D01*
X143868379Y-114608621D02*
X141922379Y-114608621D01*
X143884379Y-114568621D02*
X141922379Y-114568621D01*
X143900379Y-114528621D02*
X141922379Y-114528621D01*
X143915379Y-114488621D02*
X141922379Y-114488621D01*
X143929379Y-114448621D02*
X141922379Y-114448621D01*
X143943379Y-114408621D02*
X141922379Y-114408621D01*
X143956379Y-114368621D02*
X141922379Y-114368621D01*
X143968379Y-114328621D02*
X141922379Y-114328621D01*
X143980379Y-114288621D02*
X141922379Y-114288621D01*
X143992379Y-114248621D02*
X141922379Y-114248621D01*
X144003379Y-114208621D02*
X141922379Y-114208621D01*
X144013379Y-114168621D02*
X141922379Y-114168621D01*
X144023379Y-114128621D02*
X141922379Y-114128621D01*
X144032379Y-114088621D02*
X141922379Y-114088621D01*
X144041379Y-114047621D02*
X141922379Y-114047621D01*
X144049379Y-114007621D02*
X141922379Y-114007621D01*
X144057379Y-113967621D02*
X141922379Y-113967621D01*
X144064379Y-113927621D02*
X141922379Y-113927621D01*
X144071379Y-113887621D02*
X141922379Y-113887621D01*
X144077379Y-113847621D02*
X141922379Y-113847621D01*
X144083379Y-113807621D02*
X141922379Y-113807621D01*
X144088379Y-113767621D02*
X141922379Y-113767621D01*
X144093379Y-113727621D02*
X141922379Y-113727621D01*
X144097379Y-113687621D02*
X141922379Y-113687621D01*
X144100379Y-113647621D02*
X141922379Y-113647621D01*
X144104379Y-113607621D02*
X141922379Y-113607621D01*
X144106379Y-113567621D02*
X137658379Y-113567621D01*
X144109379Y-113527621D02*
X137655379Y-113527621D01*
X144110379Y-113487621D02*
X137654379Y-113487621D01*
X144112379Y-113367621D02*
X137652379Y-113367621D01*
X144112379Y-113407621D02*
X137652379Y-113407621D01*
X144112379Y-113447621D02*
X137652379Y-113447621D01*
X144152379Y-113367621D02*
G75*
G02*
X137612379Y-113367621I-3270000J0D01*
G01*
X137612379Y-113367621D02*
G75*
G02*
X144152379Y-113367621I3270000J0D01*
G01*
%TO.C,D6*%
X171210000Y-112800000D02*
X172230000Y-112800000D01*
X172230000Y-111330000D02*
X172230000Y-114270000D01*
X172230000Y-114270000D02*
X177670000Y-114270000D01*
X173010000Y-111330000D02*
X173010000Y-114270000D01*
X173130000Y-111330000D02*
X173130000Y-114270000D01*
X173250000Y-111330000D02*
X173250000Y-114270000D01*
X177670000Y-111330000D02*
X172230000Y-111330000D01*
X177670000Y-114270000D02*
X177670000Y-111330000D01*
X178690000Y-112800000D02*
X177670000Y-112800000D01*
%TO.C,R3*%
X166860000Y-142500000D02*
X167630000Y-142500000D01*
X167630000Y-141130000D02*
X167630000Y-143870000D01*
X167630000Y-143870000D02*
X174170000Y-143870000D01*
X174170000Y-141130000D02*
X167630000Y-141130000D01*
X174170000Y-143870000D02*
X174170000Y-141130000D01*
X174940000Y-142500000D02*
X174170000Y-142500000D01*
%TO.C,R9*%
X167060000Y-147150000D02*
X167830000Y-147150000D01*
X167830000Y-145780000D02*
X167830000Y-148520000D01*
X167830000Y-148520000D02*
X174370000Y-148520000D01*
X174370000Y-145780000D02*
X167830000Y-145780000D01*
X174370000Y-148520000D02*
X174370000Y-145780000D01*
X175140000Y-147150000D02*
X174370000Y-147150000D01*
%TO.C,D5*%
X154010000Y-140550000D02*
X155030000Y-140550000D01*
X155030000Y-139080000D02*
X155030000Y-142020000D01*
X155030000Y-142020000D02*
X160470000Y-142020000D01*
X155810000Y-139080000D02*
X155810000Y-142020000D01*
X155930000Y-139080000D02*
X155930000Y-142020000D01*
X156050000Y-139080000D02*
X156050000Y-142020000D01*
X160470000Y-139080000D02*
X155030000Y-139080000D01*
X160470000Y-142020000D02*
X160470000Y-139080000D01*
X161490000Y-140550000D02*
X160470000Y-140550000D01*
%TO.C,K1*%
X168600000Y-116800000D02*
X168600000Y-123400000D01*
X168600000Y-116800000D02*
X188400000Y-116800000D01*
X168600000Y-125800000D02*
X168600000Y-132400000D01*
X172650000Y-124650000D02*
X171850000Y-124650000D01*
X172650000Y-124650000D02*
X172650000Y-128250000D01*
X173550000Y-130650000D02*
X176050000Y-130650000D01*
X174050000Y-122850000D02*
X178050000Y-122850000D01*
X174050000Y-126450000D02*
X174050000Y-122850000D01*
X176050000Y-118650000D02*
X173550000Y-118650000D01*
X176050000Y-118650000D02*
X176050000Y-122850000D01*
X176050000Y-126450000D02*
X176050000Y-130650000D01*
X178050000Y-122850000D02*
X178050000Y-126450000D01*
X178050000Y-126450000D02*
X174050000Y-122850000D01*
X178050000Y-126450000D02*
X174050000Y-126450000D01*
X179450000Y-124650000D02*
X179450000Y-128250000D01*
X179450000Y-124650000D02*
X180950000Y-124650000D01*
X179450000Y-128250000D02*
X172650000Y-128250000D01*
X180950000Y-124650000D02*
X185550000Y-122150000D01*
X184150000Y-120400000D02*
X184150000Y-122900000D01*
X184150000Y-128800000D02*
X184150000Y-126350000D01*
X188400000Y-116800000D02*
X188400000Y-132400000D01*
X188400000Y-132400000D02*
X168600000Y-132400000D01*
%TO.C,D1*%
X135310000Y-136450000D02*
X136330000Y-136450000D01*
X136330000Y-134980000D02*
X136330000Y-137920000D01*
X136330000Y-137920000D02*
X141770000Y-137920000D01*
X137110000Y-134980000D02*
X137110000Y-137920000D01*
X137230000Y-134980000D02*
X137230000Y-137920000D01*
X137350000Y-134980000D02*
X137350000Y-137920000D01*
X141770000Y-134980000D02*
X136330000Y-134980000D01*
X141770000Y-137920000D02*
X141770000Y-134980000D01*
X142790000Y-136450000D02*
X141770000Y-136450000D01*
%TO.C,P1*%
X132100000Y-140192500D02*
X146800000Y-140192500D01*
X132100000Y-149392500D02*
X132100000Y-140192500D01*
X140900000Y-149392500D02*
X132100000Y-149392500D01*
X145950000Y-139992500D02*
X147000000Y-139992500D01*
X146800000Y-140192500D02*
X146800000Y-142792500D01*
X146800000Y-146692500D02*
X146800000Y-149392500D01*
X146800000Y-149392500D02*
X144900000Y-149392500D01*
X147000000Y-141042500D02*
X147000000Y-139992500D01*
%TO.C,J2*%
X189489000Y-117075000D02*
X199410000Y-117075000D01*
X189489000Y-132435000D02*
X189489000Y-117075000D01*
X189489000Y-132435000D02*
X199410000Y-132435000D01*
X192449000Y-132435000D02*
X192449000Y-117075000D01*
X193475000Y-118605000D02*
X193511000Y-118640000D01*
X193475000Y-123685000D02*
X193511000Y-123720000D01*
X193681000Y-118400000D02*
X193727000Y-118447000D01*
X193681000Y-123480000D02*
X193727000Y-123527000D01*
X195773000Y-120902000D02*
X195819000Y-120949000D01*
X195773000Y-125982000D02*
X195819000Y-126029000D01*
X195989000Y-120709000D02*
X196024000Y-120744000D01*
X195989000Y-125789000D02*
X196024000Y-125824000D01*
X197350000Y-132435000D02*
X197350000Y-117075000D01*
X198850000Y-132435000D02*
X198850000Y-117075000D01*
X198910000Y-132675000D02*
X199650000Y-132675000D01*
X199410000Y-132435000D02*
X199410000Y-117075000D01*
X199650000Y-132675000D02*
X199650000Y-132175000D01*
X193214574Y-130518042D02*
G75*
G02*
X193215001Y-129151001I1535419J683041D01*
G01*
X194066958Y-128299574D02*
G75*
G02*
X195434000Y-128300000I683042J-1535426D01*
G01*
X195433042Y-131370426D02*
G75*
G02*
X194066001Y-131369999I-683041J1535419D01*
G01*
X196284755Y-129151682D02*
G75*
G02*
X196429999Y-129835000I-1534755J-683318D01*
G01*
X196430252Y-129806195D02*
G75*
G02*
X196284999Y-130519000I-1680253J-28806D01*
G01*
X196430000Y-119675000D02*
G75*
G02*
X193070000Y-119675000I-1680000J0D01*
G01*
X193070000Y-119675000D02*
G75*
G02*
X196430000Y-119675000I1680000J0D01*
G01*
X196430000Y-124755000D02*
G75*
G02*
X193070000Y-124755000I-1680000J0D01*
G01*
X193070000Y-124755000D02*
G75*
G02*
X196430000Y-124755000I1680000J0D01*
G01*
%TO.C,J3*%
X192390000Y-111100000D02*
X192390000Y-109040000D01*
X194510000Y-109040000D02*
X192390000Y-109040000D01*
X194510000Y-111100000D02*
X192390000Y-111100000D01*
X194510000Y-111100000D02*
X194510000Y-109040000D01*
X194510000Y-112100000D02*
X194510000Y-113160000D01*
X194510000Y-113160000D02*
X193450000Y-113160000D01*
%TO.C,U2*%
X151940000Y-151520000D02*
X151940000Y-146879000D01*
X155209000Y-151520000D02*
X155209000Y-150010000D01*
X158910000Y-151520000D02*
X158910000Y-150010000D01*
X162180000Y-146879000D02*
X151940000Y-146879000D01*
X162180000Y-150010000D02*
X151940000Y-150010000D01*
X162180000Y-151520000D02*
X151940000Y-151520000D01*
X162180000Y-151520000D02*
X162180000Y-146879000D01*
%TO.C,D3*%
X135310000Y-131350000D02*
X136330000Y-131350000D01*
X136330000Y-129880000D02*
X136330000Y-132820000D01*
X136330000Y-132820000D02*
X141770000Y-132820000D01*
X140750000Y-132820000D02*
X140750000Y-129880000D01*
X140870000Y-132820000D02*
X140870000Y-129880000D01*
X140990000Y-132820000D02*
X140990000Y-129880000D01*
X141770000Y-129880000D02*
X136330000Y-129880000D01*
X141770000Y-132820000D02*
X141770000Y-129880000D01*
X142790000Y-131350000D02*
X141770000Y-131350000D01*
%TO.C,Q1*%
X180600000Y-138660000D02*
X184200000Y-138660000D01*
X180561522Y-138648478D02*
G75*
G02*
X182400000Y-134210000I1838478J1838478D01*
G01*
X182400000Y-134210000D02*
G75*
G02*
X184238478Y-138648478I0J-2600000D01*
G01*
%TO.C,D7*%
X188865000Y-109970000D02*
X188865000Y-109651000D01*
X188865000Y-112449000D02*
X188865000Y-112130000D01*
X184561759Y-109969276D02*
G75*
G02*
X188864999Y-109651251I2243241J-1080724D01*
G01*
X185122288Y-109969040D02*
G75*
G02*
X188488329Y-109970001I1682712J-1080960D01*
G01*
X188488329Y-112129999D02*
G75*
G02*
X185122288Y-112130960I-1683329J1079999D01*
G01*
X188864999Y-112448749D02*
G75*
G02*
X184561759Y-112130724I-2059999J1398749D01*
G01*
%TO.C,R7*%
X156780000Y-109580000D02*
X156780000Y-116120000D01*
X156780000Y-116120000D02*
X159520000Y-116120000D01*
X158150000Y-108810000D02*
X158150000Y-109580000D01*
X158150000Y-116890000D02*
X158150000Y-116120000D01*
X159520000Y-109580000D02*
X156780000Y-109580000D01*
X159520000Y-116120000D02*
X159520000Y-109580000D01*
%TO.C,J1*%
X192540000Y-133590000D02*
X192540000Y-136090000D01*
X192840000Y-133890000D02*
X192840000Y-149110000D01*
X192840000Y-149110000D02*
X196860000Y-149110000D01*
X194340000Y-133890000D02*
X194340000Y-134890000D01*
X194340000Y-134890000D02*
X192840000Y-134890000D01*
X194340000Y-148110000D02*
X192840000Y-148110000D01*
X194340000Y-149110000D02*
X194340000Y-148110000D01*
X195040000Y-133590000D02*
X192540000Y-133590000D01*
X195150000Y-133890000D02*
X195150000Y-134390000D01*
X195150000Y-134390000D02*
X196360000Y-134390000D01*
X195150000Y-148610000D02*
X195150000Y-149110000D01*
X196360000Y-134390000D02*
X196360000Y-148610000D01*
X196360000Y-148610000D02*
X195150000Y-148610000D01*
X196860000Y-133890000D02*
X192840000Y-133890000D01*
X196860000Y-149110000D02*
X196860000Y-133890000D01*
%TO.C,D4*%
X135160000Y-126950000D02*
X136180000Y-126950000D01*
X136180000Y-125480000D02*
X136180000Y-128420000D01*
X136180000Y-128420000D02*
X141620000Y-128420000D01*
X140600000Y-128420000D02*
X140600000Y-125480000D01*
X140720000Y-128420000D02*
X140720000Y-125480000D01*
X140840000Y-128420000D02*
X140840000Y-125480000D01*
X141620000Y-125480000D02*
X136180000Y-125480000D01*
X141620000Y-128420000D02*
X141620000Y-125480000D01*
X142640000Y-126950000D02*
X141620000Y-126950000D01*
%TO.C,C1*%
X133380000Y-110480000D02*
X133380000Y-118220000D01*
X136120000Y-110480000D02*
X133380000Y-110480000D01*
X136120000Y-110480000D02*
X136120000Y-118220000D01*
X136120000Y-118220000D02*
X133380000Y-118220000D01*
%TO.C,Q2*%
X163390000Y-110650000D02*
X163390000Y-114250000D01*
X163401522Y-110611522D02*
G75*
G02*
X167840000Y-112450000I1838478J-1838478D01*
G01*
X167840000Y-112450000D02*
G75*
G02*
X163401522Y-114288478I-2600000J0D01*
G01*
%TO.C,R6*%
X171060000Y-109200000D02*
X171830000Y-109200000D01*
X171830000Y-107830000D02*
X171830000Y-110570000D01*
X171830000Y-110570000D02*
X178370000Y-110570000D01*
X178370000Y-107830000D02*
X171830000Y-107830000D01*
X178370000Y-110570000D02*
X178370000Y-107830000D01*
X179140000Y-109200000D02*
X178370000Y-109200000D01*
%TO.C,R5*%
X187530000Y-139380000D02*
X187530000Y-145920000D01*
X187530000Y-145920000D02*
X190270000Y-145920000D01*
X188900000Y-138610000D02*
X188900000Y-139380000D01*
X188900000Y-146690000D02*
X188900000Y-145920000D01*
X190270000Y-139380000D02*
X187530000Y-139380000D01*
X190270000Y-145920000D02*
X190270000Y-139380000D01*
%TO.C,U3*%
X152920000Y-123110000D02*
X152920000Y-133510000D01*
X152920000Y-133510000D02*
X163200000Y-133510000D01*
X155410000Y-123170000D02*
X155410000Y-133450000D01*
X155410000Y-133450000D02*
X160710000Y-133450000D01*
X157060000Y-123170000D02*
X155410000Y-123170000D01*
X160710000Y-123170000D02*
X159060000Y-123170000D01*
X160710000Y-133450000D02*
X160710000Y-123170000D01*
X163200000Y-123110000D02*
X152920000Y-123110000D01*
X163200000Y-133510000D02*
X163200000Y-123110000D01*
X159060000Y-123170000D02*
G75*
G02*
X157060000Y-123170000I-1000000J0D01*
G01*
%TO.C,D8*%
X146535000Y-120251000D02*
X146535000Y-120570000D01*
X146535000Y-122730000D02*
X146535000Y-123049000D01*
X146535001Y-120251251D02*
G75*
G02*
X150838241Y-120569276I2059999J-1398749D01*
G01*
X146911671Y-120570001D02*
G75*
G02*
X150277712Y-120569040I1683329J-1079999D01*
G01*
X150277712Y-122730960D02*
G75*
G02*
X146911671Y-122729999I-1682712J1080960D01*
G01*
X150838241Y-122730724D02*
G75*
G02*
X146535001Y-123048749I-2243241J1080724D01*
G01*
%TO.C,R8*%
X166960000Y-150450000D02*
X167730000Y-150450000D01*
X167730000Y-149080000D02*
X167730000Y-151820000D01*
X167730000Y-151820000D02*
X174270000Y-151820000D01*
X174270000Y-149080000D02*
X167730000Y-149080000D01*
X174270000Y-151820000D02*
X174270000Y-149080000D01*
X175040000Y-150450000D02*
X174270000Y-150450000D01*
%TO.C,R4*%
X168810000Y-138500000D02*
X169580000Y-138500000D01*
X169580000Y-137130000D02*
X169580000Y-139870000D01*
X169580000Y-139870000D02*
X176120000Y-139870000D01*
X176120000Y-137130000D02*
X169580000Y-137130000D01*
X176120000Y-139870000D02*
X176120000Y-137130000D01*
X176890000Y-138500000D02*
X176120000Y-138500000D01*
%TO.C,R1*%
X154110000Y-121300000D02*
X154880000Y-121300000D01*
X154880000Y-119930000D02*
X154880000Y-122670000D01*
X154880000Y-122670000D02*
X161420000Y-122670000D01*
X161420000Y-119930000D02*
X154880000Y-119930000D01*
X161420000Y-122670000D02*
X161420000Y-119930000D01*
X162190000Y-121300000D02*
X161420000Y-121300000D01*
%TO.C,D2*%
X135110000Y-121650000D02*
X136130000Y-121650000D01*
X136130000Y-120180000D02*
X136130000Y-123120000D01*
X136130000Y-123120000D02*
X141570000Y-123120000D01*
X136910000Y-120180000D02*
X136910000Y-123120000D01*
X137030000Y-120180000D02*
X137030000Y-123120000D01*
X137150000Y-120180000D02*
X137150000Y-123120000D01*
X141570000Y-120180000D02*
X136130000Y-120180000D01*
X141570000Y-123120000D02*
X141570000Y-120180000D01*
X142590000Y-121650000D02*
X141570000Y-121650000D01*
%TO.C,C4*%
X152630000Y-137670000D02*
X152630000Y-134930000D01*
X160370000Y-134930000D02*
X152630000Y-134930000D01*
X160370000Y-137670000D02*
X152630000Y-137670000D01*
X160370000Y-137670000D02*
X160370000Y-134930000D01*
%TD*%
M02*
