%TF.GenerationSoftware,KiCad,Pcbnew,8.0.0-rc2*%
%TF.CreationDate,2024-05-24T11:46:06+05:30*%
%TF.ProjectId,IR based Relay controll board_v1,49522062-6173-4656-9420-52656c617920,rev?*%
%TF.SameCoordinates,Original*%
%TF.FileFunction,Soldermask,Bot*%
%TF.FilePolarity,Negative*%
%FSLAX46Y46*%
G04 Gerber Fmt 4.6, Leading zero omitted, Abs format (unit mm)*
G04 Created by KiCad (PCBNEW 8.0.0-rc2) date 2024-05-24 11:46:06*
%MOMM*%
%LPD*%
G01*
G04 APERTURE LIST*
G04 Aperture macros list*
%AMRoundRect*
0 Rectangle with rounded corners*
0 $1 Rounding radius*
0 $2 $3 $4 $5 $6 $7 $8 $9 X,Y pos of 4 corners*
0 Add a 4 corners polygon primitive as box body*
4,1,4,$2,$3,$4,$5,$6,$7,$8,$9,$2,$3,0*
0 Add four circle primitives for the rounded corners*
1,1,$1+$1,$2,$3*
1,1,$1+$1,$4,$5*
1,1,$1+$1,$6,$7*
1,1,$1+$1,$8,$9*
0 Add four rect primitives between the rounded corners*
20,1,$1+$1,$2,$3,$4,$5,0*
20,1,$1+$1,$4,$5,$6,$7,0*
20,1,$1+$1,$6,$7,$8,$9,0*
20,1,$1+$1,$8,$9,$2,$3,0*%
G04 Aperture macros list end*
%ADD10R,1.600000X1.600000*%
%ADD11C,1.600000*%
%ADD12O,1.600000X1.600000*%
%ADD13R,2.200000X2.200000*%
%ADD14O,2.200000X2.200000*%
%ADD15C,3.000000*%
%ADD16C,2.500000*%
%ADD17R,3.500000X3.500000*%
%ADD18RoundRect,0.750000X-0.750000X-1.000000X0.750000X-1.000000X0.750000X1.000000X-0.750000X1.000000X0*%
%ADD19RoundRect,0.875000X-0.875000X-0.875000X0.875000X-0.875000X0.875000X0.875000X-0.875000X0.875000X0*%
%ADD20R,2.600000X2.600000*%
%ADD21C,2.600000*%
%ADD22R,1.350000X1.350000*%
%ADD23O,1.350000X1.350000*%
%ADD24R,1.905000X2.000000*%
%ADD25O,1.905000X2.000000*%
%ADD26R,1.050000X1.500000*%
%ADD27O,1.050000X1.500000*%
%ADD28R,1.800000X1.800000*%
%ADD29C,1.800000*%
%ADD30RoundRect,0.250000X-0.725000X0.600000X-0.725000X-0.600000X0.725000X-0.600000X0.725000X0.600000X0*%
%ADD31O,1.950000X1.700000*%
%ADD32C,2.000000*%
%ADD33R,1.500000X1.050000*%
%ADD34O,1.500000X1.050000*%
G04 APERTURE END LIST*
D10*
%TO.C,C2*%
X150550000Y-111597349D03*
D11*
X150550000Y-115397349D03*
%TD*%
%TO.C,R2*%
X148350000Y-135730000D03*
D12*
X148350000Y-125570000D03*
%TD*%
D10*
%TO.C,C3*%
X140882379Y-112117621D03*
D11*
X140882379Y-114617621D03*
%TD*%
D13*
%TO.C,D6*%
X169870000Y-112800000D03*
D14*
X180030000Y-112800000D03*
%TD*%
D11*
%TO.C,R3*%
X165820000Y-142500000D03*
D12*
X175980000Y-142500000D03*
%TD*%
D11*
%TO.C,R9*%
X176180000Y-147150000D03*
D12*
X166020000Y-147150000D03*
%TD*%
D13*
%TO.C,D5*%
X152670000Y-140550000D03*
D14*
X162830000Y-140550000D03*
%TD*%
D15*
%TO.C,K1*%
X170000000Y-124600000D03*
D16*
X171950000Y-130650000D03*
D15*
X184150000Y-130650000D03*
X184200000Y-118600000D03*
D16*
X171950000Y-118650000D03*
%TD*%
D13*
%TO.C,D1*%
X133970000Y-136450000D03*
D14*
X144130000Y-136450000D03*
%TD*%
D17*
%TO.C,P1*%
X145900000Y-144792500D03*
D18*
X139900000Y-144792500D03*
D19*
X142900000Y-149492500D03*
%TD*%
D20*
%TO.C,J2*%
X194750000Y-129835000D03*
D21*
X194750000Y-124755000D03*
X194750000Y-119675000D03*
%TD*%
D22*
%TO.C,J3*%
X193450000Y-112100000D03*
D23*
X193450000Y-110100000D03*
%TD*%
D24*
%TO.C,U2*%
X159600000Y-148250000D03*
D25*
X157060000Y-148250000D03*
X154520000Y-148250000D03*
%TD*%
D13*
%TO.C,D3*%
X144130000Y-131350000D03*
D14*
X133970000Y-131350000D03*
%TD*%
D26*
%TO.C,Q1*%
X181130000Y-136810000D03*
D27*
X182400000Y-136810000D03*
X183670000Y-136810000D03*
%TD*%
D28*
%TO.C,D7*%
X188075000Y-111050000D03*
D29*
X185535000Y-111050000D03*
%TD*%
D11*
%TO.C,R7*%
X158150000Y-117930000D03*
D12*
X158150000Y-107770000D03*
%TD*%
D30*
%TO.C,J1*%
X195150000Y-136500000D03*
D31*
X195150000Y-139000000D03*
X195150000Y-141500000D03*
X195150000Y-144000000D03*
X195150000Y-146500000D03*
%TD*%
D13*
%TO.C,D4*%
X143980000Y-126950000D03*
D14*
X133820000Y-126950000D03*
%TD*%
D32*
%TO.C,C1*%
X134750000Y-111850000D03*
X134750000Y-116850000D03*
%TD*%
D33*
%TO.C,Q2*%
X165240000Y-111180000D03*
D34*
X165240000Y-112450000D03*
X165240000Y-113720000D03*
%TD*%
D11*
%TO.C,R6*%
X180180000Y-109200000D03*
D12*
X170020000Y-109200000D03*
%TD*%
D11*
%TO.C,R5*%
X188900000Y-137570000D03*
D12*
X188900000Y-147730000D03*
%TD*%
D10*
%TO.C,U3*%
X154250000Y-124500000D03*
D12*
X154250000Y-127040000D03*
X154250000Y-129580000D03*
X154250000Y-132120000D03*
X161870000Y-132120000D03*
X161870000Y-129580000D03*
X161870000Y-127040000D03*
X161870000Y-124500000D03*
%TD*%
D28*
%TO.C,D8*%
X147325000Y-121650000D03*
D29*
X149865000Y-121650000D03*
%TD*%
D11*
%TO.C,R8*%
X165920000Y-150450000D03*
D12*
X176080000Y-150450000D03*
%TD*%
D11*
%TO.C,R4*%
X167770000Y-138500000D03*
D12*
X177930000Y-138500000D03*
%TD*%
D11*
%TO.C,R1*%
X163230000Y-121300000D03*
D12*
X153070000Y-121300000D03*
%TD*%
D13*
%TO.C,D2*%
X133770000Y-121650000D03*
D14*
X143930000Y-121650000D03*
%TD*%
D32*
%TO.C,C4*%
X159000000Y-136300000D03*
X154000000Y-136300000D03*
%TD*%
M02*
