%TF.GenerationSoftware,KiCad,Pcbnew,8.0.0-rc2*%
%TF.CreationDate,2024-05-24T11:46:06+05:30*%
%TF.ProjectId,IR based Relay controll board_v1,49522062-6173-4656-9420-52656c617920,rev?*%
%TF.SameCoordinates,Original*%
%TF.FileFunction,Legend,Bot*%
%TF.FilePolarity,Positive*%
%FSLAX46Y46*%
G04 Gerber Fmt 4.6, Leading zero omitted, Abs format (unit mm)*
G04 Created by KiCad (PCBNEW 8.0.0-rc2) date 2024-05-24 11:46:06*
%MOMM*%
%LPD*%
G01*
G04 APERTURE LIST*
%ADD10C,0.200000*%
%ADD11C,0.100000*%
G04 APERTURE END LIST*
D10*
X190236279Y-153487219D02*
X190236279Y-152487219D01*
X190236279Y-152487219D02*
X189664850Y-152487219D01*
X189664850Y-152487219D02*
X189521993Y-152534838D01*
X189521993Y-152534838D02*
X189450564Y-152582457D01*
X189450564Y-152582457D02*
X189379136Y-152677695D01*
X189379136Y-152677695D02*
X189379136Y-152820552D01*
X189379136Y-152820552D02*
X189450564Y-152915790D01*
X189450564Y-152915790D02*
X189521993Y-152963409D01*
X189521993Y-152963409D02*
X189664850Y-153011028D01*
X189664850Y-153011028D02*
X190236279Y-153011028D01*
X188807707Y-153439600D02*
X188593422Y-153487219D01*
X188593422Y-153487219D02*
X188236279Y-153487219D01*
X188236279Y-153487219D02*
X188093422Y-153439600D01*
X188093422Y-153439600D02*
X188021993Y-153391980D01*
X188021993Y-153391980D02*
X187950564Y-153296742D01*
X187950564Y-153296742D02*
X187950564Y-153201504D01*
X187950564Y-153201504D02*
X188021993Y-153106266D01*
X188021993Y-153106266D02*
X188093422Y-153058647D01*
X188093422Y-153058647D02*
X188236279Y-153011028D01*
X188236279Y-153011028D02*
X188521993Y-152963409D01*
X188521993Y-152963409D02*
X188664850Y-152915790D01*
X188664850Y-152915790D02*
X188736279Y-152868171D01*
X188736279Y-152868171D02*
X188807707Y-152772933D01*
X188807707Y-152772933D02*
X188807707Y-152677695D01*
X188807707Y-152677695D02*
X188736279Y-152582457D01*
X188736279Y-152582457D02*
X188664850Y-152534838D01*
X188664850Y-152534838D02*
X188521993Y-152487219D01*
X188521993Y-152487219D02*
X188164850Y-152487219D01*
X188164850Y-152487219D02*
X187950564Y-152534838D01*
X187307708Y-152963409D02*
X186807708Y-152963409D01*
X186593422Y-153487219D02*
X187307708Y-153487219D01*
X187307708Y-153487219D02*
X187307708Y-152487219D01*
X187307708Y-152487219D02*
X186593422Y-152487219D01*
D11*
X185625000Y-151700000D02*
X191475000Y-151700000D01*
X191475000Y-154050000D01*
X185625000Y-154050000D01*
X185625000Y-151700000D01*
M02*
