%TF.GenerationSoftware,KiCad,Pcbnew,8.0.7*%
%TF.CreationDate,2025-08-04T19:52:47+05:30*%
%TF.ProjectId,IOT,494f542e-6b69-4636-9164-5f7063625858,rev?*%
%TF.SameCoordinates,Original*%
%TF.FileFunction,Copper,L2,Bot*%
%TF.FilePolarity,Positive*%
%FSLAX46Y46*%
G04 Gerber Fmt 4.6, Leading zero omitted, Abs format (unit mm)*
G04 Created by KiCad (PCBNEW 8.0.7) date 2025-08-04 19:52:47*
%MOMM*%
%LPD*%
G01*
G04 APERTURE LIST*
%TA.AperFunction,ComponentPad*%
%ADD10R,1.700000X1.700000*%
%TD*%
%TA.AperFunction,ComponentPad*%
%ADD11O,1.700000X1.700000*%
%TD*%
%TA.AperFunction,ComponentPad*%
%ADD12O,1.905000X2.000000*%
%TD*%
%TA.AperFunction,ComponentPad*%
%ADD13R,1.905000X2.000000*%
%TD*%
%TA.AperFunction,ComponentPad*%
%ADD14R,1.600000X1.600000*%
%TD*%
%TA.AperFunction,ComponentPad*%
%ADD15C,1.600000*%
%TD*%
%TA.AperFunction,ComponentPad*%
%ADD16O,1.600000X1.600000*%
%TD*%
%TA.AperFunction,ComponentPad*%
%ADD17R,2.200000X2.200000*%
%TD*%
%TA.AperFunction,ComponentPad*%
%ADD18O,2.200000X2.200000*%
%TD*%
%TA.AperFunction,ComponentPad*%
%ADD19R,1.800000X1.800000*%
%TD*%
%TA.AperFunction,ComponentPad*%
%ADD20C,1.800000*%
%TD*%
%TA.AperFunction,ComponentPad*%
%ADD21R,2.600000X2.600000*%
%TD*%
%TA.AperFunction,ComponentPad*%
%ADD22C,2.600000*%
%TD*%
%TA.AperFunction,ComponentPad*%
%ADD23R,1.752600X1.752600*%
%TD*%
%TA.AperFunction,ComponentPad*%
%ADD24C,1.752600*%
%TD*%
%TA.AperFunction,ComponentPad*%
%ADD25C,3.000000*%
%TD*%
%TA.AperFunction,ComponentPad*%
%ADD26C,2.500000*%
%TD*%
%TA.AperFunction,ComponentPad*%
%ADD27R,1.500000X1.500000*%
%TD*%
%TA.AperFunction,ComponentPad*%
%ADD28C,1.500000*%
%TD*%
%TA.AperFunction,ComponentPad*%
%ADD29R,2.000000X2.000000*%
%TD*%
%TA.AperFunction,ComponentPad*%
%ADD30C,2.000000*%
%TD*%
%TA.AperFunction,ViaPad*%
%ADD31C,0.600000*%
%TD*%
%TA.AperFunction,Conductor*%
%ADD32C,0.500000*%
%TD*%
%TA.AperFunction,Conductor*%
%ADD33C,1.000000*%
%TD*%
%TA.AperFunction,Conductor*%
%ADD34C,2.500000*%
%TD*%
%TA.AperFunction,Conductor*%
%ADD35C,0.200000*%
%TD*%
G04 APERTURE END LIST*
D10*
%TO.P,J4,1,Pin_1*%
%TO.N,GND*%
X130825000Y-47725000D03*
D11*
%TO.P,J4,2,Pin_2*%
%TO.N,/12V*%
X130825000Y-45185000D03*
%TD*%
D12*
%TO.P,U7,3,VO*%
%TO.N,/12V*%
X143775000Y-38075000D03*
%TO.P,U7,2,GND*%
%TO.N,GND*%
X141235000Y-38075000D03*
D13*
%TO.P,U7,1,VI*%
%TO.N,+12V*%
X138695000Y-38075000D03*
%TD*%
D14*
%TO.P,C3,1*%
%TO.N,/12V*%
X161275000Y-50600000D03*
D15*
%TO.P,C3,2*%
%TO.N,GND*%
X163775000Y-50600000D03*
%TD*%
%TO.P,R9,1*%
%TO.N,Net-(R9-Pad1)*%
X202025000Y-79255000D03*
D16*
%TO.P,R9,2*%
%TO.N,Net-(Q4-B)*%
X202025000Y-69095000D03*
%TD*%
D17*
%TO.P,D4,1,K*%
%TO.N,+12V*%
X150300000Y-44720000D03*
D18*
%TO.P,D4,2,A*%
%TO.N,/P-*%
X150300000Y-54880000D03*
%TD*%
D10*
%TO.P,J3,1,Pin_1*%
%TO.N,/VCC*%
X139750000Y-76900000D03*
D11*
%TO.P,J3,2,Pin_2*%
%TO.N,/JD-VCC*%
X139750000Y-79440000D03*
%TD*%
D15*
%TO.P,R7,1*%
%TO.N,Net-(R7-Pad1)*%
X201850000Y-64755000D03*
D16*
%TO.P,R7,2*%
%TO.N,Net-(Q3-B)*%
X201850000Y-54595000D03*
%TD*%
D14*
%TO.P,D8,1,K*%
%TO.N,/JD-VCC*%
X210075000Y-82060000D03*
D16*
%TO.P,D8,2,A*%
%TO.N,Net-(D8-A)*%
X210075000Y-74440000D03*
%TD*%
D19*
%TO.P,D13,1,K*%
%TO.N,/IN4*%
X192360000Y-28225000D03*
D20*
%TO.P,D13,2,A*%
%TO.N,Net-(D13-A)*%
X194900000Y-28225000D03*
%TD*%
D14*
%TO.P,U4,1*%
%TO.N,Net-(R6-Pad2)*%
X185150000Y-55300000D03*
D16*
%TO.P,U4,2*%
%TO.N,Net-(D12-A)*%
X185150000Y-57840000D03*
%TO.P,U4,3*%
%TO.N,Net-(R7-Pad1)*%
X192770000Y-57840000D03*
%TO.P,U4,4*%
%TO.N,/JD-VCC*%
X192770000Y-55300000D03*
%TD*%
D15*
%TO.P,R3,1*%
%TO.N,Net-(R3-Pad1)*%
X201850000Y-37605000D03*
D16*
%TO.P,R3,2*%
%TO.N,Net-(Q1-B)*%
X201850000Y-27445000D03*
%TD*%
D21*
%TO.P,J2,1,Pin_1*%
%TO.N,/C4*%
X242750000Y-65040000D03*
D22*
%TO.P,J2,2,Pin_2*%
%TO.N,/C3*%
X242750000Y-59960000D03*
%TO.P,J2,3,Pin_3*%
%TO.N,/C2*%
X242750000Y-54880000D03*
%TO.P,J2,4,Pin_4*%
%TO.N,/C1*%
X242750000Y-49800000D03*
%TD*%
D15*
%TO.P,R4,1*%
%TO.N,/VCC*%
X179300000Y-35100000D03*
D16*
%TO.P,R4,2*%
%TO.N,Net-(R4-Pad2)*%
X179300000Y-45260000D03*
%TD*%
D15*
%TO.P,R6,1*%
%TO.N,/VCC*%
X179300000Y-58455000D03*
D16*
%TO.P,R6,2*%
%TO.N,Net-(R6-Pad2)*%
X179300000Y-48295000D03*
%TD*%
D19*
%TO.P,D10,1,K*%
%TO.N,/IN1*%
X172335000Y-28425000D03*
D20*
%TO.P,D10,2,A*%
%TO.N,Net-(D10-A)*%
X174875000Y-28425000D03*
%TD*%
D15*
%TO.P,R1,1*%
%TO.N,/VCC*%
X168575000Y-45430000D03*
D16*
%TO.P,R1,2*%
%TO.N,Net-(D5-A)*%
X168575000Y-35270000D03*
%TD*%
D23*
%TO.P,U6,1,A0*%
%TO.N,unconnected-(U6-A0-Pad1)*%
X154190000Y-99760000D03*
D24*
%TO.P,U6,2,RSV1*%
%TO.N,unconnected-(U6-RSV1-Pad2)*%
X156730000Y-99760000D03*
%TO.P,U6,3,RSV2*%
%TO.N,unconnected-(U6-RSV2-Pad3)*%
X159270000Y-99760000D03*
%TO.P,U6,4,SD3*%
%TO.N,unconnected-(U6-SD3-Pad4)*%
X161810000Y-99760000D03*
%TO.P,U6,5,SD2*%
%TO.N,unconnected-(U6-SD2-Pad5)*%
X164350000Y-99760000D03*
%TO.P,U6,6,SD1*%
%TO.N,unconnected-(U6-SD1-Pad6)*%
X166890000Y-99760000D03*
%TO.P,U6,7,CMD*%
%TO.N,unconnected-(U6-CMD-Pad7)*%
X169430000Y-99760000D03*
%TO.P,U6,8,SD0*%
%TO.N,unconnected-(U6-SD0-Pad8)*%
X171970000Y-99760000D03*
%TO.P,U6,9,CLK*%
%TO.N,unconnected-(U6-CLK-Pad9)*%
X174510000Y-99760000D03*
%TO.P,U6,10,GND*%
%TO.N,GND*%
X177050000Y-99760000D03*
%TO.P,U6,11,3V3*%
%TO.N,unconnected-(U6-3V3-Pad11)_1*%
X179590000Y-99760000D03*
%TO.P,U6,12,EN*%
%TO.N,unconnected-(U6-EN-Pad12)*%
X182130000Y-99760000D03*
%TO.P,U6,13,RST*%
%TO.N,unconnected-(U6-RST-Pad13)*%
X184670000Y-99760000D03*
%TO.P,U6,14,GND*%
%TO.N,GND*%
X187210000Y-99760000D03*
%TO.P,U6,15,VIN*%
%TO.N,/VCC*%
X189750000Y-99760000D03*
%TO.P,U6,16,3V3*%
%TO.N,unconnected-(U6-3V3-Pad11)_2*%
X189750000Y-76900000D03*
%TO.P,U6,17,GND*%
%TO.N,GND*%
X187210000Y-76900000D03*
%TO.P,U6,18,TX*%
%TO.N,unconnected-(U6-TX-Pad18)*%
X184670000Y-76900000D03*
%TO.P,U6,19,RX*%
%TO.N,unconnected-(U6-RX-Pad19)*%
X182130000Y-76900000D03*
%TO.P,U6,20,D8*%
%TO.N,unconnected-(U6-D8-Pad20)*%
X179590000Y-76900000D03*
%TO.P,U6,21,D7*%
%TO.N,unconnected-(U6-D7-Pad21)*%
X177050000Y-76900000D03*
%TO.P,U6,22,D6*%
%TO.N,unconnected-(U6-D6-Pad22)*%
X174510000Y-76900000D03*
%TO.P,U6,23,D5*%
%TO.N,unconnected-(U6-D5-Pad23)*%
X171970000Y-76900000D03*
%TO.P,U6,24,GND*%
%TO.N,GND*%
X169430000Y-76900000D03*
%TO.P,U6,25,3V3*%
%TO.N,unconnected-(U6-3V3-Pad11)*%
X166890000Y-76900000D03*
%TO.P,U6,26,D4*%
%TO.N,/IN4*%
X164350000Y-76900000D03*
%TO.P,U6,27,D3*%
%TO.N,/IN3*%
X161810000Y-76900000D03*
%TO.P,U6,28,D2*%
%TO.N,/IN2*%
X159270000Y-76900000D03*
%TO.P,U6,29,D1*%
%TO.N,/IN1*%
X156730000Y-76900000D03*
%TO.P,U6,30,D0*%
%TO.N,unconnected-(U6-D0-Pad30)*%
X154190000Y-76900000D03*
%TD*%
D19*
%TO.P,D12,1,K*%
%TO.N,/IN3*%
X185610000Y-28350000D03*
D20*
%TO.P,D12,2,A*%
%TO.N,Net-(D12-A)*%
X188150000Y-28350000D03*
%TD*%
D13*
%TO.P,U1,1,IN*%
%TO.N,+12V*%
X154310000Y-38145000D03*
D12*
%TO.P,U1,2,GND*%
%TO.N,GND*%
X156850000Y-38145000D03*
%TO.P,U1,3,OUT*%
%TO.N,/VCC*%
X159390000Y-38145000D03*
%TD*%
D25*
%TO.P,K3,1*%
%TO.N,/C3*%
X216425000Y-70625000D03*
D26*
%TO.P,K3,2*%
%TO.N,Net-(D8-A)*%
X218375000Y-76675000D03*
D25*
%TO.P,K3,3*%
%TO.N,/P-*%
X230575000Y-76675000D03*
%TO.P,K3,4*%
%TO.N,/P+*%
X230625000Y-64625000D03*
D26*
%TO.P,K3,5*%
%TO.N,/JD-VCC*%
X218375000Y-64675000D03*
%TD*%
D27*
%TO.P,Q1,1,C*%
%TO.N,Net-(D6-A)*%
X207910000Y-29915000D03*
D28*
%TO.P,Q1,2,B*%
%TO.N,Net-(Q1-B)*%
X210450000Y-27375000D03*
%TO.P,Q1,3,E*%
%TO.N,GND*%
X212990000Y-29915000D03*
%TD*%
D15*
%TO.P,R8,1*%
%TO.N,/VCC*%
X179475000Y-61600000D03*
D16*
%TO.P,R8,2*%
%TO.N,Net-(R8-Pad2)*%
X179475000Y-71760000D03*
%TD*%
D14*
%TO.P,C2,1*%
%TO.N,/VCC*%
X172025000Y-56250000D03*
D15*
%TO.P,C2,2*%
%TO.N,GND*%
X169525000Y-56250000D03*
%TD*%
D17*
%TO.P,D1,1,K*%
%TO.N,/P+*%
X141450000Y-54555000D03*
D18*
%TO.P,D1,2,A*%
%TO.N,GND*%
X141450000Y-44395000D03*
%TD*%
D17*
%TO.P,D3,1,K*%
%TO.N,+12V*%
X137700000Y-44420000D03*
D18*
%TO.P,D3,2,A*%
%TO.N,/P+*%
X137700000Y-54580000D03*
%TD*%
D14*
%TO.P,U2,1*%
%TO.N,Net-(R2-Pad2)*%
X185175000Y-34175000D03*
D16*
%TO.P,U2,2*%
%TO.N,Net-(D10-A)*%
X185175000Y-36715000D03*
%TO.P,U2,3*%
%TO.N,Net-(R3-Pad1)*%
X192795000Y-36715000D03*
%TO.P,U2,4*%
%TO.N,/JD-VCC*%
X192795000Y-34175000D03*
%TD*%
D29*
%TO.P,C1,1*%
%TO.N,+12V*%
X157382323Y-60400000D03*
D30*
%TO.P,C1,2*%
%TO.N,GND*%
X162382323Y-60400000D03*
%TD*%
D25*
%TO.P,K2,1*%
%TO.N,/C2*%
X216425000Y-53675000D03*
D26*
%TO.P,K2,2*%
%TO.N,Net-(D7-A)*%
X218375000Y-59725000D03*
D25*
%TO.P,K2,3*%
%TO.N,/P-*%
X230575000Y-59725000D03*
%TO.P,K2,4*%
%TO.N,/P+*%
X230625000Y-47675000D03*
D26*
%TO.P,K2,5*%
%TO.N,/JD-VCC*%
X218375000Y-47725000D03*
%TD*%
D21*
%TO.P,J1,1,Pin_1*%
%TO.N,/P-*%
X135295000Y-62825000D03*
D22*
%TO.P,J1,2,Pin_2*%
%TO.N,/P+*%
X135295000Y-67825000D03*
%TD*%
D14*
%TO.P,D7,1,K*%
%TO.N,/JD-VCC*%
X210375000Y-62260000D03*
D16*
%TO.P,D7,2,A*%
%TO.N,Net-(D7-A)*%
X210375000Y-54640000D03*
%TD*%
D17*
%TO.P,D2,1,K*%
%TO.N,/P-*%
X146375000Y-54830000D03*
D18*
%TO.P,D2,2,A*%
%TO.N,GND*%
X146375000Y-44670000D03*
%TD*%
D25*
%TO.P,K1,1*%
%TO.N,/C1*%
X216425000Y-36725000D03*
D26*
%TO.P,K1,2*%
%TO.N,Net-(D6-A)*%
X218375000Y-42775000D03*
D25*
%TO.P,K1,3*%
%TO.N,/P-*%
X230575000Y-42775000D03*
%TO.P,K1,4*%
%TO.N,/P+*%
X230625000Y-30725000D03*
D26*
%TO.P,K1,5*%
%TO.N,/JD-VCC*%
X218375000Y-30775000D03*
%TD*%
D27*
%TO.P,Q4,1,C*%
%TO.N,Net-(D9-A)*%
X207025000Y-88825000D03*
D28*
%TO.P,Q4,2,B*%
%TO.N,Net-(Q4-B)*%
X209565000Y-86285000D03*
%TO.P,Q4,3,E*%
%TO.N,GND*%
X212105000Y-88825000D03*
%TD*%
D15*
%TO.P,R2,1*%
%TO.N,/VCC*%
X174050000Y-35270000D03*
D16*
%TO.P,R2,2*%
%TO.N,Net-(R2-Pad2)*%
X174050000Y-45430000D03*
%TD*%
D19*
%TO.P,D11,1,K*%
%TO.N,/IN2*%
X179085000Y-28425000D03*
D20*
%TO.P,D11,2,A*%
%TO.N,Net-(D11-A)*%
X181625000Y-28425000D03*
%TD*%
D14*
%TO.P,D6,1,K*%
%TO.N,/JD-VCC*%
X210825000Y-42985000D03*
D16*
%TO.P,D6,2,A*%
%TO.N,Net-(D6-A)*%
X210825000Y-35365000D03*
%TD*%
D14*
%TO.P,U3,1*%
%TO.N,Net-(R4-Pad2)*%
X185175000Y-44625000D03*
D16*
%TO.P,U3,2*%
%TO.N,Net-(D11-A)*%
X185175000Y-47165000D03*
%TO.P,U3,3*%
%TO.N,Net-(R5-Pad1)*%
X192795000Y-47165000D03*
%TO.P,U3,4*%
%TO.N,/JD-VCC*%
X192795000Y-44625000D03*
%TD*%
D25*
%TO.P,K4,1*%
%TO.N,/C4*%
X216425000Y-87575000D03*
D26*
%TO.P,K4,2*%
%TO.N,Net-(D9-A)*%
X218375000Y-93625000D03*
D25*
%TO.P,K4,3*%
%TO.N,/P-*%
X230575000Y-93625000D03*
%TO.P,K4,4*%
%TO.N,/P+*%
X230625000Y-81575000D03*
D26*
%TO.P,K4,5*%
%TO.N,/JD-VCC*%
X218375000Y-81625000D03*
%TD*%
D15*
%TO.P,R5,1*%
%TO.N,Net-(R5-Pad1)*%
X201725000Y-51180000D03*
D16*
%TO.P,R5,2*%
%TO.N,Net-(Q2-B)*%
X201725000Y-41020000D03*
%TD*%
D27*
%TO.P,Q2,1,C*%
%TO.N,Net-(D7-A)*%
X207560000Y-49490000D03*
D28*
%TO.P,Q2,2,B*%
%TO.N,Net-(Q2-B)*%
X210100000Y-46950000D03*
%TO.P,Q2,3,E*%
%TO.N,GND*%
X212640000Y-49490000D03*
%TD*%
D19*
%TO.P,D5,1,K*%
%TO.N,GND*%
X165935000Y-28175000D03*
D20*
%TO.P,D5,2,A*%
%TO.N,Net-(D5-A)*%
X168475000Y-28175000D03*
%TD*%
D14*
%TO.P,U5,1*%
%TO.N,Net-(R8-Pad2)*%
X185250000Y-65675000D03*
D16*
%TO.P,U5,2*%
%TO.N,Net-(D13-A)*%
X185250000Y-68215000D03*
%TO.P,U5,3*%
%TO.N,Net-(R9-Pad1)*%
X192870000Y-68215000D03*
%TO.P,U5,4*%
%TO.N,/JD-VCC*%
X192870000Y-65675000D03*
%TD*%
D27*
%TO.P,Q3,1,C*%
%TO.N,Net-(D8-A)*%
X207825000Y-69200000D03*
D28*
%TO.P,Q3,2,B*%
%TO.N,Net-(Q3-B)*%
X210365000Y-66660000D03*
%TO.P,Q3,3,E*%
%TO.N,GND*%
X212905000Y-69200000D03*
%TD*%
D14*
%TO.P,D9,1,K*%
%TO.N,/JD-VCC*%
X213185000Y-97825000D03*
D16*
%TO.P,D9,2,A*%
%TO.N,Net-(D9-A)*%
X205565000Y-97825000D03*
%TD*%
D31*
%TO.N,/12V*%
X151980037Y-41555037D03*
%TO.N,GND*%
X184945037Y-83129963D03*
X213950000Y-56175000D03*
X164222537Y-67922537D03*
X212700000Y-51125000D03*
%TD*%
D32*
%TO.N,GND*%
X136225000Y-33425000D02*
X143900000Y-33425000D01*
X128375000Y-41275000D02*
X136225000Y-33425000D01*
X128375000Y-46725000D02*
X128375000Y-41275000D01*
X129375000Y-47725000D02*
X128375000Y-46725000D01*
X130825000Y-47725000D02*
X129375000Y-47725000D01*
%TO.N,/12V*%
X148500000Y-38075000D02*
X151980037Y-41555037D01*
X143775000Y-38075000D02*
X148500000Y-38075000D01*
%TO.N,GND*%
X160150000Y-28175000D02*
X154900000Y-33425000D01*
X165935000Y-28175000D02*
X160150000Y-28175000D01*
X154900000Y-33425000D02*
X156850000Y-35375000D01*
X141235000Y-35615000D02*
X143425000Y-33425000D01*
X143425000Y-33425000D02*
X154900000Y-33425000D01*
X156850000Y-35375000D02*
X156850000Y-38145000D01*
X141235000Y-38075000D02*
X141235000Y-35615000D01*
X163775000Y-45070000D02*
X163775000Y-50600000D01*
X156850000Y-38145000D02*
X163775000Y-45070000D01*
%TO.N,/VCC*%
X161290000Y-38145000D02*
X168575000Y-45430000D01*
X159390000Y-38145000D02*
X161290000Y-38145000D01*
%TO.N,GND*%
X141235000Y-44180000D02*
X141450000Y-44395000D01*
X141235000Y-38075000D02*
X141235000Y-44180000D01*
%TO.N,+12V*%
X138695000Y-43355000D02*
X138695000Y-38075000D01*
X137700000Y-44420000D02*
X137700000Y-44350000D01*
X137700000Y-44350000D02*
X138695000Y-43355000D01*
X154310000Y-40710000D02*
X154310000Y-38145000D01*
X150300000Y-44720000D02*
X154310000Y-40710000D01*
D33*
%TO.N,/P-*%
X133175000Y-76575000D02*
X139000000Y-70750000D01*
X133175000Y-88225000D02*
X133175000Y-76575000D01*
X147450000Y-102500000D02*
X133175000Y-88225000D01*
X225400000Y-102500000D02*
X147450000Y-102500000D01*
X139000000Y-70750000D02*
X139000000Y-66530000D01*
X230575000Y-97325000D02*
X225400000Y-102500000D01*
X230575000Y-93625000D02*
X230575000Y-97325000D01*
X139000000Y-66530000D02*
X135295000Y-62825000D01*
%TO.N,/P+*%
X135770000Y-54580000D02*
X137700000Y-54580000D01*
X132525000Y-57825000D02*
X135770000Y-54580000D01*
X132525000Y-65055000D02*
X132525000Y-57825000D01*
X135295000Y-67825000D02*
X132525000Y-65055000D01*
%TO.N,/P-*%
X138380000Y-62825000D02*
X146375000Y-54830000D01*
X135295000Y-62825000D02*
X138380000Y-62825000D01*
D32*
%TO.N,GND*%
X163775000Y-50600000D02*
X163775000Y-50000000D01*
X163775000Y-50600000D02*
X169425000Y-56250000D01*
X169425000Y-56250000D02*
X169525000Y-56250000D01*
D34*
%TO.N,/C4*%
X239100000Y-82900000D02*
X234425000Y-87575000D01*
X239100000Y-79850000D02*
X239100000Y-82900000D01*
X234425000Y-87575000D02*
X216425000Y-87575000D01*
X239100000Y-68690000D02*
X242750000Y-65040000D01*
X239100000Y-79850000D02*
X239100000Y-68690000D01*
D32*
%TO.N,GND*%
X212105000Y-88825000D02*
X209983679Y-88825000D01*
X188000000Y-79950000D02*
X188000000Y-77690000D01*
X198825000Y-85050000D02*
X196175000Y-82400000D01*
X214000000Y-56125000D02*
X213950000Y-56175000D01*
X162382323Y-60400000D02*
X166532323Y-56250000D01*
X184945037Y-83129963D02*
X184945037Y-83004963D01*
X141450000Y-44395000D02*
X146100000Y-44395000D01*
X146100000Y-44395000D02*
X146375000Y-44670000D01*
X166532323Y-56250000D02*
X169525000Y-56250000D01*
X164222537Y-71692537D02*
X169430000Y-76900000D01*
X209983679Y-88825000D02*
X206208679Y-85050000D01*
X212700000Y-51125000D02*
X214000000Y-52425000D01*
X184945037Y-83004963D02*
X188000000Y-79950000D01*
X206208679Y-85050000D02*
X198825000Y-85050000D01*
X196175000Y-82400000D02*
X189125000Y-82400000D01*
X214000000Y-52425000D02*
X214000000Y-56125000D01*
X189125000Y-82400000D02*
X187337500Y-80612500D01*
X188000000Y-77690000D02*
X187210000Y-76900000D01*
X164222537Y-67922537D02*
X164222537Y-71692537D01*
%TO.N,+12V*%
X147320000Y-47700000D02*
X150300000Y-44720000D01*
X140980000Y-47700000D02*
X147320000Y-47700000D01*
X150300000Y-44720000D02*
X155020000Y-44720000D01*
X157382323Y-47082323D02*
X157382323Y-60400000D01*
X137700000Y-44420000D02*
X140980000Y-47700000D01*
X155020000Y-44720000D02*
X157382323Y-47082323D01*
%TO.N,/P+*%
X141450000Y-54555000D02*
X137725000Y-54555000D01*
X230600000Y-30750000D02*
X230600000Y-30800000D01*
X230600000Y-30800000D02*
X231000000Y-31200000D01*
X137725000Y-54555000D02*
X137700000Y-54580000D01*
X230625000Y-30725000D02*
X230600000Y-30750000D01*
D35*
%TO.N,/P-*%
X230575000Y-93825000D02*
X230500000Y-93900000D01*
D32*
X150250000Y-54830000D02*
X150300000Y-54880000D01*
X146375000Y-54830000D02*
X150250000Y-54830000D01*
D35*
X230600000Y-93600000D02*
X230600000Y-93500000D01*
X230575000Y-93825000D02*
X230575000Y-93625000D01*
X230575000Y-93625000D02*
X230800000Y-93400000D01*
X230800000Y-93400000D02*
X230800000Y-93100000D01*
X230575000Y-93625000D02*
X230600000Y-93600000D01*
D32*
%TO.N,Net-(D5-A)*%
X168475000Y-35170000D02*
X168575000Y-35270000D01*
X168475000Y-28175000D02*
X168475000Y-35170000D01*
%TO.N,/VCC*%
X168575000Y-52075000D02*
X168575000Y-45430000D01*
X179130000Y-35270000D02*
X179300000Y-35100000D01*
X179300000Y-58455000D02*
X179300000Y-61425000D01*
X172025000Y-57350000D02*
X172025000Y-56250000D01*
X179300000Y-58455000D02*
X178955000Y-58455000D01*
X139750000Y-76900000D02*
X143545000Y-73105000D01*
X179300000Y-61425000D02*
X179475000Y-61600000D01*
X168575000Y-40745000D02*
X174050000Y-35270000D01*
X175800000Y-83000000D02*
X145850000Y-83000000D01*
X189750000Y-96950000D02*
X175800000Y-83000000D01*
X143545000Y-73105000D02*
X156270000Y-73105000D01*
X172025000Y-55525000D02*
X168575000Y-52075000D01*
X145850000Y-83000000D02*
X139750000Y-76900000D01*
X168105000Y-45900000D02*
X168575000Y-45430000D01*
X178955000Y-58455000D02*
X176750000Y-56250000D01*
X168575000Y-45430000D02*
X168575000Y-40745000D01*
X156270000Y-73105000D02*
X172025000Y-57350000D01*
X189750000Y-99760000D02*
X189750000Y-96950000D01*
X174050000Y-35270000D02*
X179130000Y-35270000D01*
X176750000Y-56250000D02*
X172025000Y-56250000D01*
X172025000Y-56250000D02*
X172025000Y-55525000D01*
%TO.N,Net-(D6-A)*%
X207910000Y-29915000D02*
X207910000Y-32450000D01*
X207910000Y-32450000D02*
X210825000Y-35365000D01*
%TO.N,/JD-VCC*%
X210825000Y-42985000D02*
X213635000Y-42985000D01*
X191220000Y-53750000D02*
X191220000Y-53700000D01*
X210075000Y-82060000D02*
X217940000Y-82060000D01*
X215525000Y-30775000D02*
X213500000Y-32800000D01*
X192795000Y-43075000D02*
X191220000Y-41500000D01*
X190000000Y-62805000D02*
X192870000Y-65675000D01*
X213185000Y-97825000D02*
X213275000Y-97825000D01*
X192795000Y-44625000D02*
X190500000Y-46920000D01*
X190500000Y-46920000D02*
X190500000Y-52980000D01*
X192795000Y-44625000D02*
X192795000Y-43075000D01*
X192770000Y-55300000D02*
X191220000Y-53750000D01*
X190000000Y-54920000D02*
X190000000Y-62805000D01*
X190500000Y-40780000D02*
X191220000Y-41500000D01*
X213500000Y-40310000D02*
X210825000Y-42985000D01*
X213275000Y-97825000D02*
X213300000Y-97800000D01*
X213500000Y-32800000D02*
X213500000Y-40310000D01*
X190500000Y-52980000D02*
X191220000Y-53700000D01*
X191725000Y-34175000D02*
X190500000Y-35400000D01*
X191220000Y-53700000D02*
X190000000Y-54920000D01*
X210375000Y-62260000D02*
X215960000Y-62260000D01*
X217940000Y-82060000D02*
X218375000Y-81625000D01*
X192795000Y-34175000D02*
X191725000Y-34175000D01*
X213635000Y-42985000D02*
X218375000Y-47725000D01*
X218375000Y-30775000D02*
X215525000Y-30775000D01*
X190500000Y-35400000D02*
X190500000Y-40780000D01*
X215960000Y-62260000D02*
X218375000Y-64675000D01*
%TO.N,Net-(D7-A)*%
X207560000Y-49490000D02*
X207560000Y-51825000D01*
X216500000Y-57850000D02*
X218375000Y-59725000D01*
X213585000Y-57850000D02*
X216500000Y-57850000D01*
X210375000Y-54640000D02*
X213585000Y-57850000D01*
X207560000Y-51825000D02*
X210375000Y-54640000D01*
%TO.N,Net-(D8-A)*%
X216140000Y-74440000D02*
X218375000Y-76675000D01*
X210075000Y-74440000D02*
X216140000Y-74440000D01*
X207825000Y-72190000D02*
X210075000Y-74440000D01*
X207825000Y-69200000D02*
X207825000Y-72190000D01*
%TO.N,Net-(D9-A)*%
X209765000Y-93625000D02*
X218375000Y-93625000D01*
X205565000Y-97825000D02*
X209765000Y-93625000D01*
X207025000Y-88825000D02*
X207025000Y-96365000D01*
%TO.N,Net-(D10-A)*%
X186800000Y-32700000D02*
X186800000Y-36221370D01*
X175175000Y-28425000D02*
X175300000Y-28300000D01*
X186306370Y-36715000D02*
X185175000Y-36715000D01*
X185600000Y-31500000D02*
X186800000Y-32700000D01*
X174875000Y-28425000D02*
X177950000Y-31500000D01*
X186800000Y-36221370D02*
X186306370Y-36715000D01*
X177950000Y-31500000D02*
X185600000Y-31500000D01*
X174875000Y-28425000D02*
X175175000Y-28425000D01*
%TO.N,Net-(D11-A)*%
X188700000Y-44771370D02*
X186306370Y-47165000D01*
X188700000Y-31800000D02*
X188700000Y-44771370D01*
X183700000Y-30500000D02*
X187400000Y-30500000D01*
X187400000Y-30500000D02*
X188700000Y-31800000D01*
X186306370Y-47165000D02*
X185175000Y-47165000D01*
X181625000Y-28425000D02*
X183700000Y-30500000D01*
D34*
%TO.N,/C2*%
X217630000Y-54880000D02*
X216425000Y-53675000D01*
X242750000Y-54880000D02*
X217630000Y-54880000D01*
%TO.N,/C3*%
X230575000Y-70625000D02*
X241240000Y-59960000D01*
X241240000Y-59960000D02*
X242750000Y-59960000D01*
X216425000Y-70625000D02*
X230575000Y-70625000D01*
%TO.N,/C1*%
X235325000Y-36725000D02*
X242750000Y-44150000D01*
X216425000Y-36725000D02*
X235325000Y-36725000D01*
X242750000Y-44150000D02*
X242750000Y-49800000D01*
D32*
%TO.N,Net-(Q1-B)*%
X201850000Y-27445000D02*
X210380000Y-27445000D01*
X210380000Y-27445000D02*
X210450000Y-27375000D01*
%TO.N,Net-(Q2-B)*%
X201725000Y-41020000D02*
X204170000Y-41020000D01*
X204170000Y-41020000D02*
X210100000Y-46950000D01*
%TO.N,Net-(Q3-B)*%
X205975000Y-63975000D02*
X208660000Y-66660000D01*
X205975000Y-56175000D02*
X205975000Y-63975000D01*
X201850000Y-54595000D02*
X204395000Y-54595000D01*
X208660000Y-66660000D02*
X210365000Y-66660000D01*
X204395000Y-54595000D02*
X205975000Y-56175000D01*
%TO.N,Net-(Q4-B)*%
X203795000Y-69095000D02*
X206000000Y-71300000D01*
X206000000Y-82720000D02*
X209565000Y-86285000D01*
X206000000Y-71300000D02*
X206000000Y-82720000D01*
X202025000Y-69095000D02*
X203795000Y-69095000D01*
%TO.N,Net-(R2-Pad2)*%
X174050000Y-45430000D02*
X174050000Y-41250000D01*
X181900000Y-39600000D02*
X183200000Y-38300000D01*
X183200000Y-36150000D02*
X185175000Y-34175000D01*
X183200000Y-38300000D02*
X183200000Y-36150000D01*
X175700000Y-39600000D02*
X181900000Y-39600000D01*
X174050000Y-41250000D02*
X175700000Y-39600000D01*
%TO.N,Net-(R3-Pad1)*%
X193685000Y-37605000D02*
X192795000Y-36715000D01*
X201850000Y-37605000D02*
X193685000Y-37605000D01*
%TO.N,Net-(R4-Pad2)*%
X179300000Y-45260000D02*
X184540000Y-45260000D01*
X184540000Y-45260000D02*
X185175000Y-44625000D01*
%TO.N,Net-(R5-Pad1)*%
X196810000Y-51180000D02*
X192795000Y-47165000D01*
X201725000Y-51180000D02*
X196810000Y-51180000D01*
%TO.N,Net-(R6-Pad2)*%
X179300000Y-49450000D02*
X185150000Y-55300000D01*
X179300000Y-48295000D02*
X179300000Y-49450000D01*
%TO.N,Net-(R7-Pad1)*%
X201850000Y-64755000D02*
X199685000Y-64755000D01*
X199685000Y-64755000D02*
X192770000Y-57840000D01*
%TO.N,Net-(R8-Pad2)*%
X179475000Y-67925000D02*
X181725000Y-65675000D01*
X181725000Y-65675000D02*
X185250000Y-65675000D01*
X179475000Y-71760000D02*
X179475000Y-67925000D01*
%TO.N,Net-(R9-Pad1)*%
X202025000Y-79255000D02*
X202025000Y-77370000D01*
X202025000Y-77370000D02*
X192870000Y-68215000D01*
%TD*%
M02*
