%TF.GenerationSoftware,KiCad,Pcbnew,8.0.7*%
%TF.CreationDate,2025-08-04T19:52:47+05:30*%
%TF.ProjectId,IOT,494f542e-6b69-4636-9164-5f7063625858,rev?*%
%TF.SameCoordinates,Original*%
%TF.FileFunction,Legend,Top*%
%TF.FilePolarity,Positive*%
%FSLAX46Y46*%
G04 Gerber Fmt 4.6, Leading zero omitted, Abs format (unit mm)*
G04 Created by KiCad (PCBNEW 8.0.7) date 2025-08-04 19:52:47*
%MOMM*%
%LPD*%
G01*
G04 APERTURE LIST*
%ADD10C,0.150000*%
%ADD11C,0.120000*%
%ADD12C,0.127000*%
%ADD13C,0.200000*%
G04 APERTURE END LIST*
D10*
X130491666Y-49509819D02*
X130491666Y-50224104D01*
X130491666Y-50224104D02*
X130444047Y-50366961D01*
X130444047Y-50366961D02*
X130348809Y-50462200D01*
X130348809Y-50462200D02*
X130205952Y-50509819D01*
X130205952Y-50509819D02*
X130110714Y-50509819D01*
X131396428Y-49843152D02*
X131396428Y-50509819D01*
X131158333Y-49462200D02*
X130920238Y-50176485D01*
X130920238Y-50176485D02*
X131539285Y-50176485D01*
X140473095Y-33259819D02*
X140473095Y-34069342D01*
X140473095Y-34069342D02*
X140520714Y-34164580D01*
X140520714Y-34164580D02*
X140568333Y-34212200D01*
X140568333Y-34212200D02*
X140663571Y-34259819D01*
X140663571Y-34259819D02*
X140854047Y-34259819D01*
X140854047Y-34259819D02*
X140949285Y-34212200D01*
X140949285Y-34212200D02*
X140996904Y-34164580D01*
X140996904Y-34164580D02*
X141044523Y-34069342D01*
X141044523Y-34069342D02*
X141044523Y-33259819D01*
X141425476Y-33259819D02*
X142092142Y-33259819D01*
X142092142Y-33259819D02*
X141663571Y-34259819D01*
X162358333Y-47209580D02*
X162310714Y-47257200D01*
X162310714Y-47257200D02*
X162167857Y-47304819D01*
X162167857Y-47304819D02*
X162072619Y-47304819D01*
X162072619Y-47304819D02*
X161929762Y-47257200D01*
X161929762Y-47257200D02*
X161834524Y-47161961D01*
X161834524Y-47161961D02*
X161786905Y-47066723D01*
X161786905Y-47066723D02*
X161739286Y-46876247D01*
X161739286Y-46876247D02*
X161739286Y-46733390D01*
X161739286Y-46733390D02*
X161786905Y-46542914D01*
X161786905Y-46542914D02*
X161834524Y-46447676D01*
X161834524Y-46447676D02*
X161929762Y-46352438D01*
X161929762Y-46352438D02*
X162072619Y-46304819D01*
X162072619Y-46304819D02*
X162167857Y-46304819D01*
X162167857Y-46304819D02*
X162310714Y-46352438D01*
X162310714Y-46352438D02*
X162358333Y-46400057D01*
X162691667Y-46304819D02*
X163310714Y-46304819D01*
X163310714Y-46304819D02*
X162977381Y-46685771D01*
X162977381Y-46685771D02*
X163120238Y-46685771D01*
X163120238Y-46685771D02*
X163215476Y-46733390D01*
X163215476Y-46733390D02*
X163263095Y-46781009D01*
X163263095Y-46781009D02*
X163310714Y-46876247D01*
X163310714Y-46876247D02*
X163310714Y-47114342D01*
X163310714Y-47114342D02*
X163263095Y-47209580D01*
X163263095Y-47209580D02*
X163215476Y-47257200D01*
X163215476Y-47257200D02*
X163120238Y-47304819D01*
X163120238Y-47304819D02*
X162834524Y-47304819D01*
X162834524Y-47304819D02*
X162739286Y-47257200D01*
X162739286Y-47257200D02*
X162691667Y-47209580D01*
X200109819Y-74341666D02*
X199633628Y-74674999D01*
X200109819Y-74913094D02*
X199109819Y-74913094D01*
X199109819Y-74913094D02*
X199109819Y-74532142D01*
X199109819Y-74532142D02*
X199157438Y-74436904D01*
X199157438Y-74436904D02*
X199205057Y-74389285D01*
X199205057Y-74389285D02*
X199300295Y-74341666D01*
X199300295Y-74341666D02*
X199443152Y-74341666D01*
X199443152Y-74341666D02*
X199538390Y-74389285D01*
X199538390Y-74389285D02*
X199586009Y-74436904D01*
X199586009Y-74436904D02*
X199633628Y-74532142D01*
X199633628Y-74532142D02*
X199633628Y-74913094D01*
X200109819Y-73865475D02*
X200109819Y-73674999D01*
X200109819Y-73674999D02*
X200062200Y-73579761D01*
X200062200Y-73579761D02*
X200014580Y-73532142D01*
X200014580Y-73532142D02*
X199871723Y-73436904D01*
X199871723Y-73436904D02*
X199681247Y-73389285D01*
X199681247Y-73389285D02*
X199300295Y-73389285D01*
X199300295Y-73389285D02*
X199205057Y-73436904D01*
X199205057Y-73436904D02*
X199157438Y-73484523D01*
X199157438Y-73484523D02*
X199109819Y-73579761D01*
X199109819Y-73579761D02*
X199109819Y-73770237D01*
X199109819Y-73770237D02*
X199157438Y-73865475D01*
X199157438Y-73865475D02*
X199205057Y-73913094D01*
X199205057Y-73913094D02*
X199300295Y-73960713D01*
X199300295Y-73960713D02*
X199538390Y-73960713D01*
X199538390Y-73960713D02*
X199633628Y-73913094D01*
X199633628Y-73913094D02*
X199681247Y-73865475D01*
X199681247Y-73865475D02*
X199728866Y-73770237D01*
X199728866Y-73770237D02*
X199728866Y-73579761D01*
X199728866Y-73579761D02*
X199681247Y-73484523D01*
X199681247Y-73484523D02*
X199633628Y-73436904D01*
X199633628Y-73436904D02*
X199538390Y-73389285D01*
X152854819Y-44981904D02*
X151854819Y-44981904D01*
X152854819Y-44410476D02*
X152283390Y-44839047D01*
X151854819Y-44410476D02*
X152426247Y-44981904D01*
X139416666Y-74024819D02*
X139416666Y-74739104D01*
X139416666Y-74739104D02*
X139369047Y-74881961D01*
X139369047Y-74881961D02*
X139273809Y-74977200D01*
X139273809Y-74977200D02*
X139130952Y-75024819D01*
X139130952Y-75024819D02*
X139035714Y-75024819D01*
X139797619Y-74024819D02*
X140416666Y-74024819D01*
X140416666Y-74024819D02*
X140083333Y-74405771D01*
X140083333Y-74405771D02*
X140226190Y-74405771D01*
X140226190Y-74405771D02*
X140321428Y-74453390D01*
X140321428Y-74453390D02*
X140369047Y-74501009D01*
X140369047Y-74501009D02*
X140416666Y-74596247D01*
X140416666Y-74596247D02*
X140416666Y-74834342D01*
X140416666Y-74834342D02*
X140369047Y-74929580D01*
X140369047Y-74929580D02*
X140321428Y-74977200D01*
X140321428Y-74977200D02*
X140226190Y-75024819D01*
X140226190Y-75024819D02*
X139940476Y-75024819D01*
X139940476Y-75024819D02*
X139845238Y-74977200D01*
X139845238Y-74977200D02*
X139797619Y-74929580D01*
X199934819Y-59841666D02*
X199458628Y-60174999D01*
X199934819Y-60413094D02*
X198934819Y-60413094D01*
X198934819Y-60413094D02*
X198934819Y-60032142D01*
X198934819Y-60032142D02*
X198982438Y-59936904D01*
X198982438Y-59936904D02*
X199030057Y-59889285D01*
X199030057Y-59889285D02*
X199125295Y-59841666D01*
X199125295Y-59841666D02*
X199268152Y-59841666D01*
X199268152Y-59841666D02*
X199363390Y-59889285D01*
X199363390Y-59889285D02*
X199411009Y-59936904D01*
X199411009Y-59936904D02*
X199458628Y-60032142D01*
X199458628Y-60032142D02*
X199458628Y-60413094D01*
X198934819Y-59508332D02*
X198934819Y-58841666D01*
X198934819Y-58841666D02*
X199934819Y-59270237D01*
X208409819Y-78988094D02*
X207409819Y-78988094D01*
X207409819Y-78988094D02*
X207409819Y-78749999D01*
X207409819Y-78749999D02*
X207457438Y-78607142D01*
X207457438Y-78607142D02*
X207552676Y-78511904D01*
X207552676Y-78511904D02*
X207647914Y-78464285D01*
X207647914Y-78464285D02*
X207838390Y-78416666D01*
X207838390Y-78416666D02*
X207981247Y-78416666D01*
X207981247Y-78416666D02*
X208171723Y-78464285D01*
X208171723Y-78464285D02*
X208266961Y-78511904D01*
X208266961Y-78511904D02*
X208362200Y-78607142D01*
X208362200Y-78607142D02*
X208409819Y-78749999D01*
X208409819Y-78749999D02*
X208409819Y-78988094D01*
X207838390Y-77845237D02*
X207790771Y-77940475D01*
X207790771Y-77940475D02*
X207743152Y-77988094D01*
X207743152Y-77988094D02*
X207647914Y-78035713D01*
X207647914Y-78035713D02*
X207600295Y-78035713D01*
X207600295Y-78035713D02*
X207505057Y-77988094D01*
X207505057Y-77988094D02*
X207457438Y-77940475D01*
X207457438Y-77940475D02*
X207409819Y-77845237D01*
X207409819Y-77845237D02*
X207409819Y-77654761D01*
X207409819Y-77654761D02*
X207457438Y-77559523D01*
X207457438Y-77559523D02*
X207505057Y-77511904D01*
X207505057Y-77511904D02*
X207600295Y-77464285D01*
X207600295Y-77464285D02*
X207647914Y-77464285D01*
X207647914Y-77464285D02*
X207743152Y-77511904D01*
X207743152Y-77511904D02*
X207790771Y-77559523D01*
X207790771Y-77559523D02*
X207838390Y-77654761D01*
X207838390Y-77654761D02*
X207838390Y-77845237D01*
X207838390Y-77845237D02*
X207886009Y-77940475D01*
X207886009Y-77940475D02*
X207933628Y-77988094D01*
X207933628Y-77988094D02*
X208028866Y-78035713D01*
X208028866Y-78035713D02*
X208219342Y-78035713D01*
X208219342Y-78035713D02*
X208314580Y-77988094D01*
X208314580Y-77988094D02*
X208362200Y-77940475D01*
X208362200Y-77940475D02*
X208409819Y-77845237D01*
X208409819Y-77845237D02*
X208409819Y-77654761D01*
X208409819Y-77654761D02*
X208362200Y-77559523D01*
X208362200Y-77559523D02*
X208314580Y-77511904D01*
X208314580Y-77511904D02*
X208219342Y-77464285D01*
X208219342Y-77464285D02*
X208028866Y-77464285D01*
X208028866Y-77464285D02*
X207933628Y-77511904D01*
X207933628Y-77511904D02*
X207886009Y-77559523D01*
X207886009Y-77559523D02*
X207838390Y-77654761D01*
X208729819Y-82321904D02*
X207729819Y-82321904D01*
X208729819Y-81750476D02*
X208158390Y-82179047D01*
X207729819Y-81750476D02*
X208301247Y-82321904D01*
X192415714Y-25719819D02*
X192415714Y-24719819D01*
X192415714Y-24719819D02*
X192653809Y-24719819D01*
X192653809Y-24719819D02*
X192796666Y-24767438D01*
X192796666Y-24767438D02*
X192891904Y-24862676D01*
X192891904Y-24862676D02*
X192939523Y-24957914D01*
X192939523Y-24957914D02*
X192987142Y-25148390D01*
X192987142Y-25148390D02*
X192987142Y-25291247D01*
X192987142Y-25291247D02*
X192939523Y-25481723D01*
X192939523Y-25481723D02*
X192891904Y-25576961D01*
X192891904Y-25576961D02*
X192796666Y-25672200D01*
X192796666Y-25672200D02*
X192653809Y-25719819D01*
X192653809Y-25719819D02*
X192415714Y-25719819D01*
X193939523Y-25719819D02*
X193368095Y-25719819D01*
X193653809Y-25719819D02*
X193653809Y-24719819D01*
X193653809Y-24719819D02*
X193558571Y-24862676D01*
X193558571Y-24862676D02*
X193463333Y-24957914D01*
X193463333Y-24957914D02*
X193368095Y-25005533D01*
X194272857Y-24719819D02*
X194891904Y-24719819D01*
X194891904Y-24719819D02*
X194558571Y-25100771D01*
X194558571Y-25100771D02*
X194701428Y-25100771D01*
X194701428Y-25100771D02*
X194796666Y-25148390D01*
X194796666Y-25148390D02*
X194844285Y-25196009D01*
X194844285Y-25196009D02*
X194891904Y-25291247D01*
X194891904Y-25291247D02*
X194891904Y-25529342D01*
X194891904Y-25529342D02*
X194844285Y-25624580D01*
X194844285Y-25624580D02*
X194796666Y-25672200D01*
X194796666Y-25672200D02*
X194701428Y-25719819D01*
X194701428Y-25719819D02*
X194415714Y-25719819D01*
X194415714Y-25719819D02*
X194320476Y-25672200D01*
X194320476Y-25672200D02*
X194272857Y-25624580D01*
X248188095Y-26229819D02*
X248188095Y-25229819D01*
X248188095Y-25706009D02*
X248759523Y-25706009D01*
X248759523Y-26229819D02*
X248759523Y-25229819D01*
X249188095Y-25325057D02*
X249235714Y-25277438D01*
X249235714Y-25277438D02*
X249330952Y-25229819D01*
X249330952Y-25229819D02*
X249569047Y-25229819D01*
X249569047Y-25229819D02*
X249664285Y-25277438D01*
X249664285Y-25277438D02*
X249711904Y-25325057D01*
X249711904Y-25325057D02*
X249759523Y-25420295D01*
X249759523Y-25420295D02*
X249759523Y-25515533D01*
X249759523Y-25515533D02*
X249711904Y-25658390D01*
X249711904Y-25658390D02*
X249140476Y-26229819D01*
X249140476Y-26229819D02*
X249759523Y-26229819D01*
X188198095Y-52424819D02*
X188198095Y-53234342D01*
X188198095Y-53234342D02*
X188245714Y-53329580D01*
X188245714Y-53329580D02*
X188293333Y-53377200D01*
X188293333Y-53377200D02*
X188388571Y-53424819D01*
X188388571Y-53424819D02*
X188579047Y-53424819D01*
X188579047Y-53424819D02*
X188674285Y-53377200D01*
X188674285Y-53377200D02*
X188721904Y-53329580D01*
X188721904Y-53329580D02*
X188769523Y-53234342D01*
X188769523Y-53234342D02*
X188769523Y-52424819D01*
X189674285Y-52758152D02*
X189674285Y-53424819D01*
X189436190Y-52377200D02*
X189198095Y-53091485D01*
X189198095Y-53091485D02*
X189817142Y-53091485D01*
X199934819Y-32691666D02*
X199458628Y-33024999D01*
X199934819Y-33263094D02*
X198934819Y-33263094D01*
X198934819Y-33263094D02*
X198934819Y-32882142D01*
X198934819Y-32882142D02*
X198982438Y-32786904D01*
X198982438Y-32786904D02*
X199030057Y-32739285D01*
X199030057Y-32739285D02*
X199125295Y-32691666D01*
X199125295Y-32691666D02*
X199268152Y-32691666D01*
X199268152Y-32691666D02*
X199363390Y-32739285D01*
X199363390Y-32739285D02*
X199411009Y-32786904D01*
X199411009Y-32786904D02*
X199458628Y-32882142D01*
X199458628Y-32882142D02*
X199458628Y-33263094D01*
X198934819Y-32358332D02*
X198934819Y-31739285D01*
X198934819Y-31739285D02*
X199315771Y-32072618D01*
X199315771Y-32072618D02*
X199315771Y-31929761D01*
X199315771Y-31929761D02*
X199363390Y-31834523D01*
X199363390Y-31834523D02*
X199411009Y-31786904D01*
X199411009Y-31786904D02*
X199506247Y-31739285D01*
X199506247Y-31739285D02*
X199744342Y-31739285D01*
X199744342Y-31739285D02*
X199839580Y-31786904D01*
X199839580Y-31786904D02*
X199887200Y-31834523D01*
X199887200Y-31834523D02*
X199934819Y-31929761D01*
X199934819Y-31929761D02*
X199934819Y-32215475D01*
X199934819Y-32215475D02*
X199887200Y-32310713D01*
X199887200Y-32310713D02*
X199839580Y-32358332D01*
X235944819Y-57753333D02*
X236659104Y-57753333D01*
X236659104Y-57753333D02*
X236801961Y-57800952D01*
X236801961Y-57800952D02*
X236897200Y-57896190D01*
X236897200Y-57896190D02*
X236944819Y-58039047D01*
X236944819Y-58039047D02*
X236944819Y-58134285D01*
X236040057Y-57324761D02*
X235992438Y-57277142D01*
X235992438Y-57277142D02*
X235944819Y-57181904D01*
X235944819Y-57181904D02*
X235944819Y-56943809D01*
X235944819Y-56943809D02*
X235992438Y-56848571D01*
X235992438Y-56848571D02*
X236040057Y-56800952D01*
X236040057Y-56800952D02*
X236135295Y-56753333D01*
X236135295Y-56753333D02*
X236230533Y-56753333D01*
X236230533Y-56753333D02*
X236373390Y-56800952D01*
X236373390Y-56800952D02*
X236944819Y-57372380D01*
X236944819Y-57372380D02*
X236944819Y-56753333D01*
X177384819Y-53541666D02*
X176908628Y-53874999D01*
X177384819Y-54113094D02*
X176384819Y-54113094D01*
X176384819Y-54113094D02*
X176384819Y-53732142D01*
X176384819Y-53732142D02*
X176432438Y-53636904D01*
X176432438Y-53636904D02*
X176480057Y-53589285D01*
X176480057Y-53589285D02*
X176575295Y-53541666D01*
X176575295Y-53541666D02*
X176718152Y-53541666D01*
X176718152Y-53541666D02*
X176813390Y-53589285D01*
X176813390Y-53589285D02*
X176861009Y-53636904D01*
X176861009Y-53636904D02*
X176908628Y-53732142D01*
X176908628Y-53732142D02*
X176908628Y-54113094D01*
X176384819Y-52684523D02*
X176384819Y-52874999D01*
X176384819Y-52874999D02*
X176432438Y-52970237D01*
X176432438Y-52970237D02*
X176480057Y-53017856D01*
X176480057Y-53017856D02*
X176622914Y-53113094D01*
X176622914Y-53113094D02*
X176813390Y-53160713D01*
X176813390Y-53160713D02*
X177194342Y-53160713D01*
X177194342Y-53160713D02*
X177289580Y-53113094D01*
X177289580Y-53113094D02*
X177337200Y-53065475D01*
X177337200Y-53065475D02*
X177384819Y-52970237D01*
X177384819Y-52970237D02*
X177384819Y-52779761D01*
X177384819Y-52779761D02*
X177337200Y-52684523D01*
X177337200Y-52684523D02*
X177289580Y-52636904D01*
X177289580Y-52636904D02*
X177194342Y-52589285D01*
X177194342Y-52589285D02*
X176956247Y-52589285D01*
X176956247Y-52589285D02*
X176861009Y-52636904D01*
X176861009Y-52636904D02*
X176813390Y-52684523D01*
X176813390Y-52684523D02*
X176765771Y-52779761D01*
X176765771Y-52779761D02*
X176765771Y-52970237D01*
X176765771Y-52970237D02*
X176813390Y-53065475D01*
X176813390Y-53065475D02*
X176861009Y-53113094D01*
X176861009Y-53113094D02*
X176956247Y-53160713D01*
X172390714Y-25919819D02*
X172390714Y-24919819D01*
X172390714Y-24919819D02*
X172628809Y-24919819D01*
X172628809Y-24919819D02*
X172771666Y-24967438D01*
X172771666Y-24967438D02*
X172866904Y-25062676D01*
X172866904Y-25062676D02*
X172914523Y-25157914D01*
X172914523Y-25157914D02*
X172962142Y-25348390D01*
X172962142Y-25348390D02*
X172962142Y-25491247D01*
X172962142Y-25491247D02*
X172914523Y-25681723D01*
X172914523Y-25681723D02*
X172866904Y-25776961D01*
X172866904Y-25776961D02*
X172771666Y-25872200D01*
X172771666Y-25872200D02*
X172628809Y-25919819D01*
X172628809Y-25919819D02*
X172390714Y-25919819D01*
X173914523Y-25919819D02*
X173343095Y-25919819D01*
X173628809Y-25919819D02*
X173628809Y-24919819D01*
X173628809Y-24919819D02*
X173533571Y-25062676D01*
X173533571Y-25062676D02*
X173438333Y-25157914D01*
X173438333Y-25157914D02*
X173343095Y-25205533D01*
X174533571Y-24919819D02*
X174628809Y-24919819D01*
X174628809Y-24919819D02*
X174724047Y-24967438D01*
X174724047Y-24967438D02*
X174771666Y-25015057D01*
X174771666Y-25015057D02*
X174819285Y-25110295D01*
X174819285Y-25110295D02*
X174866904Y-25300771D01*
X174866904Y-25300771D02*
X174866904Y-25538866D01*
X174866904Y-25538866D02*
X174819285Y-25729342D01*
X174819285Y-25729342D02*
X174771666Y-25824580D01*
X174771666Y-25824580D02*
X174724047Y-25872200D01*
X174724047Y-25872200D02*
X174628809Y-25919819D01*
X174628809Y-25919819D02*
X174533571Y-25919819D01*
X174533571Y-25919819D02*
X174438333Y-25872200D01*
X174438333Y-25872200D02*
X174390714Y-25824580D01*
X174390714Y-25824580D02*
X174343095Y-25729342D01*
X174343095Y-25729342D02*
X174295476Y-25538866D01*
X174295476Y-25538866D02*
X174295476Y-25300771D01*
X174295476Y-25300771D02*
X174343095Y-25110295D01*
X174343095Y-25110295D02*
X174390714Y-25015057D01*
X174390714Y-25015057D02*
X174438333Y-24967438D01*
X174438333Y-24967438D02*
X174533571Y-24919819D01*
X145789819Y-98416904D02*
X146599342Y-98416904D01*
X146599342Y-98416904D02*
X146694580Y-98369285D01*
X146694580Y-98369285D02*
X146742200Y-98321666D01*
X146742200Y-98321666D02*
X146789819Y-98226428D01*
X146789819Y-98226428D02*
X146789819Y-98035952D01*
X146789819Y-98035952D02*
X146742200Y-97940714D01*
X146742200Y-97940714D02*
X146694580Y-97893095D01*
X146694580Y-97893095D02*
X146599342Y-97845476D01*
X146599342Y-97845476D02*
X145789819Y-97845476D01*
X145789819Y-96940714D02*
X145789819Y-97131190D01*
X145789819Y-97131190D02*
X145837438Y-97226428D01*
X145837438Y-97226428D02*
X145885057Y-97274047D01*
X145885057Y-97274047D02*
X146027914Y-97369285D01*
X146027914Y-97369285D02*
X146218390Y-97416904D01*
X146218390Y-97416904D02*
X146599342Y-97416904D01*
X146599342Y-97416904D02*
X146694580Y-97369285D01*
X146694580Y-97369285D02*
X146742200Y-97321666D01*
X146742200Y-97321666D02*
X146789819Y-97226428D01*
X146789819Y-97226428D02*
X146789819Y-97035952D01*
X146789819Y-97035952D02*
X146742200Y-96940714D01*
X146742200Y-96940714D02*
X146694580Y-96893095D01*
X146694580Y-96893095D02*
X146599342Y-96845476D01*
X146599342Y-96845476D02*
X146361247Y-96845476D01*
X146361247Y-96845476D02*
X146266009Y-96893095D01*
X146266009Y-96893095D02*
X146218390Y-96940714D01*
X146218390Y-96940714D02*
X146170771Y-97035952D01*
X146170771Y-97035952D02*
X146170771Y-97226428D01*
X146170771Y-97226428D02*
X146218390Y-97321666D01*
X146218390Y-97321666D02*
X146266009Y-97369285D01*
X146266009Y-97369285D02*
X146361247Y-97416904D01*
X185665714Y-25844819D02*
X185665714Y-24844819D01*
X185665714Y-24844819D02*
X185903809Y-24844819D01*
X185903809Y-24844819D02*
X186046666Y-24892438D01*
X186046666Y-24892438D02*
X186141904Y-24987676D01*
X186141904Y-24987676D02*
X186189523Y-25082914D01*
X186189523Y-25082914D02*
X186237142Y-25273390D01*
X186237142Y-25273390D02*
X186237142Y-25416247D01*
X186237142Y-25416247D02*
X186189523Y-25606723D01*
X186189523Y-25606723D02*
X186141904Y-25701961D01*
X186141904Y-25701961D02*
X186046666Y-25797200D01*
X186046666Y-25797200D02*
X185903809Y-25844819D01*
X185903809Y-25844819D02*
X185665714Y-25844819D01*
X187189523Y-25844819D02*
X186618095Y-25844819D01*
X186903809Y-25844819D02*
X186903809Y-24844819D01*
X186903809Y-24844819D02*
X186808571Y-24987676D01*
X186808571Y-24987676D02*
X186713333Y-25082914D01*
X186713333Y-25082914D02*
X186618095Y-25130533D01*
X187570476Y-24940057D02*
X187618095Y-24892438D01*
X187618095Y-24892438D02*
X187713333Y-24844819D01*
X187713333Y-24844819D02*
X187951428Y-24844819D01*
X187951428Y-24844819D02*
X188046666Y-24892438D01*
X188046666Y-24892438D02*
X188094285Y-24940057D01*
X188094285Y-24940057D02*
X188141904Y-25035295D01*
X188141904Y-25035295D02*
X188141904Y-25130533D01*
X188141904Y-25130533D02*
X188094285Y-25273390D01*
X188094285Y-25273390D02*
X187522857Y-25844819D01*
X187522857Y-25844819D02*
X188141904Y-25844819D01*
X156088095Y-33329819D02*
X156088095Y-34139342D01*
X156088095Y-34139342D02*
X156135714Y-34234580D01*
X156135714Y-34234580D02*
X156183333Y-34282200D01*
X156183333Y-34282200D02*
X156278571Y-34329819D01*
X156278571Y-34329819D02*
X156469047Y-34329819D01*
X156469047Y-34329819D02*
X156564285Y-34282200D01*
X156564285Y-34282200D02*
X156611904Y-34234580D01*
X156611904Y-34234580D02*
X156659523Y-34139342D01*
X156659523Y-34139342D02*
X156659523Y-33329819D01*
X157659523Y-34329819D02*
X157088095Y-34329819D01*
X157373809Y-34329819D02*
X157373809Y-33329819D01*
X157373809Y-33329819D02*
X157278571Y-33472676D01*
X157278571Y-33472676D02*
X157183333Y-33567914D01*
X157183333Y-33567914D02*
X157088095Y-33615533D01*
X223961905Y-75954819D02*
X223961905Y-74954819D01*
X224533333Y-75954819D02*
X224104762Y-75383390D01*
X224533333Y-74954819D02*
X223961905Y-75526247D01*
X224866667Y-74954819D02*
X225485714Y-74954819D01*
X225485714Y-74954819D02*
X225152381Y-75335771D01*
X225152381Y-75335771D02*
X225295238Y-75335771D01*
X225295238Y-75335771D02*
X225390476Y-75383390D01*
X225390476Y-75383390D02*
X225438095Y-75431009D01*
X225438095Y-75431009D02*
X225485714Y-75526247D01*
X225485714Y-75526247D02*
X225485714Y-75764342D01*
X225485714Y-75764342D02*
X225438095Y-75859580D01*
X225438095Y-75859580D02*
X225390476Y-75907200D01*
X225390476Y-75907200D02*
X225295238Y-75954819D01*
X225295238Y-75954819D02*
X225009524Y-75954819D01*
X225009524Y-75954819D02*
X224914286Y-75907200D01*
X224914286Y-75907200D02*
X224866667Y-75859580D01*
X210364761Y-26315057D02*
X210269523Y-26267438D01*
X210269523Y-26267438D02*
X210174285Y-26172200D01*
X210174285Y-26172200D02*
X210031428Y-26029342D01*
X210031428Y-26029342D02*
X209936190Y-25981723D01*
X209936190Y-25981723D02*
X209840952Y-25981723D01*
X209888571Y-26219819D02*
X209793333Y-26172200D01*
X209793333Y-26172200D02*
X209698095Y-26076961D01*
X209698095Y-26076961D02*
X209650476Y-25886485D01*
X209650476Y-25886485D02*
X209650476Y-25553152D01*
X209650476Y-25553152D02*
X209698095Y-25362676D01*
X209698095Y-25362676D02*
X209793333Y-25267438D01*
X209793333Y-25267438D02*
X209888571Y-25219819D01*
X209888571Y-25219819D02*
X210079047Y-25219819D01*
X210079047Y-25219819D02*
X210174285Y-25267438D01*
X210174285Y-25267438D02*
X210269523Y-25362676D01*
X210269523Y-25362676D02*
X210317142Y-25553152D01*
X210317142Y-25553152D02*
X210317142Y-25886485D01*
X210317142Y-25886485D02*
X210269523Y-26076961D01*
X210269523Y-26076961D02*
X210174285Y-26172200D01*
X210174285Y-26172200D02*
X210079047Y-26219819D01*
X210079047Y-26219819D02*
X209888571Y-26219819D01*
X211269523Y-26219819D02*
X210698095Y-26219819D01*
X210983809Y-26219819D02*
X210983809Y-25219819D01*
X210983809Y-25219819D02*
X210888571Y-25362676D01*
X210888571Y-25362676D02*
X210793333Y-25457914D01*
X210793333Y-25457914D02*
X210698095Y-25505533D01*
X182299819Y-66846666D02*
X181823628Y-67179999D01*
X182299819Y-67418094D02*
X181299819Y-67418094D01*
X181299819Y-67418094D02*
X181299819Y-67037142D01*
X181299819Y-67037142D02*
X181347438Y-66941904D01*
X181347438Y-66941904D02*
X181395057Y-66894285D01*
X181395057Y-66894285D02*
X181490295Y-66846666D01*
X181490295Y-66846666D02*
X181633152Y-66846666D01*
X181633152Y-66846666D02*
X181728390Y-66894285D01*
X181728390Y-66894285D02*
X181776009Y-66941904D01*
X181776009Y-66941904D02*
X181823628Y-67037142D01*
X181823628Y-67037142D02*
X181823628Y-67418094D01*
X181728390Y-66275237D02*
X181680771Y-66370475D01*
X181680771Y-66370475D02*
X181633152Y-66418094D01*
X181633152Y-66418094D02*
X181537914Y-66465713D01*
X181537914Y-66465713D02*
X181490295Y-66465713D01*
X181490295Y-66465713D02*
X181395057Y-66418094D01*
X181395057Y-66418094D02*
X181347438Y-66370475D01*
X181347438Y-66370475D02*
X181299819Y-66275237D01*
X181299819Y-66275237D02*
X181299819Y-66084761D01*
X181299819Y-66084761D02*
X181347438Y-65989523D01*
X181347438Y-65989523D02*
X181395057Y-65941904D01*
X181395057Y-65941904D02*
X181490295Y-65894285D01*
X181490295Y-65894285D02*
X181537914Y-65894285D01*
X181537914Y-65894285D02*
X181633152Y-65941904D01*
X181633152Y-65941904D02*
X181680771Y-65989523D01*
X181680771Y-65989523D02*
X181728390Y-66084761D01*
X181728390Y-66084761D02*
X181728390Y-66275237D01*
X181728390Y-66275237D02*
X181776009Y-66370475D01*
X181776009Y-66370475D02*
X181823628Y-66418094D01*
X181823628Y-66418094D02*
X181918866Y-66465713D01*
X181918866Y-66465713D02*
X182109342Y-66465713D01*
X182109342Y-66465713D02*
X182204580Y-66418094D01*
X182204580Y-66418094D02*
X182252200Y-66370475D01*
X182252200Y-66370475D02*
X182299819Y-66275237D01*
X182299819Y-66275237D02*
X182299819Y-66084761D01*
X182299819Y-66084761D02*
X182252200Y-65989523D01*
X182252200Y-65989523D02*
X182204580Y-65941904D01*
X182204580Y-65941904D02*
X182109342Y-65894285D01*
X182109342Y-65894285D02*
X181918866Y-65894285D01*
X181918866Y-65894285D02*
X181823628Y-65941904D01*
X181823628Y-65941904D02*
X181776009Y-65989523D01*
X181776009Y-65989523D02*
X181728390Y-66084761D01*
X170608333Y-60359580D02*
X170560714Y-60407200D01*
X170560714Y-60407200D02*
X170417857Y-60454819D01*
X170417857Y-60454819D02*
X170322619Y-60454819D01*
X170322619Y-60454819D02*
X170179762Y-60407200D01*
X170179762Y-60407200D02*
X170084524Y-60311961D01*
X170084524Y-60311961D02*
X170036905Y-60216723D01*
X170036905Y-60216723D02*
X169989286Y-60026247D01*
X169989286Y-60026247D02*
X169989286Y-59883390D01*
X169989286Y-59883390D02*
X170036905Y-59692914D01*
X170036905Y-59692914D02*
X170084524Y-59597676D01*
X170084524Y-59597676D02*
X170179762Y-59502438D01*
X170179762Y-59502438D02*
X170322619Y-59454819D01*
X170322619Y-59454819D02*
X170417857Y-59454819D01*
X170417857Y-59454819D02*
X170560714Y-59502438D01*
X170560714Y-59502438D02*
X170608333Y-59550057D01*
X170989286Y-59550057D02*
X171036905Y-59502438D01*
X171036905Y-59502438D02*
X171132143Y-59454819D01*
X171132143Y-59454819D02*
X171370238Y-59454819D01*
X171370238Y-59454819D02*
X171465476Y-59502438D01*
X171465476Y-59502438D02*
X171513095Y-59550057D01*
X171513095Y-59550057D02*
X171560714Y-59645295D01*
X171560714Y-59645295D02*
X171560714Y-59740533D01*
X171560714Y-59740533D02*
X171513095Y-59883390D01*
X171513095Y-59883390D02*
X170941667Y-60454819D01*
X170941667Y-60454819D02*
X171560714Y-60454819D01*
X142654819Y-52961904D02*
X141654819Y-52961904D01*
X142654819Y-52390476D02*
X142083390Y-52819047D01*
X141654819Y-52390476D02*
X142226247Y-52961904D01*
X127288095Y-104029819D02*
X127288095Y-103029819D01*
X127288095Y-103506009D02*
X127859523Y-103506009D01*
X127859523Y-104029819D02*
X127859523Y-103029819D01*
X128764285Y-103363152D02*
X128764285Y-104029819D01*
X128526190Y-102982200D02*
X128288095Y-103696485D01*
X128288095Y-103696485D02*
X128907142Y-103696485D01*
X127513095Y-25304819D02*
X127513095Y-24304819D01*
X127513095Y-24781009D02*
X128084523Y-24781009D01*
X128084523Y-25304819D02*
X128084523Y-24304819D01*
X129084523Y-25304819D02*
X128513095Y-25304819D01*
X128798809Y-25304819D02*
X128798809Y-24304819D01*
X128798809Y-24304819D02*
X128703571Y-24447676D01*
X128703571Y-24447676D02*
X128608333Y-24542914D01*
X128608333Y-24542914D02*
X128513095Y-24590533D01*
X140254819Y-44681904D02*
X139254819Y-44681904D01*
X140254819Y-44110476D02*
X139683390Y-44539047D01*
X139254819Y-44110476D02*
X139826247Y-44681904D01*
X188223095Y-31299819D02*
X188223095Y-32109342D01*
X188223095Y-32109342D02*
X188270714Y-32204580D01*
X188270714Y-32204580D02*
X188318333Y-32252200D01*
X188318333Y-32252200D02*
X188413571Y-32299819D01*
X188413571Y-32299819D02*
X188604047Y-32299819D01*
X188604047Y-32299819D02*
X188699285Y-32252200D01*
X188699285Y-32252200D02*
X188746904Y-32204580D01*
X188746904Y-32204580D02*
X188794523Y-32109342D01*
X188794523Y-32109342D02*
X188794523Y-31299819D01*
X189223095Y-31395057D02*
X189270714Y-31347438D01*
X189270714Y-31347438D02*
X189365952Y-31299819D01*
X189365952Y-31299819D02*
X189604047Y-31299819D01*
X189604047Y-31299819D02*
X189699285Y-31347438D01*
X189699285Y-31347438D02*
X189746904Y-31395057D01*
X189746904Y-31395057D02*
X189794523Y-31490295D01*
X189794523Y-31490295D02*
X189794523Y-31585533D01*
X189794523Y-31585533D02*
X189746904Y-31728390D01*
X189746904Y-31728390D02*
X189175476Y-32299819D01*
X189175476Y-32299819D02*
X189794523Y-32299819D01*
X222961905Y-59154819D02*
X222961905Y-58154819D01*
X223533333Y-59154819D02*
X223104762Y-58583390D01*
X223533333Y-58154819D02*
X222961905Y-58726247D01*
X223914286Y-58250057D02*
X223961905Y-58202438D01*
X223961905Y-58202438D02*
X224057143Y-58154819D01*
X224057143Y-58154819D02*
X224295238Y-58154819D01*
X224295238Y-58154819D02*
X224390476Y-58202438D01*
X224390476Y-58202438D02*
X224438095Y-58250057D01*
X224438095Y-58250057D02*
X224485714Y-58345295D01*
X224485714Y-58345295D02*
X224485714Y-58440533D01*
X224485714Y-58440533D02*
X224438095Y-58583390D01*
X224438095Y-58583390D02*
X223866667Y-59154819D01*
X223866667Y-59154819D02*
X224485714Y-59154819D01*
X208709819Y-59188094D02*
X207709819Y-59188094D01*
X207709819Y-59188094D02*
X207709819Y-58949999D01*
X207709819Y-58949999D02*
X207757438Y-58807142D01*
X207757438Y-58807142D02*
X207852676Y-58711904D01*
X207852676Y-58711904D02*
X207947914Y-58664285D01*
X207947914Y-58664285D02*
X208138390Y-58616666D01*
X208138390Y-58616666D02*
X208281247Y-58616666D01*
X208281247Y-58616666D02*
X208471723Y-58664285D01*
X208471723Y-58664285D02*
X208566961Y-58711904D01*
X208566961Y-58711904D02*
X208662200Y-58807142D01*
X208662200Y-58807142D02*
X208709819Y-58949999D01*
X208709819Y-58949999D02*
X208709819Y-59188094D01*
X207709819Y-58283332D02*
X207709819Y-57616666D01*
X207709819Y-57616666D02*
X208709819Y-58045237D01*
X209029819Y-62521904D02*
X208029819Y-62521904D01*
X209029819Y-61950476D02*
X208458390Y-62379047D01*
X208029819Y-61950476D02*
X208601247Y-62521904D01*
X144729819Y-55091904D02*
X143729819Y-55091904D01*
X144729819Y-54520476D02*
X144158390Y-54949047D01*
X143729819Y-54520476D02*
X144301247Y-55091904D01*
X227161905Y-40554819D02*
X227161905Y-39554819D01*
X227733333Y-40554819D02*
X227304762Y-39983390D01*
X227733333Y-39554819D02*
X227161905Y-40126247D01*
X228685714Y-40554819D02*
X228114286Y-40554819D01*
X228400000Y-40554819D02*
X228400000Y-39554819D01*
X228400000Y-39554819D02*
X228304762Y-39697676D01*
X228304762Y-39697676D02*
X228209524Y-39792914D01*
X228209524Y-39792914D02*
X228114286Y-39840533D01*
X209479761Y-85225057D02*
X209384523Y-85177438D01*
X209384523Y-85177438D02*
X209289285Y-85082200D01*
X209289285Y-85082200D02*
X209146428Y-84939342D01*
X209146428Y-84939342D02*
X209051190Y-84891723D01*
X209051190Y-84891723D02*
X208955952Y-84891723D01*
X209003571Y-85129819D02*
X208908333Y-85082200D01*
X208908333Y-85082200D02*
X208813095Y-84986961D01*
X208813095Y-84986961D02*
X208765476Y-84796485D01*
X208765476Y-84796485D02*
X208765476Y-84463152D01*
X208765476Y-84463152D02*
X208813095Y-84272676D01*
X208813095Y-84272676D02*
X208908333Y-84177438D01*
X208908333Y-84177438D02*
X209003571Y-84129819D01*
X209003571Y-84129819D02*
X209194047Y-84129819D01*
X209194047Y-84129819D02*
X209289285Y-84177438D01*
X209289285Y-84177438D02*
X209384523Y-84272676D01*
X209384523Y-84272676D02*
X209432142Y-84463152D01*
X209432142Y-84463152D02*
X209432142Y-84796485D01*
X209432142Y-84796485D02*
X209384523Y-84986961D01*
X209384523Y-84986961D02*
X209289285Y-85082200D01*
X209289285Y-85082200D02*
X209194047Y-85129819D01*
X209194047Y-85129819D02*
X209003571Y-85129819D01*
X210289285Y-84463152D02*
X210289285Y-85129819D01*
X210051190Y-84082200D02*
X209813095Y-84796485D01*
X209813095Y-84796485D02*
X210432142Y-84796485D01*
X247738095Y-103654819D02*
X247738095Y-102654819D01*
X247738095Y-103131009D02*
X248309523Y-103131009D01*
X248309523Y-103654819D02*
X248309523Y-102654819D01*
X248690476Y-102654819D02*
X249309523Y-102654819D01*
X249309523Y-102654819D02*
X248976190Y-103035771D01*
X248976190Y-103035771D02*
X249119047Y-103035771D01*
X249119047Y-103035771D02*
X249214285Y-103083390D01*
X249214285Y-103083390D02*
X249261904Y-103131009D01*
X249261904Y-103131009D02*
X249309523Y-103226247D01*
X249309523Y-103226247D02*
X249309523Y-103464342D01*
X249309523Y-103464342D02*
X249261904Y-103559580D01*
X249261904Y-103559580D02*
X249214285Y-103607200D01*
X249214285Y-103607200D02*
X249119047Y-103654819D01*
X249119047Y-103654819D02*
X248833333Y-103654819D01*
X248833333Y-103654819D02*
X248738095Y-103607200D01*
X248738095Y-103607200D02*
X248690476Y-103559580D01*
X179140714Y-25919819D02*
X179140714Y-24919819D01*
X179140714Y-24919819D02*
X179378809Y-24919819D01*
X179378809Y-24919819D02*
X179521666Y-24967438D01*
X179521666Y-24967438D02*
X179616904Y-25062676D01*
X179616904Y-25062676D02*
X179664523Y-25157914D01*
X179664523Y-25157914D02*
X179712142Y-25348390D01*
X179712142Y-25348390D02*
X179712142Y-25491247D01*
X179712142Y-25491247D02*
X179664523Y-25681723D01*
X179664523Y-25681723D02*
X179616904Y-25776961D01*
X179616904Y-25776961D02*
X179521666Y-25872200D01*
X179521666Y-25872200D02*
X179378809Y-25919819D01*
X179378809Y-25919819D02*
X179140714Y-25919819D01*
X180664523Y-25919819D02*
X180093095Y-25919819D01*
X180378809Y-25919819D02*
X180378809Y-24919819D01*
X180378809Y-24919819D02*
X180283571Y-25062676D01*
X180283571Y-25062676D02*
X180188333Y-25157914D01*
X180188333Y-25157914D02*
X180093095Y-25205533D01*
X181616904Y-25919819D02*
X181045476Y-25919819D01*
X181331190Y-25919819D02*
X181331190Y-24919819D01*
X181331190Y-24919819D02*
X181235952Y-25062676D01*
X181235952Y-25062676D02*
X181140714Y-25157914D01*
X181140714Y-25157914D02*
X181045476Y-25205533D01*
X209159819Y-39913094D02*
X208159819Y-39913094D01*
X208159819Y-39913094D02*
X208159819Y-39674999D01*
X208159819Y-39674999D02*
X208207438Y-39532142D01*
X208207438Y-39532142D02*
X208302676Y-39436904D01*
X208302676Y-39436904D02*
X208397914Y-39389285D01*
X208397914Y-39389285D02*
X208588390Y-39341666D01*
X208588390Y-39341666D02*
X208731247Y-39341666D01*
X208731247Y-39341666D02*
X208921723Y-39389285D01*
X208921723Y-39389285D02*
X209016961Y-39436904D01*
X209016961Y-39436904D02*
X209112200Y-39532142D01*
X209112200Y-39532142D02*
X209159819Y-39674999D01*
X209159819Y-39674999D02*
X209159819Y-39913094D01*
X208159819Y-38484523D02*
X208159819Y-38674999D01*
X208159819Y-38674999D02*
X208207438Y-38770237D01*
X208207438Y-38770237D02*
X208255057Y-38817856D01*
X208255057Y-38817856D02*
X208397914Y-38913094D01*
X208397914Y-38913094D02*
X208588390Y-38960713D01*
X208588390Y-38960713D02*
X208969342Y-38960713D01*
X208969342Y-38960713D02*
X209064580Y-38913094D01*
X209064580Y-38913094D02*
X209112200Y-38865475D01*
X209112200Y-38865475D02*
X209159819Y-38770237D01*
X209159819Y-38770237D02*
X209159819Y-38579761D01*
X209159819Y-38579761D02*
X209112200Y-38484523D01*
X209112200Y-38484523D02*
X209064580Y-38436904D01*
X209064580Y-38436904D02*
X208969342Y-38389285D01*
X208969342Y-38389285D02*
X208731247Y-38389285D01*
X208731247Y-38389285D02*
X208636009Y-38436904D01*
X208636009Y-38436904D02*
X208588390Y-38484523D01*
X208588390Y-38484523D02*
X208540771Y-38579761D01*
X208540771Y-38579761D02*
X208540771Y-38770237D01*
X208540771Y-38770237D02*
X208588390Y-38865475D01*
X208588390Y-38865475D02*
X208636009Y-38913094D01*
X208636009Y-38913094D02*
X208731247Y-38960713D01*
X209479819Y-43246904D02*
X208479819Y-43246904D01*
X209479819Y-42675476D02*
X208908390Y-43104047D01*
X208479819Y-42675476D02*
X209051247Y-43246904D01*
X188223095Y-41749819D02*
X188223095Y-42559342D01*
X188223095Y-42559342D02*
X188270714Y-42654580D01*
X188270714Y-42654580D02*
X188318333Y-42702200D01*
X188318333Y-42702200D02*
X188413571Y-42749819D01*
X188413571Y-42749819D02*
X188604047Y-42749819D01*
X188604047Y-42749819D02*
X188699285Y-42702200D01*
X188699285Y-42702200D02*
X188746904Y-42654580D01*
X188746904Y-42654580D02*
X188794523Y-42559342D01*
X188794523Y-42559342D02*
X188794523Y-41749819D01*
X189175476Y-41749819D02*
X189794523Y-41749819D01*
X189794523Y-41749819D02*
X189461190Y-42130771D01*
X189461190Y-42130771D02*
X189604047Y-42130771D01*
X189604047Y-42130771D02*
X189699285Y-42178390D01*
X189699285Y-42178390D02*
X189746904Y-42226009D01*
X189746904Y-42226009D02*
X189794523Y-42321247D01*
X189794523Y-42321247D02*
X189794523Y-42559342D01*
X189794523Y-42559342D02*
X189746904Y-42654580D01*
X189746904Y-42654580D02*
X189699285Y-42702200D01*
X189699285Y-42702200D02*
X189604047Y-42749819D01*
X189604047Y-42749819D02*
X189318333Y-42749819D01*
X189318333Y-42749819D02*
X189223095Y-42702200D01*
X189223095Y-42702200D02*
X189175476Y-42654580D01*
X223786905Y-97229819D02*
X223786905Y-96229819D01*
X224358333Y-97229819D02*
X223929762Y-96658390D01*
X224358333Y-96229819D02*
X223786905Y-96801247D01*
X225215476Y-96563152D02*
X225215476Y-97229819D01*
X224977381Y-96182200D02*
X224739286Y-96896485D01*
X224739286Y-96896485D02*
X225358333Y-96896485D01*
X199809819Y-46266666D02*
X199333628Y-46599999D01*
X199809819Y-46838094D02*
X198809819Y-46838094D01*
X198809819Y-46838094D02*
X198809819Y-46457142D01*
X198809819Y-46457142D02*
X198857438Y-46361904D01*
X198857438Y-46361904D02*
X198905057Y-46314285D01*
X198905057Y-46314285D02*
X199000295Y-46266666D01*
X199000295Y-46266666D02*
X199143152Y-46266666D01*
X199143152Y-46266666D02*
X199238390Y-46314285D01*
X199238390Y-46314285D02*
X199286009Y-46361904D01*
X199286009Y-46361904D02*
X199333628Y-46457142D01*
X199333628Y-46457142D02*
X199333628Y-46838094D01*
X198809819Y-45361904D02*
X198809819Y-45838094D01*
X198809819Y-45838094D02*
X199286009Y-45885713D01*
X199286009Y-45885713D02*
X199238390Y-45838094D01*
X199238390Y-45838094D02*
X199190771Y-45742856D01*
X199190771Y-45742856D02*
X199190771Y-45504761D01*
X199190771Y-45504761D02*
X199238390Y-45409523D01*
X199238390Y-45409523D02*
X199286009Y-45361904D01*
X199286009Y-45361904D02*
X199381247Y-45314285D01*
X199381247Y-45314285D02*
X199619342Y-45314285D01*
X199619342Y-45314285D02*
X199714580Y-45361904D01*
X199714580Y-45361904D02*
X199762200Y-45409523D01*
X199762200Y-45409523D02*
X199809819Y-45504761D01*
X199809819Y-45504761D02*
X199809819Y-45742856D01*
X199809819Y-45742856D02*
X199762200Y-45838094D01*
X199762200Y-45838094D02*
X199714580Y-45885713D01*
X210014761Y-45890057D02*
X209919523Y-45842438D01*
X209919523Y-45842438D02*
X209824285Y-45747200D01*
X209824285Y-45747200D02*
X209681428Y-45604342D01*
X209681428Y-45604342D02*
X209586190Y-45556723D01*
X209586190Y-45556723D02*
X209490952Y-45556723D01*
X209538571Y-45794819D02*
X209443333Y-45747200D01*
X209443333Y-45747200D02*
X209348095Y-45651961D01*
X209348095Y-45651961D02*
X209300476Y-45461485D01*
X209300476Y-45461485D02*
X209300476Y-45128152D01*
X209300476Y-45128152D02*
X209348095Y-44937676D01*
X209348095Y-44937676D02*
X209443333Y-44842438D01*
X209443333Y-44842438D02*
X209538571Y-44794819D01*
X209538571Y-44794819D02*
X209729047Y-44794819D01*
X209729047Y-44794819D02*
X209824285Y-44842438D01*
X209824285Y-44842438D02*
X209919523Y-44937676D01*
X209919523Y-44937676D02*
X209967142Y-45128152D01*
X209967142Y-45128152D02*
X209967142Y-45461485D01*
X209967142Y-45461485D02*
X209919523Y-45651961D01*
X209919523Y-45651961D02*
X209824285Y-45747200D01*
X209824285Y-45747200D02*
X209729047Y-45794819D01*
X209729047Y-45794819D02*
X209538571Y-45794819D01*
X210348095Y-44890057D02*
X210395714Y-44842438D01*
X210395714Y-44842438D02*
X210490952Y-44794819D01*
X210490952Y-44794819D02*
X210729047Y-44794819D01*
X210729047Y-44794819D02*
X210824285Y-44842438D01*
X210824285Y-44842438D02*
X210871904Y-44890057D01*
X210871904Y-44890057D02*
X210919523Y-44985295D01*
X210919523Y-44985295D02*
X210919523Y-45080533D01*
X210919523Y-45080533D02*
X210871904Y-45223390D01*
X210871904Y-45223390D02*
X210300476Y-45794819D01*
X210300476Y-45794819D02*
X210919523Y-45794819D01*
X188298095Y-62799819D02*
X188298095Y-63609342D01*
X188298095Y-63609342D02*
X188345714Y-63704580D01*
X188345714Y-63704580D02*
X188393333Y-63752200D01*
X188393333Y-63752200D02*
X188488571Y-63799819D01*
X188488571Y-63799819D02*
X188679047Y-63799819D01*
X188679047Y-63799819D02*
X188774285Y-63752200D01*
X188774285Y-63752200D02*
X188821904Y-63704580D01*
X188821904Y-63704580D02*
X188869523Y-63609342D01*
X188869523Y-63609342D02*
X188869523Y-62799819D01*
X189821904Y-62799819D02*
X189345714Y-62799819D01*
X189345714Y-62799819D02*
X189298095Y-63276009D01*
X189298095Y-63276009D02*
X189345714Y-63228390D01*
X189345714Y-63228390D02*
X189440952Y-63180771D01*
X189440952Y-63180771D02*
X189679047Y-63180771D01*
X189679047Y-63180771D02*
X189774285Y-63228390D01*
X189774285Y-63228390D02*
X189821904Y-63276009D01*
X189821904Y-63276009D02*
X189869523Y-63371247D01*
X189869523Y-63371247D02*
X189869523Y-63609342D01*
X189869523Y-63609342D02*
X189821904Y-63704580D01*
X189821904Y-63704580D02*
X189774285Y-63752200D01*
X189774285Y-63752200D02*
X189679047Y-63799819D01*
X189679047Y-63799819D02*
X189440952Y-63799819D01*
X189440952Y-63799819D02*
X189345714Y-63752200D01*
X189345714Y-63752200D02*
X189298095Y-63704580D01*
X210279761Y-65600057D02*
X210184523Y-65552438D01*
X210184523Y-65552438D02*
X210089285Y-65457200D01*
X210089285Y-65457200D02*
X209946428Y-65314342D01*
X209946428Y-65314342D02*
X209851190Y-65266723D01*
X209851190Y-65266723D02*
X209755952Y-65266723D01*
X209803571Y-65504819D02*
X209708333Y-65457200D01*
X209708333Y-65457200D02*
X209613095Y-65361961D01*
X209613095Y-65361961D02*
X209565476Y-65171485D01*
X209565476Y-65171485D02*
X209565476Y-64838152D01*
X209565476Y-64838152D02*
X209613095Y-64647676D01*
X209613095Y-64647676D02*
X209708333Y-64552438D01*
X209708333Y-64552438D02*
X209803571Y-64504819D01*
X209803571Y-64504819D02*
X209994047Y-64504819D01*
X209994047Y-64504819D02*
X210089285Y-64552438D01*
X210089285Y-64552438D02*
X210184523Y-64647676D01*
X210184523Y-64647676D02*
X210232142Y-64838152D01*
X210232142Y-64838152D02*
X210232142Y-65171485D01*
X210232142Y-65171485D02*
X210184523Y-65361961D01*
X210184523Y-65361961D02*
X210089285Y-65457200D01*
X210089285Y-65457200D02*
X209994047Y-65504819D01*
X209994047Y-65504819D02*
X209803571Y-65504819D01*
X210565476Y-64504819D02*
X211184523Y-64504819D01*
X211184523Y-64504819D02*
X210851190Y-64885771D01*
X210851190Y-64885771D02*
X210994047Y-64885771D01*
X210994047Y-64885771D02*
X211089285Y-64933390D01*
X211089285Y-64933390D02*
X211136904Y-64981009D01*
X211136904Y-64981009D02*
X211184523Y-65076247D01*
X211184523Y-65076247D02*
X211184523Y-65314342D01*
X211184523Y-65314342D02*
X211136904Y-65409580D01*
X211136904Y-65409580D02*
X211089285Y-65457200D01*
X211089285Y-65457200D02*
X210994047Y-65504819D01*
X210994047Y-65504819D02*
X210708333Y-65504819D01*
X210708333Y-65504819D02*
X210613095Y-65457200D01*
X210613095Y-65457200D02*
X210565476Y-65409580D01*
X208636905Y-100399819D02*
X208636905Y-99399819D01*
X208636905Y-99399819D02*
X208875000Y-99399819D01*
X208875000Y-99399819D02*
X209017857Y-99447438D01*
X209017857Y-99447438D02*
X209113095Y-99542676D01*
X209113095Y-99542676D02*
X209160714Y-99637914D01*
X209160714Y-99637914D02*
X209208333Y-99828390D01*
X209208333Y-99828390D02*
X209208333Y-99971247D01*
X209208333Y-99971247D02*
X209160714Y-100161723D01*
X209160714Y-100161723D02*
X209113095Y-100256961D01*
X209113095Y-100256961D02*
X209017857Y-100352200D01*
X209017857Y-100352200D02*
X208875000Y-100399819D01*
X208875000Y-100399819D02*
X208636905Y-100399819D01*
X209684524Y-100399819D02*
X209875000Y-100399819D01*
X209875000Y-100399819D02*
X209970238Y-100352200D01*
X209970238Y-100352200D02*
X210017857Y-100304580D01*
X210017857Y-100304580D02*
X210113095Y-100161723D01*
X210113095Y-100161723D02*
X210160714Y-99971247D01*
X210160714Y-99971247D02*
X210160714Y-99590295D01*
X210160714Y-99590295D02*
X210113095Y-99495057D01*
X210113095Y-99495057D02*
X210065476Y-99447438D01*
X210065476Y-99447438D02*
X209970238Y-99399819D01*
X209970238Y-99399819D02*
X209779762Y-99399819D01*
X209779762Y-99399819D02*
X209684524Y-99447438D01*
X209684524Y-99447438D02*
X209636905Y-99495057D01*
X209636905Y-99495057D02*
X209589286Y-99590295D01*
X209589286Y-99590295D02*
X209589286Y-99828390D01*
X209589286Y-99828390D02*
X209636905Y-99923628D01*
X209636905Y-99923628D02*
X209684524Y-99971247D01*
X209684524Y-99971247D02*
X209779762Y-100018866D01*
X209779762Y-100018866D02*
X209970238Y-100018866D01*
X209970238Y-100018866D02*
X210065476Y-99971247D01*
X210065476Y-99971247D02*
X210113095Y-99923628D01*
X210113095Y-99923628D02*
X210160714Y-99828390D01*
X212923095Y-100079819D02*
X212923095Y-99079819D01*
X213494523Y-100079819D02*
X213065952Y-99508390D01*
X213494523Y-99079819D02*
X212923095Y-99651247D01*
D11*
%TO.C,J4*%
X132155000Y-49055000D02*
X130825000Y-49055000D01*
X132155000Y-47725000D02*
X132155000Y-49055000D01*
X132155000Y-46455000D02*
X132155000Y-43855000D01*
X132155000Y-46455000D02*
X129495000Y-46455000D01*
X132155000Y-43855000D02*
X129495000Y-43855000D01*
X129495000Y-46455000D02*
X129495000Y-43855000D01*
%TO.C,U7*%
X146355000Y-34805000D02*
X146355000Y-39446000D01*
X143086000Y-34805000D02*
X143086000Y-36315000D01*
X139385000Y-34805000D02*
X139385000Y-36315000D01*
X136115000Y-39446000D02*
X146355000Y-39446000D01*
X136115000Y-36315000D02*
X146355000Y-36315000D01*
X136115000Y-34805000D02*
X146355000Y-34805000D01*
X136115000Y-34805000D02*
X136115000Y-39446000D01*
%TO.C,C3*%
X159720225Y-49125000D02*
X160220225Y-49125000D01*
X159970225Y-48875000D02*
X159970225Y-49375000D01*
X162525000Y-48020000D02*
X162525000Y-53180000D01*
X162565000Y-48020000D02*
X162565000Y-53180000D01*
X162605000Y-48021000D02*
X162605000Y-53179000D01*
X162645000Y-48022000D02*
X162645000Y-53178000D01*
X162685000Y-48024000D02*
X162685000Y-53176000D01*
X162725000Y-48027000D02*
X162725000Y-53173000D01*
X162765000Y-48031000D02*
X162765000Y-49560000D01*
X162765000Y-51640000D02*
X162765000Y-53169000D01*
X162805000Y-48035000D02*
X162805000Y-49560000D01*
X162805000Y-51640000D02*
X162805000Y-53165000D01*
X162845000Y-48039000D02*
X162845000Y-49560000D01*
X162845000Y-51640000D02*
X162845000Y-53161000D01*
X162885000Y-48044000D02*
X162885000Y-49560000D01*
X162885000Y-51640000D02*
X162885000Y-53156000D01*
X162925000Y-48050000D02*
X162925000Y-49560000D01*
X162925000Y-51640000D02*
X162925000Y-53150000D01*
X162965000Y-48057000D02*
X162965000Y-49560000D01*
X162965000Y-51640000D02*
X162965000Y-53143000D01*
X163005000Y-48064000D02*
X163005000Y-49560000D01*
X163005000Y-51640000D02*
X163005000Y-53136000D01*
X163045000Y-48072000D02*
X163045000Y-49560000D01*
X163045000Y-51640000D02*
X163045000Y-53128000D01*
X163085000Y-48080000D02*
X163085000Y-49560000D01*
X163085000Y-51640000D02*
X163085000Y-53120000D01*
X163125000Y-48089000D02*
X163125000Y-49560000D01*
X163125000Y-51640000D02*
X163125000Y-53111000D01*
X163165000Y-48099000D02*
X163165000Y-49560000D01*
X163165000Y-51640000D02*
X163165000Y-53101000D01*
X163205000Y-48109000D02*
X163205000Y-49560000D01*
X163205000Y-51640000D02*
X163205000Y-53091000D01*
X163246000Y-48120000D02*
X163246000Y-49560000D01*
X163246000Y-51640000D02*
X163246000Y-53080000D01*
X163286000Y-48132000D02*
X163286000Y-49560000D01*
X163286000Y-51640000D02*
X163286000Y-53068000D01*
X163326000Y-48145000D02*
X163326000Y-49560000D01*
X163326000Y-51640000D02*
X163326000Y-53055000D01*
X163366000Y-48158000D02*
X163366000Y-49560000D01*
X163366000Y-51640000D02*
X163366000Y-53042000D01*
X163406000Y-48172000D02*
X163406000Y-49560000D01*
X163406000Y-51640000D02*
X163406000Y-53028000D01*
X163446000Y-48186000D02*
X163446000Y-49560000D01*
X163446000Y-51640000D02*
X163446000Y-53014000D01*
X163486000Y-48202000D02*
X163486000Y-49560000D01*
X163486000Y-51640000D02*
X163486000Y-52998000D01*
X163526000Y-48218000D02*
X163526000Y-49560000D01*
X163526000Y-51640000D02*
X163526000Y-52982000D01*
X163566000Y-48235000D02*
X163566000Y-49560000D01*
X163566000Y-51640000D02*
X163566000Y-52965000D01*
X163606000Y-48252000D02*
X163606000Y-49560000D01*
X163606000Y-51640000D02*
X163606000Y-52948000D01*
X163646000Y-48271000D02*
X163646000Y-49560000D01*
X163646000Y-51640000D02*
X163646000Y-52929000D01*
X163686000Y-48290000D02*
X163686000Y-49560000D01*
X163686000Y-51640000D02*
X163686000Y-52910000D01*
X163726000Y-48310000D02*
X163726000Y-49560000D01*
X163726000Y-51640000D02*
X163726000Y-52890000D01*
X163766000Y-48332000D02*
X163766000Y-49560000D01*
X163766000Y-51640000D02*
X163766000Y-52868000D01*
X163806000Y-48353000D02*
X163806000Y-49560000D01*
X163806000Y-51640000D02*
X163806000Y-52847000D01*
X163846000Y-48376000D02*
X163846000Y-49560000D01*
X163846000Y-51640000D02*
X163846000Y-52824000D01*
X163886000Y-48400000D02*
X163886000Y-49560000D01*
X163886000Y-51640000D02*
X163886000Y-52800000D01*
X163926000Y-48425000D02*
X163926000Y-49560000D01*
X163926000Y-51640000D02*
X163926000Y-52775000D01*
X163966000Y-48451000D02*
X163966000Y-49560000D01*
X163966000Y-51640000D02*
X163966000Y-52749000D01*
X164006000Y-48478000D02*
X164006000Y-49560000D01*
X164006000Y-51640000D02*
X164006000Y-52722000D01*
X164046000Y-48505000D02*
X164046000Y-49560000D01*
X164046000Y-51640000D02*
X164046000Y-52695000D01*
X164086000Y-48535000D02*
X164086000Y-49560000D01*
X164086000Y-51640000D02*
X164086000Y-52665000D01*
X164126000Y-48565000D02*
X164126000Y-49560000D01*
X164126000Y-51640000D02*
X164126000Y-52635000D01*
X164166000Y-48596000D02*
X164166000Y-49560000D01*
X164166000Y-51640000D02*
X164166000Y-52604000D01*
X164206000Y-48629000D02*
X164206000Y-49560000D01*
X164206000Y-51640000D02*
X164206000Y-52571000D01*
X164246000Y-48663000D02*
X164246000Y-49560000D01*
X164246000Y-51640000D02*
X164246000Y-52537000D01*
X164286000Y-48699000D02*
X164286000Y-49560000D01*
X164286000Y-51640000D02*
X164286000Y-52501000D01*
X164326000Y-48736000D02*
X164326000Y-49560000D01*
X164326000Y-51640000D02*
X164326000Y-52464000D01*
X164366000Y-48774000D02*
X164366000Y-49560000D01*
X164366000Y-51640000D02*
X164366000Y-52426000D01*
X164406000Y-48815000D02*
X164406000Y-49560000D01*
X164406000Y-51640000D02*
X164406000Y-52385000D01*
X164446000Y-48857000D02*
X164446000Y-49560000D01*
X164446000Y-51640000D02*
X164446000Y-52343000D01*
X164486000Y-48901000D02*
X164486000Y-49560000D01*
X164486000Y-51640000D02*
X164486000Y-52299000D01*
X164526000Y-48947000D02*
X164526000Y-49560000D01*
X164526000Y-51640000D02*
X164526000Y-52253000D01*
X164566000Y-48995000D02*
X164566000Y-49560000D01*
X164566000Y-51640000D02*
X164566000Y-52205000D01*
X164606000Y-49046000D02*
X164606000Y-49560000D01*
X164606000Y-51640000D02*
X164606000Y-52154000D01*
X164646000Y-49100000D02*
X164646000Y-49560000D01*
X164646000Y-51640000D02*
X164646000Y-52100000D01*
X164686000Y-49157000D02*
X164686000Y-49560000D01*
X164686000Y-51640000D02*
X164686000Y-52043000D01*
X164726000Y-49217000D02*
X164726000Y-49560000D01*
X164726000Y-51640000D02*
X164726000Y-51983000D01*
X164766000Y-49281000D02*
X164766000Y-49560000D01*
X164766000Y-51640000D02*
X164766000Y-51919000D01*
X164806000Y-49349000D02*
X164806000Y-49560000D01*
X164806000Y-51640000D02*
X164806000Y-51851000D01*
X164846000Y-49422000D02*
X164846000Y-51778000D01*
X164886000Y-49502000D02*
X164886000Y-51698000D01*
X164926000Y-49589000D02*
X164926000Y-51611000D01*
X164966000Y-49685000D02*
X164966000Y-51515000D01*
X165006000Y-49795000D02*
X165006000Y-51405000D01*
X165046000Y-49923000D02*
X165046000Y-51277000D01*
X165086000Y-50082000D02*
X165086000Y-51118000D01*
X165126000Y-50316000D02*
X165126000Y-50884000D01*
X165145000Y-50600000D02*
G75*
G02*
X159905000Y-50600000I-2620000J0D01*
G01*
X159905000Y-50600000D02*
G75*
G02*
X165145000Y-50600000I2620000J0D01*
G01*
%TO.C,R9*%
X200655000Y-70905000D02*
X200655000Y-77445000D01*
X200655000Y-77445000D02*
X203395000Y-77445000D01*
X202025000Y-70135000D02*
X202025000Y-70905000D01*
X202025000Y-78215000D02*
X202025000Y-77445000D01*
X203395000Y-70905000D02*
X200655000Y-70905000D01*
X203395000Y-77445000D02*
X203395000Y-70905000D01*
%TO.C,D4*%
X148830000Y-47080000D02*
X148830000Y-52520000D01*
X148830000Y-52520000D02*
X151770000Y-52520000D01*
X150300000Y-46060000D02*
X150300000Y-47080000D01*
X150300000Y-53540000D02*
X150300000Y-52520000D01*
X151770000Y-47080000D02*
X148830000Y-47080000D01*
X151770000Y-47860000D02*
X148830000Y-47860000D01*
X151770000Y-47980000D02*
X148830000Y-47980000D01*
X151770000Y-48100000D02*
X148830000Y-48100000D01*
X151770000Y-52520000D02*
X151770000Y-47080000D01*
%TO.C,J3*%
X138420000Y-75570000D02*
X139750000Y-75570000D01*
X138420000Y-76900000D02*
X138420000Y-75570000D01*
X138420000Y-78170000D02*
X138420000Y-80770000D01*
X138420000Y-78170000D02*
X141080000Y-78170000D01*
X138420000Y-80770000D02*
X141080000Y-80770000D01*
X141080000Y-78170000D02*
X141080000Y-80770000D01*
%TO.C,R7*%
X200480000Y-56405000D02*
X200480000Y-62945000D01*
X200480000Y-62945000D02*
X203220000Y-62945000D01*
X201850000Y-55635000D02*
X201850000Y-56405000D01*
X201850000Y-63715000D02*
X201850000Y-62945000D01*
X203220000Y-56405000D02*
X200480000Y-56405000D01*
X203220000Y-62945000D02*
X203220000Y-56405000D01*
%TO.C,D8*%
X208955000Y-76130000D02*
X208955000Y-80370000D01*
X208955000Y-79530000D02*
X211195000Y-79530000D01*
X208955000Y-79650000D02*
X211195000Y-79650000D01*
X208955000Y-79770000D02*
X211195000Y-79770000D01*
X208955000Y-80370000D02*
X211195000Y-80370000D01*
X210075000Y-75480000D02*
X210075000Y-76130000D01*
X210075000Y-81020000D02*
X210075000Y-80370000D01*
X211195000Y-76130000D02*
X208955000Y-76130000D01*
X211195000Y-80370000D02*
X211195000Y-76130000D01*
%TO.C,D13*%
X192070000Y-26989000D02*
X192070000Y-27145000D01*
X192070000Y-29305000D02*
X192070000Y-29461000D01*
X192070000Y-26989484D02*
G75*
G02*
X195301397Y-27144939I1560000J-1235516D01*
G01*
X192589039Y-27145000D02*
G75*
G02*
X194670910Y-27144951I1040961J-1080000D01*
G01*
X194670910Y-29305049D02*
G75*
G02*
X192589039Y-29305000I-1040910J1080049D01*
G01*
X195301397Y-29305061D02*
G75*
G02*
X192070000Y-29460516I-1671397J1080061D01*
G01*
%TO.C,U4*%
X186310000Y-53970000D02*
X186310000Y-59170000D01*
X186310000Y-59170000D02*
X191610000Y-59170000D01*
X187960000Y-53970000D02*
X186310000Y-53970000D01*
X191610000Y-53970000D02*
X189960000Y-53970000D01*
X191610000Y-59170000D02*
X191610000Y-53970000D01*
X189960000Y-53970000D02*
G75*
G02*
X187960000Y-53970000I-1000000J0D01*
G01*
%TO.C,R3*%
X200480000Y-29255000D02*
X200480000Y-35795000D01*
X200480000Y-35795000D02*
X203220000Y-35795000D01*
X201850000Y-28485000D02*
X201850000Y-29255000D01*
X201850000Y-36565000D02*
X201850000Y-35795000D01*
X203220000Y-29255000D02*
X200480000Y-29255000D01*
X203220000Y-35795000D02*
X203220000Y-29255000D01*
%TO.C,J2*%
X237489000Y-47200000D02*
X247410000Y-47200000D01*
X237489000Y-67640000D02*
X237489000Y-47200000D01*
X237489000Y-67640000D02*
X247410000Y-67640000D01*
X240449000Y-67640000D02*
X240449000Y-47200000D01*
X241475000Y-48730000D02*
X241511000Y-48765000D01*
X241475000Y-53810000D02*
X241511000Y-53845000D01*
X241475000Y-58890000D02*
X241511000Y-58925000D01*
X241681000Y-48525000D02*
X241727000Y-48572000D01*
X241681000Y-53605000D02*
X241727000Y-53652000D01*
X241681000Y-58685000D02*
X241727000Y-58732000D01*
X243773000Y-51027000D02*
X243819000Y-51074000D01*
X243773000Y-56107000D02*
X243819000Y-56154000D01*
X243773000Y-61187000D02*
X243819000Y-61234000D01*
X243989000Y-50834000D02*
X244024000Y-50869000D01*
X243989000Y-55914000D02*
X244024000Y-55949000D01*
X243989000Y-60994000D02*
X244024000Y-61029000D01*
X245350000Y-67640000D02*
X245350000Y-47200000D01*
X246850000Y-67640000D02*
X246850000Y-47200000D01*
X246910000Y-67880000D02*
X247650000Y-67880000D01*
X247410000Y-67640000D02*
X247410000Y-47200000D01*
X247650000Y-67880000D02*
X247650000Y-67380000D01*
X241214573Y-65723042D02*
G75*
G02*
X241215000Y-64356000I1535420J683041D01*
G01*
X242066958Y-63504573D02*
G75*
G02*
X243434000Y-63505000I683042J-1535427D01*
G01*
X243433042Y-66575427D02*
G75*
G02*
X242066000Y-66575000I-683041J1535420D01*
G01*
X244284756Y-64356682D02*
G75*
G02*
X244430000Y-65040000I-1534756J-683318D01*
G01*
X244430253Y-65011195D02*
G75*
G02*
X244285000Y-65724000I-1680254J-28806D01*
G01*
X244430000Y-49800000D02*
G75*
G02*
X241070000Y-49800000I-1680000J0D01*
G01*
X241070000Y-49800000D02*
G75*
G02*
X244430000Y-49800000I1680000J0D01*
G01*
X244430000Y-54880000D02*
G75*
G02*
X241070000Y-54880000I-1680000J0D01*
G01*
X241070000Y-54880000D02*
G75*
G02*
X244430000Y-54880000I1680000J0D01*
G01*
X244430000Y-59960000D02*
G75*
G02*
X241070000Y-59960000I-1680000J0D01*
G01*
X241070000Y-59960000D02*
G75*
G02*
X244430000Y-59960000I1680000J0D01*
G01*
%TO.C,R4*%
X177930000Y-36910000D02*
X177930000Y-43450000D01*
X177930000Y-43450000D02*
X180670000Y-43450000D01*
X179300000Y-36140000D02*
X179300000Y-36910000D01*
X179300000Y-44220000D02*
X179300000Y-43450000D01*
X180670000Y-36910000D02*
X177930000Y-36910000D01*
X180670000Y-43450000D02*
X180670000Y-36910000D01*
%TO.C,R6*%
X177930000Y-50105000D02*
X177930000Y-56645000D01*
X177930000Y-56645000D02*
X180670000Y-56645000D01*
X179300000Y-49335000D02*
X179300000Y-50105000D01*
X179300000Y-57415000D02*
X179300000Y-56645000D01*
X180670000Y-50105000D02*
X177930000Y-50105000D01*
X180670000Y-56645000D02*
X180670000Y-50105000D01*
%TO.C,D10*%
X172045000Y-27189000D02*
X172045000Y-27345000D01*
X172045000Y-29505000D02*
X172045000Y-29661000D01*
X172045000Y-27189484D02*
G75*
G02*
X175276397Y-27344939I1560000J-1235516D01*
G01*
X172564039Y-27345000D02*
G75*
G02*
X174645910Y-27344951I1040961J-1080000D01*
G01*
X174645910Y-29505049D02*
G75*
G02*
X172564039Y-29505000I-1040910J1080049D01*
G01*
X175276397Y-29505061D02*
G75*
G02*
X172045000Y-29660516I-1671397J1080061D01*
G01*
%TO.C,R1*%
X167205000Y-37080000D02*
X167205000Y-43620000D01*
X167205000Y-43620000D02*
X169945000Y-43620000D01*
X168575000Y-36310000D02*
X168575000Y-37080000D01*
X168575000Y-44390000D02*
X168575000Y-43620000D01*
X169945000Y-37080000D02*
X167205000Y-37080000D01*
X169945000Y-43620000D02*
X169945000Y-37080000D01*
D12*
%TO.C,U6*%
X147840000Y-75630000D02*
X196100000Y-75630000D01*
X147840000Y-101030000D02*
X147840000Y-75630000D01*
X196100000Y-101030000D02*
X147840000Y-101030000D01*
X196100000Y-101030000D02*
X196100000Y-75630000D01*
D13*
X154070000Y-101580000D02*
G75*
G02*
X153870000Y-101580000I-100000J0D01*
G01*
X153870000Y-101580000D02*
G75*
G02*
X154070000Y-101580000I100000J0D01*
G01*
D11*
%TO.C,D12*%
X185320000Y-27114000D02*
X185320000Y-27270000D01*
X185320000Y-29430000D02*
X185320000Y-29586000D01*
X185320000Y-27114484D02*
G75*
G02*
X188551397Y-27269939I1560000J-1235516D01*
G01*
X185839039Y-27270000D02*
G75*
G02*
X187920910Y-27269951I1040961J-1080000D01*
G01*
X187920910Y-29430049D02*
G75*
G02*
X185839039Y-29430000I-1040910J1080049D01*
G01*
X188551397Y-29430061D02*
G75*
G02*
X185320000Y-29585516I-1671397J1080061D01*
G01*
%TO.C,U1*%
X151730000Y-34875000D02*
X151730000Y-39516000D01*
X151730000Y-34875000D02*
X161970000Y-34875000D01*
X151730000Y-36385000D02*
X161970000Y-36385000D01*
X151730000Y-39516000D02*
X161970000Y-39516000D01*
X155000000Y-34875000D02*
X155000000Y-36385000D01*
X158701000Y-34875000D02*
X158701000Y-36385000D01*
X161970000Y-34875000D02*
X161970000Y-39516000D01*
%TO.C,K3*%
X215025000Y-62825000D02*
X215025000Y-69425000D01*
X215025000Y-62825000D02*
X234825000Y-62825000D01*
X215025000Y-71825000D02*
X215025000Y-78425000D01*
X219075000Y-70675000D02*
X218275000Y-70675000D01*
X219075000Y-70675000D02*
X219075000Y-74275000D01*
X219975000Y-76675000D02*
X222475000Y-76675000D01*
X220475000Y-68875000D02*
X224475000Y-68875000D01*
X220475000Y-72475000D02*
X220475000Y-68875000D01*
X222475000Y-64675000D02*
X219975000Y-64675000D01*
X222475000Y-64675000D02*
X222475000Y-68875000D01*
X222475000Y-72475000D02*
X222475000Y-76675000D01*
X224475000Y-68875000D02*
X224475000Y-72475000D01*
X224475000Y-72475000D02*
X220475000Y-68875000D01*
X224475000Y-72475000D02*
X220475000Y-72475000D01*
X225875000Y-70675000D02*
X225875000Y-74275000D01*
X225875000Y-70675000D02*
X227375000Y-70675000D01*
X225875000Y-74275000D02*
X219075000Y-74275000D01*
X227375000Y-70675000D02*
X231975000Y-68175000D01*
X230575000Y-66425000D02*
X230575000Y-68925000D01*
X230575000Y-74825000D02*
X230575000Y-72375000D01*
X234825000Y-62825000D02*
X234825000Y-78425000D01*
X234825000Y-78425000D02*
X215025000Y-78425000D01*
%TO.C,Q1*%
X208510000Y-31615000D02*
X212360000Y-31615000D01*
X208102226Y-28820214D02*
G75*
G02*
X209360000Y-27565000I2347774J-1094786D01*
G01*
X208510000Y-31615000D02*
G75*
G02*
X208127369Y-31037045I1940000J1700000D01*
G01*
X211510000Y-27565000D02*
G75*
G02*
X212786463Y-28825487I-1060000J-2350000D01*
G01*
X212752383Y-31027264D02*
G75*
G02*
X212360000Y-31615000I-2302383J1112264D01*
G01*
%TO.C,R8*%
X178105000Y-63410000D02*
X178105000Y-69950000D01*
X178105000Y-69950000D02*
X180845000Y-69950000D01*
X179475000Y-62640000D02*
X179475000Y-63410000D01*
X179475000Y-70720000D02*
X179475000Y-69950000D01*
X180845000Y-63410000D02*
X178105000Y-63410000D01*
X180845000Y-69950000D02*
X180845000Y-63410000D01*
%TO.C,C2*%
X168174000Y-56534000D02*
X168174000Y-55966000D01*
X168214000Y-56768000D02*
X168214000Y-55732000D01*
X168254000Y-56927000D02*
X168254000Y-55573000D01*
X168294000Y-57055000D02*
X168294000Y-55445000D01*
X168334000Y-57165000D02*
X168334000Y-55335000D01*
X168374000Y-57261000D02*
X168374000Y-55239000D01*
X168414000Y-57348000D02*
X168414000Y-55152000D01*
X168454000Y-57428000D02*
X168454000Y-55072000D01*
X168494000Y-55210000D02*
X168494000Y-54999000D01*
X168494000Y-57501000D02*
X168494000Y-57290000D01*
X168534000Y-55210000D02*
X168534000Y-54931000D01*
X168534000Y-57569000D02*
X168534000Y-57290000D01*
X168574000Y-55210000D02*
X168574000Y-54867000D01*
X168574000Y-57633000D02*
X168574000Y-57290000D01*
X168614000Y-55210000D02*
X168614000Y-54807000D01*
X168614000Y-57693000D02*
X168614000Y-57290000D01*
X168654000Y-55210000D02*
X168654000Y-54750000D01*
X168654000Y-57750000D02*
X168654000Y-57290000D01*
X168694000Y-55210000D02*
X168694000Y-54696000D01*
X168694000Y-57804000D02*
X168694000Y-57290000D01*
X168734000Y-55210000D02*
X168734000Y-54645000D01*
X168734000Y-57855000D02*
X168734000Y-57290000D01*
X168774000Y-55210000D02*
X168774000Y-54597000D01*
X168774000Y-57903000D02*
X168774000Y-57290000D01*
X168814000Y-55210000D02*
X168814000Y-54551000D01*
X168814000Y-57949000D02*
X168814000Y-57290000D01*
X168854000Y-55210000D02*
X168854000Y-54507000D01*
X168854000Y-57993000D02*
X168854000Y-57290000D01*
X168894000Y-55210000D02*
X168894000Y-54465000D01*
X168894000Y-58035000D02*
X168894000Y-57290000D01*
X168934000Y-55210000D02*
X168934000Y-54424000D01*
X168934000Y-58076000D02*
X168934000Y-57290000D01*
X168974000Y-55210000D02*
X168974000Y-54386000D01*
X168974000Y-58114000D02*
X168974000Y-57290000D01*
X169014000Y-55210000D02*
X169014000Y-54349000D01*
X169014000Y-58151000D02*
X169014000Y-57290000D01*
X169054000Y-55210000D02*
X169054000Y-54313000D01*
X169054000Y-58187000D02*
X169054000Y-57290000D01*
X169094000Y-55210000D02*
X169094000Y-54279000D01*
X169094000Y-58221000D02*
X169094000Y-57290000D01*
X169134000Y-55210000D02*
X169134000Y-54246000D01*
X169134000Y-58254000D02*
X169134000Y-57290000D01*
X169174000Y-55210000D02*
X169174000Y-54215000D01*
X169174000Y-58285000D02*
X169174000Y-57290000D01*
X169214000Y-55210000D02*
X169214000Y-54185000D01*
X169214000Y-58315000D02*
X169214000Y-57290000D01*
X169254000Y-55210000D02*
X169254000Y-54155000D01*
X169254000Y-58345000D02*
X169254000Y-57290000D01*
X169294000Y-55210000D02*
X169294000Y-54128000D01*
X169294000Y-58372000D02*
X169294000Y-57290000D01*
X169334000Y-55210000D02*
X169334000Y-54101000D01*
X169334000Y-58399000D02*
X169334000Y-57290000D01*
X169374000Y-55210000D02*
X169374000Y-54075000D01*
X169374000Y-58425000D02*
X169374000Y-57290000D01*
X169414000Y-55210000D02*
X169414000Y-54050000D01*
X169414000Y-58450000D02*
X169414000Y-57290000D01*
X169454000Y-55210000D02*
X169454000Y-54026000D01*
X169454000Y-58474000D02*
X169454000Y-57290000D01*
X169494000Y-55210000D02*
X169494000Y-54003000D01*
X169494000Y-58497000D02*
X169494000Y-57290000D01*
X169534000Y-55210000D02*
X169534000Y-53982000D01*
X169534000Y-58518000D02*
X169534000Y-57290000D01*
X169574000Y-55210000D02*
X169574000Y-53960000D01*
X169574000Y-58540000D02*
X169574000Y-57290000D01*
X169614000Y-55210000D02*
X169614000Y-53940000D01*
X169614000Y-58560000D02*
X169614000Y-57290000D01*
X169654000Y-55210000D02*
X169654000Y-53921000D01*
X169654000Y-58579000D02*
X169654000Y-57290000D01*
X169694000Y-55210000D02*
X169694000Y-53902000D01*
X169694000Y-58598000D02*
X169694000Y-57290000D01*
X169734000Y-55210000D02*
X169734000Y-53885000D01*
X169734000Y-58615000D02*
X169734000Y-57290000D01*
X169774000Y-55210000D02*
X169774000Y-53868000D01*
X169774000Y-58632000D02*
X169774000Y-57290000D01*
X169814000Y-55210000D02*
X169814000Y-53852000D01*
X169814000Y-58648000D02*
X169814000Y-57290000D01*
X169854000Y-55210000D02*
X169854000Y-53836000D01*
X169854000Y-58664000D02*
X169854000Y-57290000D01*
X169894000Y-55210000D02*
X169894000Y-53822000D01*
X169894000Y-58678000D02*
X169894000Y-57290000D01*
X169934000Y-55210000D02*
X169934000Y-53808000D01*
X169934000Y-58692000D02*
X169934000Y-57290000D01*
X169974000Y-55210000D02*
X169974000Y-53795000D01*
X169974000Y-58705000D02*
X169974000Y-57290000D01*
X170014000Y-55210000D02*
X170014000Y-53782000D01*
X170014000Y-58718000D02*
X170014000Y-57290000D01*
X170054000Y-55210000D02*
X170054000Y-53770000D01*
X170054000Y-58730000D02*
X170054000Y-57290000D01*
X170095000Y-55210000D02*
X170095000Y-53759000D01*
X170095000Y-58741000D02*
X170095000Y-57290000D01*
X170135000Y-55210000D02*
X170135000Y-53749000D01*
X170135000Y-58751000D02*
X170135000Y-57290000D01*
X170175000Y-55210000D02*
X170175000Y-53739000D01*
X170175000Y-58761000D02*
X170175000Y-57290000D01*
X170215000Y-55210000D02*
X170215000Y-53730000D01*
X170215000Y-58770000D02*
X170215000Y-57290000D01*
X170255000Y-55210000D02*
X170255000Y-53722000D01*
X170255000Y-58778000D02*
X170255000Y-57290000D01*
X170295000Y-55210000D02*
X170295000Y-53714000D01*
X170295000Y-58786000D02*
X170295000Y-57290000D01*
X170335000Y-55210000D02*
X170335000Y-53707000D01*
X170335000Y-58793000D02*
X170335000Y-57290000D01*
X170375000Y-55210000D02*
X170375000Y-53700000D01*
X170375000Y-58800000D02*
X170375000Y-57290000D01*
X170415000Y-55210000D02*
X170415000Y-53694000D01*
X170415000Y-58806000D02*
X170415000Y-57290000D01*
X170455000Y-55210000D02*
X170455000Y-53689000D01*
X170455000Y-58811000D02*
X170455000Y-57290000D01*
X170495000Y-55210000D02*
X170495000Y-53685000D01*
X170495000Y-58815000D02*
X170495000Y-57290000D01*
X170535000Y-55210000D02*
X170535000Y-53681000D01*
X170535000Y-58819000D02*
X170535000Y-57290000D01*
X170575000Y-58823000D02*
X170575000Y-53677000D01*
X170615000Y-58826000D02*
X170615000Y-53674000D01*
X170655000Y-58828000D02*
X170655000Y-53672000D01*
X170695000Y-58829000D02*
X170695000Y-53671000D01*
X170735000Y-58830000D02*
X170735000Y-53670000D01*
X170775000Y-58830000D02*
X170775000Y-53670000D01*
X173329775Y-57975000D02*
X173329775Y-57475000D01*
X173579775Y-57725000D02*
X173079775Y-57725000D01*
X173395000Y-56250000D02*
G75*
G02*
X168155000Y-56250000I-2620000J0D01*
G01*
X168155000Y-56250000D02*
G75*
G02*
X173395000Y-56250000I2620000J0D01*
G01*
%TO.C,D1*%
X139980000Y-46755000D02*
X139980000Y-52195000D01*
X139980000Y-51175000D02*
X142920000Y-51175000D01*
X139980000Y-51295000D02*
X142920000Y-51295000D01*
X139980000Y-51415000D02*
X142920000Y-51415000D01*
X139980000Y-52195000D02*
X142920000Y-52195000D01*
X141450000Y-45735000D02*
X141450000Y-46755000D01*
X141450000Y-53215000D02*
X141450000Y-52195000D01*
X142920000Y-46755000D02*
X139980000Y-46755000D01*
X142920000Y-52195000D02*
X142920000Y-46755000D01*
%TO.C,D3*%
X136230000Y-46780000D02*
X136230000Y-52220000D01*
X136230000Y-52220000D02*
X139170000Y-52220000D01*
X137700000Y-45760000D02*
X137700000Y-46780000D01*
X137700000Y-53240000D02*
X137700000Y-52220000D01*
X139170000Y-46780000D02*
X136230000Y-46780000D01*
X139170000Y-47560000D02*
X136230000Y-47560000D01*
X139170000Y-47680000D02*
X136230000Y-47680000D01*
X139170000Y-47800000D02*
X136230000Y-47800000D01*
X139170000Y-52220000D02*
X139170000Y-46780000D01*
%TO.C,U2*%
X186335000Y-32845000D02*
X186335000Y-38045000D01*
X186335000Y-38045000D02*
X191635000Y-38045000D01*
X187985000Y-32845000D02*
X186335000Y-32845000D01*
X191635000Y-32845000D02*
X189985000Y-32845000D01*
X191635000Y-38045000D02*
X191635000Y-32845000D01*
X189985000Y-32845000D02*
G75*
G02*
X187985000Y-32845000I-1000000J0D01*
G01*
%TO.C,C1*%
X154402677Y-57525000D02*
X155402677Y-57525000D01*
X154902677Y-57025000D02*
X154902677Y-58025000D01*
X159882323Y-55320000D02*
X159882323Y-65480000D01*
X159922323Y-55320000D02*
X159922323Y-65480000D01*
X159962323Y-55320000D02*
X159962323Y-65480000D01*
X160002323Y-55321000D02*
X160002323Y-65479000D01*
X160042323Y-55322000D02*
X160042323Y-65478000D01*
X160082323Y-55323000D02*
X160082323Y-65477000D01*
X160122323Y-55325000D02*
X160122323Y-65475000D01*
X160162323Y-55327000D02*
X160162323Y-65473000D01*
X160202323Y-55330000D02*
X160202323Y-65470000D01*
X160242323Y-55332000D02*
X160242323Y-65468000D01*
X160282323Y-55335000D02*
X160282323Y-65465000D01*
X160322323Y-55338000D02*
X160322323Y-65462000D01*
X160362323Y-55342000D02*
X160362323Y-65458000D01*
X160402323Y-55346000D02*
X160402323Y-65454000D01*
X160442323Y-55350000D02*
X160442323Y-65450000D01*
X160482323Y-55355000D02*
X160482323Y-65445000D01*
X160522323Y-55360000D02*
X160522323Y-65440000D01*
X160562323Y-55365000D02*
X160562323Y-65435000D01*
X160603323Y-55370000D02*
X160603323Y-65430000D01*
X160643323Y-55376000D02*
X160643323Y-65424000D01*
X160683323Y-55382000D02*
X160683323Y-65418000D01*
X160723323Y-55389000D02*
X160723323Y-65411000D01*
X160763323Y-55396000D02*
X160763323Y-65404000D01*
X160803323Y-55403000D02*
X160803323Y-65397000D01*
X160843323Y-55410000D02*
X160843323Y-65390000D01*
X160883323Y-55418000D02*
X160883323Y-65382000D01*
X160923323Y-55426000D02*
X160923323Y-65374000D01*
X160963323Y-55435000D02*
X160963323Y-65365000D01*
X161003323Y-55444000D02*
X161003323Y-65356000D01*
X161043323Y-55453000D02*
X161043323Y-65347000D01*
X161083323Y-55462000D02*
X161083323Y-65338000D01*
X161123323Y-55472000D02*
X161123323Y-65328000D01*
X161163323Y-55482000D02*
X161163323Y-59159000D01*
X161163323Y-61641000D02*
X161163323Y-65318000D01*
X161203323Y-55493000D02*
X161203323Y-59159000D01*
X161203323Y-61641000D02*
X161203323Y-65307000D01*
X161243323Y-55503000D02*
X161243323Y-59159000D01*
X161243323Y-61641000D02*
X161243323Y-65297000D01*
X161283323Y-55515000D02*
X161283323Y-59159000D01*
X161283323Y-61641000D02*
X161283323Y-65285000D01*
X161323323Y-55526000D02*
X161323323Y-59159000D01*
X161323323Y-61641000D02*
X161323323Y-65274000D01*
X161363323Y-55538000D02*
X161363323Y-59159000D01*
X161363323Y-61641000D02*
X161363323Y-65262000D01*
X161403323Y-55550000D02*
X161403323Y-59159000D01*
X161403323Y-61641000D02*
X161403323Y-65250000D01*
X161443323Y-55563000D02*
X161443323Y-59159000D01*
X161443323Y-61641000D02*
X161443323Y-65237000D01*
X161483323Y-55576000D02*
X161483323Y-59159000D01*
X161483323Y-61641000D02*
X161483323Y-65224000D01*
X161523323Y-55589000D02*
X161523323Y-59159000D01*
X161523323Y-61641000D02*
X161523323Y-65211000D01*
X161563323Y-55603000D02*
X161563323Y-59159000D01*
X161563323Y-61641000D02*
X161563323Y-65197000D01*
X161603323Y-55617000D02*
X161603323Y-59159000D01*
X161603323Y-61641000D02*
X161603323Y-65183000D01*
X161643323Y-55632000D02*
X161643323Y-59159000D01*
X161643323Y-61641000D02*
X161643323Y-65168000D01*
X161683323Y-55646000D02*
X161683323Y-59159000D01*
X161683323Y-61641000D02*
X161683323Y-65154000D01*
X161723323Y-55662000D02*
X161723323Y-59159000D01*
X161723323Y-61641000D02*
X161723323Y-65138000D01*
X161763323Y-55677000D02*
X161763323Y-59159000D01*
X161763323Y-61641000D02*
X161763323Y-65123000D01*
X161803323Y-55693000D02*
X161803323Y-59159000D01*
X161803323Y-61641000D02*
X161803323Y-65107000D01*
X161843323Y-55710000D02*
X161843323Y-59159000D01*
X161843323Y-61641000D02*
X161843323Y-65090000D01*
X161883323Y-55726000D02*
X161883323Y-59159000D01*
X161883323Y-61641000D02*
X161883323Y-65074000D01*
X161923323Y-55743000D02*
X161923323Y-59159000D01*
X161923323Y-61641000D02*
X161923323Y-65057000D01*
X161963323Y-55761000D02*
X161963323Y-59159000D01*
X161963323Y-61641000D02*
X161963323Y-65039000D01*
X162003323Y-55779000D02*
X162003323Y-59159000D01*
X162003323Y-61641000D02*
X162003323Y-65021000D01*
X162043323Y-55797000D02*
X162043323Y-59159000D01*
X162043323Y-61641000D02*
X162043323Y-65003000D01*
X162083323Y-55816000D02*
X162083323Y-59159000D01*
X162083323Y-61641000D02*
X162083323Y-64984000D01*
X162123323Y-55836000D02*
X162123323Y-59159000D01*
X162123323Y-61641000D02*
X162123323Y-64964000D01*
X162163323Y-55855000D02*
X162163323Y-59159000D01*
X162163323Y-61641000D02*
X162163323Y-64945000D01*
X162203323Y-55875000D02*
X162203323Y-59159000D01*
X162203323Y-61641000D02*
X162203323Y-64925000D01*
X162243323Y-55896000D02*
X162243323Y-59159000D01*
X162243323Y-61641000D02*
X162243323Y-64904000D01*
X162283323Y-55917000D02*
X162283323Y-59159000D01*
X162283323Y-61641000D02*
X162283323Y-64883000D01*
X162323323Y-55938000D02*
X162323323Y-59159000D01*
X162323323Y-61641000D02*
X162323323Y-64862000D01*
X162363323Y-55960000D02*
X162363323Y-59159000D01*
X162363323Y-61641000D02*
X162363323Y-64840000D01*
X162403323Y-55983000D02*
X162403323Y-59159000D01*
X162403323Y-61641000D02*
X162403323Y-64817000D01*
X162443323Y-56005000D02*
X162443323Y-59159000D01*
X162443323Y-61641000D02*
X162443323Y-64795000D01*
X162483323Y-56029000D02*
X162483323Y-59159000D01*
X162483323Y-61641000D02*
X162483323Y-64771000D01*
X162523323Y-56053000D02*
X162523323Y-59159000D01*
X162523323Y-61641000D02*
X162523323Y-64747000D01*
X162563323Y-56077000D02*
X162563323Y-59159000D01*
X162563323Y-61641000D02*
X162563323Y-64723000D01*
X162603323Y-56102000D02*
X162603323Y-59159000D01*
X162603323Y-61641000D02*
X162603323Y-64698000D01*
X162643323Y-56127000D02*
X162643323Y-59159000D01*
X162643323Y-61641000D02*
X162643323Y-64673000D01*
X162683323Y-56153000D02*
X162683323Y-59159000D01*
X162683323Y-61641000D02*
X162683323Y-64647000D01*
X162723323Y-56179000D02*
X162723323Y-59159000D01*
X162723323Y-61641000D02*
X162723323Y-64621000D01*
X162763323Y-56206000D02*
X162763323Y-59159000D01*
X162763323Y-61641000D02*
X162763323Y-64594000D01*
X162803323Y-56234000D02*
X162803323Y-59159000D01*
X162803323Y-61641000D02*
X162803323Y-64566000D01*
X162843323Y-56262000D02*
X162843323Y-59159000D01*
X162843323Y-61641000D02*
X162843323Y-64538000D01*
X162883323Y-56290000D02*
X162883323Y-59159000D01*
X162883323Y-61641000D02*
X162883323Y-64510000D01*
X162923323Y-56320000D02*
X162923323Y-59159000D01*
X162923323Y-61641000D02*
X162923323Y-64480000D01*
X162963323Y-56350000D02*
X162963323Y-59159000D01*
X162963323Y-61641000D02*
X162963323Y-64450000D01*
X163003323Y-56380000D02*
X163003323Y-59159000D01*
X163003323Y-61641000D02*
X163003323Y-64420000D01*
X163043323Y-56411000D02*
X163043323Y-59159000D01*
X163043323Y-61641000D02*
X163043323Y-64389000D01*
X163083323Y-56443000D02*
X163083323Y-59159000D01*
X163083323Y-61641000D02*
X163083323Y-64357000D01*
X163123323Y-56475000D02*
X163123323Y-59159000D01*
X163123323Y-61641000D02*
X163123323Y-64325000D01*
X163163323Y-56508000D02*
X163163323Y-59159000D01*
X163163323Y-61641000D02*
X163163323Y-64292000D01*
X163203323Y-56542000D02*
X163203323Y-59159000D01*
X163203323Y-61641000D02*
X163203323Y-64258000D01*
X163243323Y-56576000D02*
X163243323Y-59159000D01*
X163243323Y-61641000D02*
X163243323Y-64224000D01*
X163283323Y-56611000D02*
X163283323Y-59159000D01*
X163283323Y-61641000D02*
X163283323Y-64189000D01*
X163323323Y-56647000D02*
X163323323Y-59159000D01*
X163323323Y-61641000D02*
X163323323Y-64153000D01*
X163363323Y-56684000D02*
X163363323Y-59159000D01*
X163363323Y-61641000D02*
X163363323Y-64116000D01*
X163403323Y-56721000D02*
X163403323Y-59159000D01*
X163403323Y-61641000D02*
X163403323Y-64079000D01*
X163443323Y-56760000D02*
X163443323Y-59159000D01*
X163443323Y-61641000D02*
X163443323Y-64040000D01*
X163483323Y-56799000D02*
X163483323Y-59159000D01*
X163483323Y-61641000D02*
X163483323Y-64001000D01*
X163523323Y-56839000D02*
X163523323Y-59159000D01*
X163523323Y-61641000D02*
X163523323Y-63961000D01*
X163563323Y-56880000D02*
X163563323Y-59159000D01*
X163563323Y-61641000D02*
X163563323Y-63920000D01*
X163603323Y-56922000D02*
X163603323Y-59159000D01*
X163603323Y-61641000D02*
X163603323Y-63878000D01*
X163643323Y-56964000D02*
X163643323Y-63836000D01*
X163683323Y-57008000D02*
X163683323Y-63792000D01*
X163723323Y-57053000D02*
X163723323Y-63747000D01*
X163763323Y-57099000D02*
X163763323Y-63701000D01*
X163803323Y-57146000D02*
X163803323Y-63654000D01*
X163843323Y-57194000D02*
X163843323Y-63606000D01*
X163883323Y-57244000D02*
X163883323Y-63556000D01*
X163923323Y-57294000D02*
X163923323Y-63506000D01*
X163963323Y-57346000D02*
X163963323Y-63454000D01*
X164003323Y-57400000D02*
X164003323Y-63400000D01*
X164043323Y-57455000D02*
X164043323Y-63345000D01*
X164083323Y-57511000D02*
X164083323Y-63289000D01*
X164123323Y-57570000D02*
X164123323Y-63230000D01*
X164163323Y-57630000D02*
X164163323Y-63170000D01*
X164203323Y-57691000D02*
X164203323Y-63109000D01*
X164243323Y-57755000D02*
X164243323Y-63045000D01*
X164283323Y-57821000D02*
X164283323Y-62979000D01*
X164323323Y-57890000D02*
X164323323Y-62910000D01*
X164363323Y-57961000D02*
X164363323Y-62839000D01*
X164403323Y-58035000D02*
X164403323Y-62765000D01*
X164443323Y-58111000D02*
X164443323Y-62689000D01*
X164483323Y-58191000D02*
X164483323Y-62609000D01*
X164523323Y-58275000D02*
X164523323Y-62525000D01*
X164563323Y-58363000D02*
X164563323Y-62437000D01*
X164603323Y-58456000D02*
X164603323Y-62344000D01*
X164643323Y-58554000D02*
X164643323Y-62246000D01*
X164683323Y-58658000D02*
X164683323Y-62142000D01*
X164723323Y-58770000D02*
X164723323Y-62030000D01*
X164763323Y-58890000D02*
X164763323Y-61910000D01*
X164803323Y-59022000D02*
X164803323Y-61778000D01*
X164843323Y-59170000D02*
X164843323Y-61630000D01*
X164883323Y-59338000D02*
X164883323Y-61462000D01*
X164923323Y-59538000D02*
X164923323Y-61262000D01*
X164963323Y-59801000D02*
X164963323Y-60999000D01*
X165002323Y-60400000D02*
G75*
G02*
X154762323Y-60400000I-5120000J0D01*
G01*
X154762323Y-60400000D02*
G75*
G02*
X165002323Y-60400000I5120000J0D01*
G01*
%TO.C,K2*%
X215025000Y-45875000D02*
X215025000Y-52475000D01*
X215025000Y-45875000D02*
X234825000Y-45875000D01*
X215025000Y-54875000D02*
X215025000Y-61475000D01*
X219075000Y-53725000D02*
X218275000Y-53725000D01*
X219075000Y-53725000D02*
X219075000Y-57325000D01*
X219975000Y-59725000D02*
X222475000Y-59725000D01*
X220475000Y-51925000D02*
X224475000Y-51925000D01*
X220475000Y-55525000D02*
X220475000Y-51925000D01*
X222475000Y-47725000D02*
X219975000Y-47725000D01*
X222475000Y-47725000D02*
X222475000Y-51925000D01*
X222475000Y-55525000D02*
X222475000Y-59725000D01*
X224475000Y-51925000D02*
X224475000Y-55525000D01*
X224475000Y-55525000D02*
X220475000Y-51925000D01*
X224475000Y-55525000D02*
X220475000Y-55525000D01*
X225875000Y-53725000D02*
X225875000Y-57325000D01*
X225875000Y-53725000D02*
X227375000Y-53725000D01*
X225875000Y-57325000D02*
X219075000Y-57325000D01*
X227375000Y-53725000D02*
X231975000Y-51225000D01*
X230575000Y-49475000D02*
X230575000Y-51975000D01*
X230575000Y-57875000D02*
X230575000Y-55425000D01*
X234825000Y-45875000D02*
X234825000Y-61475000D01*
X234825000Y-61475000D02*
X215025000Y-61475000D01*
%TO.C,J1*%
X130395000Y-60025000D02*
X130395000Y-60525000D01*
X130635000Y-60265000D02*
X130635000Y-70385000D01*
X131135000Y-60025000D02*
X130395000Y-60025000D01*
X131195000Y-60265000D02*
X131195000Y-70385000D01*
X132695000Y-60265000D02*
X132695000Y-70385000D01*
X134056000Y-66791000D02*
X134021000Y-66756000D01*
X134272000Y-66598000D02*
X134226000Y-66551000D01*
X136364000Y-69100000D02*
X136318000Y-69053000D01*
X136570000Y-68895000D02*
X136534000Y-68860000D01*
X137596000Y-60265000D02*
X137596000Y-70385000D01*
X140556000Y-60265000D02*
X130635000Y-60265000D01*
X140556000Y-60265000D02*
X140556000Y-70385000D01*
X140556000Y-70385000D02*
X130635000Y-70385000D01*
X133614747Y-62853805D02*
G75*
G02*
X133760000Y-62141000I1680254J28806D01*
G01*
X133760244Y-63508318D02*
G75*
G02*
X133615000Y-62825000I1534756J683318D01*
G01*
X134611958Y-61289573D02*
G75*
G02*
X135979000Y-61290000I683041J-1535420D01*
G01*
X135978042Y-64360427D02*
G75*
G02*
X134611000Y-64360000I-683042J1535427D01*
G01*
X136830427Y-62141958D02*
G75*
G02*
X136830000Y-63509000I-1535420J-683041D01*
G01*
X136975000Y-67825000D02*
G75*
G02*
X133615000Y-67825000I-1680000J0D01*
G01*
X133615000Y-67825000D02*
G75*
G02*
X136975000Y-67825000I1680000J0D01*
G01*
%TO.C,D7*%
X209255000Y-56330000D02*
X209255000Y-60570000D01*
X209255000Y-59730000D02*
X211495000Y-59730000D01*
X209255000Y-59850000D02*
X211495000Y-59850000D01*
X209255000Y-59970000D02*
X211495000Y-59970000D01*
X209255000Y-60570000D02*
X211495000Y-60570000D01*
X210375000Y-55680000D02*
X210375000Y-56330000D01*
X210375000Y-61220000D02*
X210375000Y-60570000D01*
X211495000Y-56330000D02*
X209255000Y-56330000D01*
X211495000Y-60570000D02*
X211495000Y-56330000D01*
%TO.C,D2*%
X144905000Y-47030000D02*
X144905000Y-52470000D01*
X144905000Y-51450000D02*
X147845000Y-51450000D01*
X144905000Y-51570000D02*
X147845000Y-51570000D01*
X144905000Y-51690000D02*
X147845000Y-51690000D01*
X144905000Y-52470000D02*
X147845000Y-52470000D01*
X146375000Y-46010000D02*
X146375000Y-47030000D01*
X146375000Y-53490000D02*
X146375000Y-52470000D01*
X147845000Y-47030000D02*
X144905000Y-47030000D01*
X147845000Y-52470000D02*
X147845000Y-47030000D01*
%TO.C,K1*%
X215025000Y-28925000D02*
X215025000Y-35525000D01*
X215025000Y-28925000D02*
X234825000Y-28925000D01*
X215025000Y-37925000D02*
X215025000Y-44525000D01*
X219075000Y-36775000D02*
X218275000Y-36775000D01*
X219075000Y-36775000D02*
X219075000Y-40375000D01*
X219975000Y-42775000D02*
X222475000Y-42775000D01*
X220475000Y-34975000D02*
X224475000Y-34975000D01*
X220475000Y-38575000D02*
X220475000Y-34975000D01*
X222475000Y-30775000D02*
X219975000Y-30775000D01*
X222475000Y-30775000D02*
X222475000Y-34975000D01*
X222475000Y-38575000D02*
X222475000Y-42775000D01*
X224475000Y-34975000D02*
X224475000Y-38575000D01*
X224475000Y-38575000D02*
X220475000Y-34975000D01*
X224475000Y-38575000D02*
X220475000Y-38575000D01*
X225875000Y-36775000D02*
X225875000Y-40375000D01*
X225875000Y-36775000D02*
X227375000Y-36775000D01*
X225875000Y-40375000D02*
X219075000Y-40375000D01*
X227375000Y-36775000D02*
X231975000Y-34275000D01*
X230575000Y-32525000D02*
X230575000Y-35025000D01*
X230575000Y-40925000D02*
X230575000Y-38475000D01*
X234825000Y-28925000D02*
X234825000Y-44525000D01*
X234825000Y-44525000D02*
X215025000Y-44525000D01*
%TO.C,Q4*%
X207625000Y-90525000D02*
X211475000Y-90525000D01*
X207217226Y-87730214D02*
G75*
G02*
X208475000Y-86475000I2347774J-1094786D01*
G01*
X207625000Y-90525000D02*
G75*
G02*
X207242369Y-89947045I1940000J1700000D01*
G01*
X210625000Y-86475000D02*
G75*
G02*
X211901463Y-87735487I-1060000J-2350000D01*
G01*
X211867383Y-89937264D02*
G75*
G02*
X211475000Y-90525000I-2302383J1112264D01*
G01*
%TO.C,R2*%
X172680000Y-37080000D02*
X172680000Y-43620000D01*
X172680000Y-43620000D02*
X175420000Y-43620000D01*
X174050000Y-36310000D02*
X174050000Y-37080000D01*
X174050000Y-44390000D02*
X174050000Y-43620000D01*
X175420000Y-37080000D02*
X172680000Y-37080000D01*
X175420000Y-43620000D02*
X175420000Y-37080000D01*
%TO.C,D11*%
X178795000Y-27189000D02*
X178795000Y-27345000D01*
X178795000Y-29505000D02*
X178795000Y-29661000D01*
X178795000Y-27189484D02*
G75*
G02*
X182026397Y-27344939I1560000J-1235516D01*
G01*
X179314039Y-27345000D02*
G75*
G02*
X181395910Y-27344951I1040961J-1080000D01*
G01*
X181395910Y-29505049D02*
G75*
G02*
X179314039Y-29505000I-1040910J1080049D01*
G01*
X182026397Y-29505061D02*
G75*
G02*
X178795000Y-29660516I-1671397J1080061D01*
G01*
%TO.C,D6*%
X209705000Y-37055000D02*
X209705000Y-41295000D01*
X209705000Y-40455000D02*
X211945000Y-40455000D01*
X209705000Y-40575000D02*
X211945000Y-40575000D01*
X209705000Y-40695000D02*
X211945000Y-40695000D01*
X209705000Y-41295000D02*
X211945000Y-41295000D01*
X210825000Y-36405000D02*
X210825000Y-37055000D01*
X210825000Y-41945000D02*
X210825000Y-41295000D01*
X211945000Y-37055000D02*
X209705000Y-37055000D01*
X211945000Y-41295000D02*
X211945000Y-37055000D01*
%TO.C,U3*%
X186335000Y-43295000D02*
X186335000Y-48495000D01*
X186335000Y-48495000D02*
X191635000Y-48495000D01*
X187985000Y-43295000D02*
X186335000Y-43295000D01*
X191635000Y-43295000D02*
X189985000Y-43295000D01*
X191635000Y-48495000D02*
X191635000Y-43295000D01*
X189985000Y-43295000D02*
G75*
G02*
X187985000Y-43295000I-1000000J0D01*
G01*
%TO.C,K4*%
X215025000Y-79775000D02*
X215025000Y-86375000D01*
X215025000Y-79775000D02*
X234825000Y-79775000D01*
X215025000Y-88775000D02*
X215025000Y-95375000D01*
X219075000Y-87625000D02*
X218275000Y-87625000D01*
X219075000Y-87625000D02*
X219075000Y-91225000D01*
X219975000Y-93625000D02*
X222475000Y-93625000D01*
X220475000Y-85825000D02*
X224475000Y-85825000D01*
X220475000Y-89425000D02*
X220475000Y-85825000D01*
X222475000Y-81625000D02*
X219975000Y-81625000D01*
X222475000Y-81625000D02*
X222475000Y-85825000D01*
X222475000Y-89425000D02*
X222475000Y-93625000D01*
X224475000Y-85825000D02*
X224475000Y-89425000D01*
X224475000Y-89425000D02*
X220475000Y-85825000D01*
X224475000Y-89425000D02*
X220475000Y-89425000D01*
X225875000Y-87625000D02*
X225875000Y-91225000D01*
X225875000Y-87625000D02*
X227375000Y-87625000D01*
X225875000Y-91225000D02*
X219075000Y-91225000D01*
X227375000Y-87625000D02*
X231975000Y-85125000D01*
X230575000Y-83375000D02*
X230575000Y-85875000D01*
X230575000Y-91775000D02*
X230575000Y-89325000D01*
X234825000Y-79775000D02*
X234825000Y-95375000D01*
X234825000Y-95375000D02*
X215025000Y-95375000D01*
%TO.C,R5*%
X200355000Y-42830000D02*
X200355000Y-49370000D01*
X200355000Y-49370000D02*
X203095000Y-49370000D01*
X201725000Y-42060000D02*
X201725000Y-42830000D01*
X201725000Y-50140000D02*
X201725000Y-49370000D01*
X203095000Y-42830000D02*
X200355000Y-42830000D01*
X203095000Y-49370000D02*
X203095000Y-42830000D01*
%TO.C,Q2*%
X208160000Y-51190000D02*
X212010000Y-51190000D01*
X207752226Y-48395214D02*
G75*
G02*
X209010000Y-47140000I2347774J-1094786D01*
G01*
X208160000Y-51190000D02*
G75*
G02*
X207777369Y-50612045I1940000J1700000D01*
G01*
X211160000Y-47140000D02*
G75*
G02*
X212436463Y-48400487I-1060000J-2350000D01*
G01*
X212402383Y-50602264D02*
G75*
G02*
X212010000Y-51190000I-2302383J1112264D01*
G01*
%TO.C,D5*%
X165645000Y-26939000D02*
X165645000Y-27095000D01*
X165645000Y-29255000D02*
X165645000Y-29411000D01*
X165645000Y-26939484D02*
G75*
G02*
X168876397Y-27094939I1560000J-1235516D01*
G01*
X166164039Y-27095000D02*
G75*
G02*
X168245910Y-27094951I1040961J-1080000D01*
G01*
X168245910Y-29255049D02*
G75*
G02*
X166164039Y-29255000I-1040910J1080049D01*
G01*
X168876397Y-29255061D02*
G75*
G02*
X165645000Y-29410516I-1671397J1080061D01*
G01*
%TO.C,U5*%
X186410000Y-64345000D02*
X186410000Y-69545000D01*
X186410000Y-69545000D02*
X191710000Y-69545000D01*
X188060000Y-64345000D02*
X186410000Y-64345000D01*
X191710000Y-64345000D02*
X190060000Y-64345000D01*
X191710000Y-69545000D02*
X191710000Y-64345000D01*
X190060000Y-64345000D02*
G75*
G02*
X188060000Y-64345000I-1000000J0D01*
G01*
%TO.C,Q3*%
X208425000Y-70900000D02*
X212275000Y-70900000D01*
X208017226Y-68105214D02*
G75*
G02*
X209275000Y-66850000I2347774J-1094786D01*
G01*
X208425000Y-70900000D02*
G75*
G02*
X208042369Y-70322045I1940000J1700000D01*
G01*
X211425000Y-66850000D02*
G75*
G02*
X212701463Y-68110487I-1060000J-2350000D01*
G01*
X212667383Y-70312264D02*
G75*
G02*
X212275000Y-70900000I-2302383J1112264D01*
G01*
%TO.C,D9*%
X206605000Y-97825000D02*
X207255000Y-97825000D01*
X207255000Y-96705000D02*
X207255000Y-98945000D01*
X207255000Y-98945000D02*
X211495000Y-98945000D01*
X210655000Y-98945000D02*
X210655000Y-96705000D01*
X210775000Y-98945000D02*
X210775000Y-96705000D01*
X210895000Y-98945000D02*
X210895000Y-96705000D01*
X211495000Y-96705000D02*
X207255000Y-96705000D01*
X211495000Y-98945000D02*
X211495000Y-96705000D01*
X212145000Y-97825000D02*
X211495000Y-97825000D01*
%TD*%
M02*
