%TF.GenerationSoftware,KiCad,Pcbnew,8.0.7*%
%TF.CreationDate,2025-08-04T19:52:47+05:30*%
%TF.ProjectId,IOT,494f542e-6b69-4636-9164-5f7063625858,rev?*%
%TF.SameCoordinates,Original*%
%TF.FileFunction,Legend,Bot*%
%TF.FilePolarity,Positive*%
%FSLAX46Y46*%
G04 Gerber Fmt 4.6, Leading zero omitted, Abs format (unit mm)*
G04 Created by KiCad (PCBNEW 8.0.7) date 2025-08-04 19:52:47*
%MOMM*%
%LPD*%
G01*
G04 APERTURE LIST*
%ADD10C,0.000000*%
G04 APERTURE END LIST*
D10*
%TO.C,G\u002A\u002A\u002A*%
G36*
X222889307Y-100769717D02*
G01*
X222889307Y-101383928D01*
X222709768Y-101383928D01*
X222530229Y-101383928D01*
X222530229Y-100769717D01*
X222530229Y-100155506D01*
X222709768Y-100155506D01*
X222889307Y-100155506D01*
X222889307Y-100769717D01*
G37*
G36*
X231034693Y-100561830D02*
G01*
X231034693Y-101383928D01*
X230855155Y-101383928D01*
X230675616Y-101383928D01*
X230675616Y-100561830D01*
X230675616Y-99739732D01*
X230855155Y-99739732D01*
X231034693Y-99739732D01*
X231034693Y-100561830D01*
G37*
G36*
X222805367Y-99625353D02*
G01*
X222876605Y-99672227D01*
X222902127Y-99699818D01*
X222921948Y-99743344D01*
X222927104Y-99806429D01*
X222924550Y-99854557D01*
X222908730Y-99903718D01*
X222871862Y-99949072D01*
X222855995Y-99964268D01*
X222819369Y-99989965D01*
X222775561Y-100001590D01*
X222709355Y-100004315D01*
X222671435Y-100003760D01*
X222620199Y-99997531D01*
X222583798Y-99979958D01*
X222547261Y-99945620D01*
X222503716Y-99880111D01*
X222489846Y-99811028D01*
X222503500Y-99745755D01*
X222539557Y-99688544D01*
X222592894Y-99643646D01*
X222658390Y-99615314D01*
X222730921Y-99607799D01*
X222805367Y-99625353D01*
G37*
G36*
X232225318Y-100609077D02*
G01*
X232225318Y-101383928D01*
X231752848Y-101383928D01*
X231280378Y-101383928D01*
X231280378Y-101232738D01*
X231280378Y-101081547D01*
X231573310Y-101081547D01*
X231866241Y-101081547D01*
X231866241Y-100911458D01*
X231866241Y-100741369D01*
X231611107Y-100741369D01*
X231355973Y-100741369D01*
X231355973Y-100600176D01*
X231355973Y-100458984D01*
X231606382Y-100453710D01*
X231856792Y-100448437D01*
X231856792Y-100287797D01*
X231856792Y-100127157D01*
X231568585Y-100121940D01*
X231280378Y-100116723D01*
X231280378Y-99975475D01*
X231280378Y-99834226D01*
X231752848Y-99834226D01*
X232225318Y-99834226D01*
X232225318Y-100609077D01*
G37*
G36*
X226059582Y-100137022D02*
G01*
X226105756Y-100143203D01*
X226188231Y-100173230D01*
X226271064Y-100221890D01*
X226340593Y-100282126D01*
X226404485Y-100351880D01*
X226404485Y-100253693D01*
X226404485Y-100155506D01*
X226584024Y-100155506D01*
X226763563Y-100155506D01*
X226763563Y-100769717D01*
X226763563Y-101383928D01*
X226584024Y-101383928D01*
X226404485Y-101383928D01*
X226403418Y-101067373D01*
X226403319Y-101047160D01*
X226401011Y-100918561D01*
X226396107Y-100812104D01*
X226388927Y-100732996D01*
X226379795Y-100686442D01*
X226361137Y-100645101D01*
X226310742Y-100588313D01*
X226235299Y-100553153D01*
X226130249Y-100536888D01*
X226007610Y-100529079D01*
X226007610Y-100332843D01*
X226007610Y-100136607D01*
X226059582Y-100137022D01*
G37*
G36*
X227617939Y-99999590D02*
G01*
X227623458Y-100146056D01*
X227694329Y-100151922D01*
X227765199Y-100157787D01*
X227765199Y-100307837D01*
X227765199Y-100457887D01*
X227689604Y-100457887D01*
X227614009Y-100457887D01*
X227614009Y-100782649D01*
X227613987Y-100816573D01*
X227613289Y-100929397D01*
X227611131Y-101012878D01*
X227606861Y-101073759D01*
X227599828Y-101118787D01*
X227589381Y-101154706D01*
X227574870Y-101188261D01*
X227531647Y-101254077D01*
X227448800Y-101320948D01*
X227338289Y-101362795D01*
X227285295Y-101371424D01*
X227208278Y-101378578D01*
X227127365Y-101382030D01*
X226990348Y-101383928D01*
X226990348Y-101224231D01*
X226990348Y-101064535D01*
X227098549Y-101058867D01*
X227147004Y-101054857D01*
X227190365Y-101044092D01*
X227220191Y-101021847D01*
X227238785Y-100982871D01*
X227248452Y-100921909D01*
X227251493Y-100833710D01*
X227250215Y-100713020D01*
X227245482Y-100467336D01*
X227127365Y-100461709D01*
X227009247Y-100456083D01*
X227009247Y-100306696D01*
X227009247Y-100157309D01*
X227127365Y-100151683D01*
X227245482Y-100146056D01*
X227251002Y-99999590D01*
X227256522Y-99853125D01*
X227434470Y-99853125D01*
X227612419Y-99853125D01*
X227617939Y-99999590D01*
G37*
G36*
X235471399Y-100604352D02*
G01*
X235476333Y-101383928D01*
X235287641Y-101383928D01*
X235098948Y-101383928D01*
X235093718Y-101105171D01*
X235088488Y-100826413D01*
X234861702Y-100815937D01*
X234769612Y-100810918D01*
X234692377Y-100803842D01*
X234634846Y-100793582D01*
X234587400Y-100778358D01*
X234540423Y-100756386D01*
X234517582Y-100744148D01*
X234433932Y-100688132D01*
X234373526Y-100621935D01*
X234324674Y-100533482D01*
X234306121Y-100480972D01*
X234288107Y-100373594D01*
X234288170Y-100309177D01*
X234670346Y-100309177D01*
X234670375Y-100353317D01*
X234688325Y-100406035D01*
X234721955Y-100461176D01*
X234767525Y-100495804D01*
X234768702Y-100496238D01*
X234813313Y-100505496D01*
X234880940Y-100512078D01*
X234957427Y-100514583D01*
X235097938Y-100514583D01*
X235097938Y-100325595D01*
X235097938Y-100136607D01*
X234951472Y-100136885D01*
X234893438Y-100138070D01*
X234808466Y-100147381D01*
X234749970Y-100168649D01*
X234710976Y-100205088D01*
X234684514Y-100259910D01*
X234670346Y-100309177D01*
X234288170Y-100309177D01*
X234288220Y-100258682D01*
X234307222Y-100152830D01*
X234325917Y-100106558D01*
X234380855Y-100021752D01*
X234453901Y-99945028D01*
X234533780Y-99889490D01*
X234578078Y-99871247D01*
X234683320Y-99845705D01*
X234822203Y-99828391D01*
X234992613Y-99819531D01*
X235192432Y-99819350D01*
X235466464Y-99824776D01*
X235469634Y-100325595D01*
X235471399Y-100604352D01*
G37*
G36*
X223702554Y-100139280D02*
G01*
X223809603Y-100158699D01*
X223901501Y-100193951D01*
X223967442Y-100241512D01*
X223991748Y-100265730D01*
X224022150Y-100284660D01*
X224037740Y-100270287D01*
X224042134Y-100221651D01*
X224042134Y-100155506D01*
X224221673Y-100155506D01*
X224401211Y-100155506D01*
X224401211Y-100769717D01*
X224401211Y-101383928D01*
X224223041Y-101383928D01*
X224044871Y-101383928D01*
X224038778Y-100991778D01*
X224037681Y-100923449D01*
X224035401Y-100807852D01*
X224032590Y-100721766D01*
X224028638Y-100659610D01*
X224022935Y-100615803D01*
X224014870Y-100584766D01*
X224003832Y-100560918D01*
X223989212Y-100538679D01*
X223948434Y-100496338D01*
X223873674Y-100457935D01*
X223789543Y-100446784D01*
X223706830Y-100463770D01*
X223636322Y-100509775D01*
X223612896Y-100536580D01*
X223590391Y-100574899D01*
X223573904Y-100624263D01*
X223562570Y-100690014D01*
X223555529Y-100777497D01*
X223551916Y-100892053D01*
X223550870Y-101039025D01*
X223550765Y-101383928D01*
X223371226Y-101383928D01*
X223191688Y-101383928D01*
X223191688Y-100951632D01*
X223192267Y-100801409D01*
X223194678Y-100674330D01*
X223199776Y-100574530D01*
X223208415Y-100496610D01*
X223221451Y-100435172D01*
X223239736Y-100384819D01*
X223264126Y-100340152D01*
X223295473Y-100295774D01*
X223342022Y-100247776D01*
X223432062Y-100189833D01*
X223537455Y-100150868D01*
X223645603Y-100136607D01*
X223702554Y-100139280D01*
G37*
G36*
X221914431Y-100159990D02*
G01*
X222026027Y-100203890D01*
X222125232Y-100274015D01*
X222156520Y-100302967D01*
X222228229Y-100387361D01*
X222276620Y-100481112D01*
X222305408Y-100593028D01*
X222318308Y-100731919D01*
X222319481Y-100764109D01*
X222320441Y-100850598D01*
X222315817Y-100915716D01*
X222304186Y-100971940D01*
X222284126Y-101031745D01*
X222281436Y-101038738D01*
X222214184Y-101160073D01*
X222118218Y-101261193D01*
X221999070Y-101337475D01*
X221862274Y-101384294D01*
X221783461Y-101393646D01*
X221678503Y-101393068D01*
X221573707Y-101381882D01*
X221487423Y-101361217D01*
X221465044Y-101352682D01*
X221354426Y-101291257D01*
X221258265Y-101206830D01*
X221184336Y-101107465D01*
X221140411Y-101001227D01*
X221127620Y-100949256D01*
X221322005Y-100949256D01*
X221373003Y-100949313D01*
X221443821Y-100950523D01*
X221489915Y-100954888D01*
X221519801Y-100964439D01*
X221541995Y-100981209D01*
X221565014Y-101007229D01*
X221589031Y-101030678D01*
X221659016Y-101067423D01*
X221737899Y-101077641D01*
X221811507Y-101058389D01*
X221834273Y-101044748D01*
X221895901Y-100981571D01*
X221932366Y-100891986D01*
X221944366Y-100774503D01*
X221940985Y-100700488D01*
X221918044Y-100592100D01*
X221873433Y-100514676D01*
X221807155Y-100468219D01*
X221719211Y-100452732D01*
X221700064Y-100453693D01*
X221629664Y-100472392D01*
X221571087Y-100509331D01*
X221537243Y-100557105D01*
X221530623Y-100569157D01*
X221512620Y-100580002D01*
X221477612Y-100586388D01*
X221418674Y-100589414D01*
X221328881Y-100590178D01*
X221237032Y-100589569D01*
X221174791Y-100585018D01*
X221141671Y-100572429D01*
X221133256Y-100547709D01*
X221145132Y-100506762D01*
X221172883Y-100445493D01*
X221200474Y-100392933D01*
X221281670Y-100286964D01*
X221384707Y-100210363D01*
X221511530Y-100161922D01*
X221664083Y-100140432D01*
X221783502Y-100140303D01*
X221914431Y-100159990D01*
G37*
G36*
X228567115Y-100142972D02*
G01*
X228715610Y-100173345D01*
X228841505Y-100233912D01*
X228945034Y-100324793D01*
X229026431Y-100446106D01*
X229028801Y-100450812D01*
X229061312Y-100544126D01*
X229081595Y-100659327D01*
X229088825Y-100783065D01*
X229082178Y-100901994D01*
X229060827Y-101002763D01*
X229002041Y-101129221D01*
X228912567Y-101238305D01*
X228796299Y-101321367D01*
X228654779Y-101376985D01*
X228609028Y-101387411D01*
X228470617Y-101398358D01*
X228332702Y-101381738D01*
X228203443Y-101339895D01*
X228090998Y-101275171D01*
X228003525Y-101189912D01*
X228002594Y-101188685D01*
X227966017Y-101132845D01*
X227932128Y-101068859D01*
X227907195Y-101009805D01*
X227897491Y-100968761D01*
X227900485Y-100964671D01*
X227932713Y-100956373D01*
X227997140Y-100951102D01*
X228089828Y-100949256D01*
X228138535Y-100949305D01*
X228209497Y-100950484D01*
X228255641Y-100954837D01*
X228285551Y-100964446D01*
X228307813Y-100981395D01*
X228331011Y-101007766D01*
X228348174Y-101026679D01*
X228397326Y-101060438D01*
X228464679Y-101075755D01*
X228540629Y-101072375D01*
X228612560Y-101038161D01*
X228665780Y-100973249D01*
X228698802Y-100879558D01*
X228710140Y-100759006D01*
X228707355Y-100697814D01*
X228684441Y-100592422D01*
X228639143Y-100515631D01*
X228572359Y-100468660D01*
X228484985Y-100452732D01*
X228465838Y-100453693D01*
X228395438Y-100472392D01*
X228336861Y-100509331D01*
X228303017Y-100557105D01*
X228296397Y-100569157D01*
X228278394Y-100580002D01*
X228243386Y-100586388D01*
X228184448Y-100589414D01*
X228094655Y-100590178D01*
X228003653Y-100589576D01*
X227941090Y-100585093D01*
X227907639Y-100572705D01*
X227898859Y-100548387D01*
X227910307Y-100508117D01*
X227937540Y-100447870D01*
X227962947Y-100399131D01*
X228044816Y-100290960D01*
X228149000Y-100212364D01*
X228276884Y-100162477D01*
X228429857Y-100140432D01*
X228567115Y-100142972D01*
G37*
G36*
X225890106Y-100798065D02*
G01*
X225890024Y-100799961D01*
X225875237Y-100940578D01*
X225842327Y-101054763D01*
X225787852Y-101150833D01*
X225708369Y-101237102D01*
X225651834Y-101285627D01*
X225597595Y-101322413D01*
X225537462Y-101349226D01*
X225455814Y-101374569D01*
X225387893Y-101387949D01*
X225272293Y-101394663D01*
X225150788Y-101386940D01*
X225040339Y-101365165D01*
X225008652Y-101353499D01*
X224943884Y-101321646D01*
X224879699Y-101282479D01*
X224835269Y-101249102D01*
X224738270Y-101146767D01*
X224672384Y-101024339D01*
X224637125Y-100880704D01*
X224633440Y-100761198D01*
X225005973Y-100761198D01*
X225018944Y-100867506D01*
X225057163Y-100958272D01*
X225117609Y-101023600D01*
X225148280Y-101042648D01*
X225236357Y-101070678D01*
X225324358Y-101063868D01*
X225405586Y-101023582D01*
X225473342Y-100951185D01*
X225476291Y-100946589D01*
X225504679Y-100873393D01*
X225516696Y-100781465D01*
X225511695Y-100685310D01*
X225489030Y-100599434D01*
X225483335Y-100586986D01*
X225431517Y-100520487D01*
X225359466Y-100476827D01*
X225277004Y-100458456D01*
X225193954Y-100467825D01*
X225120137Y-100507385D01*
X225057833Y-100573271D01*
X225018207Y-100657118D01*
X225005973Y-100761198D01*
X224633440Y-100761198D01*
X224632008Y-100714747D01*
X224638945Y-100643137D01*
X224676163Y-100496812D01*
X224743299Y-100373516D01*
X224840537Y-100272964D01*
X224968061Y-100194872D01*
X225004004Y-100178863D01*
X225053561Y-100161774D01*
X225106970Y-100151826D01*
X225175535Y-100147195D01*
X225270557Y-100146056D01*
X225332864Y-100146448D01*
X225409985Y-100149497D01*
X225466857Y-100157029D01*
X225514314Y-100170760D01*
X225563189Y-100192407D01*
X225589818Y-100206449D01*
X225702031Y-100288179D01*
X225793995Y-100392626D01*
X225857039Y-100510407D01*
X225858598Y-100514570D01*
X225878196Y-100575101D01*
X225888973Y-100633768D01*
X225892439Y-100703709D01*
X225890516Y-100781465D01*
X225890106Y-100798065D01*
G37*
G36*
X230442917Y-100665460D02*
G01*
X230449514Y-100786784D01*
X230442863Y-100902533D01*
X230422138Y-100999403D01*
X230412963Y-101024651D01*
X230344001Y-101152317D01*
X230247379Y-101257705D01*
X230128072Y-101336379D01*
X229991054Y-101383903D01*
X229932897Y-101392168D01*
X229818882Y-101393666D01*
X229700053Y-101380827D01*
X229594708Y-101354986D01*
X229539679Y-101330909D01*
X229442114Y-101265611D01*
X229356406Y-101181440D01*
X229295422Y-101089797D01*
X229280974Y-101058371D01*
X229264631Y-101016136D01*
X229261514Y-100996343D01*
X229270461Y-100994164D01*
X229310406Y-100990668D01*
X229374345Y-100987650D01*
X229453732Y-100985588D01*
X229507965Y-100984949D01*
X229578392Y-100986196D01*
X229624711Y-100991600D01*
X229655609Y-101002490D01*
X229679770Y-101020196D01*
X229716773Y-101050949D01*
X229791393Y-101090954D01*
X229866150Y-101096980D01*
X229948774Y-101070470D01*
X229974646Y-101056360D01*
X230041926Y-100992887D01*
X230081498Y-100903977D01*
X230093851Y-100854762D01*
X229654429Y-100854762D01*
X229215007Y-100854762D01*
X229225440Y-100702547D01*
X229231100Y-100646875D01*
X229595837Y-100646875D01*
X229841812Y-100646875D01*
X230087787Y-100646875D01*
X230068902Y-100592702D01*
X230050556Y-100551335D01*
X229991180Y-100481376D01*
X229905449Y-100438414D01*
X229886688Y-100433654D01*
X229796753Y-100431971D01*
X229715108Y-100462784D01*
X229649611Y-100521706D01*
X229608117Y-100604352D01*
X229595837Y-100646875D01*
X229231100Y-100646875D01*
X229232031Y-100637714D01*
X229266949Y-100492994D01*
X229329722Y-100372077D01*
X229422376Y-100271723D01*
X229546938Y-100188695D01*
X229577109Y-100173872D01*
X229618755Y-100159548D01*
X229669095Y-100151095D01*
X229737820Y-100147077D01*
X229834619Y-100146056D01*
X229914149Y-100146649D01*
X229987511Y-100149878D01*
X230040926Y-100157277D01*
X230084302Y-100170354D01*
X230127551Y-100190616D01*
X230192822Y-100229457D01*
X230304317Y-100326430D01*
X230387938Y-100448437D01*
X230393283Y-100459306D01*
X230423898Y-100551866D01*
X230439805Y-100646875D01*
X230442917Y-100665460D01*
G37*
G36*
X233641053Y-99804934D02*
G01*
X233771454Y-99829048D01*
X233890430Y-99875072D01*
X233991278Y-99942646D01*
X234067290Y-100031409D01*
X234091242Y-100072603D01*
X234112525Y-100123634D01*
X234122299Y-100180040D01*
X234124649Y-100257958D01*
X234123271Y-100306048D01*
X234108096Y-100404692D01*
X234073255Y-100487242D01*
X234015138Y-100557413D01*
X233930134Y-100618918D01*
X233814635Y-100675471D01*
X233665029Y-100730786D01*
X233598181Y-100754377D01*
X233486444Y-100803166D01*
X233410139Y-100852963D01*
X233367683Y-100905386D01*
X233357497Y-100962052D01*
X233378001Y-101024580D01*
X233403740Y-101053596D01*
X233460797Y-101080713D01*
X233530966Y-101090963D01*
X233601544Y-101082959D01*
X233659831Y-101055318D01*
X233661383Y-101054023D01*
X233687110Y-101020866D01*
X233712056Y-100972879D01*
X233737731Y-100911458D01*
X233938403Y-100911458D01*
X234139075Y-100911458D01*
X234128680Y-100988957D01*
X234110101Y-101064231D01*
X234054515Y-101167749D01*
X233969785Y-101257551D01*
X233860821Y-101328831D01*
X233732534Y-101376781D01*
X233702594Y-101383394D01*
X233588682Y-101395586D01*
X233465827Y-101392987D01*
X233348956Y-101376523D01*
X233252994Y-101347115D01*
X233229701Y-101336278D01*
X233115189Y-101262060D01*
X233031701Y-101167569D01*
X232980484Y-101054619D01*
X232962787Y-100925025D01*
X232963814Y-100881603D01*
X232980175Y-100782609D01*
X233020313Y-100701218D01*
X233089217Y-100625611D01*
X233107035Y-100610261D01*
X233141973Y-100584673D01*
X233185356Y-100559471D01*
X233242649Y-100532138D01*
X233319318Y-100500156D01*
X233420830Y-100461008D01*
X233552651Y-100412176D01*
X233580885Y-100401050D01*
X233640052Y-100373154D01*
X233681352Y-100347626D01*
X233698716Y-100328608D01*
X233719788Y-100272762D01*
X233717757Y-100210200D01*
X233691723Y-100157436D01*
X233645476Y-100124687D01*
X233578395Y-100111079D01*
X233509030Y-100122584D01*
X233449089Y-100156936D01*
X233410283Y-100211871D01*
X233388758Y-100268898D01*
X233185014Y-100268898D01*
X232981271Y-100268898D01*
X232981271Y-100221044D01*
X232982064Y-100205363D01*
X233001020Y-100128967D01*
X233039753Y-100048127D01*
X233090942Y-99979006D01*
X233139315Y-99934774D01*
X233248359Y-99867650D01*
X233372800Y-99823875D01*
X233505933Y-99803090D01*
X233641053Y-99804934D01*
G37*
G36*
X220536908Y-100146895D02*
G01*
X220603659Y-100150459D01*
X220652125Y-100158329D01*
X220692043Y-100172083D01*
X220733153Y-100193303D01*
X220800809Y-100239099D01*
X220880142Y-100323516D01*
X220926992Y-100420558D01*
X220939588Y-100525946D01*
X220916159Y-100635401D01*
X220885788Y-100694395D01*
X220835801Y-100748818D01*
X220763520Y-100795226D01*
X220663787Y-100836855D01*
X220531450Y-100876942D01*
X220464492Y-100895977D01*
X220364872Y-100930917D01*
X220300341Y-100965431D01*
X220269187Y-101001031D01*
X220269701Y-101039232D01*
X220300170Y-101081547D01*
X220302130Y-101083447D01*
X220351246Y-101109911D01*
X220414401Y-101118111D01*
X220481352Y-101110336D01*
X220541856Y-101088873D01*
X220585670Y-101056009D01*
X220602551Y-101014030D01*
X220603029Y-101010122D01*
X220614693Y-100998779D01*
X220646406Y-100991709D01*
X220704070Y-100988078D01*
X220793588Y-100987053D01*
X220984624Y-100987053D01*
X220972165Y-101039025D01*
X220954872Y-101091797D01*
X220895375Y-101191509D01*
X220808669Y-101277208D01*
X220701610Y-101342872D01*
X220581054Y-101382480D01*
X220498099Y-101395348D01*
X220367271Y-101397375D01*
X220234007Y-101373680D01*
X220181996Y-101358031D01*
X220068852Y-101303536D01*
X219987659Y-101229306D01*
X219938701Y-101135660D01*
X219922264Y-101022921D01*
X219924836Y-100977102D01*
X219954424Y-100874285D01*
X220017151Y-100789498D01*
X220113082Y-100722666D01*
X220242286Y-100673718D01*
X220262493Y-100668148D01*
X220377802Y-100634983D01*
X220462019Y-100607526D01*
X220520227Y-100583744D01*
X220557507Y-100561604D01*
X220578942Y-100539076D01*
X220594035Y-100509363D01*
X220588546Y-100483997D01*
X220557891Y-100449306D01*
X220556012Y-100447461D01*
X220508294Y-100414591D01*
X220460730Y-100401190D01*
X220441973Y-100402304D01*
X220374458Y-100421798D01*
X220315986Y-100459169D01*
X220280927Y-100506039D01*
X220280886Y-100506145D01*
X220270528Y-100528004D01*
X220254388Y-100541602D01*
X220224464Y-100548894D01*
X220172752Y-100551835D01*
X220091249Y-100552381D01*
X219919190Y-100552381D01*
X219932417Y-100490959D01*
X219933652Y-100485365D01*
X219978966Y-100362356D01*
X220053938Y-100262751D01*
X220158429Y-100186739D01*
X220183544Y-100174279D01*
X220224753Y-100159886D01*
X220275216Y-100151294D01*
X220344435Y-100147138D01*
X220441911Y-100146056D01*
X220442133Y-100146056D01*
X220536908Y-100146895D01*
G37*
G36*
X239130811Y-100098809D02*
G01*
X239130022Y-100133315D01*
X239107446Y-100272278D01*
X239053453Y-100390318D01*
X238967669Y-100488057D01*
X238849719Y-100566118D01*
X238803017Y-100587248D01*
X238671863Y-100620845D01*
X238540435Y-100620569D01*
X238414667Y-100588442D01*
X238300491Y-100526484D01*
X238203840Y-100436716D01*
X238130646Y-100321160D01*
X238111358Y-100277573D01*
X238091789Y-100226949D01*
X238084134Y-100197602D01*
X238081987Y-100192672D01*
X238064471Y-100185283D01*
X238025841Y-100180422D01*
X237961936Y-100177858D01*
X237868592Y-100177361D01*
X237741648Y-100178703D01*
X237399346Y-100183854D01*
X237362809Y-100281843D01*
X237320948Y-100367026D01*
X237238601Y-100473158D01*
X237134442Y-100562554D01*
X237017006Y-100628257D01*
X236894828Y-100663310D01*
X236808280Y-100675690D01*
X236808280Y-101021331D01*
X236808280Y-101366972D01*
X236921673Y-101412489D01*
X236996664Y-101449370D01*
X237099354Y-101528919D01*
X237176078Y-101627142D01*
X237226587Y-101738526D01*
X237250632Y-101857557D01*
X237247963Y-101978722D01*
X237218331Y-102096507D01*
X237161487Y-102205399D01*
X237077181Y-102299883D01*
X236965164Y-102374448D01*
X236956184Y-102378859D01*
X236888523Y-102406092D01*
X236819554Y-102419672D01*
X236731282Y-102423363D01*
X236714404Y-102423174D01*
X236569795Y-102403758D01*
X236445506Y-102352718D01*
X236342224Y-102270443D01*
X236260638Y-102157322D01*
X236231532Y-102099448D01*
X236214184Y-102047035D01*
X236206129Y-101986737D01*
X236204042Y-101903645D01*
X236204034Y-101893346D01*
X236206041Y-101814751D01*
X236214172Y-101757568D01*
X236231787Y-101707065D01*
X236262247Y-101648512D01*
X236278774Y-101621095D01*
X236360221Y-101521344D01*
X236458615Y-101444575D01*
X236565004Y-101398190D01*
X236647640Y-101376089D01*
X236647640Y-101020931D01*
X236647310Y-100912956D01*
X236645844Y-100812409D01*
X236642921Y-100741752D01*
X236638230Y-100696651D01*
X236631463Y-100672770D01*
X236622310Y-100665773D01*
X236604455Y-100663192D01*
X236550183Y-100642983D01*
X236481982Y-100607796D01*
X236410213Y-100563759D01*
X236345239Y-100516999D01*
X236297421Y-100473643D01*
X236272695Y-100444997D01*
X236191278Y-100320764D01*
X236144165Y-100185387D01*
X236129708Y-100039918D01*
X236264861Y-100039918D01*
X236280514Y-100165044D01*
X236328236Y-100284924D01*
X236403265Y-100389146D01*
X236500799Y-100471086D01*
X236616033Y-100524120D01*
X236630374Y-100528183D01*
X236767809Y-100547357D01*
X236898511Y-100531029D01*
X237017814Y-100481075D01*
X237121054Y-100399372D01*
X237203565Y-100287797D01*
X237231064Y-100235241D01*
X237250655Y-100181659D01*
X237259506Y-100122657D01*
X237261413Y-100042113D01*
X237256310Y-99951460D01*
X237231363Y-99849042D01*
X237181095Y-99760760D01*
X237100493Y-99675185D01*
X237082817Y-99659645D01*
X236986734Y-99592618D01*
X236886239Y-99555848D01*
X236768467Y-99544262D01*
X236765195Y-99544255D01*
X236632191Y-99561879D01*
X236512949Y-99611486D01*
X236412031Y-99688585D01*
X236334002Y-99788684D01*
X236283424Y-99907292D01*
X236264861Y-100039918D01*
X236129708Y-100039918D01*
X236128987Y-100032663D01*
X236129594Y-99984595D01*
X236135729Y-99906941D01*
X236151065Y-99842271D01*
X236178769Y-99774142D01*
X236228550Y-99666811D01*
X235915518Y-99355971D01*
X235602485Y-99045131D01*
X235515576Y-99084076D01*
X235411523Y-99115192D01*
X235284884Y-99122278D01*
X235157005Y-99102158D01*
X235038588Y-99056630D01*
X234940336Y-98987491D01*
X234930142Y-98977528D01*
X234849252Y-98871189D01*
X234798199Y-98749377D01*
X234777373Y-98619275D01*
X234787167Y-98488065D01*
X234827973Y-98362931D01*
X234900180Y-98251053D01*
X234927206Y-98221698D01*
X235032681Y-98140854D01*
X235156751Y-98092627D01*
X235300292Y-98076637D01*
X235326775Y-98077055D01*
X235461600Y-98095577D01*
X235576359Y-98143213D01*
X235676962Y-98222248D01*
X235731187Y-98282746D01*
X235785598Y-98371853D01*
X235815208Y-98472613D01*
X235824485Y-98596354D01*
X235823101Y-98677098D01*
X235815944Y-98736885D01*
X235799962Y-98787078D01*
X235772115Y-98841934D01*
X235719094Y-98936325D01*
X236000058Y-99210461D01*
X236020890Y-99230774D01*
X236105686Y-99313158D01*
X236181712Y-99386568D01*
X236244409Y-99446634D01*
X236289223Y-99488986D01*
X236311596Y-99509254D01*
X236325756Y-99517904D01*
X236351225Y-99519404D01*
X236389981Y-99505038D01*
X236451192Y-99472383D01*
X236458142Y-99468483D01*
X236517959Y-99438140D01*
X236572791Y-99419525D01*
X236636895Y-99409018D01*
X236724529Y-99403000D01*
X236837400Y-99401910D01*
X236936693Y-99413659D01*
X237022833Y-99441498D01*
X237107826Y-99488092D01*
X237140158Y-99508467D01*
X237172177Y-99523454D01*
X237194726Y-99519855D01*
X237221219Y-99498956D01*
X237262280Y-99462597D01*
X237369137Y-99367451D01*
X237464617Y-99281680D01*
X237545311Y-99208393D01*
X237607812Y-99150699D01*
X237648711Y-99111708D01*
X237664599Y-99094528D01*
X237664985Y-99093193D01*
X237659409Y-99066122D01*
X237640975Y-99023797D01*
X237626679Y-98987436D01*
X237613102Y-98900660D01*
X237618401Y-98807601D01*
X237642487Y-98725710D01*
X237643223Y-98724174D01*
X237699776Y-98646317D01*
X237781585Y-98584210D01*
X237876909Y-98546812D01*
X237880572Y-98546011D01*
X237984091Y-98540817D01*
X238078353Y-98566960D01*
X238159428Y-98618710D01*
X238223387Y-98690335D01*
X238266299Y-98776106D01*
X238284236Y-98870290D01*
X238273268Y-98967157D01*
X238229465Y-99060977D01*
X238174277Y-99129892D01*
X238115179Y-99173062D01*
X238041384Y-99195700D01*
X237941979Y-99203204D01*
X237932287Y-99203337D01*
X237883655Y-99204228D01*
X237844605Y-99207662D01*
X237809747Y-99216878D01*
X237773692Y-99235117D01*
X237731048Y-99265621D01*
X237676428Y-99311630D01*
X237604440Y-99376385D01*
X237509695Y-99463127D01*
X237443631Y-99522999D01*
X237384433Y-99575465D01*
X237340100Y-99613470D01*
X237317061Y-99631399D01*
X237315530Y-99632360D01*
X237306178Y-99649601D01*
X237314203Y-99683011D01*
X237341320Y-99740283D01*
X237357095Y-99774561D01*
X237384478Y-99854918D01*
X237399342Y-99928935D01*
X237408401Y-100023214D01*
X237743719Y-100023214D01*
X238079037Y-100023214D01*
X238101546Y-99942894D01*
X238110881Y-99913220D01*
X238169112Y-99798513D01*
X238252496Y-99705364D01*
X238355149Y-99635488D01*
X238471182Y-99590600D01*
X238594710Y-99572416D01*
X238719845Y-99582651D01*
X238840701Y-99623020D01*
X238951391Y-99695240D01*
X238990447Y-99731677D01*
X239069488Y-99836581D01*
X239115732Y-99957736D01*
X239124751Y-100042113D01*
X239130811Y-100098809D01*
G37*
%TD*%
M02*
