M48
; DRILL file {KiCad 8.0.7} date 2025-08-04T19:52:51+0530
; FORMAT={-:-/ absolute / inch / decimal}
; #@! TF.CreationDate,2025-08-04T19:52:51+05:30
; #@! TF.GenerationSoftware,Kicad,Pcbnew,8.0.7
; #@! TF.FileFunction,Plated,1,2,PTH
FMAT,2
INCH
; #@! TA.AperFunction,Plated,PTH,ViaDrill
T1C0.0118
; #@! TA.AperFunction,Plated,PTH,ComponentDrill
T2C0.0315
; #@! TA.AperFunction,Plated,PTH,ComponentDrill
T3C0.0350
; #@! TA.AperFunction,Plated,PTH,ComponentDrill
T4C0.0354
; #@! TA.AperFunction,Plated,PTH,ComponentDrill
T5C0.0394
; #@! TA.AperFunction,Plated,PTH,ComponentDrill
T6C0.0433
; #@! TA.AperFunction,Plated,PTH,ComponentDrill
T7C0.0512
%
G90
G05
T1
X5.9835Y-1.636
X6.4655Y-2.6741
X7.2813Y-3.2728
X8.374Y-2.0128
X8.4232Y-2.2116
T2
X6.3494Y-1.9921
X6.4478Y-1.9921
X6.6368Y-1.3886
X6.6368Y-1.7886
X6.6742Y-2.2146
X6.7726Y-2.2146
X6.8524Y-1.3886
X6.8524Y-1.7886
X7.0591Y-1.3819
X7.0591Y-1.7819
X7.0591Y-1.9014
X7.0591Y-2.3014
X7.0659Y-2.4252
X7.0659Y-2.8252
X7.2894Y-2.1772
X7.2894Y-2.2772
X7.2904Y-1.3455
X7.2904Y-1.4455
X7.2904Y-1.7569
X7.2904Y-1.8569
X7.2933Y-2.5856
X7.2933Y-2.6856
X7.5894Y-2.1772
X7.5894Y-2.2772
X7.5904Y-1.3455
X7.5904Y-1.4455
X7.5904Y-1.7569
X7.5904Y-1.8569
X7.5933Y-2.5856
X7.5933Y-2.6856
X7.9419Y-1.615
X7.9419Y-2.015
X7.9469Y-1.0805
X7.9469Y-1.4805
X7.9469Y-2.1494
X7.9469Y-2.5494
X7.9537Y-2.7203
X7.9537Y-3.1203
X8.0931Y-3.8514
X8.1506Y-3.497
X8.1717Y-1.9484
X8.1821Y-2.7244
X8.1854Y-1.1778
X8.2506Y-3.397
X8.2707Y-2.9307
X8.2707Y-3.2307
X8.2717Y-1.8484
X8.2821Y-2.6244
X8.2825Y-2.1512
X8.2825Y-2.4512
X8.2854Y-1.0778
X8.3002Y-1.3923
X8.3002Y-1.6923
X8.3506Y-3.497
X8.3717Y-1.9484
X8.3821Y-2.7244
X8.3854Y-1.1778
X8.3931Y-3.8514
T3
X6.0705Y-3.0276
X6.0705Y-3.9276
X6.1705Y-3.0276
X6.1705Y-3.9276
X6.2705Y-3.0276
X6.2705Y-3.9276
X6.3705Y-3.0276
X6.3705Y-3.9276
X6.4705Y-3.0276
X6.4705Y-3.9276
X6.5705Y-3.0276
X6.5705Y-3.9276
X6.6705Y-3.0276
X6.6705Y-3.9276
X6.7705Y-3.0276
X6.7705Y-3.9276
X6.8705Y-3.0276
X6.8705Y-3.9276
X6.9705Y-3.0276
X6.9705Y-3.9276
X7.0705Y-3.0276
X7.0705Y-3.9276
X7.1705Y-3.0276
X7.1705Y-3.9276
X7.2705Y-3.0276
X7.2705Y-3.9276
X7.3705Y-3.0276
X7.3705Y-3.9276
X7.4705Y-3.0276
X7.4705Y-3.9276
T4
X6.5329Y-1.1093
X6.6329Y-1.1093
X6.7848Y-1.1191
X6.8848Y-1.1191
X7.0506Y-1.1191
X7.1506Y-1.1191
X7.3075Y-1.1161
X7.4075Y-1.1161
X7.5732Y-1.1112
X7.6732Y-1.1112
T5
X5.1506Y-1.7789
X5.1506Y-1.8789
X5.502Y-3.0276
X5.502Y-3.1276
X6.1962Y-2.378
X6.393Y-2.378
X8.5974Y-1.2116
X8.5974Y-1.6841
X8.5974Y-1.8789
X8.5974Y-2.3514
X8.5974Y-2.5463
X8.5974Y-3.0187
X8.5974Y-3.2136
X8.5974Y-3.686
T6
X5.4213Y-1.7488
X5.4213Y-2.1488
X5.4604Y-1.499
X5.5604Y-1.499
X5.5689Y-1.7478
X5.5689Y-2.1478
X5.6604Y-1.499
X5.7628Y-1.7587
X5.7628Y-2.1587
X5.9173Y-1.7606
X5.9173Y-2.1606
X6.0752Y-1.5018
X6.1752Y-1.5018
X6.2752Y-1.5018
T7
X5.3266Y-2.4734
X5.3266Y-2.6703
X8.5207Y-1.4459
X8.5207Y-2.1132
X8.5207Y-2.7805
X8.5207Y-3.4478
X9.0778Y-1.6841
X9.0778Y-2.3514
X9.0778Y-3.0187
X9.0778Y-3.686
X9.0797Y-1.2096
X9.0797Y-1.877
X9.0797Y-2.5443
X9.0797Y-3.2116
X9.5571Y-1.9606
X9.5571Y-2.1606
X9.5571Y-2.3606
X9.5571Y-2.5606
M30
