%TF.GenerationSoftware,KiCad,Pcbnew,8.0.7*%
%TF.CreationDate,2025-08-08T15:29:20+05:30*%
%TF.ProjectId,power board_v1,706f7765-7220-4626-9f61-72645f76312e,rev?*%
%TF.SameCoordinates,Original*%
%TF.FileFunction,AssemblyDrawing,Top*%
%FSLAX46Y46*%
G04 Gerber Fmt 4.6, Leading zero omitted, Abs format (unit mm)*
G04 Created by KiCad (PCBNEW 8.0.7) date 2025-08-08 15:29:20*
%MOMM*%
%LPD*%
G01*
G04 APERTURE LIST*
%ADD10C,0.150000*%
%ADD11C,0.120000*%
%ADD12C,0.100000*%
G04 APERTURE END LIST*
D10*
X40351905Y-50904819D02*
X40351905Y-49904819D01*
X40351905Y-49904819D02*
X40590000Y-49904819D01*
X40590000Y-49904819D02*
X40732857Y-49952438D01*
X40732857Y-49952438D02*
X40828095Y-50047676D01*
X40828095Y-50047676D02*
X40875714Y-50142914D01*
X40875714Y-50142914D02*
X40923333Y-50333390D01*
X40923333Y-50333390D02*
X40923333Y-50476247D01*
X40923333Y-50476247D02*
X40875714Y-50666723D01*
X40875714Y-50666723D02*
X40828095Y-50761961D01*
X40828095Y-50761961D02*
X40732857Y-50857200D01*
X40732857Y-50857200D02*
X40590000Y-50904819D01*
X40590000Y-50904819D02*
X40351905Y-50904819D01*
X41304286Y-50000057D02*
X41351905Y-49952438D01*
X41351905Y-49952438D02*
X41447143Y-49904819D01*
X41447143Y-49904819D02*
X41685238Y-49904819D01*
X41685238Y-49904819D02*
X41780476Y-49952438D01*
X41780476Y-49952438D02*
X41828095Y-50000057D01*
X41828095Y-50000057D02*
X41875714Y-50095295D01*
X41875714Y-50095295D02*
X41875714Y-50190533D01*
X41875714Y-50190533D02*
X41828095Y-50333390D01*
X41828095Y-50333390D02*
X41256667Y-50904819D01*
X41256667Y-50904819D02*
X41875714Y-50904819D01*
X35358095Y-48804819D02*
X35358095Y-47804819D01*
X35929523Y-48804819D02*
X35500952Y-48233390D01*
X35929523Y-47804819D02*
X35358095Y-48376247D01*
X36688095Y-81729819D02*
X36688095Y-80729819D01*
X36688095Y-81206009D02*
X37259523Y-81206009D01*
X37259523Y-81729819D02*
X37259523Y-80729819D01*
X38164285Y-81063152D02*
X38164285Y-81729819D01*
X37926190Y-80682200D02*
X37688095Y-81396485D01*
X37688095Y-81396485D02*
X38307142Y-81396485D01*
X54338095Y-50649819D02*
X55004761Y-50649819D01*
X55004761Y-50649819D02*
X54576190Y-51649819D01*
X55528571Y-51078390D02*
X55433333Y-51030771D01*
X55433333Y-51030771D02*
X55385714Y-50983152D01*
X55385714Y-50983152D02*
X55338095Y-50887914D01*
X55338095Y-50887914D02*
X55338095Y-50840295D01*
X55338095Y-50840295D02*
X55385714Y-50745057D01*
X55385714Y-50745057D02*
X55433333Y-50697438D01*
X55433333Y-50697438D02*
X55528571Y-50649819D01*
X55528571Y-50649819D02*
X55719047Y-50649819D01*
X55719047Y-50649819D02*
X55814285Y-50697438D01*
X55814285Y-50697438D02*
X55861904Y-50745057D01*
X55861904Y-50745057D02*
X55909523Y-50840295D01*
X55909523Y-50840295D02*
X55909523Y-50887914D01*
X55909523Y-50887914D02*
X55861904Y-50983152D01*
X55861904Y-50983152D02*
X55814285Y-51030771D01*
X55814285Y-51030771D02*
X55719047Y-51078390D01*
X55719047Y-51078390D02*
X55528571Y-51078390D01*
X55528571Y-51078390D02*
X55433333Y-51126009D01*
X55433333Y-51126009D02*
X55385714Y-51173628D01*
X55385714Y-51173628D02*
X55338095Y-51268866D01*
X55338095Y-51268866D02*
X55338095Y-51459342D01*
X55338095Y-51459342D02*
X55385714Y-51554580D01*
X55385714Y-51554580D02*
X55433333Y-51602200D01*
X55433333Y-51602200D02*
X55528571Y-51649819D01*
X55528571Y-51649819D02*
X55719047Y-51649819D01*
X55719047Y-51649819D02*
X55814285Y-51602200D01*
X55814285Y-51602200D02*
X55861904Y-51554580D01*
X55861904Y-51554580D02*
X55909523Y-51459342D01*
X55909523Y-51459342D02*
X55909523Y-51268866D01*
X55909523Y-51268866D02*
X55861904Y-51173628D01*
X55861904Y-51173628D02*
X55814285Y-51126009D01*
X55814285Y-51126009D02*
X55719047Y-51078390D01*
X56861904Y-51649819D02*
X56290476Y-51649819D01*
X56576190Y-51649819D02*
X56576190Y-50649819D01*
X56576190Y-50649819D02*
X56480952Y-50792676D01*
X56480952Y-50792676D02*
X56385714Y-50887914D01*
X56385714Y-50887914D02*
X56290476Y-50935533D01*
X57242857Y-50745057D02*
X57290476Y-50697438D01*
X57290476Y-50697438D02*
X57385714Y-50649819D01*
X57385714Y-50649819D02*
X57623809Y-50649819D01*
X57623809Y-50649819D02*
X57719047Y-50697438D01*
X57719047Y-50697438D02*
X57766666Y-50745057D01*
X57766666Y-50745057D02*
X57814285Y-50840295D01*
X57814285Y-50840295D02*
X57814285Y-50935533D01*
X57814285Y-50935533D02*
X57766666Y-51078390D01*
X57766666Y-51078390D02*
X57195238Y-51649819D01*
X57195238Y-51649819D02*
X57814285Y-51649819D01*
X55338095Y-43879819D02*
X55338095Y-44689342D01*
X55338095Y-44689342D02*
X55385714Y-44784580D01*
X55385714Y-44784580D02*
X55433333Y-44832200D01*
X55433333Y-44832200D02*
X55528571Y-44879819D01*
X55528571Y-44879819D02*
X55719047Y-44879819D01*
X55719047Y-44879819D02*
X55814285Y-44832200D01*
X55814285Y-44832200D02*
X55861904Y-44784580D01*
X55861904Y-44784580D02*
X55909523Y-44689342D01*
X55909523Y-44689342D02*
X55909523Y-43879819D01*
X56338095Y-43975057D02*
X56385714Y-43927438D01*
X56385714Y-43927438D02*
X56480952Y-43879819D01*
X56480952Y-43879819D02*
X56719047Y-43879819D01*
X56719047Y-43879819D02*
X56814285Y-43927438D01*
X56814285Y-43927438D02*
X56861904Y-43975057D01*
X56861904Y-43975057D02*
X56909523Y-44070295D01*
X56909523Y-44070295D02*
X56909523Y-44165533D01*
X56909523Y-44165533D02*
X56861904Y-44308390D01*
X56861904Y-44308390D02*
X56290476Y-44879819D01*
X56290476Y-44879819D02*
X56909523Y-44879819D01*
X36638095Y-38804819D02*
X36638095Y-37804819D01*
X36638095Y-38281009D02*
X37209523Y-38281009D01*
X37209523Y-38804819D02*
X37209523Y-37804819D01*
X38209523Y-38804819D02*
X37638095Y-38804819D01*
X37923809Y-38804819D02*
X37923809Y-37804819D01*
X37923809Y-37804819D02*
X37828571Y-37947676D01*
X37828571Y-37947676D02*
X37733333Y-38042914D01*
X37733333Y-38042914D02*
X37638095Y-38090533D01*
X35383095Y-44029819D02*
X35383095Y-43029819D01*
X35954523Y-44029819D02*
X35525952Y-43458390D01*
X35954523Y-43029819D02*
X35383095Y-43601247D01*
X41569819Y-46413094D02*
X40569819Y-46413094D01*
X40569819Y-46413094D02*
X40569819Y-46174999D01*
X40569819Y-46174999D02*
X40617438Y-46032142D01*
X40617438Y-46032142D02*
X40712676Y-45936904D01*
X40712676Y-45936904D02*
X40807914Y-45889285D01*
X40807914Y-45889285D02*
X40998390Y-45841666D01*
X40998390Y-45841666D02*
X41141247Y-45841666D01*
X41141247Y-45841666D02*
X41331723Y-45889285D01*
X41331723Y-45889285D02*
X41426961Y-45936904D01*
X41426961Y-45936904D02*
X41522200Y-46032142D01*
X41522200Y-46032142D02*
X41569819Y-46174999D01*
X41569819Y-46174999D02*
X41569819Y-46413094D01*
X41569819Y-44889285D02*
X41569819Y-45460713D01*
X41569819Y-45174999D02*
X40569819Y-45174999D01*
X40569819Y-45174999D02*
X40712676Y-45270237D01*
X40712676Y-45270237D02*
X40807914Y-45365475D01*
X40807914Y-45365475D02*
X40855533Y-45460713D01*
X48733095Y-74852438D02*
X48637857Y-74804819D01*
X48637857Y-74804819D02*
X48495000Y-74804819D01*
X48495000Y-74804819D02*
X48352143Y-74852438D01*
X48352143Y-74852438D02*
X48256905Y-74947676D01*
X48256905Y-74947676D02*
X48209286Y-75042914D01*
X48209286Y-75042914D02*
X48161667Y-75233390D01*
X48161667Y-75233390D02*
X48161667Y-75376247D01*
X48161667Y-75376247D02*
X48209286Y-75566723D01*
X48209286Y-75566723D02*
X48256905Y-75661961D01*
X48256905Y-75661961D02*
X48352143Y-75757200D01*
X48352143Y-75757200D02*
X48495000Y-75804819D01*
X48495000Y-75804819D02*
X48590238Y-75804819D01*
X48590238Y-75804819D02*
X48733095Y-75757200D01*
X48733095Y-75757200D02*
X48780714Y-75709580D01*
X48780714Y-75709580D02*
X48780714Y-75376247D01*
X48780714Y-75376247D02*
X48590238Y-75376247D01*
X49209286Y-75804819D02*
X49209286Y-74804819D01*
X49209286Y-74804819D02*
X49780714Y-75804819D01*
X49780714Y-75804819D02*
X49780714Y-74804819D01*
X50256905Y-75804819D02*
X50256905Y-74804819D01*
X50256905Y-74804819D02*
X50495000Y-74804819D01*
X50495000Y-74804819D02*
X50637857Y-74852438D01*
X50637857Y-74852438D02*
X50733095Y-74947676D01*
X50733095Y-74947676D02*
X50780714Y-75042914D01*
X50780714Y-75042914D02*
X50828333Y-75233390D01*
X50828333Y-75233390D02*
X50828333Y-75376247D01*
X50828333Y-75376247D02*
X50780714Y-75566723D01*
X50780714Y-75566723D02*
X50733095Y-75661961D01*
X50733095Y-75661961D02*
X50637857Y-75757200D01*
X50637857Y-75757200D02*
X50495000Y-75804819D01*
X50495000Y-75804819D02*
X50256905Y-75804819D01*
X49491666Y-78229819D02*
X49491666Y-78944104D01*
X49491666Y-78944104D02*
X49444047Y-79086961D01*
X49444047Y-79086961D02*
X49348809Y-79182200D01*
X49348809Y-79182200D02*
X49205952Y-79229819D01*
X49205952Y-79229819D02*
X49110714Y-79229819D01*
X49872619Y-78229819D02*
X50491666Y-78229819D01*
X50491666Y-78229819D02*
X50158333Y-78610771D01*
X50158333Y-78610771D02*
X50301190Y-78610771D01*
X50301190Y-78610771D02*
X50396428Y-78658390D01*
X50396428Y-78658390D02*
X50444047Y-78706009D01*
X50444047Y-78706009D02*
X50491666Y-78801247D01*
X50491666Y-78801247D02*
X50491666Y-79039342D01*
X50491666Y-79039342D02*
X50444047Y-79134580D01*
X50444047Y-79134580D02*
X50396428Y-79182200D01*
X50396428Y-79182200D02*
X50301190Y-79229819D01*
X50301190Y-79229819D02*
X50015476Y-79229819D01*
X50015476Y-79229819D02*
X49920238Y-79182200D01*
X49920238Y-79182200D02*
X49872619Y-79134580D01*
X93988095Y-81679819D02*
X93988095Y-80679819D01*
X93988095Y-81156009D02*
X94559523Y-81156009D01*
X94559523Y-81679819D02*
X94559523Y-80679819D01*
X94940476Y-80679819D02*
X95559523Y-80679819D01*
X95559523Y-80679819D02*
X95226190Y-81060771D01*
X95226190Y-81060771D02*
X95369047Y-81060771D01*
X95369047Y-81060771D02*
X95464285Y-81108390D01*
X95464285Y-81108390D02*
X95511904Y-81156009D01*
X95511904Y-81156009D02*
X95559523Y-81251247D01*
X95559523Y-81251247D02*
X95559523Y-81489342D01*
X95559523Y-81489342D02*
X95511904Y-81584580D01*
X95511904Y-81584580D02*
X95464285Y-81632200D01*
X95464285Y-81632200D02*
X95369047Y-81679819D01*
X95369047Y-81679819D02*
X95083333Y-81679819D01*
X95083333Y-81679819D02*
X94988095Y-81632200D01*
X94988095Y-81632200D02*
X94940476Y-81584580D01*
X61480057Y-68535713D02*
X61432438Y-68488094D01*
X61432438Y-68488094D02*
X61384819Y-68392856D01*
X61384819Y-68392856D02*
X61384819Y-68154761D01*
X61384819Y-68154761D02*
X61432438Y-68059523D01*
X61432438Y-68059523D02*
X61480057Y-68011904D01*
X61480057Y-68011904D02*
X61575295Y-67964285D01*
X61575295Y-67964285D02*
X61670533Y-67964285D01*
X61670533Y-67964285D02*
X61813390Y-68011904D01*
X61813390Y-68011904D02*
X62384819Y-68583332D01*
X62384819Y-68583332D02*
X62384819Y-67964285D01*
X62384819Y-67535713D02*
X61384819Y-67535713D01*
X62384819Y-66964285D02*
X61813390Y-67392856D01*
X61384819Y-66964285D02*
X61956247Y-67535713D01*
X64754819Y-67916666D02*
X64278628Y-68249999D01*
X64754819Y-68488094D02*
X63754819Y-68488094D01*
X63754819Y-68488094D02*
X63754819Y-68107142D01*
X63754819Y-68107142D02*
X63802438Y-68011904D01*
X63802438Y-68011904D02*
X63850057Y-67964285D01*
X63850057Y-67964285D02*
X63945295Y-67916666D01*
X63945295Y-67916666D02*
X64088152Y-67916666D01*
X64088152Y-67916666D02*
X64183390Y-67964285D01*
X64183390Y-67964285D02*
X64231009Y-68011904D01*
X64231009Y-68011904D02*
X64278628Y-68107142D01*
X64278628Y-68107142D02*
X64278628Y-68488094D01*
X63850057Y-67535713D02*
X63802438Y-67488094D01*
X63802438Y-67488094D02*
X63754819Y-67392856D01*
X63754819Y-67392856D02*
X63754819Y-67154761D01*
X63754819Y-67154761D02*
X63802438Y-67059523D01*
X63802438Y-67059523D02*
X63850057Y-67011904D01*
X63850057Y-67011904D02*
X63945295Y-66964285D01*
X63945295Y-66964285D02*
X64040533Y-66964285D01*
X64040533Y-66964285D02*
X64183390Y-67011904D01*
X64183390Y-67011904D02*
X64754819Y-67583332D01*
X64754819Y-67583332D02*
X64754819Y-66964285D01*
D11*
X70613855Y-72290475D02*
X69813855Y-72290475D01*
X69813855Y-72290475D02*
X69813855Y-72099999D01*
X69813855Y-72099999D02*
X69851950Y-71985713D01*
X69851950Y-71985713D02*
X69928140Y-71909523D01*
X69928140Y-71909523D02*
X70004331Y-71871428D01*
X70004331Y-71871428D02*
X70156712Y-71833332D01*
X70156712Y-71833332D02*
X70270998Y-71833332D01*
X70270998Y-71833332D02*
X70423379Y-71871428D01*
X70423379Y-71871428D02*
X70499569Y-71909523D01*
X70499569Y-71909523D02*
X70575760Y-71985713D01*
X70575760Y-71985713D02*
X70613855Y-72099999D01*
X70613855Y-72099999D02*
X70613855Y-72290475D01*
X69813855Y-71147618D02*
X69813855Y-71299999D01*
X69813855Y-71299999D02*
X69851950Y-71376190D01*
X69851950Y-71376190D02*
X69890045Y-71414285D01*
X69890045Y-71414285D02*
X70004331Y-71490475D01*
X70004331Y-71490475D02*
X70156712Y-71528571D01*
X70156712Y-71528571D02*
X70461474Y-71528571D01*
X70461474Y-71528571D02*
X70537664Y-71490475D01*
X70537664Y-71490475D02*
X70575760Y-71452380D01*
X70575760Y-71452380D02*
X70613855Y-71376190D01*
X70613855Y-71376190D02*
X70613855Y-71223809D01*
X70613855Y-71223809D02*
X70575760Y-71147618D01*
X70575760Y-71147618D02*
X70537664Y-71109523D01*
X70537664Y-71109523D02*
X70461474Y-71071428D01*
X70461474Y-71071428D02*
X70270998Y-71071428D01*
X70270998Y-71071428D02*
X70194807Y-71109523D01*
X70194807Y-71109523D02*
X70156712Y-71147618D01*
X70156712Y-71147618D02*
X70118617Y-71223809D01*
X70118617Y-71223809D02*
X70118617Y-71376190D01*
X70118617Y-71376190D02*
X70156712Y-71452380D01*
X70156712Y-71452380D02*
X70194807Y-71490475D01*
X70194807Y-71490475D02*
X70270998Y-71528571D01*
D10*
X66530952Y-75779819D02*
X65959524Y-75779819D01*
X66245238Y-75779819D02*
X66245238Y-74779819D01*
X66245238Y-74779819D02*
X66150000Y-74922676D01*
X66150000Y-74922676D02*
X66054762Y-75017914D01*
X66054762Y-75017914D02*
X65959524Y-75065533D01*
X66911905Y-74875057D02*
X66959524Y-74827438D01*
X66959524Y-74827438D02*
X67054762Y-74779819D01*
X67054762Y-74779819D02*
X67292857Y-74779819D01*
X67292857Y-74779819D02*
X67388095Y-74827438D01*
X67388095Y-74827438D02*
X67435714Y-74875057D01*
X67435714Y-74875057D02*
X67483333Y-74970295D01*
X67483333Y-74970295D02*
X67483333Y-75065533D01*
X67483333Y-75065533D02*
X67435714Y-75208390D01*
X67435714Y-75208390D02*
X66864286Y-75779819D01*
X66864286Y-75779819D02*
X67483333Y-75779819D01*
X67769048Y-74779819D02*
X68102381Y-75779819D01*
X68102381Y-75779819D02*
X68435714Y-74779819D01*
X66391666Y-78229819D02*
X66391666Y-78944104D01*
X66391666Y-78944104D02*
X66344047Y-79086961D01*
X66344047Y-79086961D02*
X66248809Y-79182200D01*
X66248809Y-79182200D02*
X66105952Y-79229819D01*
X66105952Y-79229819D02*
X66010714Y-79229819D01*
X67296428Y-78563152D02*
X67296428Y-79229819D01*
X67058333Y-78182200D02*
X66820238Y-78896485D01*
X66820238Y-78896485D02*
X67439285Y-78896485D01*
X45493095Y-61429819D02*
X45493095Y-60429819D01*
X46064523Y-61429819D02*
X45635952Y-60858390D01*
X46064523Y-60429819D02*
X45493095Y-61001247D01*
X39936905Y-59329819D02*
X39936905Y-58329819D01*
X39936905Y-58329819D02*
X40175000Y-58329819D01*
X40175000Y-58329819D02*
X40317857Y-58377438D01*
X40317857Y-58377438D02*
X40413095Y-58472676D01*
X40413095Y-58472676D02*
X40460714Y-58567914D01*
X40460714Y-58567914D02*
X40508333Y-58758390D01*
X40508333Y-58758390D02*
X40508333Y-58901247D01*
X40508333Y-58901247D02*
X40460714Y-59091723D01*
X40460714Y-59091723D02*
X40413095Y-59186961D01*
X40413095Y-59186961D02*
X40317857Y-59282200D01*
X40317857Y-59282200D02*
X40175000Y-59329819D01*
X40175000Y-59329819D02*
X39936905Y-59329819D01*
X40841667Y-58329819D02*
X41460714Y-58329819D01*
X41460714Y-58329819D02*
X41127381Y-58710771D01*
X41127381Y-58710771D02*
X41270238Y-58710771D01*
X41270238Y-58710771D02*
X41365476Y-58758390D01*
X41365476Y-58758390D02*
X41413095Y-58806009D01*
X41413095Y-58806009D02*
X41460714Y-58901247D01*
X41460714Y-58901247D02*
X41460714Y-59139342D01*
X41460714Y-59139342D02*
X41413095Y-59234580D01*
X41413095Y-59234580D02*
X41365476Y-59282200D01*
X41365476Y-59282200D02*
X41270238Y-59329819D01*
X41270238Y-59329819D02*
X40984524Y-59329819D01*
X40984524Y-59329819D02*
X40889286Y-59282200D01*
X40889286Y-59282200D02*
X40841667Y-59234580D01*
X35754819Y-68908333D02*
X36469104Y-68908333D01*
X36469104Y-68908333D02*
X36611961Y-68955952D01*
X36611961Y-68955952D02*
X36707200Y-69051190D01*
X36707200Y-69051190D02*
X36754819Y-69194047D01*
X36754819Y-69194047D02*
X36754819Y-69289285D01*
X36754819Y-67908333D02*
X36754819Y-68479761D01*
X36754819Y-68194047D02*
X35754819Y-68194047D01*
X35754819Y-68194047D02*
X35897676Y-68289285D01*
X35897676Y-68289285D02*
X35992914Y-68384523D01*
X35992914Y-68384523D02*
X36040533Y-68479761D01*
X74061065Y-55284580D02*
X74013446Y-55332200D01*
X74013446Y-55332200D02*
X73870589Y-55379819D01*
X73870589Y-55379819D02*
X73775351Y-55379819D01*
X73775351Y-55379819D02*
X73632494Y-55332200D01*
X73632494Y-55332200D02*
X73537256Y-55236961D01*
X73537256Y-55236961D02*
X73489637Y-55141723D01*
X73489637Y-55141723D02*
X73442018Y-54951247D01*
X73442018Y-54951247D02*
X73442018Y-54808390D01*
X73442018Y-54808390D02*
X73489637Y-54617914D01*
X73489637Y-54617914D02*
X73537256Y-54522676D01*
X73537256Y-54522676D02*
X73632494Y-54427438D01*
X73632494Y-54427438D02*
X73775351Y-54379819D01*
X73775351Y-54379819D02*
X73870589Y-54379819D01*
X73870589Y-54379819D02*
X74013446Y-54427438D01*
X74013446Y-54427438D02*
X74061065Y-54475057D01*
X75013446Y-55379819D02*
X74442018Y-55379819D01*
X74727732Y-55379819D02*
X74727732Y-54379819D01*
X74727732Y-54379819D02*
X74632494Y-54522676D01*
X74632494Y-54522676D02*
X74537256Y-54617914D01*
X74537256Y-54617914D02*
X74442018Y-54665533D01*
X75632494Y-54379819D02*
X75727732Y-54379819D01*
X75727732Y-54379819D02*
X75822970Y-54427438D01*
X75822970Y-54427438D02*
X75870589Y-54475057D01*
X75870589Y-54475057D02*
X75918208Y-54570295D01*
X75918208Y-54570295D02*
X75965827Y-54760771D01*
X75965827Y-54760771D02*
X75965827Y-54998866D01*
X75965827Y-54998866D02*
X75918208Y-55189342D01*
X75918208Y-55189342D02*
X75870589Y-55284580D01*
X75870589Y-55284580D02*
X75822970Y-55332200D01*
X75822970Y-55332200D02*
X75727732Y-55379819D01*
X75727732Y-55379819D02*
X75632494Y-55379819D01*
X75632494Y-55379819D02*
X75537256Y-55332200D01*
X75537256Y-55332200D02*
X75489637Y-55284580D01*
X75489637Y-55284580D02*
X75442018Y-55189342D01*
X75442018Y-55189342D02*
X75394399Y-54998866D01*
X75394399Y-54998866D02*
X75394399Y-54760771D01*
X75394399Y-54760771D02*
X75442018Y-54570295D01*
X75442018Y-54570295D02*
X75489637Y-54475057D01*
X75489637Y-54475057D02*
X75537256Y-54427438D01*
X75537256Y-54427438D02*
X75632494Y-54379819D01*
X77108684Y-54332200D02*
X76251542Y-55617914D01*
X77870589Y-54379819D02*
X77680113Y-54379819D01*
X77680113Y-54379819D02*
X77584875Y-54427438D01*
X77584875Y-54427438D02*
X77537256Y-54475057D01*
X77537256Y-54475057D02*
X77442018Y-54617914D01*
X77442018Y-54617914D02*
X77394399Y-54808390D01*
X77394399Y-54808390D02*
X77394399Y-55189342D01*
X77394399Y-55189342D02*
X77442018Y-55284580D01*
X77442018Y-55284580D02*
X77489637Y-55332200D01*
X77489637Y-55332200D02*
X77584875Y-55379819D01*
X77584875Y-55379819D02*
X77775351Y-55379819D01*
X77775351Y-55379819D02*
X77870589Y-55332200D01*
X77870589Y-55332200D02*
X77918208Y-55284580D01*
X77918208Y-55284580D02*
X77965827Y-55189342D01*
X77965827Y-55189342D02*
X77965827Y-54951247D01*
X77965827Y-54951247D02*
X77918208Y-54856009D01*
X77918208Y-54856009D02*
X77870589Y-54808390D01*
X77870589Y-54808390D02*
X77775351Y-54760771D01*
X77775351Y-54760771D02*
X77584875Y-54760771D01*
X77584875Y-54760771D02*
X77489637Y-54808390D01*
X77489637Y-54808390D02*
X77442018Y-54856009D01*
X77442018Y-54856009D02*
X77394399Y-54951247D01*
X78299161Y-54379819D02*
X78918208Y-54379819D01*
X78918208Y-54379819D02*
X78584875Y-54760771D01*
X78584875Y-54760771D02*
X78727732Y-54760771D01*
X78727732Y-54760771D02*
X78822970Y-54808390D01*
X78822970Y-54808390D02*
X78870589Y-54856009D01*
X78870589Y-54856009D02*
X78918208Y-54951247D01*
X78918208Y-54951247D02*
X78918208Y-55189342D01*
X78918208Y-55189342D02*
X78870589Y-55284580D01*
X78870589Y-55284580D02*
X78822970Y-55332200D01*
X78822970Y-55332200D02*
X78727732Y-55379819D01*
X78727732Y-55379819D02*
X78442018Y-55379819D01*
X78442018Y-55379819D02*
X78346780Y-55332200D01*
X78346780Y-55332200D02*
X78299161Y-55284580D01*
X76013446Y-59034580D02*
X75965827Y-59082200D01*
X75965827Y-59082200D02*
X75822970Y-59129819D01*
X75822970Y-59129819D02*
X75727732Y-59129819D01*
X75727732Y-59129819D02*
X75584875Y-59082200D01*
X75584875Y-59082200D02*
X75489637Y-58986961D01*
X75489637Y-58986961D02*
X75442018Y-58891723D01*
X75442018Y-58891723D02*
X75394399Y-58701247D01*
X75394399Y-58701247D02*
X75394399Y-58558390D01*
X75394399Y-58558390D02*
X75442018Y-58367914D01*
X75442018Y-58367914D02*
X75489637Y-58272676D01*
X75489637Y-58272676D02*
X75584875Y-58177438D01*
X75584875Y-58177438D02*
X75727732Y-58129819D01*
X75727732Y-58129819D02*
X75822970Y-58129819D01*
X75822970Y-58129819D02*
X75965827Y-58177438D01*
X75965827Y-58177438D02*
X76013446Y-58225057D01*
X76394399Y-58225057D02*
X76442018Y-58177438D01*
X76442018Y-58177438D02*
X76537256Y-58129819D01*
X76537256Y-58129819D02*
X76775351Y-58129819D01*
X76775351Y-58129819D02*
X76870589Y-58177438D01*
X76870589Y-58177438D02*
X76918208Y-58225057D01*
X76918208Y-58225057D02*
X76965827Y-58320295D01*
X76965827Y-58320295D02*
X76965827Y-58415533D01*
X76965827Y-58415533D02*
X76918208Y-58558390D01*
X76918208Y-58558390D02*
X76346780Y-59129819D01*
X76346780Y-59129819D02*
X76965827Y-59129819D01*
X94529819Y-60533333D02*
X95244104Y-60533333D01*
X95244104Y-60533333D02*
X95386961Y-60580952D01*
X95386961Y-60580952D02*
X95482200Y-60676190D01*
X95482200Y-60676190D02*
X95529819Y-60819047D01*
X95529819Y-60819047D02*
X95529819Y-60914285D01*
X94625057Y-60104761D02*
X94577438Y-60057142D01*
X94577438Y-60057142D02*
X94529819Y-59961904D01*
X94529819Y-59961904D02*
X94529819Y-59723809D01*
X94529819Y-59723809D02*
X94577438Y-59628571D01*
X94577438Y-59628571D02*
X94625057Y-59580952D01*
X94625057Y-59580952D02*
X94720295Y-59533333D01*
X94720295Y-59533333D02*
X94815533Y-59533333D01*
X94815533Y-59533333D02*
X94958390Y-59580952D01*
X94958390Y-59580952D02*
X95529819Y-60152380D01*
X95529819Y-60152380D02*
X95529819Y-59533333D01*
X71363095Y-50649819D02*
X72029761Y-50649819D01*
X72029761Y-50649819D02*
X71601190Y-51649819D01*
X72553571Y-51078390D02*
X72458333Y-51030771D01*
X72458333Y-51030771D02*
X72410714Y-50983152D01*
X72410714Y-50983152D02*
X72363095Y-50887914D01*
X72363095Y-50887914D02*
X72363095Y-50840295D01*
X72363095Y-50840295D02*
X72410714Y-50745057D01*
X72410714Y-50745057D02*
X72458333Y-50697438D01*
X72458333Y-50697438D02*
X72553571Y-50649819D01*
X72553571Y-50649819D02*
X72744047Y-50649819D01*
X72744047Y-50649819D02*
X72839285Y-50697438D01*
X72839285Y-50697438D02*
X72886904Y-50745057D01*
X72886904Y-50745057D02*
X72934523Y-50840295D01*
X72934523Y-50840295D02*
X72934523Y-50887914D01*
X72934523Y-50887914D02*
X72886904Y-50983152D01*
X72886904Y-50983152D02*
X72839285Y-51030771D01*
X72839285Y-51030771D02*
X72744047Y-51078390D01*
X72744047Y-51078390D02*
X72553571Y-51078390D01*
X72553571Y-51078390D02*
X72458333Y-51126009D01*
X72458333Y-51126009D02*
X72410714Y-51173628D01*
X72410714Y-51173628D02*
X72363095Y-51268866D01*
X72363095Y-51268866D02*
X72363095Y-51459342D01*
X72363095Y-51459342D02*
X72410714Y-51554580D01*
X72410714Y-51554580D02*
X72458333Y-51602200D01*
X72458333Y-51602200D02*
X72553571Y-51649819D01*
X72553571Y-51649819D02*
X72744047Y-51649819D01*
X72744047Y-51649819D02*
X72839285Y-51602200D01*
X72839285Y-51602200D02*
X72886904Y-51554580D01*
X72886904Y-51554580D02*
X72934523Y-51459342D01*
X72934523Y-51459342D02*
X72934523Y-51268866D01*
X72934523Y-51268866D02*
X72886904Y-51173628D01*
X72886904Y-51173628D02*
X72839285Y-51126009D01*
X72839285Y-51126009D02*
X72744047Y-51078390D01*
X73553571Y-50649819D02*
X73648809Y-50649819D01*
X73648809Y-50649819D02*
X73744047Y-50697438D01*
X73744047Y-50697438D02*
X73791666Y-50745057D01*
X73791666Y-50745057D02*
X73839285Y-50840295D01*
X73839285Y-50840295D02*
X73886904Y-51030771D01*
X73886904Y-51030771D02*
X73886904Y-51268866D01*
X73886904Y-51268866D02*
X73839285Y-51459342D01*
X73839285Y-51459342D02*
X73791666Y-51554580D01*
X73791666Y-51554580D02*
X73744047Y-51602200D01*
X73744047Y-51602200D02*
X73648809Y-51649819D01*
X73648809Y-51649819D02*
X73553571Y-51649819D01*
X73553571Y-51649819D02*
X73458333Y-51602200D01*
X73458333Y-51602200D02*
X73410714Y-51554580D01*
X73410714Y-51554580D02*
X73363095Y-51459342D01*
X73363095Y-51459342D02*
X73315476Y-51268866D01*
X73315476Y-51268866D02*
X73315476Y-51030771D01*
X73315476Y-51030771D02*
X73363095Y-50840295D01*
X73363095Y-50840295D02*
X73410714Y-50745057D01*
X73410714Y-50745057D02*
X73458333Y-50697438D01*
X73458333Y-50697438D02*
X73553571Y-50649819D01*
X74791666Y-50649819D02*
X74315476Y-50649819D01*
X74315476Y-50649819D02*
X74267857Y-51126009D01*
X74267857Y-51126009D02*
X74315476Y-51078390D01*
X74315476Y-51078390D02*
X74410714Y-51030771D01*
X74410714Y-51030771D02*
X74648809Y-51030771D01*
X74648809Y-51030771D02*
X74744047Y-51078390D01*
X74744047Y-51078390D02*
X74791666Y-51126009D01*
X74791666Y-51126009D02*
X74839285Y-51221247D01*
X74839285Y-51221247D02*
X74839285Y-51459342D01*
X74839285Y-51459342D02*
X74791666Y-51554580D01*
X74791666Y-51554580D02*
X74744047Y-51602200D01*
X74744047Y-51602200D02*
X74648809Y-51649819D01*
X74648809Y-51649819D02*
X74410714Y-51649819D01*
X74410714Y-51649819D02*
X74315476Y-51602200D01*
X74315476Y-51602200D02*
X74267857Y-51554580D01*
X72363095Y-43879819D02*
X72363095Y-44689342D01*
X72363095Y-44689342D02*
X72410714Y-44784580D01*
X72410714Y-44784580D02*
X72458333Y-44832200D01*
X72458333Y-44832200D02*
X72553571Y-44879819D01*
X72553571Y-44879819D02*
X72744047Y-44879819D01*
X72744047Y-44879819D02*
X72839285Y-44832200D01*
X72839285Y-44832200D02*
X72886904Y-44784580D01*
X72886904Y-44784580D02*
X72934523Y-44689342D01*
X72934523Y-44689342D02*
X72934523Y-43879819D01*
X73934523Y-44879819D02*
X73363095Y-44879819D01*
X73648809Y-44879819D02*
X73648809Y-43879819D01*
X73648809Y-43879819D02*
X73553571Y-44022676D01*
X73553571Y-44022676D02*
X73458333Y-44117914D01*
X73458333Y-44117914D02*
X73363095Y-44165533D01*
X39521905Y-55129819D02*
X39521905Y-54129819D01*
X39521905Y-54129819D02*
X39760000Y-54129819D01*
X39760000Y-54129819D02*
X39902857Y-54177438D01*
X39902857Y-54177438D02*
X39998095Y-54272676D01*
X39998095Y-54272676D02*
X40045714Y-54367914D01*
X40045714Y-54367914D02*
X40093333Y-54558390D01*
X40093333Y-54558390D02*
X40093333Y-54701247D01*
X40093333Y-54701247D02*
X40045714Y-54891723D01*
X40045714Y-54891723D02*
X39998095Y-54986961D01*
X39998095Y-54986961D02*
X39902857Y-55082200D01*
X39902857Y-55082200D02*
X39760000Y-55129819D01*
X39760000Y-55129819D02*
X39521905Y-55129819D01*
X40950476Y-54463152D02*
X40950476Y-55129819D01*
X40712381Y-54082200D02*
X40474286Y-54796485D01*
X40474286Y-54796485D02*
X41093333Y-54796485D01*
X45468095Y-57229819D02*
X45468095Y-56229819D01*
X46039523Y-57229819D02*
X45610952Y-56658390D01*
X46039523Y-56229819D02*
X45468095Y-56801247D01*
X66386065Y-55184580D02*
X66338446Y-55232200D01*
X66338446Y-55232200D02*
X66195589Y-55279819D01*
X66195589Y-55279819D02*
X66100351Y-55279819D01*
X66100351Y-55279819D02*
X65957494Y-55232200D01*
X65957494Y-55232200D02*
X65862256Y-55136961D01*
X65862256Y-55136961D02*
X65814637Y-55041723D01*
X65814637Y-55041723D02*
X65767018Y-54851247D01*
X65767018Y-54851247D02*
X65767018Y-54708390D01*
X65767018Y-54708390D02*
X65814637Y-54517914D01*
X65814637Y-54517914D02*
X65862256Y-54422676D01*
X65862256Y-54422676D02*
X65957494Y-54327438D01*
X65957494Y-54327438D02*
X66100351Y-54279819D01*
X66100351Y-54279819D02*
X66195589Y-54279819D01*
X66195589Y-54279819D02*
X66338446Y-54327438D01*
X66338446Y-54327438D02*
X66386065Y-54375057D01*
X67338446Y-55279819D02*
X66767018Y-55279819D01*
X67052732Y-55279819D02*
X67052732Y-54279819D01*
X67052732Y-54279819D02*
X66957494Y-54422676D01*
X66957494Y-54422676D02*
X66862256Y-54517914D01*
X66862256Y-54517914D02*
X66767018Y-54565533D01*
X67957494Y-54279819D02*
X68052732Y-54279819D01*
X68052732Y-54279819D02*
X68147970Y-54327438D01*
X68147970Y-54327438D02*
X68195589Y-54375057D01*
X68195589Y-54375057D02*
X68243208Y-54470295D01*
X68243208Y-54470295D02*
X68290827Y-54660771D01*
X68290827Y-54660771D02*
X68290827Y-54898866D01*
X68290827Y-54898866D02*
X68243208Y-55089342D01*
X68243208Y-55089342D02*
X68195589Y-55184580D01*
X68195589Y-55184580D02*
X68147970Y-55232200D01*
X68147970Y-55232200D02*
X68052732Y-55279819D01*
X68052732Y-55279819D02*
X67957494Y-55279819D01*
X67957494Y-55279819D02*
X67862256Y-55232200D01*
X67862256Y-55232200D02*
X67814637Y-55184580D01*
X67814637Y-55184580D02*
X67767018Y-55089342D01*
X67767018Y-55089342D02*
X67719399Y-54898866D01*
X67719399Y-54898866D02*
X67719399Y-54660771D01*
X67719399Y-54660771D02*
X67767018Y-54470295D01*
X67767018Y-54470295D02*
X67814637Y-54375057D01*
X67814637Y-54375057D02*
X67862256Y-54327438D01*
X67862256Y-54327438D02*
X67957494Y-54279819D01*
X69433684Y-54232200D02*
X68576542Y-55517914D01*
X70195589Y-54279819D02*
X70005113Y-54279819D01*
X70005113Y-54279819D02*
X69909875Y-54327438D01*
X69909875Y-54327438D02*
X69862256Y-54375057D01*
X69862256Y-54375057D02*
X69767018Y-54517914D01*
X69767018Y-54517914D02*
X69719399Y-54708390D01*
X69719399Y-54708390D02*
X69719399Y-55089342D01*
X69719399Y-55089342D02*
X69767018Y-55184580D01*
X69767018Y-55184580D02*
X69814637Y-55232200D01*
X69814637Y-55232200D02*
X69909875Y-55279819D01*
X69909875Y-55279819D02*
X70100351Y-55279819D01*
X70100351Y-55279819D02*
X70195589Y-55232200D01*
X70195589Y-55232200D02*
X70243208Y-55184580D01*
X70243208Y-55184580D02*
X70290827Y-55089342D01*
X70290827Y-55089342D02*
X70290827Y-54851247D01*
X70290827Y-54851247D02*
X70243208Y-54756009D01*
X70243208Y-54756009D02*
X70195589Y-54708390D01*
X70195589Y-54708390D02*
X70100351Y-54660771D01*
X70100351Y-54660771D02*
X69909875Y-54660771D01*
X69909875Y-54660771D02*
X69814637Y-54708390D01*
X69814637Y-54708390D02*
X69767018Y-54756009D01*
X69767018Y-54756009D02*
X69719399Y-54851247D01*
X70624161Y-54279819D02*
X71243208Y-54279819D01*
X71243208Y-54279819D02*
X70909875Y-54660771D01*
X70909875Y-54660771D02*
X71052732Y-54660771D01*
X71052732Y-54660771D02*
X71147970Y-54708390D01*
X71147970Y-54708390D02*
X71195589Y-54756009D01*
X71195589Y-54756009D02*
X71243208Y-54851247D01*
X71243208Y-54851247D02*
X71243208Y-55089342D01*
X71243208Y-55089342D02*
X71195589Y-55184580D01*
X71195589Y-55184580D02*
X71147970Y-55232200D01*
X71147970Y-55232200D02*
X71052732Y-55279819D01*
X71052732Y-55279819D02*
X70767018Y-55279819D01*
X70767018Y-55279819D02*
X70671780Y-55232200D01*
X70671780Y-55232200D02*
X70624161Y-55184580D01*
X68633333Y-58984580D02*
X68585714Y-59032200D01*
X68585714Y-59032200D02*
X68442857Y-59079819D01*
X68442857Y-59079819D02*
X68347619Y-59079819D01*
X68347619Y-59079819D02*
X68204762Y-59032200D01*
X68204762Y-59032200D02*
X68109524Y-58936961D01*
X68109524Y-58936961D02*
X68061905Y-58841723D01*
X68061905Y-58841723D02*
X68014286Y-58651247D01*
X68014286Y-58651247D02*
X68014286Y-58508390D01*
X68014286Y-58508390D02*
X68061905Y-58317914D01*
X68061905Y-58317914D02*
X68109524Y-58222676D01*
X68109524Y-58222676D02*
X68204762Y-58127438D01*
X68204762Y-58127438D02*
X68347619Y-58079819D01*
X68347619Y-58079819D02*
X68442857Y-58079819D01*
X68442857Y-58079819D02*
X68585714Y-58127438D01*
X68585714Y-58127438D02*
X68633333Y-58175057D01*
X68966667Y-58079819D02*
X69585714Y-58079819D01*
X69585714Y-58079819D02*
X69252381Y-58460771D01*
X69252381Y-58460771D02*
X69395238Y-58460771D01*
X69395238Y-58460771D02*
X69490476Y-58508390D01*
X69490476Y-58508390D02*
X69538095Y-58556009D01*
X69538095Y-58556009D02*
X69585714Y-58651247D01*
X69585714Y-58651247D02*
X69585714Y-58889342D01*
X69585714Y-58889342D02*
X69538095Y-58984580D01*
X69538095Y-58984580D02*
X69490476Y-59032200D01*
X69490476Y-59032200D02*
X69395238Y-59079819D01*
X69395238Y-59079819D02*
X69109524Y-59079819D01*
X69109524Y-59079819D02*
X69014286Y-59032200D01*
X69014286Y-59032200D02*
X68966667Y-58984580D01*
D11*
X77113855Y-72140475D02*
X76313855Y-72140475D01*
X76313855Y-72140475D02*
X76313855Y-71949999D01*
X76313855Y-71949999D02*
X76351950Y-71835713D01*
X76351950Y-71835713D02*
X76428140Y-71759523D01*
X76428140Y-71759523D02*
X76504331Y-71721428D01*
X76504331Y-71721428D02*
X76656712Y-71683332D01*
X76656712Y-71683332D02*
X76770998Y-71683332D01*
X76770998Y-71683332D02*
X76923379Y-71721428D01*
X76923379Y-71721428D02*
X76999569Y-71759523D01*
X76999569Y-71759523D02*
X77075760Y-71835713D01*
X77075760Y-71835713D02*
X77113855Y-71949999D01*
X77113855Y-71949999D02*
X77113855Y-72140475D01*
X76313855Y-70959523D02*
X76313855Y-71340475D01*
X76313855Y-71340475D02*
X76694807Y-71378571D01*
X76694807Y-71378571D02*
X76656712Y-71340475D01*
X76656712Y-71340475D02*
X76618617Y-71264285D01*
X76618617Y-71264285D02*
X76618617Y-71073809D01*
X76618617Y-71073809D02*
X76656712Y-70997618D01*
X76656712Y-70997618D02*
X76694807Y-70959523D01*
X76694807Y-70959523D02*
X76770998Y-70921428D01*
X76770998Y-70921428D02*
X76961474Y-70921428D01*
X76961474Y-70921428D02*
X77037664Y-70959523D01*
X77037664Y-70959523D02*
X77075760Y-70997618D01*
X77075760Y-70997618D02*
X77113855Y-71073809D01*
X77113855Y-71073809D02*
X77113855Y-71264285D01*
X77113855Y-71264285D02*
X77075760Y-71340475D01*
X77075760Y-71340475D02*
X77037664Y-71378571D01*
D10*
X83724523Y-74804819D02*
X83248333Y-74804819D01*
X83248333Y-74804819D02*
X83200714Y-75281009D01*
X83200714Y-75281009D02*
X83248333Y-75233390D01*
X83248333Y-75233390D02*
X83343571Y-75185771D01*
X83343571Y-75185771D02*
X83581666Y-75185771D01*
X83581666Y-75185771D02*
X83676904Y-75233390D01*
X83676904Y-75233390D02*
X83724523Y-75281009D01*
X83724523Y-75281009D02*
X83772142Y-75376247D01*
X83772142Y-75376247D02*
X83772142Y-75614342D01*
X83772142Y-75614342D02*
X83724523Y-75709580D01*
X83724523Y-75709580D02*
X83676904Y-75757200D01*
X83676904Y-75757200D02*
X83581666Y-75804819D01*
X83581666Y-75804819D02*
X83343571Y-75804819D01*
X83343571Y-75804819D02*
X83248333Y-75757200D01*
X83248333Y-75757200D02*
X83200714Y-75709580D01*
X84057857Y-74804819D02*
X84391190Y-75804819D01*
X84391190Y-75804819D02*
X84724523Y-74804819D01*
X83366666Y-78104819D02*
X83366666Y-78819104D01*
X83366666Y-78819104D02*
X83319047Y-78961961D01*
X83319047Y-78961961D02*
X83223809Y-79057200D01*
X83223809Y-79057200D02*
X83080952Y-79104819D01*
X83080952Y-79104819D02*
X82985714Y-79104819D01*
X84319047Y-78104819D02*
X83842857Y-78104819D01*
X83842857Y-78104819D02*
X83795238Y-78581009D01*
X83795238Y-78581009D02*
X83842857Y-78533390D01*
X83842857Y-78533390D02*
X83938095Y-78485771D01*
X83938095Y-78485771D02*
X84176190Y-78485771D01*
X84176190Y-78485771D02*
X84271428Y-78533390D01*
X84271428Y-78533390D02*
X84319047Y-78581009D01*
X84319047Y-78581009D02*
X84366666Y-78676247D01*
X84366666Y-78676247D02*
X84366666Y-78914342D01*
X84366666Y-78914342D02*
X84319047Y-79009580D01*
X84319047Y-79009580D02*
X84271428Y-79057200D01*
X84271428Y-79057200D02*
X84176190Y-79104819D01*
X84176190Y-79104819D02*
X83938095Y-79104819D01*
X83938095Y-79104819D02*
X83842857Y-79057200D01*
X83842857Y-79057200D02*
X83795238Y-79009580D01*
X94088095Y-38804819D02*
X94088095Y-37804819D01*
X94088095Y-38281009D02*
X94659523Y-38281009D01*
X94659523Y-38804819D02*
X94659523Y-37804819D01*
X95088095Y-37900057D02*
X95135714Y-37852438D01*
X95135714Y-37852438D02*
X95230952Y-37804819D01*
X95230952Y-37804819D02*
X95469047Y-37804819D01*
X95469047Y-37804819D02*
X95564285Y-37852438D01*
X95564285Y-37852438D02*
X95611904Y-37900057D01*
X95611904Y-37900057D02*
X95659523Y-37995295D01*
X95659523Y-37995295D02*
X95659523Y-38090533D01*
X95659523Y-38090533D02*
X95611904Y-38233390D01*
X95611904Y-38233390D02*
X95040476Y-38804819D01*
X95040476Y-38804819D02*
X95659523Y-38804819D01*
X79509819Y-69060713D02*
X79509819Y-68441666D01*
X79509819Y-68441666D02*
X79890771Y-68774999D01*
X79890771Y-68774999D02*
X79890771Y-68632142D01*
X79890771Y-68632142D02*
X79938390Y-68536904D01*
X79938390Y-68536904D02*
X79986009Y-68489285D01*
X79986009Y-68489285D02*
X80081247Y-68441666D01*
X80081247Y-68441666D02*
X80319342Y-68441666D01*
X80319342Y-68441666D02*
X80414580Y-68489285D01*
X80414580Y-68489285D02*
X80462200Y-68536904D01*
X80462200Y-68536904D02*
X80509819Y-68632142D01*
X80509819Y-68632142D02*
X80509819Y-68917856D01*
X80509819Y-68917856D02*
X80462200Y-69013094D01*
X80462200Y-69013094D02*
X80414580Y-69060713D01*
X79509819Y-68108332D02*
X79509819Y-67489285D01*
X79509819Y-67489285D02*
X79890771Y-67822618D01*
X79890771Y-67822618D02*
X79890771Y-67679761D01*
X79890771Y-67679761D02*
X79938390Y-67584523D01*
X79938390Y-67584523D02*
X79986009Y-67536904D01*
X79986009Y-67536904D02*
X80081247Y-67489285D01*
X80081247Y-67489285D02*
X80319342Y-67489285D01*
X80319342Y-67489285D02*
X80414580Y-67536904D01*
X80414580Y-67536904D02*
X80462200Y-67584523D01*
X80462200Y-67584523D02*
X80509819Y-67679761D01*
X80509819Y-67679761D02*
X80509819Y-67965475D01*
X80509819Y-67965475D02*
X80462200Y-68060713D01*
X80462200Y-68060713D02*
X80414580Y-68108332D01*
X79509819Y-66870237D02*
X79509819Y-66774999D01*
X79509819Y-66774999D02*
X79557438Y-66679761D01*
X79557438Y-66679761D02*
X79605057Y-66632142D01*
X79605057Y-66632142D02*
X79700295Y-66584523D01*
X79700295Y-66584523D02*
X79890771Y-66536904D01*
X79890771Y-66536904D02*
X80128866Y-66536904D01*
X80128866Y-66536904D02*
X80319342Y-66584523D01*
X80319342Y-66584523D02*
X80414580Y-66632142D01*
X80414580Y-66632142D02*
X80462200Y-66679761D01*
X80462200Y-66679761D02*
X80509819Y-66774999D01*
X80509819Y-66774999D02*
X80509819Y-66870237D01*
X80509819Y-66870237D02*
X80462200Y-66965475D01*
X80462200Y-66965475D02*
X80414580Y-67013094D01*
X80414580Y-67013094D02*
X80319342Y-67060713D01*
X80319342Y-67060713D02*
X80128866Y-67108332D01*
X80128866Y-67108332D02*
X79890771Y-67108332D01*
X79890771Y-67108332D02*
X79700295Y-67060713D01*
X79700295Y-67060713D02*
X79605057Y-67013094D01*
X79605057Y-67013094D02*
X79557438Y-66965475D01*
X79557438Y-66965475D02*
X79509819Y-66870237D01*
X82879819Y-67941666D02*
X82403628Y-68274999D01*
X82879819Y-68513094D02*
X81879819Y-68513094D01*
X81879819Y-68513094D02*
X81879819Y-68132142D01*
X81879819Y-68132142D02*
X81927438Y-68036904D01*
X81927438Y-68036904D02*
X81975057Y-67989285D01*
X81975057Y-67989285D02*
X82070295Y-67941666D01*
X82070295Y-67941666D02*
X82213152Y-67941666D01*
X82213152Y-67941666D02*
X82308390Y-67989285D01*
X82308390Y-67989285D02*
X82356009Y-68036904D01*
X82356009Y-68036904D02*
X82403628Y-68132142D01*
X82403628Y-68132142D02*
X82403628Y-68513094D01*
X82879819Y-66989285D02*
X82879819Y-67560713D01*
X82879819Y-67274999D02*
X81879819Y-67274999D01*
X81879819Y-67274999D02*
X82022676Y-67370237D01*
X82022676Y-67370237D02*
X82117914Y-67465475D01*
X82117914Y-67465475D02*
X82165533Y-67560713D01*
X53610894Y-66459580D02*
X53563275Y-66507200D01*
X53563275Y-66507200D02*
X53420418Y-66554819D01*
X53420418Y-66554819D02*
X53325180Y-66554819D01*
X53325180Y-66554819D02*
X53182323Y-66507200D01*
X53182323Y-66507200D02*
X53087085Y-66411961D01*
X53087085Y-66411961D02*
X53039466Y-66316723D01*
X53039466Y-66316723D02*
X52991847Y-66126247D01*
X52991847Y-66126247D02*
X52991847Y-65983390D01*
X52991847Y-65983390D02*
X53039466Y-65792914D01*
X53039466Y-65792914D02*
X53087085Y-65697676D01*
X53087085Y-65697676D02*
X53182323Y-65602438D01*
X53182323Y-65602438D02*
X53325180Y-65554819D01*
X53325180Y-65554819D02*
X53420418Y-65554819D01*
X53420418Y-65554819D02*
X53563275Y-65602438D01*
X53563275Y-65602438D02*
X53610894Y-65650057D01*
X54563275Y-66554819D02*
X53991847Y-66554819D01*
X54277561Y-66554819D02*
X54277561Y-65554819D01*
X54277561Y-65554819D02*
X54182323Y-65697676D01*
X54182323Y-65697676D02*
X54087085Y-65792914D01*
X54087085Y-65792914D02*
X53991847Y-65840533D01*
X55182323Y-65554819D02*
X55277561Y-65554819D01*
X55277561Y-65554819D02*
X55372799Y-65602438D01*
X55372799Y-65602438D02*
X55420418Y-65650057D01*
X55420418Y-65650057D02*
X55468037Y-65745295D01*
X55468037Y-65745295D02*
X55515656Y-65935771D01*
X55515656Y-65935771D02*
X55515656Y-66173866D01*
X55515656Y-66173866D02*
X55468037Y-66364342D01*
X55468037Y-66364342D02*
X55420418Y-66459580D01*
X55420418Y-66459580D02*
X55372799Y-66507200D01*
X55372799Y-66507200D02*
X55277561Y-66554819D01*
X55277561Y-66554819D02*
X55182323Y-66554819D01*
X55182323Y-66554819D02*
X55087085Y-66507200D01*
X55087085Y-66507200D02*
X55039466Y-66459580D01*
X55039466Y-66459580D02*
X54991847Y-66364342D01*
X54991847Y-66364342D02*
X54944228Y-66173866D01*
X54944228Y-66173866D02*
X54944228Y-65935771D01*
X54944228Y-65935771D02*
X54991847Y-65745295D01*
X54991847Y-65745295D02*
X55039466Y-65650057D01*
X55039466Y-65650057D02*
X55087085Y-65602438D01*
X55087085Y-65602438D02*
X55182323Y-65554819D01*
X56134704Y-65554819D02*
X56229942Y-65554819D01*
X56229942Y-65554819D02*
X56325180Y-65602438D01*
X56325180Y-65602438D02*
X56372799Y-65650057D01*
X56372799Y-65650057D02*
X56420418Y-65745295D01*
X56420418Y-65745295D02*
X56468037Y-65935771D01*
X56468037Y-65935771D02*
X56468037Y-66173866D01*
X56468037Y-66173866D02*
X56420418Y-66364342D01*
X56420418Y-66364342D02*
X56372799Y-66459580D01*
X56372799Y-66459580D02*
X56325180Y-66507200D01*
X56325180Y-66507200D02*
X56229942Y-66554819D01*
X56229942Y-66554819D02*
X56134704Y-66554819D01*
X56134704Y-66554819D02*
X56039466Y-66507200D01*
X56039466Y-66507200D02*
X55991847Y-66459580D01*
X55991847Y-66459580D02*
X55944228Y-66364342D01*
X55944228Y-66364342D02*
X55896609Y-66173866D01*
X55896609Y-66173866D02*
X55896609Y-65935771D01*
X55896609Y-65935771D02*
X55944228Y-65745295D01*
X55944228Y-65745295D02*
X55991847Y-65650057D01*
X55991847Y-65650057D02*
X56039466Y-65602438D01*
X56039466Y-65602438D02*
X56134704Y-65554819D01*
X57087085Y-65554819D02*
X57182323Y-65554819D01*
X57182323Y-65554819D02*
X57277561Y-65602438D01*
X57277561Y-65602438D02*
X57325180Y-65650057D01*
X57325180Y-65650057D02*
X57372799Y-65745295D01*
X57372799Y-65745295D02*
X57420418Y-65935771D01*
X57420418Y-65935771D02*
X57420418Y-66173866D01*
X57420418Y-66173866D02*
X57372799Y-66364342D01*
X57372799Y-66364342D02*
X57325180Y-66459580D01*
X57325180Y-66459580D02*
X57277561Y-66507200D01*
X57277561Y-66507200D02*
X57182323Y-66554819D01*
X57182323Y-66554819D02*
X57087085Y-66554819D01*
X57087085Y-66554819D02*
X56991847Y-66507200D01*
X56991847Y-66507200D02*
X56944228Y-66459580D01*
X56944228Y-66459580D02*
X56896609Y-66364342D01*
X56896609Y-66364342D02*
X56848990Y-66173866D01*
X56848990Y-66173866D02*
X56848990Y-65935771D01*
X56848990Y-65935771D02*
X56896609Y-65745295D01*
X56896609Y-65745295D02*
X56944228Y-65650057D01*
X56944228Y-65650057D02*
X56991847Y-65602438D01*
X56991847Y-65602438D02*
X57087085Y-65554819D01*
X58563275Y-65507200D02*
X57706133Y-66792914D01*
X58801371Y-65554819D02*
X59420418Y-65554819D01*
X59420418Y-65554819D02*
X59087085Y-65935771D01*
X59087085Y-65935771D02*
X59229942Y-65935771D01*
X59229942Y-65935771D02*
X59325180Y-65983390D01*
X59325180Y-65983390D02*
X59372799Y-66031009D01*
X59372799Y-66031009D02*
X59420418Y-66126247D01*
X59420418Y-66126247D02*
X59420418Y-66364342D01*
X59420418Y-66364342D02*
X59372799Y-66459580D01*
X59372799Y-66459580D02*
X59325180Y-66507200D01*
X59325180Y-66507200D02*
X59229942Y-66554819D01*
X59229942Y-66554819D02*
X58944228Y-66554819D01*
X58944228Y-66554819D02*
X58848990Y-66507200D01*
X58848990Y-66507200D02*
X58801371Y-66459580D01*
X60325180Y-65554819D02*
X59848990Y-65554819D01*
X59848990Y-65554819D02*
X59801371Y-66031009D01*
X59801371Y-66031009D02*
X59848990Y-65983390D01*
X59848990Y-65983390D02*
X59944228Y-65935771D01*
X59944228Y-65935771D02*
X60182323Y-65935771D01*
X60182323Y-65935771D02*
X60277561Y-65983390D01*
X60277561Y-65983390D02*
X60325180Y-66031009D01*
X60325180Y-66031009D02*
X60372799Y-66126247D01*
X60372799Y-66126247D02*
X60372799Y-66364342D01*
X60372799Y-66364342D02*
X60325180Y-66459580D01*
X60325180Y-66459580D02*
X60277561Y-66507200D01*
X60277561Y-66507200D02*
X60182323Y-66554819D01*
X60182323Y-66554819D02*
X59944228Y-66554819D01*
X59944228Y-66554819D02*
X59848990Y-66507200D01*
X59848990Y-66507200D02*
X59801371Y-66459580D01*
X56515656Y-60209580D02*
X56468037Y-60257200D01*
X56468037Y-60257200D02*
X56325180Y-60304819D01*
X56325180Y-60304819D02*
X56229942Y-60304819D01*
X56229942Y-60304819D02*
X56087085Y-60257200D01*
X56087085Y-60257200D02*
X55991847Y-60161961D01*
X55991847Y-60161961D02*
X55944228Y-60066723D01*
X55944228Y-60066723D02*
X55896609Y-59876247D01*
X55896609Y-59876247D02*
X55896609Y-59733390D01*
X55896609Y-59733390D02*
X55944228Y-59542914D01*
X55944228Y-59542914D02*
X55991847Y-59447676D01*
X55991847Y-59447676D02*
X56087085Y-59352438D01*
X56087085Y-59352438D02*
X56229942Y-59304819D01*
X56229942Y-59304819D02*
X56325180Y-59304819D01*
X56325180Y-59304819D02*
X56468037Y-59352438D01*
X56468037Y-59352438D02*
X56515656Y-59400057D01*
X57468037Y-60304819D02*
X56896609Y-60304819D01*
X57182323Y-60304819D02*
X57182323Y-59304819D01*
X57182323Y-59304819D02*
X57087085Y-59447676D01*
X57087085Y-59447676D02*
X56991847Y-59542914D01*
X56991847Y-59542914D02*
X56896609Y-59590533D01*
D12*
%TO.C,D2*%
X35620000Y-50450000D02*
X38100000Y-50450000D01*
X38100000Y-49100000D02*
X38100000Y-51800000D01*
X38100000Y-51800000D02*
X43300000Y-51800000D01*
X38780000Y-49100000D02*
X38780000Y-51800000D01*
X38880000Y-49100000D02*
X38880000Y-51800000D01*
X38980000Y-49100000D02*
X38980000Y-51800000D01*
X43300000Y-49100000D02*
X38100000Y-49100000D01*
X43300000Y-51800000D02*
X43300000Y-49100000D01*
X45780000Y-50450000D02*
X43300000Y-50450000D01*
%TO.C,U2*%
X51100000Y-45545000D02*
X51100000Y-49945000D01*
X51100000Y-46815000D02*
X61100000Y-46815000D01*
X51100000Y-49945000D02*
X61100000Y-49945000D01*
X54250000Y-45545000D02*
X54250000Y-46815000D01*
X57950000Y-45545000D02*
X57950000Y-46815000D01*
X61100000Y-45545000D02*
X51100000Y-45545000D01*
X61100000Y-49945000D02*
X61100000Y-45545000D01*
%TO.C,D1*%
X35645000Y-45675000D02*
X38125000Y-45675000D01*
X38125000Y-44325000D02*
X38125000Y-47025000D01*
X38125000Y-47025000D02*
X43325000Y-47025000D01*
X38805000Y-44325000D02*
X38805000Y-47025000D01*
X38905000Y-44325000D02*
X38905000Y-47025000D01*
X39005000Y-44325000D02*
X39005000Y-47025000D01*
X43325000Y-44325000D02*
X38125000Y-44325000D01*
X43325000Y-47025000D02*
X43325000Y-44325000D01*
X45805000Y-45675000D02*
X43325000Y-45675000D01*
%TO.C,J3*%
X43475000Y-77505000D02*
X56175000Y-77505000D01*
X43475000Y-79410000D02*
X43475000Y-77505000D01*
X44110000Y-80045000D02*
X43475000Y-79410000D01*
X56175000Y-77505000D02*
X56175000Y-80045000D01*
X56175000Y-80045000D02*
X44110000Y-80045000D01*
%TO.C,R2*%
X63050000Y-64600000D02*
X63050000Y-70900000D01*
X63050000Y-70900000D02*
X65550000Y-70900000D01*
X64300000Y-62670000D02*
X64300000Y-64600000D01*
X64300000Y-72830000D02*
X64300000Y-70900000D01*
X65550000Y-64600000D02*
X63050000Y-64600000D01*
X65550000Y-70900000D02*
X65550000Y-64600000D01*
%TO.C,D6*%
X71416190Y-70200000D02*
X69083810Y-70200000D01*
X71416190Y-70200000D02*
G75*
G02*
X69083751Y-70200046I-1166190J-1500000D01*
G01*
X71750000Y-71700000D02*
G75*
G02*
X68750000Y-71700000I-1500000J0D01*
G01*
X68750000Y-71700000D02*
G75*
G02*
X71750000Y-71700000I1500000J0D01*
G01*
%TO.C,J4*%
X60375000Y-77505000D02*
X73075000Y-77505000D01*
X60375000Y-79410000D02*
X60375000Y-77505000D01*
X61010000Y-80045000D02*
X60375000Y-79410000D01*
X73075000Y-77505000D02*
X73075000Y-80045000D01*
X73075000Y-80045000D02*
X61010000Y-80045000D01*
%TO.C,D3*%
X35595000Y-58875000D02*
X38075000Y-58875000D01*
X38075000Y-57525000D02*
X38075000Y-60225000D01*
X38075000Y-60225000D02*
X43275000Y-60225000D01*
X42395000Y-60225000D02*
X42395000Y-57525000D01*
X42495000Y-60225000D02*
X42495000Y-57525000D01*
X42595000Y-60225000D02*
X42595000Y-57525000D01*
X43275000Y-57525000D02*
X38075000Y-57525000D01*
X43275000Y-60225000D02*
X43275000Y-57525000D01*
X45755000Y-58875000D02*
X43275000Y-58875000D01*
%TO.C,J1*%
X34900000Y-64075000D02*
X35400000Y-63575000D01*
X34900000Y-73575000D02*
X34900000Y-64075000D01*
X35400000Y-63575000D02*
X35400000Y-73575000D01*
X35400000Y-63575000D02*
X44700000Y-63575000D01*
X36900000Y-63575000D02*
X36900000Y-73575000D01*
X40455000Y-67213000D02*
X38362000Y-65120000D01*
X40455000Y-72213000D02*
X38362000Y-70121000D01*
X40638000Y-67030000D02*
X38545000Y-64937000D01*
X40638000Y-72030000D02*
X38545000Y-69938000D01*
X41800000Y-63575000D02*
X41800000Y-73575000D01*
X44700000Y-63575000D02*
X44700000Y-73575000D01*
X44700000Y-73575000D02*
X34900000Y-73575000D01*
X41000000Y-66075000D02*
G75*
G02*
X38000000Y-66075000I-1500000J0D01*
G01*
X38000000Y-66075000D02*
G75*
G02*
X41000000Y-66075000I1500000J0D01*
G01*
X41000000Y-71075000D02*
G75*
G02*
X38000000Y-71075000I-1500000J0D01*
G01*
X38000000Y-71075000D02*
G75*
G02*
X41000000Y-71075000I1500000J0D01*
G01*
%TO.C,C2*%
X78063718Y-60012500D02*
X78063718Y-59512500D01*
X78313718Y-59762500D02*
X77813718Y-59762500D01*
X78680113Y-58675000D02*
G75*
G02*
X73680113Y-58675000I-2500000J0D01*
G01*
X73680113Y-58675000D02*
G75*
G02*
X78680113Y-58675000I2500000J0D01*
G01*
%TO.C,J2*%
X86675000Y-52700000D02*
X96475000Y-52700000D01*
X86675000Y-67700000D02*
X86675000Y-52700000D01*
X89575000Y-67700000D02*
X89575000Y-52700000D01*
X90737000Y-54245000D02*
X92830000Y-56337000D01*
X90737000Y-59245000D02*
X92830000Y-61337000D01*
X90737000Y-64245000D02*
X92830000Y-66338000D01*
X90920000Y-54062000D02*
X93013000Y-56154000D01*
X90920000Y-59062000D02*
X93013000Y-61154000D01*
X90920000Y-64062000D02*
X93013000Y-66155000D01*
X94475000Y-67700000D02*
X94475000Y-52700000D01*
X95975000Y-67700000D02*
X86675000Y-67700000D01*
X95975000Y-67700000D02*
X95975000Y-52700000D01*
X96475000Y-52700000D02*
X96475000Y-67200000D01*
X96475000Y-67200000D02*
X95975000Y-67700000D01*
X93375000Y-55200000D02*
G75*
G02*
X90375000Y-55200000I-1500000J0D01*
G01*
X90375000Y-55200000D02*
G75*
G02*
X93375000Y-55200000I1500000J0D01*
G01*
X93375000Y-60200000D02*
G75*
G02*
X90375000Y-60200000I-1500000J0D01*
G01*
X90375000Y-60200000D02*
G75*
G02*
X93375000Y-60200000I1500000J0D01*
G01*
X93375000Y-65200000D02*
G75*
G02*
X90375000Y-65200000I-1500000J0D01*
G01*
X90375000Y-65200000D02*
G75*
G02*
X93375000Y-65200000I1500000J0D01*
G01*
%TO.C,U1*%
X68125000Y-45545000D02*
X68125000Y-49945000D01*
X68125000Y-46815000D02*
X78125000Y-46815000D01*
X68125000Y-49945000D02*
X78125000Y-49945000D01*
X71275000Y-45545000D02*
X71275000Y-46815000D01*
X74975000Y-45545000D02*
X74975000Y-46815000D01*
X78125000Y-45545000D02*
X68125000Y-45545000D01*
X78125000Y-49945000D02*
X78125000Y-45545000D01*
%TO.C,D4*%
X35570000Y-54675000D02*
X38050000Y-54675000D01*
X38050000Y-53325000D02*
X38050000Y-56025000D01*
X38050000Y-56025000D02*
X43250000Y-56025000D01*
X42370000Y-56025000D02*
X42370000Y-53325000D01*
X42470000Y-56025000D02*
X42470000Y-53325000D01*
X42570000Y-56025000D02*
X42570000Y-53325000D01*
X43250000Y-53325000D02*
X38050000Y-53325000D01*
X43250000Y-56025000D02*
X43250000Y-53325000D01*
X45730000Y-54675000D02*
X43250000Y-54675000D01*
%TO.C,C3*%
X66666395Y-57537500D02*
X67166395Y-57537500D01*
X66916395Y-57287500D02*
X66916395Y-57787500D01*
X71300000Y-58625000D02*
G75*
G02*
X66300000Y-58625000I-2500000J0D01*
G01*
X66300000Y-58625000D02*
G75*
G02*
X71300000Y-58625000I2500000J0D01*
G01*
%TO.C,D5*%
X77916190Y-70050000D02*
X75583810Y-70050000D01*
X77916190Y-70050000D02*
G75*
G02*
X75583751Y-70050046I-1166190J-1500000D01*
G01*
X78250000Y-71550000D02*
G75*
G02*
X75250000Y-71550000I-1500000J0D01*
G01*
X75250000Y-71550000D02*
G75*
G02*
X78250000Y-71550000I1500000J0D01*
G01*
%TO.C,J5*%
X77350000Y-77380000D02*
X90050000Y-77380000D01*
X77350000Y-79285000D02*
X77350000Y-77380000D01*
X77985000Y-79920000D02*
X77350000Y-79285000D01*
X90050000Y-77380000D02*
X90050000Y-79920000D01*
X90050000Y-79920000D02*
X77985000Y-79920000D01*
%TO.C,R1*%
X81175000Y-64625000D02*
X81175000Y-70925000D01*
X81175000Y-70925000D02*
X83675000Y-70925000D01*
X82425000Y-62695000D02*
X82425000Y-64625000D01*
X82425000Y-72855000D02*
X82425000Y-70925000D01*
X83675000Y-64625000D02*
X81175000Y-64625000D01*
X83675000Y-70925000D02*
X83675000Y-64625000D01*
%TO.C,C1*%
X52393462Y-57662500D02*
X53393462Y-57662500D01*
X52893462Y-57162500D02*
X52893462Y-58162500D01*
X61682323Y-59850000D02*
G75*
G02*
X51682323Y-59850000I-5000000J0D01*
G01*
X51682323Y-59850000D02*
G75*
G02*
X61682323Y-59850000I5000000J0D01*
G01*
%TD*%
M02*
