M48
; DRILL file {KiCad 8.0.7} date 2025-08-08T15:29:30+0530
; FORMAT={-:-/ absolute / inch / decimal}
; #@! TF.CreationDate,2025-08-08T15:29:30+05:30
; #@! TF.GenerationSoftware,Kicad,Pcbnew,8.0.7
; #@! TF.FileFunction,Plated,1,2,PTH
FMAT,2
INCH
; #@! TA.AperFunction,Plated,PTH,ComponentDrill
T1C0.0315
; #@! TA.AperFunction,Plated,PTH,ComponentDrill
T2C0.0354
; #@! TA.AperFunction,Plated,PTH,ComponentDrill
T3C0.0394
; #@! TA.AperFunction,Plated,PTH,ComponentDrill
T4C0.0433
; #@! TA.AperFunction,Plated,PTH,ComponentDrill
T5C0.0512
%
G90
G05
T1
X2.5315Y-2.4673
X2.5315Y-2.8673
X2.6594Y-2.3081
X2.7579Y-2.3081
X2.95Y-2.31
X3.0484Y-2.31
X3.2451Y-2.4683
X3.2451Y-2.8683
T2
X2.7657Y-2.7728
X2.7657Y-2.8728
X3.0217Y-2.7669
X3.0217Y-2.8669
T3
X1.7616Y-3.1014
X1.8616Y-3.1014
X1.9616Y-3.1014
X2.0616Y-3.1014
X2.1332Y-2.3563
X2.1616Y-3.1014
X2.33Y-2.3563
X2.427Y-3.1014
X2.527Y-3.1014
X2.627Y-3.1014
X2.727Y-3.1014
X2.827Y-3.1014
X3.0953Y-3.0965
X3.1953Y-3.0965
X3.2953Y-3.0965
X3.3953Y-3.0965
X3.4953Y-3.0965
T4
X1.4004Y-2.1526
X1.4014Y-2.3179
X1.4024Y-1.9862
X1.4033Y-1.7982
X1.8004Y-2.1526
X1.8014Y-2.3179
X1.8024Y-1.9862
X1.8033Y-1.7982
X2.1087Y-1.9171
X2.2087Y-1.9171
X2.3087Y-1.9171
X2.7789Y-1.9171
X2.8789Y-1.9171
X2.9789Y-1.9171
T5
X1.5551Y-2.6014
X1.5551Y-2.7982
X3.6171Y-2.1732
X3.6171Y-2.3701
X3.6171Y-2.5669
M30
