%TF.GenerationSoftware,KiCad,Pcbnew,8.0.7*%
%TF.CreationDate,2025-08-08T15:29:20+05:30*%
%TF.ProjectId,power board_v1,706f7765-7220-4626-9f61-72645f76312e,rev?*%
%TF.SameCoordinates,Original*%
%TF.FileFunction,Legend,Bot*%
%TF.FilePolarity,Positive*%
%FSLAX46Y46*%
G04 Gerber Fmt 4.6, Leading zero omitted, Abs format (unit mm)*
G04 Created by KiCad (PCBNEW 8.0.7) date 2025-08-08 15:29:20*
%MOMM*%
%LPD*%
G01*
G04 APERTURE LIST*
%ADD10C,0.100000*%
%ADD11C,0.200000*%
%ADD12C,0.000000*%
G04 APERTURE END LIST*
D10*
X94497419Y-59980074D02*
X94497419Y-59503884D01*
X94497419Y-59503884D02*
X94973609Y-59456265D01*
X94973609Y-59456265D02*
X94925990Y-59503884D01*
X94925990Y-59503884D02*
X94878371Y-59599122D01*
X94878371Y-59599122D02*
X94878371Y-59837217D01*
X94878371Y-59837217D02*
X94925990Y-59932455D01*
X94925990Y-59932455D02*
X94973609Y-59980074D01*
X94973609Y-59980074D02*
X95068847Y-60027693D01*
X95068847Y-60027693D02*
X95306942Y-60027693D01*
X95306942Y-60027693D02*
X95402180Y-59980074D01*
X95402180Y-59980074D02*
X95449800Y-59932455D01*
X95449800Y-59932455D02*
X95497419Y-59837217D01*
X95497419Y-59837217D02*
X95497419Y-59599122D01*
X95497419Y-59599122D02*
X95449800Y-59503884D01*
X95449800Y-59503884D02*
X95402180Y-59456265D01*
X94497419Y-60313408D02*
X95497419Y-60646741D01*
X95497419Y-60646741D02*
X94497419Y-60980074D01*
X94695038Y-64377693D02*
X94647419Y-64282455D01*
X94647419Y-64282455D02*
X94647419Y-64139598D01*
X94647419Y-64139598D02*
X94695038Y-63996741D01*
X94695038Y-63996741D02*
X94790276Y-63901503D01*
X94790276Y-63901503D02*
X94885514Y-63853884D01*
X94885514Y-63853884D02*
X95075990Y-63806265D01*
X95075990Y-63806265D02*
X95218847Y-63806265D01*
X95218847Y-63806265D02*
X95409323Y-63853884D01*
X95409323Y-63853884D02*
X95504561Y-63901503D01*
X95504561Y-63901503D02*
X95599800Y-63996741D01*
X95599800Y-63996741D02*
X95647419Y-64139598D01*
X95647419Y-64139598D02*
X95647419Y-64234836D01*
X95647419Y-64234836D02*
X95599800Y-64377693D01*
X95599800Y-64377693D02*
X95552180Y-64425312D01*
X95552180Y-64425312D02*
X95218847Y-64425312D01*
X95218847Y-64425312D02*
X95218847Y-64234836D01*
X95647419Y-64853884D02*
X94647419Y-64853884D01*
X94647419Y-64853884D02*
X95647419Y-65425312D01*
X95647419Y-65425312D02*
X94647419Y-65425312D01*
X95647419Y-65901503D02*
X94647419Y-65901503D01*
X94647419Y-65901503D02*
X94647419Y-66139598D01*
X94647419Y-66139598D02*
X94695038Y-66282455D01*
X94695038Y-66282455D02*
X94790276Y-66377693D01*
X94790276Y-66377693D02*
X94885514Y-66425312D01*
X94885514Y-66425312D02*
X95075990Y-66472931D01*
X95075990Y-66472931D02*
X95218847Y-66472931D01*
X95218847Y-66472931D02*
X95409323Y-66425312D01*
X95409323Y-66425312D02*
X95504561Y-66377693D01*
X95504561Y-66377693D02*
X95599800Y-66282455D01*
X95599800Y-66282455D02*
X95647419Y-66139598D01*
X95647419Y-66139598D02*
X95647419Y-65901503D01*
X95647419Y-55077693D02*
X95647419Y-54506265D01*
X95647419Y-54791979D02*
X94647419Y-54791979D01*
X94647419Y-54791979D02*
X94790276Y-54696741D01*
X94790276Y-54696741D02*
X94885514Y-54601503D01*
X94885514Y-54601503D02*
X94933133Y-54506265D01*
X94742657Y-55458646D02*
X94695038Y-55506265D01*
X94695038Y-55506265D02*
X94647419Y-55601503D01*
X94647419Y-55601503D02*
X94647419Y-55839598D01*
X94647419Y-55839598D02*
X94695038Y-55934836D01*
X94695038Y-55934836D02*
X94742657Y-55982455D01*
X94742657Y-55982455D02*
X94837895Y-56030074D01*
X94837895Y-56030074D02*
X94933133Y-56030074D01*
X94933133Y-56030074D02*
X95075990Y-55982455D01*
X95075990Y-55982455D02*
X95647419Y-55411027D01*
X95647419Y-55411027D02*
X95647419Y-56030074D01*
X94647419Y-56315789D02*
X95647419Y-56649122D01*
X95647419Y-56649122D02*
X94647419Y-56982455D01*
D11*
X51280326Y-39167219D02*
X51280326Y-38167219D01*
X51280326Y-38167219D02*
X50899374Y-38167219D01*
X50899374Y-38167219D02*
X50804136Y-38214838D01*
X50804136Y-38214838D02*
X50756517Y-38262457D01*
X50756517Y-38262457D02*
X50708898Y-38357695D01*
X50708898Y-38357695D02*
X50708898Y-38500552D01*
X50708898Y-38500552D02*
X50756517Y-38595790D01*
X50756517Y-38595790D02*
X50804136Y-38643409D01*
X50804136Y-38643409D02*
X50899374Y-38691028D01*
X50899374Y-38691028D02*
X51280326Y-38691028D01*
X50327945Y-39119600D02*
X50185088Y-39167219D01*
X50185088Y-39167219D02*
X49946993Y-39167219D01*
X49946993Y-39167219D02*
X49851755Y-39119600D01*
X49851755Y-39119600D02*
X49804136Y-39071980D01*
X49804136Y-39071980D02*
X49756517Y-38976742D01*
X49756517Y-38976742D02*
X49756517Y-38881504D01*
X49756517Y-38881504D02*
X49804136Y-38786266D01*
X49804136Y-38786266D02*
X49851755Y-38738647D01*
X49851755Y-38738647D02*
X49946993Y-38691028D01*
X49946993Y-38691028D02*
X50137469Y-38643409D01*
X50137469Y-38643409D02*
X50232707Y-38595790D01*
X50232707Y-38595790D02*
X50280326Y-38548171D01*
X50280326Y-38548171D02*
X50327945Y-38452933D01*
X50327945Y-38452933D02*
X50327945Y-38357695D01*
X50327945Y-38357695D02*
X50280326Y-38262457D01*
X50280326Y-38262457D02*
X50232707Y-38214838D01*
X50232707Y-38214838D02*
X50137469Y-38167219D01*
X50137469Y-38167219D02*
X49899374Y-38167219D01*
X49899374Y-38167219D02*
X49756517Y-38214838D01*
X49327945Y-38786266D02*
X48566041Y-38786266D01*
X48089850Y-39167219D02*
X48089850Y-38167219D01*
X48089850Y-38167219D02*
X47708898Y-38167219D01*
X47708898Y-38167219D02*
X47613660Y-38214838D01*
X47613660Y-38214838D02*
X47566041Y-38262457D01*
X47566041Y-38262457D02*
X47518422Y-38357695D01*
X47518422Y-38357695D02*
X47518422Y-38500552D01*
X47518422Y-38500552D02*
X47566041Y-38595790D01*
X47566041Y-38595790D02*
X47613660Y-38643409D01*
X47613660Y-38643409D02*
X47708898Y-38691028D01*
X47708898Y-38691028D02*
X48089850Y-38691028D01*
X47089850Y-38786266D02*
X46327946Y-38786266D01*
X45327946Y-39167219D02*
X45899374Y-39167219D01*
X45613660Y-39167219D02*
X45613660Y-38167219D01*
X45613660Y-38167219D02*
X45708898Y-38310076D01*
X45708898Y-38310076D02*
X45804136Y-38405314D01*
X45804136Y-38405314D02*
X45899374Y-38452933D01*
X44946993Y-38262457D02*
X44899374Y-38214838D01*
X44899374Y-38214838D02*
X44804136Y-38167219D01*
X44804136Y-38167219D02*
X44566041Y-38167219D01*
X44566041Y-38167219D02*
X44470803Y-38214838D01*
X44470803Y-38214838D02*
X44423184Y-38262457D01*
X44423184Y-38262457D02*
X44375565Y-38357695D01*
X44375565Y-38357695D02*
X44375565Y-38452933D01*
X44375565Y-38452933D02*
X44423184Y-38595790D01*
X44423184Y-38595790D02*
X44994612Y-39167219D01*
X44994612Y-39167219D02*
X44375565Y-39167219D01*
X43470803Y-38167219D02*
X43946993Y-38167219D01*
X43946993Y-38167219D02*
X43994612Y-38643409D01*
X43994612Y-38643409D02*
X43946993Y-38595790D01*
X43946993Y-38595790D02*
X43851755Y-38548171D01*
X43851755Y-38548171D02*
X43613660Y-38548171D01*
X43613660Y-38548171D02*
X43518422Y-38595790D01*
X43518422Y-38595790D02*
X43470803Y-38643409D01*
X43470803Y-38643409D02*
X43423184Y-38738647D01*
X43423184Y-38738647D02*
X43423184Y-38976742D01*
X43423184Y-38976742D02*
X43470803Y-39071980D01*
X43470803Y-39071980D02*
X43518422Y-39119600D01*
X43518422Y-39119600D02*
X43613660Y-39167219D01*
X43613660Y-39167219D02*
X43851755Y-39167219D01*
X43851755Y-39167219D02*
X43946993Y-39119600D01*
X43946993Y-39119600D02*
X43994612Y-39071980D01*
D12*
%TO.C,G\u002A\u002A\u002A*%
G36*
X74089307Y-38719717D02*
G01*
X74089307Y-39333928D01*
X73909768Y-39333928D01*
X73730229Y-39333928D01*
X73730229Y-38719717D01*
X73730229Y-38105506D01*
X73909768Y-38105506D01*
X74089307Y-38105506D01*
X74089307Y-38719717D01*
G37*
G36*
X82234693Y-38511830D02*
G01*
X82234693Y-39333928D01*
X82055155Y-39333928D01*
X81875616Y-39333928D01*
X81875616Y-38511830D01*
X81875616Y-37689732D01*
X82055155Y-37689732D01*
X82234693Y-37689732D01*
X82234693Y-38511830D01*
G37*
G36*
X74005367Y-37575353D02*
G01*
X74076605Y-37622227D01*
X74102127Y-37649818D01*
X74121948Y-37693344D01*
X74127104Y-37756429D01*
X74124550Y-37804557D01*
X74108730Y-37853718D01*
X74071862Y-37899072D01*
X74055995Y-37914268D01*
X74019369Y-37939965D01*
X73975561Y-37951590D01*
X73909355Y-37954315D01*
X73871435Y-37953760D01*
X73820199Y-37947531D01*
X73783798Y-37929958D01*
X73747261Y-37895620D01*
X73703716Y-37830111D01*
X73689846Y-37761028D01*
X73703500Y-37695755D01*
X73739557Y-37638544D01*
X73792894Y-37593646D01*
X73858390Y-37565314D01*
X73930921Y-37557799D01*
X74005367Y-37575353D01*
G37*
G36*
X83425318Y-38559077D02*
G01*
X83425318Y-39333928D01*
X82952848Y-39333928D01*
X82480378Y-39333928D01*
X82480378Y-39182738D01*
X82480378Y-39031547D01*
X82773310Y-39031547D01*
X83066241Y-39031547D01*
X83066241Y-38861458D01*
X83066241Y-38691369D01*
X82811107Y-38691369D01*
X82555973Y-38691369D01*
X82555973Y-38550176D01*
X82555973Y-38408984D01*
X82806382Y-38403710D01*
X83056792Y-38398437D01*
X83056792Y-38237797D01*
X83056792Y-38077157D01*
X82768585Y-38071940D01*
X82480378Y-38066723D01*
X82480378Y-37925475D01*
X82480378Y-37784226D01*
X82952848Y-37784226D01*
X83425318Y-37784226D01*
X83425318Y-38559077D01*
G37*
G36*
X77259582Y-38087022D02*
G01*
X77305756Y-38093203D01*
X77388231Y-38123230D01*
X77471064Y-38171890D01*
X77540593Y-38232126D01*
X77604485Y-38301880D01*
X77604485Y-38203693D01*
X77604485Y-38105506D01*
X77784024Y-38105506D01*
X77963563Y-38105506D01*
X77963563Y-38719717D01*
X77963563Y-39333928D01*
X77784024Y-39333928D01*
X77604485Y-39333928D01*
X77603418Y-39017373D01*
X77603319Y-38997160D01*
X77601011Y-38868561D01*
X77596107Y-38762104D01*
X77588927Y-38682996D01*
X77579795Y-38636442D01*
X77561137Y-38595101D01*
X77510742Y-38538313D01*
X77435299Y-38503153D01*
X77330249Y-38486888D01*
X77207610Y-38479079D01*
X77207610Y-38282843D01*
X77207610Y-38086607D01*
X77259582Y-38087022D01*
G37*
G36*
X78817939Y-37949590D02*
G01*
X78823458Y-38096056D01*
X78894329Y-38101922D01*
X78965199Y-38107787D01*
X78965199Y-38257837D01*
X78965199Y-38407887D01*
X78889604Y-38407887D01*
X78814009Y-38407887D01*
X78814009Y-38732649D01*
X78813987Y-38766573D01*
X78813289Y-38879397D01*
X78811131Y-38962878D01*
X78806861Y-39023759D01*
X78799828Y-39068787D01*
X78789381Y-39104706D01*
X78774870Y-39138261D01*
X78731647Y-39204077D01*
X78648800Y-39270948D01*
X78538289Y-39312795D01*
X78485295Y-39321424D01*
X78408278Y-39328578D01*
X78327365Y-39332030D01*
X78190348Y-39333928D01*
X78190348Y-39174231D01*
X78190348Y-39014535D01*
X78298549Y-39008867D01*
X78347004Y-39004857D01*
X78390365Y-38994092D01*
X78420191Y-38971847D01*
X78438785Y-38932871D01*
X78448452Y-38871909D01*
X78451493Y-38783710D01*
X78450215Y-38663020D01*
X78445482Y-38417336D01*
X78327365Y-38411709D01*
X78209247Y-38406083D01*
X78209247Y-38256696D01*
X78209247Y-38107309D01*
X78327365Y-38101683D01*
X78445482Y-38096056D01*
X78451002Y-37949590D01*
X78456522Y-37803125D01*
X78634470Y-37803125D01*
X78812419Y-37803125D01*
X78817939Y-37949590D01*
G37*
G36*
X86671399Y-38554352D02*
G01*
X86676333Y-39333928D01*
X86487641Y-39333928D01*
X86298948Y-39333928D01*
X86293718Y-39055171D01*
X86288488Y-38776413D01*
X86061702Y-38765937D01*
X85969612Y-38760918D01*
X85892377Y-38753842D01*
X85834846Y-38743582D01*
X85787400Y-38728358D01*
X85740423Y-38706386D01*
X85717582Y-38694148D01*
X85633932Y-38638132D01*
X85573526Y-38571935D01*
X85524674Y-38483482D01*
X85506121Y-38430972D01*
X85488107Y-38323594D01*
X85488170Y-38259177D01*
X85870346Y-38259177D01*
X85870375Y-38303317D01*
X85888325Y-38356035D01*
X85921955Y-38411176D01*
X85967525Y-38445804D01*
X85968702Y-38446238D01*
X86013313Y-38455496D01*
X86080940Y-38462078D01*
X86157427Y-38464583D01*
X86297938Y-38464583D01*
X86297938Y-38275595D01*
X86297938Y-38086607D01*
X86151472Y-38086885D01*
X86093438Y-38088070D01*
X86008466Y-38097381D01*
X85949970Y-38118649D01*
X85910976Y-38155088D01*
X85884514Y-38209910D01*
X85870346Y-38259177D01*
X85488170Y-38259177D01*
X85488220Y-38208682D01*
X85507222Y-38102830D01*
X85525917Y-38056558D01*
X85580855Y-37971752D01*
X85653901Y-37895028D01*
X85733780Y-37839490D01*
X85778078Y-37821247D01*
X85883320Y-37795705D01*
X86022203Y-37778391D01*
X86192613Y-37769531D01*
X86392432Y-37769350D01*
X86666464Y-37774776D01*
X86669634Y-38275595D01*
X86671399Y-38554352D01*
G37*
G36*
X74902554Y-38089280D02*
G01*
X75009603Y-38108699D01*
X75101501Y-38143951D01*
X75167442Y-38191512D01*
X75191748Y-38215730D01*
X75222150Y-38234660D01*
X75237740Y-38220287D01*
X75242134Y-38171651D01*
X75242134Y-38105506D01*
X75421673Y-38105506D01*
X75601211Y-38105506D01*
X75601211Y-38719717D01*
X75601211Y-39333928D01*
X75423041Y-39333928D01*
X75244871Y-39333928D01*
X75238778Y-38941778D01*
X75237681Y-38873449D01*
X75235401Y-38757852D01*
X75232590Y-38671766D01*
X75228638Y-38609610D01*
X75222935Y-38565803D01*
X75214870Y-38534766D01*
X75203832Y-38510918D01*
X75189212Y-38488679D01*
X75148434Y-38446338D01*
X75073674Y-38407935D01*
X74989543Y-38396784D01*
X74906830Y-38413770D01*
X74836322Y-38459775D01*
X74812896Y-38486580D01*
X74790391Y-38524899D01*
X74773904Y-38574263D01*
X74762570Y-38640014D01*
X74755529Y-38727497D01*
X74751916Y-38842053D01*
X74750870Y-38989025D01*
X74750765Y-39333928D01*
X74571226Y-39333928D01*
X74391688Y-39333928D01*
X74391688Y-38901632D01*
X74392267Y-38751409D01*
X74394678Y-38624330D01*
X74399776Y-38524530D01*
X74408415Y-38446610D01*
X74421451Y-38385172D01*
X74439736Y-38334819D01*
X74464126Y-38290152D01*
X74495473Y-38245774D01*
X74542022Y-38197776D01*
X74632062Y-38139833D01*
X74737455Y-38100868D01*
X74845603Y-38086607D01*
X74902554Y-38089280D01*
G37*
G36*
X73114431Y-38109990D02*
G01*
X73226027Y-38153890D01*
X73325232Y-38224015D01*
X73356520Y-38252967D01*
X73428229Y-38337361D01*
X73476620Y-38431112D01*
X73505408Y-38543028D01*
X73518308Y-38681919D01*
X73519481Y-38714109D01*
X73520441Y-38800598D01*
X73515817Y-38865716D01*
X73504186Y-38921940D01*
X73484126Y-38981745D01*
X73481436Y-38988738D01*
X73414184Y-39110073D01*
X73318218Y-39211193D01*
X73199070Y-39287475D01*
X73062274Y-39334294D01*
X72983461Y-39343646D01*
X72878503Y-39343068D01*
X72773707Y-39331882D01*
X72687423Y-39311217D01*
X72665044Y-39302682D01*
X72554426Y-39241257D01*
X72458265Y-39156830D01*
X72384336Y-39057465D01*
X72340411Y-38951227D01*
X72327620Y-38899256D01*
X72522005Y-38899256D01*
X72573003Y-38899313D01*
X72643821Y-38900523D01*
X72689915Y-38904888D01*
X72719801Y-38914439D01*
X72741995Y-38931209D01*
X72765014Y-38957229D01*
X72789031Y-38980678D01*
X72859016Y-39017423D01*
X72937899Y-39027641D01*
X73011507Y-39008389D01*
X73034273Y-38994748D01*
X73095901Y-38931571D01*
X73132366Y-38841986D01*
X73144366Y-38724503D01*
X73140985Y-38650488D01*
X73118044Y-38542100D01*
X73073433Y-38464676D01*
X73007155Y-38418219D01*
X72919211Y-38402732D01*
X72900064Y-38403693D01*
X72829664Y-38422392D01*
X72771087Y-38459331D01*
X72737243Y-38507105D01*
X72730623Y-38519157D01*
X72712620Y-38530002D01*
X72677612Y-38536388D01*
X72618674Y-38539414D01*
X72528881Y-38540178D01*
X72437032Y-38539569D01*
X72374791Y-38535018D01*
X72341671Y-38522429D01*
X72333256Y-38497709D01*
X72345132Y-38456762D01*
X72372883Y-38395493D01*
X72400474Y-38342933D01*
X72481670Y-38236964D01*
X72584707Y-38160363D01*
X72711530Y-38111922D01*
X72864083Y-38090432D01*
X72983502Y-38090303D01*
X73114431Y-38109990D01*
G37*
G36*
X79767115Y-38092972D02*
G01*
X79915610Y-38123345D01*
X80041505Y-38183912D01*
X80145034Y-38274793D01*
X80226431Y-38396106D01*
X80228801Y-38400812D01*
X80261312Y-38494126D01*
X80281595Y-38609327D01*
X80288825Y-38733065D01*
X80282178Y-38851994D01*
X80260827Y-38952763D01*
X80202041Y-39079221D01*
X80112567Y-39188305D01*
X79996299Y-39271367D01*
X79854779Y-39326985D01*
X79809028Y-39337411D01*
X79670617Y-39348358D01*
X79532702Y-39331738D01*
X79403443Y-39289895D01*
X79290998Y-39225171D01*
X79203525Y-39139912D01*
X79202594Y-39138685D01*
X79166017Y-39082845D01*
X79132128Y-39018859D01*
X79107195Y-38959805D01*
X79097491Y-38918761D01*
X79100485Y-38914671D01*
X79132713Y-38906373D01*
X79197140Y-38901102D01*
X79289828Y-38899256D01*
X79338535Y-38899305D01*
X79409497Y-38900484D01*
X79455641Y-38904837D01*
X79485551Y-38914446D01*
X79507813Y-38931395D01*
X79531011Y-38957766D01*
X79548174Y-38976679D01*
X79597326Y-39010438D01*
X79664679Y-39025755D01*
X79740629Y-39022375D01*
X79812560Y-38988161D01*
X79865780Y-38923249D01*
X79898802Y-38829558D01*
X79910140Y-38709006D01*
X79907355Y-38647814D01*
X79884441Y-38542422D01*
X79839143Y-38465631D01*
X79772359Y-38418660D01*
X79684985Y-38402732D01*
X79665838Y-38403693D01*
X79595438Y-38422392D01*
X79536861Y-38459331D01*
X79503017Y-38507105D01*
X79496397Y-38519157D01*
X79478394Y-38530002D01*
X79443386Y-38536388D01*
X79384448Y-38539414D01*
X79294655Y-38540178D01*
X79203653Y-38539576D01*
X79141090Y-38535093D01*
X79107639Y-38522705D01*
X79098859Y-38498387D01*
X79110307Y-38458117D01*
X79137540Y-38397870D01*
X79162947Y-38349131D01*
X79244816Y-38240960D01*
X79349000Y-38162364D01*
X79476884Y-38112477D01*
X79629857Y-38090432D01*
X79767115Y-38092972D01*
G37*
G36*
X77090106Y-38748065D02*
G01*
X77090024Y-38749961D01*
X77075237Y-38890578D01*
X77042327Y-39004763D01*
X76987852Y-39100833D01*
X76908369Y-39187102D01*
X76851834Y-39235627D01*
X76797595Y-39272413D01*
X76737462Y-39299226D01*
X76655814Y-39324569D01*
X76587893Y-39337949D01*
X76472293Y-39344663D01*
X76350788Y-39336940D01*
X76240339Y-39315165D01*
X76208652Y-39303499D01*
X76143884Y-39271646D01*
X76079699Y-39232479D01*
X76035269Y-39199102D01*
X75938270Y-39096767D01*
X75872384Y-38974339D01*
X75837125Y-38830704D01*
X75833440Y-38711198D01*
X76205973Y-38711198D01*
X76218944Y-38817506D01*
X76257163Y-38908272D01*
X76317609Y-38973600D01*
X76348280Y-38992648D01*
X76436357Y-39020678D01*
X76524358Y-39013868D01*
X76605586Y-38973582D01*
X76673342Y-38901185D01*
X76676291Y-38896589D01*
X76704679Y-38823393D01*
X76716696Y-38731465D01*
X76711695Y-38635310D01*
X76689030Y-38549434D01*
X76683335Y-38536986D01*
X76631517Y-38470487D01*
X76559466Y-38426827D01*
X76477004Y-38408456D01*
X76393954Y-38417825D01*
X76320137Y-38457385D01*
X76257833Y-38523271D01*
X76218207Y-38607118D01*
X76205973Y-38711198D01*
X75833440Y-38711198D01*
X75832008Y-38664747D01*
X75838945Y-38593137D01*
X75876163Y-38446812D01*
X75943299Y-38323516D01*
X76040537Y-38222964D01*
X76168061Y-38144872D01*
X76204004Y-38128863D01*
X76253561Y-38111774D01*
X76306970Y-38101826D01*
X76375535Y-38097195D01*
X76470557Y-38096056D01*
X76532864Y-38096448D01*
X76609985Y-38099497D01*
X76666857Y-38107029D01*
X76714314Y-38120760D01*
X76763189Y-38142407D01*
X76789818Y-38156449D01*
X76902031Y-38238179D01*
X76993995Y-38342626D01*
X77057039Y-38460407D01*
X77058598Y-38464570D01*
X77078196Y-38525101D01*
X77088973Y-38583768D01*
X77092439Y-38653709D01*
X77090516Y-38731465D01*
X77090106Y-38748065D01*
G37*
G36*
X81642917Y-38615460D02*
G01*
X81649514Y-38736784D01*
X81642863Y-38852533D01*
X81622138Y-38949403D01*
X81612963Y-38974651D01*
X81544001Y-39102317D01*
X81447379Y-39207705D01*
X81328072Y-39286379D01*
X81191054Y-39333903D01*
X81132897Y-39342168D01*
X81018882Y-39343666D01*
X80900053Y-39330827D01*
X80794708Y-39304986D01*
X80739679Y-39280909D01*
X80642114Y-39215611D01*
X80556406Y-39131440D01*
X80495422Y-39039797D01*
X80480974Y-39008371D01*
X80464631Y-38966136D01*
X80461514Y-38946343D01*
X80470461Y-38944164D01*
X80510406Y-38940668D01*
X80574345Y-38937650D01*
X80653732Y-38935588D01*
X80707965Y-38934949D01*
X80778392Y-38936196D01*
X80824711Y-38941600D01*
X80855609Y-38952490D01*
X80879770Y-38970196D01*
X80916773Y-39000949D01*
X80991393Y-39040954D01*
X81066150Y-39046980D01*
X81148774Y-39020470D01*
X81174646Y-39006360D01*
X81241926Y-38942887D01*
X81281498Y-38853977D01*
X81293851Y-38804762D01*
X80854429Y-38804762D01*
X80415007Y-38804762D01*
X80425440Y-38652547D01*
X80431100Y-38596875D01*
X80795837Y-38596875D01*
X81041812Y-38596875D01*
X81287787Y-38596875D01*
X81268902Y-38542702D01*
X81250556Y-38501335D01*
X81191180Y-38431376D01*
X81105449Y-38388414D01*
X81086688Y-38383654D01*
X80996753Y-38381971D01*
X80915108Y-38412784D01*
X80849611Y-38471706D01*
X80808117Y-38554352D01*
X80795837Y-38596875D01*
X80431100Y-38596875D01*
X80432031Y-38587714D01*
X80466949Y-38442994D01*
X80529722Y-38322077D01*
X80622376Y-38221723D01*
X80746938Y-38138695D01*
X80777109Y-38123872D01*
X80818755Y-38109548D01*
X80869095Y-38101095D01*
X80937820Y-38097077D01*
X81034619Y-38096056D01*
X81114149Y-38096649D01*
X81187511Y-38099878D01*
X81240926Y-38107277D01*
X81284302Y-38120354D01*
X81327551Y-38140616D01*
X81392822Y-38179457D01*
X81504317Y-38276430D01*
X81587938Y-38398437D01*
X81593283Y-38409306D01*
X81623898Y-38501866D01*
X81639805Y-38596875D01*
X81642917Y-38615460D01*
G37*
G36*
X84841053Y-37754934D02*
G01*
X84971454Y-37779048D01*
X85090430Y-37825072D01*
X85191278Y-37892646D01*
X85267290Y-37981409D01*
X85291242Y-38022603D01*
X85312525Y-38073634D01*
X85322299Y-38130040D01*
X85324649Y-38207958D01*
X85323271Y-38256048D01*
X85308096Y-38354692D01*
X85273255Y-38437242D01*
X85215138Y-38507413D01*
X85130134Y-38568918D01*
X85014635Y-38625471D01*
X84865029Y-38680786D01*
X84798181Y-38704377D01*
X84686444Y-38753166D01*
X84610139Y-38802963D01*
X84567683Y-38855386D01*
X84557497Y-38912052D01*
X84578001Y-38974580D01*
X84603740Y-39003596D01*
X84660797Y-39030713D01*
X84730966Y-39040963D01*
X84801544Y-39032959D01*
X84859831Y-39005318D01*
X84861383Y-39004023D01*
X84887110Y-38970866D01*
X84912056Y-38922879D01*
X84937731Y-38861458D01*
X85138403Y-38861458D01*
X85339075Y-38861458D01*
X85328680Y-38938957D01*
X85310101Y-39014231D01*
X85254515Y-39117749D01*
X85169785Y-39207551D01*
X85060821Y-39278831D01*
X84932534Y-39326781D01*
X84902594Y-39333394D01*
X84788682Y-39345586D01*
X84665827Y-39342987D01*
X84548956Y-39326523D01*
X84452994Y-39297115D01*
X84429701Y-39286278D01*
X84315189Y-39212060D01*
X84231701Y-39117569D01*
X84180484Y-39004619D01*
X84162787Y-38875025D01*
X84163814Y-38831603D01*
X84180175Y-38732609D01*
X84220313Y-38651218D01*
X84289217Y-38575611D01*
X84307035Y-38560261D01*
X84341973Y-38534673D01*
X84385356Y-38509471D01*
X84442649Y-38482138D01*
X84519318Y-38450156D01*
X84620830Y-38411008D01*
X84752651Y-38362176D01*
X84780885Y-38351050D01*
X84840052Y-38323154D01*
X84881352Y-38297626D01*
X84898716Y-38278608D01*
X84919788Y-38222762D01*
X84917757Y-38160200D01*
X84891723Y-38107436D01*
X84845476Y-38074687D01*
X84778395Y-38061079D01*
X84709030Y-38072584D01*
X84649089Y-38106936D01*
X84610283Y-38161871D01*
X84588758Y-38218898D01*
X84385014Y-38218898D01*
X84181271Y-38218898D01*
X84181271Y-38171044D01*
X84182064Y-38155363D01*
X84201020Y-38078967D01*
X84239753Y-37998127D01*
X84290942Y-37929006D01*
X84339315Y-37884774D01*
X84448359Y-37817650D01*
X84572800Y-37773875D01*
X84705933Y-37753090D01*
X84841053Y-37754934D01*
G37*
G36*
X71736908Y-38096895D02*
G01*
X71803659Y-38100459D01*
X71852125Y-38108329D01*
X71892043Y-38122083D01*
X71933153Y-38143303D01*
X72000809Y-38189099D01*
X72080142Y-38273516D01*
X72126992Y-38370558D01*
X72139588Y-38475946D01*
X72116159Y-38585401D01*
X72085788Y-38644395D01*
X72035801Y-38698818D01*
X71963520Y-38745226D01*
X71863787Y-38786855D01*
X71731450Y-38826942D01*
X71664492Y-38845977D01*
X71564872Y-38880917D01*
X71500341Y-38915431D01*
X71469187Y-38951031D01*
X71469701Y-38989232D01*
X71500170Y-39031547D01*
X71502130Y-39033447D01*
X71551246Y-39059911D01*
X71614401Y-39068111D01*
X71681352Y-39060336D01*
X71741856Y-39038873D01*
X71785670Y-39006009D01*
X71802551Y-38964030D01*
X71803029Y-38960122D01*
X71814693Y-38948779D01*
X71846406Y-38941709D01*
X71904070Y-38938078D01*
X71993588Y-38937053D01*
X72184624Y-38937053D01*
X72172165Y-38989025D01*
X72154872Y-39041797D01*
X72095375Y-39141509D01*
X72008669Y-39227208D01*
X71901610Y-39292872D01*
X71781054Y-39332480D01*
X71698099Y-39345348D01*
X71567271Y-39347375D01*
X71434007Y-39323680D01*
X71381996Y-39308031D01*
X71268852Y-39253536D01*
X71187659Y-39179306D01*
X71138701Y-39085660D01*
X71122264Y-38972921D01*
X71124836Y-38927102D01*
X71154424Y-38824285D01*
X71217151Y-38739498D01*
X71313082Y-38672666D01*
X71442286Y-38623718D01*
X71462493Y-38618148D01*
X71577802Y-38584983D01*
X71662019Y-38557526D01*
X71720227Y-38533744D01*
X71757507Y-38511604D01*
X71778942Y-38489076D01*
X71794035Y-38459363D01*
X71788546Y-38433997D01*
X71757891Y-38399306D01*
X71756012Y-38397461D01*
X71708294Y-38364591D01*
X71660730Y-38351190D01*
X71641973Y-38352304D01*
X71574458Y-38371798D01*
X71515986Y-38409169D01*
X71480927Y-38456039D01*
X71480886Y-38456145D01*
X71470528Y-38478004D01*
X71454388Y-38491602D01*
X71424464Y-38498894D01*
X71372752Y-38501835D01*
X71291249Y-38502381D01*
X71119190Y-38502381D01*
X71132417Y-38440959D01*
X71133652Y-38435365D01*
X71178966Y-38312356D01*
X71253938Y-38212751D01*
X71358429Y-38136739D01*
X71383544Y-38124279D01*
X71424753Y-38109886D01*
X71475216Y-38101294D01*
X71544435Y-38097138D01*
X71641911Y-38096056D01*
X71642133Y-38096056D01*
X71736908Y-38096895D01*
G37*
G36*
X90330811Y-38048809D02*
G01*
X90330022Y-38083315D01*
X90307446Y-38222278D01*
X90253453Y-38340318D01*
X90167669Y-38438057D01*
X90049719Y-38516118D01*
X90003017Y-38537248D01*
X89871863Y-38570845D01*
X89740435Y-38570569D01*
X89614667Y-38538442D01*
X89500491Y-38476484D01*
X89403840Y-38386716D01*
X89330646Y-38271160D01*
X89311358Y-38227573D01*
X89291789Y-38176949D01*
X89284134Y-38147602D01*
X89281987Y-38142672D01*
X89264471Y-38135283D01*
X89225841Y-38130422D01*
X89161936Y-38127858D01*
X89068592Y-38127361D01*
X88941648Y-38128703D01*
X88599346Y-38133854D01*
X88562809Y-38231843D01*
X88520948Y-38317026D01*
X88438601Y-38423158D01*
X88334442Y-38512554D01*
X88217006Y-38578257D01*
X88094828Y-38613310D01*
X88008280Y-38625690D01*
X88008280Y-38971331D01*
X88008280Y-39316972D01*
X88121673Y-39362489D01*
X88196664Y-39399370D01*
X88299354Y-39478919D01*
X88376078Y-39577142D01*
X88426587Y-39688526D01*
X88450632Y-39807557D01*
X88447963Y-39928722D01*
X88418331Y-40046507D01*
X88361487Y-40155399D01*
X88277181Y-40249883D01*
X88165164Y-40324448D01*
X88156184Y-40328859D01*
X88088523Y-40356092D01*
X88019554Y-40369672D01*
X87931282Y-40373363D01*
X87914404Y-40373174D01*
X87769795Y-40353758D01*
X87645506Y-40302718D01*
X87542224Y-40220443D01*
X87460638Y-40107322D01*
X87431532Y-40049448D01*
X87414184Y-39997035D01*
X87406129Y-39936737D01*
X87404042Y-39853645D01*
X87404034Y-39843346D01*
X87406041Y-39764751D01*
X87414172Y-39707568D01*
X87431787Y-39657065D01*
X87462247Y-39598512D01*
X87478774Y-39571095D01*
X87560221Y-39471344D01*
X87658615Y-39394575D01*
X87765004Y-39348190D01*
X87847640Y-39326089D01*
X87847640Y-38970931D01*
X87847310Y-38862956D01*
X87845844Y-38762409D01*
X87842921Y-38691752D01*
X87838230Y-38646651D01*
X87831463Y-38622770D01*
X87822310Y-38615773D01*
X87804455Y-38613192D01*
X87750183Y-38592983D01*
X87681982Y-38557796D01*
X87610213Y-38513759D01*
X87545239Y-38466999D01*
X87497421Y-38423643D01*
X87472695Y-38394997D01*
X87391278Y-38270764D01*
X87344165Y-38135387D01*
X87329708Y-37989918D01*
X87464861Y-37989918D01*
X87480514Y-38115044D01*
X87528236Y-38234924D01*
X87603265Y-38339146D01*
X87700799Y-38421086D01*
X87816033Y-38474120D01*
X87830374Y-38478183D01*
X87967809Y-38497357D01*
X88098511Y-38481029D01*
X88217814Y-38431075D01*
X88321054Y-38349372D01*
X88403565Y-38237797D01*
X88431064Y-38185241D01*
X88450655Y-38131659D01*
X88459506Y-38072657D01*
X88461413Y-37992113D01*
X88456310Y-37901460D01*
X88431363Y-37799042D01*
X88381095Y-37710760D01*
X88300493Y-37625185D01*
X88282817Y-37609645D01*
X88186734Y-37542618D01*
X88086239Y-37505848D01*
X87968467Y-37494262D01*
X87965195Y-37494255D01*
X87832191Y-37511879D01*
X87712949Y-37561486D01*
X87612031Y-37638585D01*
X87534002Y-37738684D01*
X87483424Y-37857292D01*
X87464861Y-37989918D01*
X87329708Y-37989918D01*
X87328987Y-37982663D01*
X87329594Y-37934595D01*
X87335729Y-37856941D01*
X87351065Y-37792271D01*
X87378769Y-37724142D01*
X87428550Y-37616811D01*
X87115518Y-37305971D01*
X86802485Y-36995131D01*
X86715576Y-37034076D01*
X86611523Y-37065192D01*
X86484884Y-37072278D01*
X86357005Y-37052158D01*
X86238588Y-37006630D01*
X86140336Y-36937491D01*
X86130142Y-36927528D01*
X86049252Y-36821189D01*
X85998199Y-36699377D01*
X85977373Y-36569275D01*
X85987167Y-36438065D01*
X86027973Y-36312931D01*
X86100180Y-36201053D01*
X86127206Y-36171698D01*
X86232681Y-36090854D01*
X86356751Y-36042627D01*
X86500292Y-36026637D01*
X86526775Y-36027055D01*
X86661600Y-36045577D01*
X86776359Y-36093213D01*
X86876962Y-36172248D01*
X86931187Y-36232746D01*
X86985598Y-36321853D01*
X87015208Y-36422613D01*
X87024485Y-36546354D01*
X87023101Y-36627098D01*
X87015944Y-36686885D01*
X86999962Y-36737078D01*
X86972115Y-36791934D01*
X86919094Y-36886325D01*
X87200058Y-37160461D01*
X87220890Y-37180774D01*
X87305686Y-37263158D01*
X87381712Y-37336568D01*
X87444409Y-37396634D01*
X87489223Y-37438986D01*
X87511596Y-37459254D01*
X87525756Y-37467904D01*
X87551225Y-37469404D01*
X87589981Y-37455038D01*
X87651192Y-37422383D01*
X87658142Y-37418483D01*
X87717959Y-37388140D01*
X87772791Y-37369525D01*
X87836895Y-37359018D01*
X87924529Y-37353000D01*
X88037400Y-37351910D01*
X88136693Y-37363659D01*
X88222833Y-37391498D01*
X88307826Y-37438092D01*
X88340158Y-37458467D01*
X88372177Y-37473454D01*
X88394726Y-37469855D01*
X88421219Y-37448956D01*
X88462280Y-37412597D01*
X88569137Y-37317451D01*
X88664617Y-37231680D01*
X88745311Y-37158393D01*
X88807812Y-37100699D01*
X88848711Y-37061708D01*
X88864599Y-37044528D01*
X88864985Y-37043193D01*
X88859409Y-37016122D01*
X88840975Y-36973797D01*
X88826679Y-36937436D01*
X88813102Y-36850660D01*
X88818401Y-36757601D01*
X88842487Y-36675710D01*
X88843223Y-36674174D01*
X88899776Y-36596317D01*
X88981585Y-36534210D01*
X89076909Y-36496812D01*
X89080572Y-36496011D01*
X89184091Y-36490817D01*
X89278353Y-36516960D01*
X89359428Y-36568710D01*
X89423387Y-36640335D01*
X89466299Y-36726106D01*
X89484236Y-36820290D01*
X89473268Y-36917157D01*
X89429465Y-37010977D01*
X89374277Y-37079892D01*
X89315179Y-37123062D01*
X89241384Y-37145700D01*
X89141979Y-37153204D01*
X89132287Y-37153337D01*
X89083655Y-37154228D01*
X89044605Y-37157662D01*
X89009747Y-37166878D01*
X88973692Y-37185117D01*
X88931048Y-37215621D01*
X88876428Y-37261630D01*
X88804440Y-37326385D01*
X88709695Y-37413127D01*
X88643631Y-37472999D01*
X88584433Y-37525465D01*
X88540100Y-37563470D01*
X88517061Y-37581399D01*
X88515530Y-37582360D01*
X88506178Y-37599601D01*
X88514203Y-37633011D01*
X88541320Y-37690283D01*
X88557095Y-37724561D01*
X88584478Y-37804918D01*
X88599342Y-37878935D01*
X88608401Y-37973214D01*
X88943719Y-37973214D01*
X89279037Y-37973214D01*
X89301546Y-37892894D01*
X89310881Y-37863220D01*
X89369112Y-37748513D01*
X89452496Y-37655364D01*
X89555149Y-37585488D01*
X89671182Y-37540600D01*
X89794710Y-37522416D01*
X89919845Y-37532651D01*
X90040701Y-37573020D01*
X90151391Y-37645240D01*
X90190447Y-37681677D01*
X90269488Y-37786581D01*
X90315732Y-37907736D01*
X90324751Y-37992113D01*
X90330811Y-38048809D01*
G37*
%TD*%
M02*
