%TF.GenerationSoftware,KiCad,Pcbnew,8.0.7*%
%TF.CreationDate,2025-08-08T15:29:20+05:30*%
%TF.ProjectId,power board_v1,706f7765-7220-4626-9f61-72645f76312e,rev?*%
%TF.SameCoordinates,Original*%
%TF.FileFunction,Copper,L2,Bot*%
%TF.FilePolarity,Positive*%
%FSLAX46Y46*%
G04 Gerber Fmt 4.6, Leading zero omitted, Abs format (unit mm)*
G04 Created by KiCad (PCBNEW 8.0.7) date 2025-08-08 15:29:20*
%MOMM*%
%LPD*%
G01*
G04 APERTURE LIST*
%TA.AperFunction,ComponentPad*%
%ADD10R,2.200000X2.200000*%
%TD*%
%TA.AperFunction,ComponentPad*%
%ADD11O,2.200000X2.200000*%
%TD*%
%TA.AperFunction,ComponentPad*%
%ADD12R,1.905000X2.000000*%
%TD*%
%TA.AperFunction,ComponentPad*%
%ADD13O,1.905000X2.000000*%
%TD*%
%TA.AperFunction,ComponentPad*%
%ADD14R,1.700000X1.700000*%
%TD*%
%TA.AperFunction,ComponentPad*%
%ADD15O,1.700000X1.700000*%
%TD*%
%TA.AperFunction,ComponentPad*%
%ADD16C,1.600000*%
%TD*%
%TA.AperFunction,ComponentPad*%
%ADD17O,1.600000X1.600000*%
%TD*%
%TA.AperFunction,ComponentPad*%
%ADD18R,1.800000X1.800000*%
%TD*%
%TA.AperFunction,ComponentPad*%
%ADD19C,1.800000*%
%TD*%
%TA.AperFunction,ComponentPad*%
%ADD20R,2.600000X2.600000*%
%TD*%
%TA.AperFunction,ComponentPad*%
%ADD21C,2.600000*%
%TD*%
%TA.AperFunction,ComponentPad*%
%ADD22R,1.600000X1.600000*%
%TD*%
%TA.AperFunction,ComponentPad*%
%ADD23R,2.000000X2.000000*%
%TD*%
%TA.AperFunction,ComponentPad*%
%ADD24C,2.000000*%
%TD*%
%TA.AperFunction,Conductor*%
%ADD25C,0.200000*%
%TD*%
%TA.AperFunction,Conductor*%
%ADD26C,1.000000*%
%TD*%
G04 APERTURE END LIST*
D10*
%TO.P,D2,1,K*%
%TO.N,/P-*%
X35620000Y-50450000D03*
D11*
%TO.P,D2,2,A*%
%TO.N,GND*%
X45780000Y-50450000D03*
%TD*%
D12*
%TO.P,U2,1,VI*%
%TO.N,+12V*%
X53560000Y-48695000D03*
D13*
%TO.P,U2,2,GND*%
%TO.N,GND*%
X56100000Y-48695000D03*
%TO.P,U2,3,VO*%
%TO.N,/12V*%
X58640000Y-48695000D03*
%TD*%
D10*
%TO.P,D1,1,K*%
%TO.N,/P+*%
X35645000Y-45675000D03*
D11*
%TO.P,D1,2,A*%
%TO.N,GND*%
X45805000Y-45675000D03*
%TD*%
D14*
%TO.P,J3,1,Pin_1*%
%TO.N,GND*%
X44745000Y-78775000D03*
D15*
%TO.P,J3,2,Pin_2*%
X47285000Y-78775000D03*
%TO.P,J3,3,Pin_3*%
X49825000Y-78775000D03*
%TO.P,J3,4,Pin_4*%
X52365000Y-78775000D03*
%TO.P,J3,5,Pin_5*%
X54905000Y-78775000D03*
%TD*%
D16*
%TO.P,R2,1*%
%TO.N,/12V*%
X64300000Y-62670000D03*
D17*
%TO.P,R2,2*%
%TO.N,Net-(D6-A)*%
X64300000Y-72830000D03*
%TD*%
D18*
%TO.P,D6,1,K*%
%TO.N,GND*%
X70250000Y-70430000D03*
D19*
%TO.P,D6,2,A*%
%TO.N,Net-(D6-A)*%
X70250000Y-72970000D03*
%TD*%
D14*
%TO.P,J4,1,Pin_1*%
%TO.N,/12V*%
X61645000Y-78775000D03*
D15*
%TO.P,J4,2,Pin_2*%
X64185000Y-78775000D03*
%TO.P,J4,3,Pin_3*%
X66725000Y-78775000D03*
%TO.P,J4,4,Pin_4*%
X69265000Y-78775000D03*
%TO.P,J4,5,Pin_5*%
X71805000Y-78775000D03*
%TD*%
D10*
%TO.P,D3,1,K*%
%TO.N,+12V*%
X45755000Y-58875000D03*
D11*
%TO.P,D3,2,A*%
%TO.N,/P+*%
X35595000Y-58875000D03*
%TD*%
D20*
%TO.P,J1,1,Pin_1*%
%TO.N,/P-*%
X39500000Y-66075000D03*
D21*
%TO.P,J1,2,Pin_2*%
%TO.N,/P+*%
X39500000Y-71075000D03*
%TD*%
D22*
%TO.P,C2,1*%
%TO.N,/5V*%
X77430113Y-58675000D03*
D16*
%TO.P,C2,2*%
%TO.N,GND*%
X74930113Y-58675000D03*
%TD*%
D20*
%TO.P,J2,1,Pin_1*%
%TO.N,GND*%
X91875000Y-65200000D03*
D21*
%TO.P,J2,2,Pin_2*%
%TO.N,/5V*%
X91875000Y-60200000D03*
%TO.P,J2,3,Pin_3*%
%TO.N,/12V*%
X91875000Y-55200000D03*
%TD*%
D12*
%TO.P,U1,1,IN*%
%TO.N,+12V*%
X70585000Y-48695000D03*
D13*
%TO.P,U1,2,GND*%
%TO.N,GND*%
X73125000Y-48695000D03*
%TO.P,U1,3,OUT*%
%TO.N,/5V*%
X75665000Y-48695000D03*
%TD*%
D10*
%TO.P,D4,1,K*%
%TO.N,+12V*%
X45730000Y-54675000D03*
D11*
%TO.P,D4,2,A*%
%TO.N,/P-*%
X35570000Y-54675000D03*
%TD*%
D22*
%TO.P,C3,1*%
%TO.N,/12V*%
X67550000Y-58625000D03*
D16*
%TO.P,C3,2*%
%TO.N,GND*%
X70050000Y-58625000D03*
%TD*%
D18*
%TO.P,D5,1,K*%
%TO.N,GND*%
X76750000Y-70280000D03*
D19*
%TO.P,D5,2,A*%
%TO.N,Net-(D5-A)*%
X76750000Y-72820000D03*
%TD*%
D14*
%TO.P,J5,1,Pin_1*%
%TO.N,/5V*%
X78620000Y-78650000D03*
D15*
%TO.P,J5,2,Pin_2*%
X81160000Y-78650000D03*
%TO.P,J5,3,Pin_3*%
X83700000Y-78650000D03*
%TO.P,J5,4,Pin_4*%
X86240000Y-78650000D03*
%TO.P,J5,5,Pin_5*%
X88780000Y-78650000D03*
%TD*%
D16*
%TO.P,R1,1*%
%TO.N,/5V*%
X82425000Y-62695000D03*
D17*
%TO.P,R1,2*%
%TO.N,Net-(D5-A)*%
X82425000Y-72855000D03*
%TD*%
D23*
%TO.P,C1,1*%
%TO.N,+12V*%
X54182323Y-59850000D03*
D24*
%TO.P,C1,2*%
%TO.N,GND*%
X59182323Y-59850000D03*
%TD*%
D25*
%TO.N,+12V*%
X45755000Y-54700000D02*
X45730000Y-54675000D01*
D26*
X68050000Y-41925000D02*
X70585000Y-44460000D01*
X49007323Y-54675000D02*
X54182323Y-59850000D01*
X49175000Y-54675000D02*
X53560000Y-50290000D01*
X45730000Y-58850000D02*
X45755000Y-58875000D01*
X70585000Y-44460000D02*
X70585000Y-48695000D01*
X45730000Y-54675000D02*
X49007323Y-54675000D01*
X45730000Y-54675000D02*
X45730000Y-58850000D01*
X53560000Y-48695000D02*
X53560000Y-44815000D01*
X53560000Y-44815000D02*
X56450000Y-41925000D01*
X45730000Y-54675000D02*
X49175000Y-54675000D01*
X56450000Y-41925000D02*
X68050000Y-41925000D01*
X53560000Y-50290000D02*
X53560000Y-48695000D01*
%TO.N,GND*%
X59182323Y-59850000D02*
X56100000Y-56767677D01*
X70050000Y-58625000D02*
X71950000Y-58625000D01*
X73125000Y-49707500D02*
X70482500Y-52350000D01*
X65850000Y-46925000D02*
X64625000Y-45700000D01*
X41925000Y-58800000D02*
X46850000Y-63725000D01*
X73125000Y-48695000D02*
X73125000Y-49707500D01*
X73125000Y-54700000D02*
X71950000Y-55875000D01*
X73125000Y-48695000D02*
X73125000Y-54700000D01*
X73575000Y-70280000D02*
X70400000Y-70280000D01*
X44745000Y-78775000D02*
X54905000Y-78775000D01*
X59182323Y-59850000D02*
X59182323Y-74497677D01*
X45780000Y-50450000D02*
X45780000Y-45700000D01*
X45780000Y-50450000D02*
X43675000Y-50450000D01*
X41925000Y-52200000D02*
X41925000Y-58800000D01*
X56100000Y-56767677D02*
X56100000Y-48695000D01*
X71950000Y-55875000D02*
X71950000Y-58625000D01*
X56100000Y-48695000D02*
X56100000Y-48050000D01*
X55307323Y-63725000D02*
X59182323Y-59850000D01*
X59182323Y-74497677D02*
X54905000Y-78775000D01*
X56100000Y-46125000D02*
X56100000Y-48695000D01*
X70400000Y-70280000D02*
X70250000Y-70430000D01*
X45780000Y-45700000D02*
X45805000Y-45675000D01*
X70482500Y-52350000D02*
X67725000Y-52350000D01*
X91875000Y-65200000D02*
X81830000Y-65200000D01*
X76750000Y-70280000D02*
X73575000Y-70280000D01*
X43675000Y-50450000D02*
X41925000Y-52200000D01*
X71950000Y-68655000D02*
X73575000Y-70280000D01*
X65850000Y-50475000D02*
X65850000Y-46925000D01*
X56525000Y-45700000D02*
X56100000Y-46125000D01*
X74880113Y-58625000D02*
X74930113Y-58675000D01*
X71950000Y-58625000D02*
X71950000Y-68655000D01*
X67725000Y-52350000D02*
X65850000Y-50475000D01*
X81830000Y-65200000D02*
X76750000Y-70280000D01*
X71950000Y-58625000D02*
X74880113Y-58625000D01*
X64625000Y-45700000D02*
X56525000Y-45700000D01*
X46850000Y-63725000D02*
X55307323Y-63725000D01*
%TO.N,/5V*%
X94550000Y-62875000D02*
X94550000Y-70340000D01*
X82425000Y-62695000D02*
X89380000Y-62695000D01*
X89380000Y-62695000D02*
X91875000Y-60200000D01*
X75665000Y-48695000D02*
X78200000Y-51230000D01*
X94550000Y-70340000D02*
X86240000Y-78650000D01*
X91875000Y-60200000D02*
X94550000Y-62875000D01*
X78620000Y-78650000D02*
X88780000Y-78650000D01*
X78405000Y-58675000D02*
X82425000Y-62695000D01*
X78200000Y-57905113D02*
X77430113Y-58675000D01*
X78200000Y-51230000D02*
X78200000Y-57905113D01*
X77430113Y-58675000D02*
X78405000Y-58675000D01*
%TO.N,/12V*%
X94250000Y-55200000D02*
X96825000Y-57775000D01*
X58640000Y-49715000D02*
X67550000Y-58625000D01*
X91875000Y-55200000D02*
X94250000Y-55200000D01*
X67550000Y-58625000D02*
X67550000Y-59420000D01*
X64300000Y-62670000D02*
X61645000Y-65325000D01*
X89625000Y-82100000D02*
X70050000Y-82100000D01*
X96825000Y-74900000D02*
X89625000Y-82100000D01*
X61645000Y-65325000D02*
X61645000Y-78775000D01*
X70050000Y-82100000D02*
X66725000Y-78775000D01*
X58640000Y-48695000D02*
X58640000Y-49715000D01*
X96825000Y-57775000D02*
X96825000Y-74900000D01*
X61645000Y-78775000D02*
X71805000Y-78775000D01*
X67550000Y-59420000D02*
X64300000Y-62670000D01*
%TO.N,/P+*%
X41550000Y-69025000D02*
X41550000Y-63925000D01*
X35645000Y-45675000D02*
X37470000Y-47500000D01*
X37470000Y-47500000D02*
X37470000Y-57000000D01*
X41550000Y-63925000D02*
X36500000Y-58875000D01*
X36500000Y-58875000D02*
X35595000Y-58875000D01*
X37470000Y-57000000D02*
X35595000Y-58875000D01*
X39500000Y-71075000D02*
X41550000Y-69025000D01*
%TO.N,/P-*%
X35570000Y-54675000D02*
X33745000Y-56500000D01*
X33745000Y-60320000D02*
X39500000Y-66075000D01*
X33745000Y-56500000D02*
X33745000Y-60320000D01*
X35620000Y-50450000D02*
X35620000Y-54625000D01*
X35620000Y-54625000D02*
X35570000Y-54675000D01*
%TO.N,Net-(D5-A)*%
X82390000Y-72820000D02*
X82425000Y-72855000D01*
X76750000Y-72820000D02*
X82390000Y-72820000D01*
%TO.N,Net-(D6-A)*%
X64300000Y-72830000D02*
X70110000Y-72830000D01*
X70110000Y-72830000D02*
X70250000Y-72970000D01*
%TD*%
M02*
