%TF.GenerationSoftware,KiCad,Pcbnew,8.0.7*%
%TF.CreationDate,2025-08-08T15:29:20+05:30*%
%TF.ProjectId,power board_v1,706f7765-7220-4626-9f61-72645f76312e,rev?*%
%TF.SameCoordinates,Original*%
%TF.FileFunction,Copper,L1,Top*%
%TF.FilePolarity,Positive*%
%FSLAX46Y46*%
G04 Gerber Fmt 4.6, Leading zero omitted, Abs format (unit mm)*
G04 Created by KiCad (PCBNEW 8.0.7) date 2025-08-08 15:29:20*
%MOMM*%
%LPD*%
G01*
G04 APERTURE LIST*
%TA.AperFunction,ComponentPad*%
%ADD10R,2.200000X2.200000*%
%TD*%
%TA.AperFunction,ComponentPad*%
%ADD11O,2.200000X2.200000*%
%TD*%
%TA.AperFunction,ComponentPad*%
%ADD12R,1.905000X2.000000*%
%TD*%
%TA.AperFunction,ComponentPad*%
%ADD13O,1.905000X2.000000*%
%TD*%
%TA.AperFunction,ComponentPad*%
%ADD14R,1.700000X1.700000*%
%TD*%
%TA.AperFunction,ComponentPad*%
%ADD15O,1.700000X1.700000*%
%TD*%
%TA.AperFunction,ComponentPad*%
%ADD16C,1.600000*%
%TD*%
%TA.AperFunction,ComponentPad*%
%ADD17O,1.600000X1.600000*%
%TD*%
%TA.AperFunction,ComponentPad*%
%ADD18R,1.800000X1.800000*%
%TD*%
%TA.AperFunction,ComponentPad*%
%ADD19C,1.800000*%
%TD*%
%TA.AperFunction,ComponentPad*%
%ADD20R,2.600000X2.600000*%
%TD*%
%TA.AperFunction,ComponentPad*%
%ADD21C,2.600000*%
%TD*%
%TA.AperFunction,ComponentPad*%
%ADD22R,1.600000X1.600000*%
%TD*%
%TA.AperFunction,ComponentPad*%
%ADD23R,2.000000X2.000000*%
%TD*%
%TA.AperFunction,ComponentPad*%
%ADD24C,2.000000*%
%TD*%
G04 APERTURE END LIST*
D10*
%TO.P,D2,1,K*%
%TO.N,/P-*%
X35620000Y-50450000D03*
D11*
%TO.P,D2,2,A*%
%TO.N,GND*%
X45780000Y-50450000D03*
%TD*%
D12*
%TO.P,U2,1,VI*%
%TO.N,+12V*%
X53560000Y-48695000D03*
D13*
%TO.P,U2,2,GND*%
%TO.N,GND*%
X56100000Y-48695000D03*
%TO.P,U2,3,VO*%
%TO.N,/12V*%
X58640000Y-48695000D03*
%TD*%
D10*
%TO.P,D1,1,K*%
%TO.N,/P+*%
X35645000Y-45675000D03*
D11*
%TO.P,D1,2,A*%
%TO.N,GND*%
X45805000Y-45675000D03*
%TD*%
D14*
%TO.P,J3,1,Pin_1*%
%TO.N,GND*%
X44745000Y-78775000D03*
D15*
%TO.P,J3,2,Pin_2*%
X47285000Y-78775000D03*
%TO.P,J3,3,Pin_3*%
X49825000Y-78775000D03*
%TO.P,J3,4,Pin_4*%
X52365000Y-78775000D03*
%TO.P,J3,5,Pin_5*%
X54905000Y-78775000D03*
%TD*%
D16*
%TO.P,R2,1*%
%TO.N,/12V*%
X64300000Y-62670000D03*
D17*
%TO.P,R2,2*%
%TO.N,Net-(D6-A)*%
X64300000Y-72830000D03*
%TD*%
D18*
%TO.P,D6,1,K*%
%TO.N,GND*%
X70250000Y-70430000D03*
D19*
%TO.P,D6,2,A*%
%TO.N,Net-(D6-A)*%
X70250000Y-72970000D03*
%TD*%
D14*
%TO.P,J4,1,Pin_1*%
%TO.N,/12V*%
X61645000Y-78775000D03*
D15*
%TO.P,J4,2,Pin_2*%
X64185000Y-78775000D03*
%TO.P,J4,3,Pin_3*%
X66725000Y-78775000D03*
%TO.P,J4,4,Pin_4*%
X69265000Y-78775000D03*
%TO.P,J4,5,Pin_5*%
X71805000Y-78775000D03*
%TD*%
D10*
%TO.P,D3,1,K*%
%TO.N,+12V*%
X45755000Y-58875000D03*
D11*
%TO.P,D3,2,A*%
%TO.N,/P+*%
X35595000Y-58875000D03*
%TD*%
D20*
%TO.P,J1,1,Pin_1*%
%TO.N,/P-*%
X39500000Y-66075000D03*
D21*
%TO.P,J1,2,Pin_2*%
%TO.N,/P+*%
X39500000Y-71075000D03*
%TD*%
D22*
%TO.P,C2,1*%
%TO.N,/5V*%
X77430113Y-58675000D03*
D16*
%TO.P,C2,2*%
%TO.N,GND*%
X74930113Y-58675000D03*
%TD*%
D20*
%TO.P,J2,1,Pin_1*%
%TO.N,GND*%
X91875000Y-65200000D03*
D21*
%TO.P,J2,2,Pin_2*%
%TO.N,/5V*%
X91875000Y-60200000D03*
%TO.P,J2,3,Pin_3*%
%TO.N,/12V*%
X91875000Y-55200000D03*
%TD*%
D12*
%TO.P,U1,1,IN*%
%TO.N,+12V*%
X70585000Y-48695000D03*
D13*
%TO.P,U1,2,GND*%
%TO.N,GND*%
X73125000Y-48695000D03*
%TO.P,U1,3,OUT*%
%TO.N,/5V*%
X75665000Y-48695000D03*
%TD*%
D10*
%TO.P,D4,1,K*%
%TO.N,+12V*%
X45730000Y-54675000D03*
D11*
%TO.P,D4,2,A*%
%TO.N,/P-*%
X35570000Y-54675000D03*
%TD*%
D22*
%TO.P,C3,1*%
%TO.N,/12V*%
X67550000Y-58625000D03*
D16*
%TO.P,C3,2*%
%TO.N,GND*%
X70050000Y-58625000D03*
%TD*%
D18*
%TO.P,D5,1,K*%
%TO.N,GND*%
X76750000Y-70280000D03*
D19*
%TO.P,D5,2,A*%
%TO.N,Net-(D5-A)*%
X76750000Y-72820000D03*
%TD*%
D14*
%TO.P,J5,1,Pin_1*%
%TO.N,/5V*%
X78620000Y-78650000D03*
D15*
%TO.P,J5,2,Pin_2*%
X81160000Y-78650000D03*
%TO.P,J5,3,Pin_3*%
X83700000Y-78650000D03*
%TO.P,J5,4,Pin_4*%
X86240000Y-78650000D03*
%TO.P,J5,5,Pin_5*%
X88780000Y-78650000D03*
%TD*%
D16*
%TO.P,R1,1*%
%TO.N,/5V*%
X82425000Y-62695000D03*
D17*
%TO.P,R1,2*%
%TO.N,Net-(D5-A)*%
X82425000Y-72855000D03*
%TD*%
D23*
%TO.P,C1,1*%
%TO.N,+12V*%
X54182323Y-59850000D03*
D24*
%TO.P,C1,2*%
%TO.N,GND*%
X59182323Y-59850000D03*
%TD*%
M02*
