%TF.GenerationSoftware,KiCad,Pcbnew,8.0.7*%
%TF.CreationDate,2025-08-08T15:29:20+05:30*%
%TF.ProjectId,power board_v1,706f7765-7220-4626-9f61-72645f76312e,rev?*%
%TF.SameCoordinates,Original*%
%TF.FileFunction,Legend,Top*%
%TF.FilePolarity,Positive*%
%FSLAX46Y46*%
G04 Gerber Fmt 4.6, Leading zero omitted, Abs format (unit mm)*
G04 Created by KiCad (PCBNEW 8.0.7) date 2025-08-08 15:29:20*
%MOMM*%
%LPD*%
G01*
G04 APERTURE LIST*
%ADD10C,0.150000*%
%ADD11C,0.120000*%
G04 APERTURE END LIST*
D10*
X35358095Y-48804819D02*
X35358095Y-47804819D01*
X35929523Y-48804819D02*
X35500952Y-48233390D01*
X35929523Y-47804819D02*
X35358095Y-48376247D01*
X33388095Y-85204819D02*
X33388095Y-84204819D01*
X33388095Y-84681009D02*
X33959523Y-84681009D01*
X33959523Y-85204819D02*
X33959523Y-84204819D01*
X34864285Y-84538152D02*
X34864285Y-85204819D01*
X34626190Y-84157200D02*
X34388095Y-84871485D01*
X34388095Y-84871485D02*
X35007142Y-84871485D01*
X55338095Y-43879819D02*
X55338095Y-44689342D01*
X55338095Y-44689342D02*
X55385714Y-44784580D01*
X55385714Y-44784580D02*
X55433333Y-44832200D01*
X55433333Y-44832200D02*
X55528571Y-44879819D01*
X55528571Y-44879819D02*
X55719047Y-44879819D01*
X55719047Y-44879819D02*
X55814285Y-44832200D01*
X55814285Y-44832200D02*
X55861904Y-44784580D01*
X55861904Y-44784580D02*
X55909523Y-44689342D01*
X55909523Y-44689342D02*
X55909523Y-43879819D01*
X56338095Y-43975057D02*
X56385714Y-43927438D01*
X56385714Y-43927438D02*
X56480952Y-43879819D01*
X56480952Y-43879819D02*
X56719047Y-43879819D01*
X56719047Y-43879819D02*
X56814285Y-43927438D01*
X56814285Y-43927438D02*
X56861904Y-43975057D01*
X56861904Y-43975057D02*
X56909523Y-44070295D01*
X56909523Y-44070295D02*
X56909523Y-44165533D01*
X56909523Y-44165533D02*
X56861904Y-44308390D01*
X56861904Y-44308390D02*
X56290476Y-44879819D01*
X56290476Y-44879819D02*
X56909523Y-44879819D01*
X33338095Y-35179819D02*
X33338095Y-34179819D01*
X33338095Y-34656009D02*
X33909523Y-34656009D01*
X33909523Y-35179819D02*
X33909523Y-34179819D01*
X34909523Y-35179819D02*
X34338095Y-35179819D01*
X34623809Y-35179819D02*
X34623809Y-34179819D01*
X34623809Y-34179819D02*
X34528571Y-34322676D01*
X34528571Y-34322676D02*
X34433333Y-34417914D01*
X34433333Y-34417914D02*
X34338095Y-34465533D01*
X35383095Y-44029819D02*
X35383095Y-43029819D01*
X35954523Y-44029819D02*
X35525952Y-43458390D01*
X35954523Y-43029819D02*
X35383095Y-43601247D01*
X41869819Y-79108333D02*
X42584104Y-79108333D01*
X42584104Y-79108333D02*
X42726961Y-79155952D01*
X42726961Y-79155952D02*
X42822200Y-79251190D01*
X42822200Y-79251190D02*
X42869819Y-79394047D01*
X42869819Y-79394047D02*
X42869819Y-79489285D01*
X41869819Y-78727380D02*
X41869819Y-78108333D01*
X41869819Y-78108333D02*
X42250771Y-78441666D01*
X42250771Y-78441666D02*
X42250771Y-78298809D01*
X42250771Y-78298809D02*
X42298390Y-78203571D01*
X42298390Y-78203571D02*
X42346009Y-78155952D01*
X42346009Y-78155952D02*
X42441247Y-78108333D01*
X42441247Y-78108333D02*
X42679342Y-78108333D01*
X42679342Y-78108333D02*
X42774580Y-78155952D01*
X42774580Y-78155952D02*
X42822200Y-78203571D01*
X42822200Y-78203571D02*
X42869819Y-78298809D01*
X42869819Y-78298809D02*
X42869819Y-78584523D01*
X42869819Y-78584523D02*
X42822200Y-78679761D01*
X42822200Y-78679761D02*
X42774580Y-78727380D01*
X97663095Y-84929819D02*
X97663095Y-83929819D01*
X97663095Y-84406009D02*
X98234523Y-84406009D01*
X98234523Y-84929819D02*
X98234523Y-83929819D01*
X98615476Y-83929819D02*
X99234523Y-83929819D01*
X99234523Y-83929819D02*
X98901190Y-84310771D01*
X98901190Y-84310771D02*
X99044047Y-84310771D01*
X99044047Y-84310771D02*
X99139285Y-84358390D01*
X99139285Y-84358390D02*
X99186904Y-84406009D01*
X99186904Y-84406009D02*
X99234523Y-84501247D01*
X99234523Y-84501247D02*
X99234523Y-84739342D01*
X99234523Y-84739342D02*
X99186904Y-84834580D01*
X99186904Y-84834580D02*
X99139285Y-84882200D01*
X99139285Y-84882200D02*
X99044047Y-84929819D01*
X99044047Y-84929819D02*
X98758333Y-84929819D01*
X98758333Y-84929819D02*
X98663095Y-84882200D01*
X98663095Y-84882200D02*
X98615476Y-84834580D01*
X67124819Y-67916666D02*
X66648628Y-68249999D01*
X67124819Y-68488094D02*
X66124819Y-68488094D01*
X66124819Y-68488094D02*
X66124819Y-68107142D01*
X66124819Y-68107142D02*
X66172438Y-68011904D01*
X66172438Y-68011904D02*
X66220057Y-67964285D01*
X66220057Y-67964285D02*
X66315295Y-67916666D01*
X66315295Y-67916666D02*
X66458152Y-67916666D01*
X66458152Y-67916666D02*
X66553390Y-67964285D01*
X66553390Y-67964285D02*
X66601009Y-68011904D01*
X66601009Y-68011904D02*
X66648628Y-68107142D01*
X66648628Y-68107142D02*
X66648628Y-68488094D01*
X66220057Y-67535713D02*
X66172438Y-67488094D01*
X66172438Y-67488094D02*
X66124819Y-67392856D01*
X66124819Y-67392856D02*
X66124819Y-67154761D01*
X66124819Y-67154761D02*
X66172438Y-67059523D01*
X66172438Y-67059523D02*
X66220057Y-67011904D01*
X66220057Y-67011904D02*
X66315295Y-66964285D01*
X66315295Y-66964285D02*
X66410533Y-66964285D01*
X66410533Y-66964285D02*
X66553390Y-67011904D01*
X66553390Y-67011904D02*
X67124819Y-67583332D01*
X67124819Y-67583332D02*
X67124819Y-66964285D01*
X73664819Y-72438094D02*
X72664819Y-72438094D01*
X72664819Y-72438094D02*
X72664819Y-72199999D01*
X72664819Y-72199999D02*
X72712438Y-72057142D01*
X72712438Y-72057142D02*
X72807676Y-71961904D01*
X72807676Y-71961904D02*
X72902914Y-71914285D01*
X72902914Y-71914285D02*
X73093390Y-71866666D01*
X73093390Y-71866666D02*
X73236247Y-71866666D01*
X73236247Y-71866666D02*
X73426723Y-71914285D01*
X73426723Y-71914285D02*
X73521961Y-71961904D01*
X73521961Y-71961904D02*
X73617200Y-72057142D01*
X73617200Y-72057142D02*
X73664819Y-72199999D01*
X73664819Y-72199999D02*
X73664819Y-72438094D01*
X72664819Y-71009523D02*
X72664819Y-71199999D01*
X72664819Y-71199999D02*
X72712438Y-71295237D01*
X72712438Y-71295237D02*
X72760057Y-71342856D01*
X72760057Y-71342856D02*
X72902914Y-71438094D01*
X72902914Y-71438094D02*
X73093390Y-71485713D01*
X73093390Y-71485713D02*
X73474342Y-71485713D01*
X73474342Y-71485713D02*
X73569580Y-71438094D01*
X73569580Y-71438094D02*
X73617200Y-71390475D01*
X73617200Y-71390475D02*
X73664819Y-71295237D01*
X73664819Y-71295237D02*
X73664819Y-71104761D01*
X73664819Y-71104761D02*
X73617200Y-71009523D01*
X73617200Y-71009523D02*
X73569580Y-70961904D01*
X73569580Y-70961904D02*
X73474342Y-70914285D01*
X73474342Y-70914285D02*
X73236247Y-70914285D01*
X73236247Y-70914285D02*
X73141009Y-70961904D01*
X73141009Y-70961904D02*
X73093390Y-71009523D01*
X73093390Y-71009523D02*
X73045771Y-71104761D01*
X73045771Y-71104761D02*
X73045771Y-71295237D01*
X73045771Y-71295237D02*
X73093390Y-71390475D01*
X73093390Y-71390475D02*
X73141009Y-71438094D01*
X73141009Y-71438094D02*
X73236247Y-71485713D01*
X58769819Y-79108333D02*
X59484104Y-79108333D01*
X59484104Y-79108333D02*
X59626961Y-79155952D01*
X59626961Y-79155952D02*
X59722200Y-79251190D01*
X59722200Y-79251190D02*
X59769819Y-79394047D01*
X59769819Y-79394047D02*
X59769819Y-79489285D01*
X59103152Y-78203571D02*
X59769819Y-78203571D01*
X58722200Y-78441666D02*
X59436485Y-78679761D01*
X59436485Y-78679761D02*
X59436485Y-78060714D01*
X45493095Y-61429819D02*
X45493095Y-60429819D01*
X46064523Y-61429819D02*
X45635952Y-60858390D01*
X46064523Y-60429819D02*
X45493095Y-61001247D01*
X45214819Y-68908333D02*
X45929104Y-68908333D01*
X45929104Y-68908333D02*
X46071961Y-68955952D01*
X46071961Y-68955952D02*
X46167200Y-69051190D01*
X46167200Y-69051190D02*
X46214819Y-69194047D01*
X46214819Y-69194047D02*
X46214819Y-69289285D01*
X46214819Y-67908333D02*
X46214819Y-68479761D01*
X46214819Y-68194047D02*
X45214819Y-68194047D01*
X45214819Y-68194047D02*
X45357676Y-68289285D01*
X45357676Y-68289285D02*
X45452914Y-68384523D01*
X45452914Y-68384523D02*
X45500533Y-68479761D01*
X76539693Y-62591666D02*
X76587313Y-62639285D01*
X76587313Y-62639285D02*
X76634932Y-62782142D01*
X76634932Y-62782142D02*
X76634932Y-62877380D01*
X76634932Y-62877380D02*
X76587313Y-63020237D01*
X76587313Y-63020237D02*
X76492074Y-63115475D01*
X76492074Y-63115475D02*
X76396836Y-63163094D01*
X76396836Y-63163094D02*
X76206360Y-63210713D01*
X76206360Y-63210713D02*
X76063503Y-63210713D01*
X76063503Y-63210713D02*
X75873027Y-63163094D01*
X75873027Y-63163094D02*
X75777789Y-63115475D01*
X75777789Y-63115475D02*
X75682551Y-63020237D01*
X75682551Y-63020237D02*
X75634932Y-62877380D01*
X75634932Y-62877380D02*
X75634932Y-62782142D01*
X75634932Y-62782142D02*
X75682551Y-62639285D01*
X75682551Y-62639285D02*
X75730170Y-62591666D01*
X75730170Y-62210713D02*
X75682551Y-62163094D01*
X75682551Y-62163094D02*
X75634932Y-62067856D01*
X75634932Y-62067856D02*
X75634932Y-61829761D01*
X75634932Y-61829761D02*
X75682551Y-61734523D01*
X75682551Y-61734523D02*
X75730170Y-61686904D01*
X75730170Y-61686904D02*
X75825408Y-61639285D01*
X75825408Y-61639285D02*
X75920646Y-61639285D01*
X75920646Y-61639285D02*
X76063503Y-61686904D01*
X76063503Y-61686904D02*
X76634932Y-62258332D01*
X76634932Y-62258332D02*
X76634932Y-61639285D01*
X85069819Y-60533333D02*
X85784104Y-60533333D01*
X85784104Y-60533333D02*
X85926961Y-60580952D01*
X85926961Y-60580952D02*
X86022200Y-60676190D01*
X86022200Y-60676190D02*
X86069819Y-60819047D01*
X86069819Y-60819047D02*
X86069819Y-60914285D01*
X85165057Y-60104761D02*
X85117438Y-60057142D01*
X85117438Y-60057142D02*
X85069819Y-59961904D01*
X85069819Y-59961904D02*
X85069819Y-59723809D01*
X85069819Y-59723809D02*
X85117438Y-59628571D01*
X85117438Y-59628571D02*
X85165057Y-59580952D01*
X85165057Y-59580952D02*
X85260295Y-59533333D01*
X85260295Y-59533333D02*
X85355533Y-59533333D01*
X85355533Y-59533333D02*
X85498390Y-59580952D01*
X85498390Y-59580952D02*
X86069819Y-60152380D01*
X86069819Y-60152380D02*
X86069819Y-59533333D01*
X72363095Y-43879819D02*
X72363095Y-44689342D01*
X72363095Y-44689342D02*
X72410714Y-44784580D01*
X72410714Y-44784580D02*
X72458333Y-44832200D01*
X72458333Y-44832200D02*
X72553571Y-44879819D01*
X72553571Y-44879819D02*
X72744047Y-44879819D01*
X72744047Y-44879819D02*
X72839285Y-44832200D01*
X72839285Y-44832200D02*
X72886904Y-44784580D01*
X72886904Y-44784580D02*
X72934523Y-44689342D01*
X72934523Y-44689342D02*
X72934523Y-43879819D01*
X73934523Y-44879819D02*
X73363095Y-44879819D01*
X73648809Y-44879819D02*
X73648809Y-43879819D01*
X73648809Y-43879819D02*
X73553571Y-44022676D01*
X73553571Y-44022676D02*
X73458333Y-44117914D01*
X73458333Y-44117914D02*
X73363095Y-44165533D01*
X45468095Y-57229819D02*
X45468095Y-56229819D01*
X46039523Y-57229819D02*
X45610952Y-56658390D01*
X46039523Y-56229819D02*
X45468095Y-56801247D01*
X68888446Y-62734580D02*
X68840827Y-62782200D01*
X68840827Y-62782200D02*
X68697970Y-62829819D01*
X68697970Y-62829819D02*
X68602732Y-62829819D01*
X68602732Y-62829819D02*
X68459875Y-62782200D01*
X68459875Y-62782200D02*
X68364637Y-62686961D01*
X68364637Y-62686961D02*
X68317018Y-62591723D01*
X68317018Y-62591723D02*
X68269399Y-62401247D01*
X68269399Y-62401247D02*
X68269399Y-62258390D01*
X68269399Y-62258390D02*
X68317018Y-62067914D01*
X68317018Y-62067914D02*
X68364637Y-61972676D01*
X68364637Y-61972676D02*
X68459875Y-61877438D01*
X68459875Y-61877438D02*
X68602732Y-61829819D01*
X68602732Y-61829819D02*
X68697970Y-61829819D01*
X68697970Y-61829819D02*
X68840827Y-61877438D01*
X68840827Y-61877438D02*
X68888446Y-61925057D01*
X69221780Y-61829819D02*
X69840827Y-61829819D01*
X69840827Y-61829819D02*
X69507494Y-62210771D01*
X69507494Y-62210771D02*
X69650351Y-62210771D01*
X69650351Y-62210771D02*
X69745589Y-62258390D01*
X69745589Y-62258390D02*
X69793208Y-62306009D01*
X69793208Y-62306009D02*
X69840827Y-62401247D01*
X69840827Y-62401247D02*
X69840827Y-62639342D01*
X69840827Y-62639342D02*
X69793208Y-62734580D01*
X69793208Y-62734580D02*
X69745589Y-62782200D01*
X69745589Y-62782200D02*
X69650351Y-62829819D01*
X69650351Y-62829819D02*
X69364637Y-62829819D01*
X69364637Y-62829819D02*
X69269399Y-62782200D01*
X69269399Y-62782200D02*
X69221780Y-62734580D01*
X80164819Y-72288094D02*
X79164819Y-72288094D01*
X79164819Y-72288094D02*
X79164819Y-72049999D01*
X79164819Y-72049999D02*
X79212438Y-71907142D01*
X79212438Y-71907142D02*
X79307676Y-71811904D01*
X79307676Y-71811904D02*
X79402914Y-71764285D01*
X79402914Y-71764285D02*
X79593390Y-71716666D01*
X79593390Y-71716666D02*
X79736247Y-71716666D01*
X79736247Y-71716666D02*
X79926723Y-71764285D01*
X79926723Y-71764285D02*
X80021961Y-71811904D01*
X80021961Y-71811904D02*
X80117200Y-71907142D01*
X80117200Y-71907142D02*
X80164819Y-72049999D01*
X80164819Y-72049999D02*
X80164819Y-72288094D01*
X79164819Y-70811904D02*
X79164819Y-71288094D01*
X79164819Y-71288094D02*
X79641009Y-71335713D01*
X79641009Y-71335713D02*
X79593390Y-71288094D01*
X79593390Y-71288094D02*
X79545771Y-71192856D01*
X79545771Y-71192856D02*
X79545771Y-70954761D01*
X79545771Y-70954761D02*
X79593390Y-70859523D01*
X79593390Y-70859523D02*
X79641009Y-70811904D01*
X79641009Y-70811904D02*
X79736247Y-70764285D01*
X79736247Y-70764285D02*
X79974342Y-70764285D01*
X79974342Y-70764285D02*
X80069580Y-70811904D01*
X80069580Y-70811904D02*
X80117200Y-70859523D01*
X80117200Y-70859523D02*
X80164819Y-70954761D01*
X80164819Y-70954761D02*
X80164819Y-71192856D01*
X80164819Y-71192856D02*
X80117200Y-71288094D01*
X80117200Y-71288094D02*
X80069580Y-71335713D01*
X75744819Y-78983333D02*
X76459104Y-78983333D01*
X76459104Y-78983333D02*
X76601961Y-79030952D01*
X76601961Y-79030952D02*
X76697200Y-79126190D01*
X76697200Y-79126190D02*
X76744819Y-79269047D01*
X76744819Y-79269047D02*
X76744819Y-79364285D01*
X75744819Y-78030952D02*
X75744819Y-78507142D01*
X75744819Y-78507142D02*
X76221009Y-78554761D01*
X76221009Y-78554761D02*
X76173390Y-78507142D01*
X76173390Y-78507142D02*
X76125771Y-78411904D01*
X76125771Y-78411904D02*
X76125771Y-78173809D01*
X76125771Y-78173809D02*
X76173390Y-78078571D01*
X76173390Y-78078571D02*
X76221009Y-78030952D01*
X76221009Y-78030952D02*
X76316247Y-77983333D01*
X76316247Y-77983333D02*
X76554342Y-77983333D01*
X76554342Y-77983333D02*
X76649580Y-78030952D01*
X76649580Y-78030952D02*
X76697200Y-78078571D01*
X76697200Y-78078571D02*
X76744819Y-78173809D01*
X76744819Y-78173809D02*
X76744819Y-78411904D01*
X76744819Y-78411904D02*
X76697200Y-78507142D01*
X76697200Y-78507142D02*
X76649580Y-78554761D01*
X97338095Y-35379819D02*
X97338095Y-34379819D01*
X97338095Y-34856009D02*
X97909523Y-34856009D01*
X97909523Y-35379819D02*
X97909523Y-34379819D01*
X98338095Y-34475057D02*
X98385714Y-34427438D01*
X98385714Y-34427438D02*
X98480952Y-34379819D01*
X98480952Y-34379819D02*
X98719047Y-34379819D01*
X98719047Y-34379819D02*
X98814285Y-34427438D01*
X98814285Y-34427438D02*
X98861904Y-34475057D01*
X98861904Y-34475057D02*
X98909523Y-34570295D01*
X98909523Y-34570295D02*
X98909523Y-34665533D01*
X98909523Y-34665533D02*
X98861904Y-34808390D01*
X98861904Y-34808390D02*
X98290476Y-35379819D01*
X98290476Y-35379819D02*
X98909523Y-35379819D01*
X85249819Y-67941666D02*
X84773628Y-68274999D01*
X85249819Y-68513094D02*
X84249819Y-68513094D01*
X84249819Y-68513094D02*
X84249819Y-68132142D01*
X84249819Y-68132142D02*
X84297438Y-68036904D01*
X84297438Y-68036904D02*
X84345057Y-67989285D01*
X84345057Y-67989285D02*
X84440295Y-67941666D01*
X84440295Y-67941666D02*
X84583152Y-67941666D01*
X84583152Y-67941666D02*
X84678390Y-67989285D01*
X84678390Y-67989285D02*
X84726009Y-68036904D01*
X84726009Y-68036904D02*
X84773628Y-68132142D01*
X84773628Y-68132142D02*
X84773628Y-68513094D01*
X85249819Y-66989285D02*
X85249819Y-67560713D01*
X85249819Y-67274999D02*
X84249819Y-67274999D01*
X84249819Y-67274999D02*
X84392676Y-67370237D01*
X84392676Y-67370237D02*
X84487914Y-67465475D01*
X84487914Y-67465475D02*
X84535533Y-67560713D01*
X56515656Y-53959580D02*
X56468037Y-54007200D01*
X56468037Y-54007200D02*
X56325180Y-54054819D01*
X56325180Y-54054819D02*
X56229942Y-54054819D01*
X56229942Y-54054819D02*
X56087085Y-54007200D01*
X56087085Y-54007200D02*
X55991847Y-53911961D01*
X55991847Y-53911961D02*
X55944228Y-53816723D01*
X55944228Y-53816723D02*
X55896609Y-53626247D01*
X55896609Y-53626247D02*
X55896609Y-53483390D01*
X55896609Y-53483390D02*
X55944228Y-53292914D01*
X55944228Y-53292914D02*
X55991847Y-53197676D01*
X55991847Y-53197676D02*
X56087085Y-53102438D01*
X56087085Y-53102438D02*
X56229942Y-53054819D01*
X56229942Y-53054819D02*
X56325180Y-53054819D01*
X56325180Y-53054819D02*
X56468037Y-53102438D01*
X56468037Y-53102438D02*
X56515656Y-53150057D01*
X57468037Y-54054819D02*
X56896609Y-54054819D01*
X57182323Y-54054819D02*
X57182323Y-53054819D01*
X57182323Y-53054819D02*
X57087085Y-53197676D01*
X57087085Y-53197676D02*
X56991847Y-53292914D01*
X56991847Y-53292914D02*
X56896609Y-53340533D01*
D11*
%TO.C,D2*%
X36960000Y-50450000D02*
X37980000Y-50450000D01*
X37980000Y-48980000D02*
X37980000Y-51920000D01*
X37980000Y-51920000D02*
X43420000Y-51920000D01*
X38760000Y-48980000D02*
X38760000Y-51920000D01*
X38880000Y-48980000D02*
X38880000Y-51920000D01*
X39000000Y-48980000D02*
X39000000Y-51920000D01*
X43420000Y-48980000D02*
X37980000Y-48980000D01*
X43420000Y-51920000D02*
X43420000Y-48980000D01*
X44440000Y-50450000D02*
X43420000Y-50450000D01*
%TO.C,U2*%
X50980000Y-45425000D02*
X50980000Y-50066000D01*
X50980000Y-45425000D02*
X61220000Y-45425000D01*
X50980000Y-46935000D02*
X61220000Y-46935000D01*
X50980000Y-50066000D02*
X61220000Y-50066000D01*
X54250000Y-45425000D02*
X54250000Y-46935000D01*
X57951000Y-45425000D02*
X57951000Y-46935000D01*
X61220000Y-45425000D02*
X61220000Y-50066000D01*
%TO.C,D1*%
X36985000Y-45675000D02*
X38005000Y-45675000D01*
X38005000Y-44205000D02*
X38005000Y-47145000D01*
X38005000Y-47145000D02*
X43445000Y-47145000D01*
X38785000Y-44205000D02*
X38785000Y-47145000D01*
X38905000Y-44205000D02*
X38905000Y-47145000D01*
X39025000Y-44205000D02*
X39025000Y-47145000D01*
X43445000Y-44205000D02*
X38005000Y-44205000D01*
X43445000Y-47145000D02*
X43445000Y-44205000D01*
X44465000Y-45675000D02*
X43445000Y-45675000D01*
%TO.C,J3*%
X43415000Y-80105000D02*
X43415000Y-78775000D01*
X44745000Y-80105000D02*
X43415000Y-80105000D01*
X46015000Y-77445000D02*
X56235000Y-77445000D01*
X46015000Y-80105000D02*
X46015000Y-77445000D01*
X46015000Y-80105000D02*
X56235000Y-80105000D01*
X56235000Y-80105000D02*
X56235000Y-77445000D01*
%TO.C,R2*%
X62930000Y-64480000D02*
X62930000Y-71020000D01*
X62930000Y-71020000D02*
X65670000Y-71020000D01*
X64300000Y-63710000D02*
X64300000Y-64480000D01*
X64300000Y-71790000D02*
X64300000Y-71020000D01*
X65670000Y-64480000D02*
X62930000Y-64480000D01*
X65670000Y-71020000D02*
X65670000Y-64480000D01*
%TO.C,D6*%
X69170000Y-70140000D02*
X69014000Y-70140000D01*
X71486000Y-70140000D02*
X71330000Y-70140000D01*
X69169939Y-73371397D02*
G75*
G02*
X69014484Y-70140000I1080061J1671397D01*
G01*
X69169951Y-72740910D02*
G75*
G02*
X69170000Y-70659039I1080049J1040910D01*
G01*
X71330000Y-70659039D02*
G75*
G02*
X71330049Y-72740910I-1080000J-1040961D01*
G01*
X71485516Y-70140000D02*
G75*
G02*
X71330061Y-73371397I-1235516J-1560000D01*
G01*
%TO.C,J4*%
X60315000Y-80105000D02*
X60315000Y-78775000D01*
X61645000Y-80105000D02*
X60315000Y-80105000D01*
X62915000Y-77445000D02*
X73135000Y-77445000D01*
X62915000Y-80105000D02*
X62915000Y-77445000D01*
X62915000Y-80105000D02*
X73135000Y-80105000D01*
X73135000Y-80105000D02*
X73135000Y-77445000D01*
%TO.C,D3*%
X36935000Y-58875000D02*
X37955000Y-58875000D01*
X37955000Y-57405000D02*
X37955000Y-60345000D01*
X37955000Y-60345000D02*
X43395000Y-60345000D01*
X42375000Y-60345000D02*
X42375000Y-57405000D01*
X42495000Y-60345000D02*
X42495000Y-57405000D01*
X42615000Y-60345000D02*
X42615000Y-57405000D01*
X43395000Y-57405000D02*
X37955000Y-57405000D01*
X43395000Y-60345000D02*
X43395000Y-57405000D01*
X44415000Y-58875000D02*
X43395000Y-58875000D01*
%TO.C,J1*%
X34600000Y-63275000D02*
X34600000Y-63775000D01*
X34840000Y-63515000D02*
X34840000Y-73635000D01*
X35340000Y-63275000D02*
X34600000Y-63275000D01*
X35400000Y-63515000D02*
X35400000Y-73635000D01*
X36900000Y-63515000D02*
X36900000Y-73635000D01*
X38261000Y-70041000D02*
X38226000Y-70006000D01*
X38477000Y-69848000D02*
X38431000Y-69801000D01*
X40569000Y-72350000D02*
X40523000Y-72303000D01*
X40775000Y-72145000D02*
X40739000Y-72110000D01*
X41801000Y-63515000D02*
X41801000Y-73635000D01*
X44761000Y-63515000D02*
X34840000Y-63515000D01*
X44761000Y-63515000D02*
X44761000Y-73635000D01*
X44761000Y-73635000D02*
X34840000Y-73635000D01*
X37819747Y-66103805D02*
G75*
G02*
X37965000Y-65391000I1680254J28806D01*
G01*
X37965244Y-66758318D02*
G75*
G02*
X37820000Y-66075000I1534756J683318D01*
G01*
X38816958Y-64539573D02*
G75*
G02*
X40184000Y-64540000I683041J-1535420D01*
G01*
X40183042Y-67610427D02*
G75*
G02*
X38816000Y-67610000I-683042J1535427D01*
G01*
X41035427Y-65391958D02*
G75*
G02*
X41035000Y-66759000I-1535420J-683041D01*
G01*
X41180000Y-71075000D02*
G75*
G02*
X37820000Y-71075000I-1680000J0D01*
G01*
X37820000Y-71075000D02*
G75*
G02*
X41180000Y-71075000I1680000J0D01*
G01*
%TO.C,C2*%
X73579113Y-58959000D02*
X73579113Y-58391000D01*
X73619113Y-59193000D02*
X73619113Y-58157000D01*
X73659113Y-59352000D02*
X73659113Y-57998000D01*
X73699113Y-59480000D02*
X73699113Y-57870000D01*
X73739113Y-59590000D02*
X73739113Y-57760000D01*
X73779113Y-59686000D02*
X73779113Y-57664000D01*
X73819113Y-59773000D02*
X73819113Y-57577000D01*
X73859113Y-59853000D02*
X73859113Y-57497000D01*
X73899113Y-57635000D02*
X73899113Y-57424000D01*
X73899113Y-59926000D02*
X73899113Y-59715000D01*
X73939113Y-57635000D02*
X73939113Y-57356000D01*
X73939113Y-59994000D02*
X73939113Y-59715000D01*
X73979113Y-57635000D02*
X73979113Y-57292000D01*
X73979113Y-60058000D02*
X73979113Y-59715000D01*
X74019113Y-57635000D02*
X74019113Y-57232000D01*
X74019113Y-60118000D02*
X74019113Y-59715000D01*
X74059113Y-57635000D02*
X74059113Y-57175000D01*
X74059113Y-60175000D02*
X74059113Y-59715000D01*
X74099113Y-57635000D02*
X74099113Y-57121000D01*
X74099113Y-60229000D02*
X74099113Y-59715000D01*
X74139113Y-57635000D02*
X74139113Y-57070000D01*
X74139113Y-60280000D02*
X74139113Y-59715000D01*
X74179113Y-57635000D02*
X74179113Y-57022000D01*
X74179113Y-60328000D02*
X74179113Y-59715000D01*
X74219113Y-57635000D02*
X74219113Y-56976000D01*
X74219113Y-60374000D02*
X74219113Y-59715000D01*
X74259113Y-57635000D02*
X74259113Y-56932000D01*
X74259113Y-60418000D02*
X74259113Y-59715000D01*
X74299113Y-57635000D02*
X74299113Y-56890000D01*
X74299113Y-60460000D02*
X74299113Y-59715000D01*
X74339113Y-57635000D02*
X74339113Y-56849000D01*
X74339113Y-60501000D02*
X74339113Y-59715000D01*
X74379113Y-57635000D02*
X74379113Y-56811000D01*
X74379113Y-60539000D02*
X74379113Y-59715000D01*
X74419113Y-57635000D02*
X74419113Y-56774000D01*
X74419113Y-60576000D02*
X74419113Y-59715000D01*
X74459113Y-57635000D02*
X74459113Y-56738000D01*
X74459113Y-60612000D02*
X74459113Y-59715000D01*
X74499113Y-57635000D02*
X74499113Y-56704000D01*
X74499113Y-60646000D02*
X74499113Y-59715000D01*
X74539113Y-57635000D02*
X74539113Y-56671000D01*
X74539113Y-60679000D02*
X74539113Y-59715000D01*
X74579113Y-57635000D02*
X74579113Y-56640000D01*
X74579113Y-60710000D02*
X74579113Y-59715000D01*
X74619113Y-57635000D02*
X74619113Y-56610000D01*
X74619113Y-60740000D02*
X74619113Y-59715000D01*
X74659113Y-57635000D02*
X74659113Y-56580000D01*
X74659113Y-60770000D02*
X74659113Y-59715000D01*
X74699113Y-57635000D02*
X74699113Y-56553000D01*
X74699113Y-60797000D02*
X74699113Y-59715000D01*
X74739113Y-57635000D02*
X74739113Y-56526000D01*
X74739113Y-60824000D02*
X74739113Y-59715000D01*
X74779113Y-57635000D02*
X74779113Y-56500000D01*
X74779113Y-60850000D02*
X74779113Y-59715000D01*
X74819113Y-57635000D02*
X74819113Y-56475000D01*
X74819113Y-60875000D02*
X74819113Y-59715000D01*
X74859113Y-57635000D02*
X74859113Y-56451000D01*
X74859113Y-60899000D02*
X74859113Y-59715000D01*
X74899113Y-57635000D02*
X74899113Y-56428000D01*
X74899113Y-60922000D02*
X74899113Y-59715000D01*
X74939113Y-57635000D02*
X74939113Y-56407000D01*
X74939113Y-60943000D02*
X74939113Y-59715000D01*
X74979113Y-57635000D02*
X74979113Y-56385000D01*
X74979113Y-60965000D02*
X74979113Y-59715000D01*
X75019113Y-57635000D02*
X75019113Y-56365000D01*
X75019113Y-60985000D02*
X75019113Y-59715000D01*
X75059113Y-57635000D02*
X75059113Y-56346000D01*
X75059113Y-61004000D02*
X75059113Y-59715000D01*
X75099113Y-57635000D02*
X75099113Y-56327000D01*
X75099113Y-61023000D02*
X75099113Y-59715000D01*
X75139113Y-57635000D02*
X75139113Y-56310000D01*
X75139113Y-61040000D02*
X75139113Y-59715000D01*
X75179113Y-57635000D02*
X75179113Y-56293000D01*
X75179113Y-61057000D02*
X75179113Y-59715000D01*
X75219113Y-57635000D02*
X75219113Y-56277000D01*
X75219113Y-61073000D02*
X75219113Y-59715000D01*
X75259113Y-57635000D02*
X75259113Y-56261000D01*
X75259113Y-61089000D02*
X75259113Y-59715000D01*
X75299113Y-57635000D02*
X75299113Y-56247000D01*
X75299113Y-61103000D02*
X75299113Y-59715000D01*
X75339113Y-57635000D02*
X75339113Y-56233000D01*
X75339113Y-61117000D02*
X75339113Y-59715000D01*
X75379113Y-57635000D02*
X75379113Y-56220000D01*
X75379113Y-61130000D02*
X75379113Y-59715000D01*
X75419113Y-57635000D02*
X75419113Y-56207000D01*
X75419113Y-61143000D02*
X75419113Y-59715000D01*
X75459113Y-57635000D02*
X75459113Y-56195000D01*
X75459113Y-61155000D02*
X75459113Y-59715000D01*
X75500113Y-57635000D02*
X75500113Y-56184000D01*
X75500113Y-61166000D02*
X75500113Y-59715000D01*
X75540113Y-57635000D02*
X75540113Y-56174000D01*
X75540113Y-61176000D02*
X75540113Y-59715000D01*
X75580113Y-57635000D02*
X75580113Y-56164000D01*
X75580113Y-61186000D02*
X75580113Y-59715000D01*
X75620113Y-57635000D02*
X75620113Y-56155000D01*
X75620113Y-61195000D02*
X75620113Y-59715000D01*
X75660113Y-57635000D02*
X75660113Y-56147000D01*
X75660113Y-61203000D02*
X75660113Y-59715000D01*
X75700113Y-57635000D02*
X75700113Y-56139000D01*
X75700113Y-61211000D02*
X75700113Y-59715000D01*
X75740113Y-57635000D02*
X75740113Y-56132000D01*
X75740113Y-61218000D02*
X75740113Y-59715000D01*
X75780113Y-57635000D02*
X75780113Y-56125000D01*
X75780113Y-61225000D02*
X75780113Y-59715000D01*
X75820113Y-57635000D02*
X75820113Y-56119000D01*
X75820113Y-61231000D02*
X75820113Y-59715000D01*
X75860113Y-57635000D02*
X75860113Y-56114000D01*
X75860113Y-61236000D02*
X75860113Y-59715000D01*
X75900113Y-57635000D02*
X75900113Y-56110000D01*
X75900113Y-61240000D02*
X75900113Y-59715000D01*
X75940113Y-57635000D02*
X75940113Y-56106000D01*
X75940113Y-61244000D02*
X75940113Y-59715000D01*
X75980113Y-61248000D02*
X75980113Y-56102000D01*
X76020113Y-61251000D02*
X76020113Y-56099000D01*
X76060113Y-61253000D02*
X76060113Y-56097000D01*
X76100113Y-61254000D02*
X76100113Y-56096000D01*
X76140113Y-61255000D02*
X76140113Y-56095000D01*
X76180113Y-61255000D02*
X76180113Y-56095000D01*
X78734888Y-60400000D02*
X78734888Y-59900000D01*
X78984888Y-60150000D02*
X78484888Y-60150000D01*
X78800113Y-58675000D02*
G75*
G02*
X73560113Y-58675000I-2620000J0D01*
G01*
X73560113Y-58675000D02*
G75*
G02*
X78800113Y-58675000I2620000J0D01*
G01*
%TO.C,J2*%
X86614000Y-52640000D02*
X96535000Y-52640000D01*
X86614000Y-67760000D02*
X86614000Y-52640000D01*
X86614000Y-67760000D02*
X96535000Y-67760000D01*
X89574000Y-67760000D02*
X89574000Y-52640000D01*
X90600000Y-54130000D02*
X90636000Y-54165000D01*
X90600000Y-59130000D02*
X90636000Y-59165000D01*
X90806000Y-53925000D02*
X90852000Y-53972000D01*
X90806000Y-58925000D02*
X90852000Y-58972000D01*
X92898000Y-56427000D02*
X92944000Y-56474000D01*
X92898000Y-61427000D02*
X92944000Y-61474000D01*
X93114000Y-56234000D02*
X93149000Y-56269000D01*
X93114000Y-61234000D02*
X93149000Y-61269000D01*
X94475000Y-67760000D02*
X94475000Y-52640000D01*
X95975000Y-67760000D02*
X95975000Y-52640000D01*
X96035000Y-68000000D02*
X96775000Y-68000000D01*
X96535000Y-67760000D02*
X96535000Y-52640000D01*
X96775000Y-68000000D02*
X96775000Y-67500000D01*
X90339573Y-65883042D02*
G75*
G02*
X90340000Y-64516000I1535420J683041D01*
G01*
X91191958Y-63664573D02*
G75*
G02*
X92559000Y-63665000I683042J-1535427D01*
G01*
X92558042Y-66735427D02*
G75*
G02*
X91191000Y-66735000I-683041J1535420D01*
G01*
X93409756Y-64516682D02*
G75*
G02*
X93555000Y-65200000I-1534756J-683318D01*
G01*
X93555253Y-65171195D02*
G75*
G02*
X93410000Y-65884000I-1680254J-28806D01*
G01*
X93555000Y-55200000D02*
G75*
G02*
X90195000Y-55200000I-1680000J0D01*
G01*
X90195000Y-55200000D02*
G75*
G02*
X93555000Y-55200000I1680000J0D01*
G01*
X93555000Y-60200000D02*
G75*
G02*
X90195000Y-60200000I-1680000J0D01*
G01*
X90195000Y-60200000D02*
G75*
G02*
X93555000Y-60200000I1680000J0D01*
G01*
%TO.C,U1*%
X68005000Y-45425000D02*
X68005000Y-50066000D01*
X68005000Y-45425000D02*
X78245000Y-45425000D01*
X68005000Y-46935000D02*
X78245000Y-46935000D01*
X68005000Y-50066000D02*
X78245000Y-50066000D01*
X71275000Y-45425000D02*
X71275000Y-46935000D01*
X74976000Y-45425000D02*
X74976000Y-46935000D01*
X78245000Y-45425000D02*
X78245000Y-50066000D01*
%TO.C,D4*%
X36910000Y-54675000D02*
X37930000Y-54675000D01*
X37930000Y-53205000D02*
X37930000Y-56145000D01*
X37930000Y-56145000D02*
X43370000Y-56145000D01*
X42350000Y-56145000D02*
X42350000Y-53205000D01*
X42470000Y-56145000D02*
X42470000Y-53205000D01*
X42590000Y-56145000D02*
X42590000Y-53205000D01*
X43370000Y-53205000D02*
X37930000Y-53205000D01*
X43370000Y-56145000D02*
X43370000Y-53205000D01*
X44390000Y-54675000D02*
X43370000Y-54675000D01*
%TO.C,C3*%
X65995225Y-57150000D02*
X66495225Y-57150000D01*
X66245225Y-56900000D02*
X66245225Y-57400000D01*
X68800000Y-56045000D02*
X68800000Y-61205000D01*
X68840000Y-56045000D02*
X68840000Y-61205000D01*
X68880000Y-56046000D02*
X68880000Y-61204000D01*
X68920000Y-56047000D02*
X68920000Y-61203000D01*
X68960000Y-56049000D02*
X68960000Y-61201000D01*
X69000000Y-56052000D02*
X69000000Y-61198000D01*
X69040000Y-56056000D02*
X69040000Y-57585000D01*
X69040000Y-59665000D02*
X69040000Y-61194000D01*
X69080000Y-56060000D02*
X69080000Y-57585000D01*
X69080000Y-59665000D02*
X69080000Y-61190000D01*
X69120000Y-56064000D02*
X69120000Y-57585000D01*
X69120000Y-59665000D02*
X69120000Y-61186000D01*
X69160000Y-56069000D02*
X69160000Y-57585000D01*
X69160000Y-59665000D02*
X69160000Y-61181000D01*
X69200000Y-56075000D02*
X69200000Y-57585000D01*
X69200000Y-59665000D02*
X69200000Y-61175000D01*
X69240000Y-56082000D02*
X69240000Y-57585000D01*
X69240000Y-59665000D02*
X69240000Y-61168000D01*
X69280000Y-56089000D02*
X69280000Y-57585000D01*
X69280000Y-59665000D02*
X69280000Y-61161000D01*
X69320000Y-56097000D02*
X69320000Y-57585000D01*
X69320000Y-59665000D02*
X69320000Y-61153000D01*
X69360000Y-56105000D02*
X69360000Y-57585000D01*
X69360000Y-59665000D02*
X69360000Y-61145000D01*
X69400000Y-56114000D02*
X69400000Y-57585000D01*
X69400000Y-59665000D02*
X69400000Y-61136000D01*
X69440000Y-56124000D02*
X69440000Y-57585000D01*
X69440000Y-59665000D02*
X69440000Y-61126000D01*
X69480000Y-56134000D02*
X69480000Y-57585000D01*
X69480000Y-59665000D02*
X69480000Y-61116000D01*
X69521000Y-56145000D02*
X69521000Y-57585000D01*
X69521000Y-59665000D02*
X69521000Y-61105000D01*
X69561000Y-56157000D02*
X69561000Y-57585000D01*
X69561000Y-59665000D02*
X69561000Y-61093000D01*
X69601000Y-56170000D02*
X69601000Y-57585000D01*
X69601000Y-59665000D02*
X69601000Y-61080000D01*
X69641000Y-56183000D02*
X69641000Y-57585000D01*
X69641000Y-59665000D02*
X69641000Y-61067000D01*
X69681000Y-56197000D02*
X69681000Y-57585000D01*
X69681000Y-59665000D02*
X69681000Y-61053000D01*
X69721000Y-56211000D02*
X69721000Y-57585000D01*
X69721000Y-59665000D02*
X69721000Y-61039000D01*
X69761000Y-56227000D02*
X69761000Y-57585000D01*
X69761000Y-59665000D02*
X69761000Y-61023000D01*
X69801000Y-56243000D02*
X69801000Y-57585000D01*
X69801000Y-59665000D02*
X69801000Y-61007000D01*
X69841000Y-56260000D02*
X69841000Y-57585000D01*
X69841000Y-59665000D02*
X69841000Y-60990000D01*
X69881000Y-56277000D02*
X69881000Y-57585000D01*
X69881000Y-59665000D02*
X69881000Y-60973000D01*
X69921000Y-56296000D02*
X69921000Y-57585000D01*
X69921000Y-59665000D02*
X69921000Y-60954000D01*
X69961000Y-56315000D02*
X69961000Y-57585000D01*
X69961000Y-59665000D02*
X69961000Y-60935000D01*
X70001000Y-56335000D02*
X70001000Y-57585000D01*
X70001000Y-59665000D02*
X70001000Y-60915000D01*
X70041000Y-56357000D02*
X70041000Y-57585000D01*
X70041000Y-59665000D02*
X70041000Y-60893000D01*
X70081000Y-56378000D02*
X70081000Y-57585000D01*
X70081000Y-59665000D02*
X70081000Y-60872000D01*
X70121000Y-56401000D02*
X70121000Y-57585000D01*
X70121000Y-59665000D02*
X70121000Y-60849000D01*
X70161000Y-56425000D02*
X70161000Y-57585000D01*
X70161000Y-59665000D02*
X70161000Y-60825000D01*
X70201000Y-56450000D02*
X70201000Y-57585000D01*
X70201000Y-59665000D02*
X70201000Y-60800000D01*
X70241000Y-56476000D02*
X70241000Y-57585000D01*
X70241000Y-59665000D02*
X70241000Y-60774000D01*
X70281000Y-56503000D02*
X70281000Y-57585000D01*
X70281000Y-59665000D02*
X70281000Y-60747000D01*
X70321000Y-56530000D02*
X70321000Y-57585000D01*
X70321000Y-59665000D02*
X70321000Y-60720000D01*
X70361000Y-56560000D02*
X70361000Y-57585000D01*
X70361000Y-59665000D02*
X70361000Y-60690000D01*
X70401000Y-56590000D02*
X70401000Y-57585000D01*
X70401000Y-59665000D02*
X70401000Y-60660000D01*
X70441000Y-56621000D02*
X70441000Y-57585000D01*
X70441000Y-59665000D02*
X70441000Y-60629000D01*
X70481000Y-56654000D02*
X70481000Y-57585000D01*
X70481000Y-59665000D02*
X70481000Y-60596000D01*
X70521000Y-56688000D02*
X70521000Y-57585000D01*
X70521000Y-59665000D02*
X70521000Y-60562000D01*
X70561000Y-56724000D02*
X70561000Y-57585000D01*
X70561000Y-59665000D02*
X70561000Y-60526000D01*
X70601000Y-56761000D02*
X70601000Y-57585000D01*
X70601000Y-59665000D02*
X70601000Y-60489000D01*
X70641000Y-56799000D02*
X70641000Y-57585000D01*
X70641000Y-59665000D02*
X70641000Y-60451000D01*
X70681000Y-56840000D02*
X70681000Y-57585000D01*
X70681000Y-59665000D02*
X70681000Y-60410000D01*
X70721000Y-56882000D02*
X70721000Y-57585000D01*
X70721000Y-59665000D02*
X70721000Y-60368000D01*
X70761000Y-56926000D02*
X70761000Y-57585000D01*
X70761000Y-59665000D02*
X70761000Y-60324000D01*
X70801000Y-56972000D02*
X70801000Y-57585000D01*
X70801000Y-59665000D02*
X70801000Y-60278000D01*
X70841000Y-57020000D02*
X70841000Y-57585000D01*
X70841000Y-59665000D02*
X70841000Y-60230000D01*
X70881000Y-57071000D02*
X70881000Y-57585000D01*
X70881000Y-59665000D02*
X70881000Y-60179000D01*
X70921000Y-57125000D02*
X70921000Y-57585000D01*
X70921000Y-59665000D02*
X70921000Y-60125000D01*
X70961000Y-57182000D02*
X70961000Y-57585000D01*
X70961000Y-59665000D02*
X70961000Y-60068000D01*
X71001000Y-57242000D02*
X71001000Y-57585000D01*
X71001000Y-59665000D02*
X71001000Y-60008000D01*
X71041000Y-57306000D02*
X71041000Y-57585000D01*
X71041000Y-59665000D02*
X71041000Y-59944000D01*
X71081000Y-57374000D02*
X71081000Y-57585000D01*
X71081000Y-59665000D02*
X71081000Y-59876000D01*
X71121000Y-57447000D02*
X71121000Y-59803000D01*
X71161000Y-57527000D02*
X71161000Y-59723000D01*
X71201000Y-57614000D02*
X71201000Y-59636000D01*
X71241000Y-57710000D02*
X71241000Y-59540000D01*
X71281000Y-57820000D02*
X71281000Y-59430000D01*
X71321000Y-57948000D02*
X71321000Y-59302000D01*
X71361000Y-58107000D02*
X71361000Y-59143000D01*
X71401000Y-58341000D02*
X71401000Y-58909000D01*
X71420000Y-58625000D02*
G75*
G02*
X66180000Y-58625000I-2620000J0D01*
G01*
X66180000Y-58625000D02*
G75*
G02*
X71420000Y-58625000I2620000J0D01*
G01*
%TO.C,D5*%
X75670000Y-69990000D02*
X75514000Y-69990000D01*
X77986000Y-69990000D02*
X77830000Y-69990000D01*
X75669939Y-73221397D02*
G75*
G02*
X75514484Y-69990000I1080061J1671397D01*
G01*
X75669951Y-72590910D02*
G75*
G02*
X75670000Y-70509039I1080049J1040910D01*
G01*
X77830000Y-70509039D02*
G75*
G02*
X77830049Y-72590910I-1080000J-1040961D01*
G01*
X77985516Y-69990000D02*
G75*
G02*
X77830061Y-73221397I-1235516J-1560000D01*
G01*
%TO.C,J5*%
X77290000Y-79980000D02*
X77290000Y-78650000D01*
X78620000Y-79980000D02*
X77290000Y-79980000D01*
X79890000Y-77320000D02*
X90110000Y-77320000D01*
X79890000Y-79980000D02*
X79890000Y-77320000D01*
X79890000Y-79980000D02*
X90110000Y-79980000D01*
X90110000Y-79980000D02*
X90110000Y-77320000D01*
%TO.C,R1*%
X81055000Y-64505000D02*
X81055000Y-71045000D01*
X81055000Y-71045000D02*
X83795000Y-71045000D01*
X82425000Y-63735000D02*
X82425000Y-64505000D01*
X82425000Y-71815000D02*
X82425000Y-71045000D01*
X83795000Y-64505000D02*
X81055000Y-64505000D01*
X83795000Y-71045000D02*
X83795000Y-64505000D01*
%TO.C,C1*%
X51202677Y-56975000D02*
X52202677Y-56975000D01*
X51702677Y-56475000D02*
X51702677Y-57475000D01*
X56682323Y-54770000D02*
X56682323Y-64930000D01*
X56722323Y-54770000D02*
X56722323Y-64930000D01*
X56762323Y-54770000D02*
X56762323Y-64930000D01*
X56802323Y-54771000D02*
X56802323Y-64929000D01*
X56842323Y-54772000D02*
X56842323Y-64928000D01*
X56882323Y-54773000D02*
X56882323Y-64927000D01*
X56922323Y-54775000D02*
X56922323Y-64925000D01*
X56962323Y-54777000D02*
X56962323Y-64923000D01*
X57002323Y-54780000D02*
X57002323Y-64920000D01*
X57042323Y-54782000D02*
X57042323Y-64918000D01*
X57082323Y-54785000D02*
X57082323Y-64915000D01*
X57122323Y-54788000D02*
X57122323Y-64912000D01*
X57162323Y-54792000D02*
X57162323Y-64908000D01*
X57202323Y-54796000D02*
X57202323Y-64904000D01*
X57242323Y-54800000D02*
X57242323Y-64900000D01*
X57282323Y-54805000D02*
X57282323Y-64895000D01*
X57322323Y-54810000D02*
X57322323Y-64890000D01*
X57362323Y-54815000D02*
X57362323Y-64885000D01*
X57403323Y-54820000D02*
X57403323Y-64880000D01*
X57443323Y-54826000D02*
X57443323Y-64874000D01*
X57483323Y-54832000D02*
X57483323Y-64868000D01*
X57523323Y-54839000D02*
X57523323Y-64861000D01*
X57563323Y-54846000D02*
X57563323Y-64854000D01*
X57603323Y-54853000D02*
X57603323Y-64847000D01*
X57643323Y-54860000D02*
X57643323Y-64840000D01*
X57683323Y-54868000D02*
X57683323Y-64832000D01*
X57723323Y-54876000D02*
X57723323Y-64824000D01*
X57763323Y-54885000D02*
X57763323Y-64815000D01*
X57803323Y-54894000D02*
X57803323Y-64806000D01*
X57843323Y-54903000D02*
X57843323Y-64797000D01*
X57883323Y-54912000D02*
X57883323Y-64788000D01*
X57923323Y-54922000D02*
X57923323Y-64778000D01*
X57963323Y-54932000D02*
X57963323Y-58609000D01*
X57963323Y-61091000D02*
X57963323Y-64768000D01*
X58003323Y-54943000D02*
X58003323Y-58609000D01*
X58003323Y-61091000D02*
X58003323Y-64757000D01*
X58043323Y-54953000D02*
X58043323Y-58609000D01*
X58043323Y-61091000D02*
X58043323Y-64747000D01*
X58083323Y-54965000D02*
X58083323Y-58609000D01*
X58083323Y-61091000D02*
X58083323Y-64735000D01*
X58123323Y-54976000D02*
X58123323Y-58609000D01*
X58123323Y-61091000D02*
X58123323Y-64724000D01*
X58163323Y-54988000D02*
X58163323Y-58609000D01*
X58163323Y-61091000D02*
X58163323Y-64712000D01*
X58203323Y-55000000D02*
X58203323Y-58609000D01*
X58203323Y-61091000D02*
X58203323Y-64700000D01*
X58243323Y-55013000D02*
X58243323Y-58609000D01*
X58243323Y-61091000D02*
X58243323Y-64687000D01*
X58283323Y-55026000D02*
X58283323Y-58609000D01*
X58283323Y-61091000D02*
X58283323Y-64674000D01*
X58323323Y-55039000D02*
X58323323Y-58609000D01*
X58323323Y-61091000D02*
X58323323Y-64661000D01*
X58363323Y-55053000D02*
X58363323Y-58609000D01*
X58363323Y-61091000D02*
X58363323Y-64647000D01*
X58403323Y-55067000D02*
X58403323Y-58609000D01*
X58403323Y-61091000D02*
X58403323Y-64633000D01*
X58443323Y-55082000D02*
X58443323Y-58609000D01*
X58443323Y-61091000D02*
X58443323Y-64618000D01*
X58483323Y-55096000D02*
X58483323Y-58609000D01*
X58483323Y-61091000D02*
X58483323Y-64604000D01*
X58523323Y-55112000D02*
X58523323Y-58609000D01*
X58523323Y-61091000D02*
X58523323Y-64588000D01*
X58563323Y-55127000D02*
X58563323Y-58609000D01*
X58563323Y-61091000D02*
X58563323Y-64573000D01*
X58603323Y-55143000D02*
X58603323Y-58609000D01*
X58603323Y-61091000D02*
X58603323Y-64557000D01*
X58643323Y-55160000D02*
X58643323Y-58609000D01*
X58643323Y-61091000D02*
X58643323Y-64540000D01*
X58683323Y-55176000D02*
X58683323Y-58609000D01*
X58683323Y-61091000D02*
X58683323Y-64524000D01*
X58723323Y-55193000D02*
X58723323Y-58609000D01*
X58723323Y-61091000D02*
X58723323Y-64507000D01*
X58763323Y-55211000D02*
X58763323Y-58609000D01*
X58763323Y-61091000D02*
X58763323Y-64489000D01*
X58803323Y-55229000D02*
X58803323Y-58609000D01*
X58803323Y-61091000D02*
X58803323Y-64471000D01*
X58843323Y-55247000D02*
X58843323Y-58609000D01*
X58843323Y-61091000D02*
X58843323Y-64453000D01*
X58883323Y-55266000D02*
X58883323Y-58609000D01*
X58883323Y-61091000D02*
X58883323Y-64434000D01*
X58923323Y-55286000D02*
X58923323Y-58609000D01*
X58923323Y-61091000D02*
X58923323Y-64414000D01*
X58963323Y-55305000D02*
X58963323Y-58609000D01*
X58963323Y-61091000D02*
X58963323Y-64395000D01*
X59003323Y-55325000D02*
X59003323Y-58609000D01*
X59003323Y-61091000D02*
X59003323Y-64375000D01*
X59043323Y-55346000D02*
X59043323Y-58609000D01*
X59043323Y-61091000D02*
X59043323Y-64354000D01*
X59083323Y-55367000D02*
X59083323Y-58609000D01*
X59083323Y-61091000D02*
X59083323Y-64333000D01*
X59123323Y-55388000D02*
X59123323Y-58609000D01*
X59123323Y-61091000D02*
X59123323Y-64312000D01*
X59163323Y-55410000D02*
X59163323Y-58609000D01*
X59163323Y-61091000D02*
X59163323Y-64290000D01*
X59203323Y-55433000D02*
X59203323Y-58609000D01*
X59203323Y-61091000D02*
X59203323Y-64267000D01*
X59243323Y-55455000D02*
X59243323Y-58609000D01*
X59243323Y-61091000D02*
X59243323Y-64245000D01*
X59283323Y-55479000D02*
X59283323Y-58609000D01*
X59283323Y-61091000D02*
X59283323Y-64221000D01*
X59323323Y-55503000D02*
X59323323Y-58609000D01*
X59323323Y-61091000D02*
X59323323Y-64197000D01*
X59363323Y-55527000D02*
X59363323Y-58609000D01*
X59363323Y-61091000D02*
X59363323Y-64173000D01*
X59403323Y-55552000D02*
X59403323Y-58609000D01*
X59403323Y-61091000D02*
X59403323Y-64148000D01*
X59443323Y-55577000D02*
X59443323Y-58609000D01*
X59443323Y-61091000D02*
X59443323Y-64123000D01*
X59483323Y-55603000D02*
X59483323Y-58609000D01*
X59483323Y-61091000D02*
X59483323Y-64097000D01*
X59523323Y-55629000D02*
X59523323Y-58609000D01*
X59523323Y-61091000D02*
X59523323Y-64071000D01*
X59563323Y-55656000D02*
X59563323Y-58609000D01*
X59563323Y-61091000D02*
X59563323Y-64044000D01*
X59603323Y-55684000D02*
X59603323Y-58609000D01*
X59603323Y-61091000D02*
X59603323Y-64016000D01*
X59643323Y-55712000D02*
X59643323Y-58609000D01*
X59643323Y-61091000D02*
X59643323Y-63988000D01*
X59683323Y-55740000D02*
X59683323Y-58609000D01*
X59683323Y-61091000D02*
X59683323Y-63960000D01*
X59723323Y-55770000D02*
X59723323Y-58609000D01*
X59723323Y-61091000D02*
X59723323Y-63930000D01*
X59763323Y-55800000D02*
X59763323Y-58609000D01*
X59763323Y-61091000D02*
X59763323Y-63900000D01*
X59803323Y-55830000D02*
X59803323Y-58609000D01*
X59803323Y-61091000D02*
X59803323Y-63870000D01*
X59843323Y-55861000D02*
X59843323Y-58609000D01*
X59843323Y-61091000D02*
X59843323Y-63839000D01*
X59883323Y-55893000D02*
X59883323Y-58609000D01*
X59883323Y-61091000D02*
X59883323Y-63807000D01*
X59923323Y-55925000D02*
X59923323Y-58609000D01*
X59923323Y-61091000D02*
X59923323Y-63775000D01*
X59963323Y-55958000D02*
X59963323Y-58609000D01*
X59963323Y-61091000D02*
X59963323Y-63742000D01*
X60003323Y-55992000D02*
X60003323Y-58609000D01*
X60003323Y-61091000D02*
X60003323Y-63708000D01*
X60043323Y-56026000D02*
X60043323Y-58609000D01*
X60043323Y-61091000D02*
X60043323Y-63674000D01*
X60083323Y-56061000D02*
X60083323Y-58609000D01*
X60083323Y-61091000D02*
X60083323Y-63639000D01*
X60123323Y-56097000D02*
X60123323Y-58609000D01*
X60123323Y-61091000D02*
X60123323Y-63603000D01*
X60163323Y-56134000D02*
X60163323Y-58609000D01*
X60163323Y-61091000D02*
X60163323Y-63566000D01*
X60203323Y-56171000D02*
X60203323Y-58609000D01*
X60203323Y-61091000D02*
X60203323Y-63529000D01*
X60243323Y-56210000D02*
X60243323Y-58609000D01*
X60243323Y-61091000D02*
X60243323Y-63490000D01*
X60283323Y-56249000D02*
X60283323Y-58609000D01*
X60283323Y-61091000D02*
X60283323Y-63451000D01*
X60323323Y-56289000D02*
X60323323Y-58609000D01*
X60323323Y-61091000D02*
X60323323Y-63411000D01*
X60363323Y-56330000D02*
X60363323Y-58609000D01*
X60363323Y-61091000D02*
X60363323Y-63370000D01*
X60403323Y-56372000D02*
X60403323Y-58609000D01*
X60403323Y-61091000D02*
X60403323Y-63328000D01*
X60443323Y-56414000D02*
X60443323Y-63286000D01*
X60483323Y-56458000D02*
X60483323Y-63242000D01*
X60523323Y-56503000D02*
X60523323Y-63197000D01*
X60563323Y-56549000D02*
X60563323Y-63151000D01*
X60603323Y-56596000D02*
X60603323Y-63104000D01*
X60643323Y-56644000D02*
X60643323Y-63056000D01*
X60683323Y-56694000D02*
X60683323Y-63006000D01*
X60723323Y-56744000D02*
X60723323Y-62956000D01*
X60763323Y-56796000D02*
X60763323Y-62904000D01*
X60803323Y-56850000D02*
X60803323Y-62850000D01*
X60843323Y-56905000D02*
X60843323Y-62795000D01*
X60883323Y-56961000D02*
X60883323Y-62739000D01*
X60923323Y-57020000D02*
X60923323Y-62680000D01*
X60963323Y-57080000D02*
X60963323Y-62620000D01*
X61003323Y-57141000D02*
X61003323Y-62559000D01*
X61043323Y-57205000D02*
X61043323Y-62495000D01*
X61083323Y-57271000D02*
X61083323Y-62429000D01*
X61123323Y-57340000D02*
X61123323Y-62360000D01*
X61163323Y-57411000D02*
X61163323Y-62289000D01*
X61203323Y-57485000D02*
X61203323Y-62215000D01*
X61243323Y-57561000D02*
X61243323Y-62139000D01*
X61283323Y-57641000D02*
X61283323Y-62059000D01*
X61323323Y-57725000D02*
X61323323Y-61975000D01*
X61363323Y-57813000D02*
X61363323Y-61887000D01*
X61403323Y-57906000D02*
X61403323Y-61794000D01*
X61443323Y-58004000D02*
X61443323Y-61696000D01*
X61483323Y-58108000D02*
X61483323Y-61592000D01*
X61523323Y-58220000D02*
X61523323Y-61480000D01*
X61563323Y-58340000D02*
X61563323Y-61360000D01*
X61603323Y-58472000D02*
X61603323Y-61228000D01*
X61643323Y-58620000D02*
X61643323Y-61080000D01*
X61683323Y-58788000D02*
X61683323Y-60912000D01*
X61723323Y-58988000D02*
X61723323Y-60712000D01*
X61763323Y-59251000D02*
X61763323Y-60449000D01*
X61802323Y-59850000D02*
G75*
G02*
X51562323Y-59850000I-5120000J0D01*
G01*
X51562323Y-59850000D02*
G75*
G02*
X61802323Y-59850000I5120000J0D01*
G01*
%TD*%
M02*
